<?xml version="1.0" encoding="UTF-8" standalone="no"?>
<svg version="1.1" xmlns="http://www.w3.org/2000/svg" xmlns:xlink="http://www.w3.org/1999/xlink" width="128" height="128">
	<g id="dp_dp001">
		<path id="dp_path002" fill="black" fill-rule="evenodd" d="M 0.0386667,0.164 L 127.801,0.164 L 127.801,128.145 L 0.0386667,128.145 Z "/>
		<path id="dp_path003" fill="#ff1e00" d="M 98.3,48.3587 L 108.852,37.9333 L 53.7413,37.92 L 53.7533,33.7333 C 53.7413,28.8653 57.08,26.228 59.8173,26.1893 C 61.3867,26.1707 61.8267,26.82 62.36,26.4573 C 63.4653,25.7053 61.4253,21.2547 56.7693,19.7973 C 55.1147,19.276 47.812,18.3707 44.9893,17.9653 L 32.4773,16.2507 L 32.4773,110.924 L 96.5467,110.924 L 94.8333,98.412 C 94.4267,95.5907 93.52,88.2893 92.9987,86.6333 C 91.5413,81.9773 87.0907,79.936 86.3387,81.04 C 85.9787,81.5773 86.624,82.0133 86.6053,83.5867 C 86.572,86.324 83.9307,89.6627 79.06,89.6507 L 53.612,89.62 L 53.6333,80.192 L 66.6653,80.236 L 78.0013,69.0173 L 53.6627,69.272 L 53.6773,62.9053 L 83.7813,63.008 L 93.5587,53.1027 L 53.7027,53.1027 L 53.7147,48.344 Z "/>
	</g>
</svg>