<?xml version="1.0" encoding="UTF-8" standalone="no"?>
<!-- Created with Inkscape (http://www.inkscape.org/) -->

<svg
   xmlns:dc="http://purl.org/dc/elements/1.1/"
   xmlns:cc="http://creativecommons.org/ns#"
   xmlns:rdf="http://www.w3.org/1999/02/22-rdf-syntax-ns#"
   xmlns:svg="http://www.w3.org/2000/svg"
   xmlns="http://www.w3.org/2000/svg"
   xmlns:xlink="http://www.w3.org/1999/xlink"
   version="1.1"
   width="273.6875"
   height="173.40625"
   viewBox="0 0 218.95 138.72526"
   id="svg2">
  <metadata
     id="metadata16">
    <rdf:RDF>
      <cc:Work
         rdf:about="">
        <dc:format>image/svg+xml</dc:format>
        <dc:type
           rdf:resource="http://purl.org/dc/dcmitype/StillImage" />
        <dc:title></dc:title>
      </cc:Work>
    </rdf:RDF>
  </metadata>
  <defs
     id="defs14">
    <linearGradient
       id="linearGradient5430">
      <stop
         id="stop5432"
         style="stop-color:#df3323;stop-opacity:1"
         offset="0" />
      <stop
         id="stop5434"
         style="stop-color:#3d0000;stop-opacity:1"
         offset="1" />
    </linearGradient>
    <linearGradient
       x1="134.5764"
       y1="2.2628517"
       x2="134.5764"
       y2="150.06567"
       id="linearGradient5438"
       xlink:href="#linearGradient5430"
       gradientUnits="userSpaceOnUse"
       gradientTransform="matrix(0.80000151,0,0,0.80000151,1.4747917,2.0250038)"
       spreadMethod="pad" />
  </defs>
  <path
     d="m 141.47506,0 -2.025,0.025 -2.20001,0.025 -0.025,0 -0.05,0 c -0.56094,0.029611 -1.70494,0.1655976 -3.625,0.4000007 -1.92006,0.2344032 -4.43694,0.566477 -7.10002,1.0000019 -2.76457,0.4500476 -5.64229,1.0096873 -8.15001,1.6750032 -2.39466,0.6353177 -4.73741,1.1624015 -6.65002,3.0750058 -1.11785,1.1178567 -1.76614,2.3933294 -2.175,3.6250069 C 109.06614,8.5933348 108.41785,7.3178683 107.3,6.2000117 105.38739,4.2874074 103.04464,3.7603236 100.64998,3.1250059 98.142257,2.45969 95.264537,1.9000503 92.499964,1.4500027 89.859095,1.0200941 87.367626,0.683809 85.474951,0.4500008 83.582275,0.2161926 82.445337,0.0816673 81.924944,0.0500001 c -0.002,2.358e-4 -0.0219,2.018e-4 -0.025,0 -0.05436,-0.00354 -0.104368,0.00167 -0.15,0 -0.09126,-0.00334 -0.182568,0.00226 -0.300001,0 -0.234863,-0.00451 -0.536171,-0.022255 -0.825001,-0.025 -0.577661,-0.00549 -1.150002,0 -1.150002,0 l -2.000004,0 0,2.0000038 0,13.0000251 -72.650138,0 -4.82500917679,0 0,8.000015 L 3.3997953,26.45005 42.39987,65.450124 l 0.600001,0.575001 0.825001,0 35.650068,0 0,58.850115 0,4.85001 3.425006,-3.45001 13.575026,-13.62503 0,21.22504 0,4.85001 3.425005,-3.45 14.575033,-14.62503 0,4.22501 0,4.82501 3.42501,-3.40001 21.00004,-21.00004 0.575,-0.60001 0,-0.825 0,-37.850065 35.65006,0 0.825,0 0.6,-0.575001 39.00008,-39.000074 3.4,-3.425006 0,-8.000015 -4.82501,0 -72.65013,0 0,-13.0000251 z m -59.875116,4.0500076 0.075,0 c 0.01691,0.00103 1.091842,0.132738 1.725003,0.2000004 z m 55.700106,0 0.075,0 0.1,0 0,0.2250004 -2,0 c 0.72505,-0.076119 1.78584,-0.2215776 1.825,-0.2250004 z M 83.824948,4.3000081 c 0.505641,0.055705 0.521361,0.044253 1.175002,0.1250002 1.655203,0.2044728 3.853399,0.5170549 6.125012,0.8750017 C 88.120084,4.8294493 85.543799,4.4927178 83.824948,4.3000081 z m 50.925102,0.05 c -1.61252,0.1827352 -3.91957,0.4916419 -6.57501,0.9000017 2.14817,-0.332921 4.26472,-0.6314689 5.85001,-0.8250016 0.40573,-0.049532 0.36769,-0.034762 0.725,-0.075 z m -34.950073,2.675005 c 1.462323,0.389813 2.501633,0.7939944 3.350013,1.2250023 -0.15979,-0.072953 -0.27743,-0.1411677 -0.475,-0.2250004 -0.73852,-0.313363 -1.74502,-0.6878195 -2.875013,-1.0000019 z m 19.350043,0 c -1.12999,0.3121818 -2.13649,0.686639 -2.87501,1.0000019 -0.19757,0.083833 -0.31521,0.1520469 -0.475,0.2250004 0.84838,-0.4310079 1.88769,-0.8351893 3.35001,-1.2250023 z m -33.675069,1.550003 c 1.673843,0.2029118 3.290574,0.3746285 5.750011,0.7750014 2.615437,0.4257684 5.275002,0.9244885 7.350015,1.4750025 0.97355,0.25829 1.877973,0.600456 2.525003,0.875002 0.2086,0.08851 0.35117,0.155736 0.50001,0.225 0.0575,0.137843 0.13205,0.275764 0.2,0.475002 0.0976,0.286085 0.1654,0.634726 0.25,0.975001 -0.97037,0.241444 -2.243943,0.668929 -3.400013,1.825004 -1.3422,1.342202 -1.77999,2.924928 -1.975005,3.900007 -0.207144,1.03545 -0.201016,1.881533 -0.2,1.925004 2.4e-5,0.0011 0,0.05 0,0.05 l 0,16.950032 -65.325124,0 -3.000005,-3.000006 27.325051,0 0.825002,0 0.600001,-0.575001 4.000008,-4.000007 3.400006,-3.425007 -4.825009,0 -39.325074,0 -4.000008,-4.000007 58.47511,0 -5.57501,5.57501 -3.400007,3.425007 4.82501,0 13.000024,0 2.000004,0 0,-2.000004 z m 48.000099,0 0,21.4500409 0,2.000004 2,0 13.00002,0 4.82501,0 -3.4,-3.425007 -5.57501,-5.57501 58.47511,0 -4.00001,4.000007 -39.32508,0 -4.825,0 3.4,3.425007 4.00001,4.000007 0.6,0.575001 0.825,0 27.32505,0 -3,3.000006 -65.32513,0 0,-16.950032 c 0,0 -2e-5,-0.04888 0,-0.05 0.001,-0.04347 0.007,-0.889474 -0.2,-1.925004 -0.19501,-0.975067 -0.63279,-2.557801 -1.975,-3.900007 -1.15607,-1.156066 -2.42964,-1.583559 -3.40001,-1.825004 0.0846,-0.340275 0.15244,-0.688916 0.25,-0.975001 0.0679,-0.199238 0.14251,-0.337159 0.20001,-0.475002 0.14882,-0.06926 0.2914,-0.136491 0.5,-0.225 0.64703,-0.274545 1.55145,-0.616712 2.525,-0.875002 2.07501,-0.550514 4.73458,-1.0492341 7.35001,-1.4750025 2.45944,-0.4003729 4.07617,-0.5720896 5.75002,-0.7750014 z M 105.44999,10.75002 c 0.36286,0.911786 0.61428,1.899778 0.775,3.025006 0.11508,0.806639 0.13951,1.402629 0.2,1.950004 l 0.025,1.300002 -1.975,0 1.725,-0.025 0.1,-1.875003 c 0,0 0.031,-0.608393 -0.075,-1.350003 -0.13725,-0.96083 -0.38475,-1.897196 -0.65,-2.675005 -0.0439,-0.128608 -0.0802,-0.229896 -0.125,-0.350001 z m 8.05002,0 c -0.0448,0.120105 -0.0811,0.221393 -0.125,0.350001 -0.26525,0.777809 -0.51275,1.714175 -0.65,2.675005 0.16075,-1.125247 0.41213,-2.113214 0.775,-3.025006 z m -0.875,4.125008 -0.1,1.575003 0,-0.725001 c 0.0264,-0.239123 0.0753,-0.570767 0.1,-0.850002 z m -0.125,2.125004 1.975,0.025 -1,0 -0.975,0 z m -8.17502,0.025 c -0.041,0.0024 -0.4443,0.04387 -0.975,0.150001 -0.36337,0.07267 -0.66015,0.160047 -0.9,0.25 -0.0624,0.02341 -0.11939,0.02704 -0.175,0.05 0.33272,-0.161248 0.70162,-0.275325 1.075,-0.35 0.48654,-0.09731 0.975,-0.100001 0.975,-0.100001 z m 10.27502,0 c 0.17915,0.0019 0.4303,-0.01394 1,0.100001 0.37338,0.07468 0.74228,0.188751 1.075,0.35 -0.0556,-0.02295 -0.11256,-0.02659 -0.175,-0.05 -0.23984,-0.08995 -0.53662,-0.177325 -0.9,-0.25 -0.54393,-0.108764 -0.97882,-0.148809 -1,-0.150001 z m -13.67503,1.800004 c -0.0229,0.0556 -0.0266,0.112574 -0.05,0.175 -0.0899,0.239816 -0.17732,0.536711 -0.25,0.900002 -0.10298,0.515223 -0.12122,0.888151 -0.125,0.950002 2.7e-4,-0.09844 -0.0292,-0.429085 0.075,-0.950002 0.0747,-0.373381 0.18875,-0.742282 0.35,-1.075002 z m 17.10004,0 c 0.16124,0.332717 0.27532,0.701615 0.35,1.075002 0.1042,0.520844 0.0747,0.851573 0.075,0.950002 -0.004,-0.06189 -0.0219,-0.434562 -0.125,-0.950002 -0.0727,-0.36332 -0.16004,-0.660121 -0.25,-0.900002 -0.0234,-0.06244 -0.027,-0.119368 -0.05,-0.175 z m -13.55003,10.200019 c 0.0155,-0.0012 0.1,0 0.1,0 l 1.9,0 1.97501,0 0.025,0 2,0 0.025,0 2.97501,0 0.9,0 c 0,0 0.0845,-0.0012 0.1,0 l 0,0.1 0,8.900017 -10.00002,0 0,-8.900017 z m -23.000047,-7.150014 0,6.150012 -6.150011,0 5.57501,-5.57501 z m 56.000107,0 0.575,0.575002 5.57501,5.57501 -6.15001,0 z m -98.325187,24.150046 57.325109,0 0,38.000072 0,4.825009 3.425005,-3.400007 4.000013,-4.000007 0.575,-0.600001 0,-0.825002 0,-34.000064 10.00002,0 0,38.000072 0,4.825009 3.42501,-3.400007 4,-4.000007 0.575,-0.600001 0,-0.825002 0,-34.000064 57.32511,0 -4,4.000008 -42.32508,0 -2.00001,0 0,2.000003 0,41.325078 -9.00002,9.000014 0,-12.32502 0,-4.825009 -3.425,3.400006 -4.00001,4.000008 -0.575,0.600001 0,0.825002 0,7.325012 -10.00002,10.00002 0,-21.17504 0,-4.825009 -3.42501,3.400007 -13.575025,13.600022 0,-50.325092 0,-2.000003 -2.000004,0 -42.32508,0 z"
     id="path3892"
     style="font-size:medium;font-style:normal;font-variant:normal;font-weight:normal;font-stretch:normal;text-indent:0;text-align:start;text-decoration:none;line-height:normal;letter-spacing:normal;word-spacing:normal;text-transform:none;direction:ltr;block-progression:tb;writing-mode:lr-tb;text-anchor:start;baseline-shift:baseline;color:#000000;fill:#000000;fill-opacity:1;fill-rule:nonzero;stroke:none;stroke-width:5;marker:none;visibility:visible;display:inline;overflow:visible;enable-background:accumulate;font-family:Sans;-inkscape-font-specification:Sans" />
  <path
     d="m 80.899942,3.4500065 0,13.5750255 c 0.0057,0.747658 -0.677344,1.430652 -1.425003,1.425003 l -74.4251406,0 36.1500686,36.150068 40.275076,0 c 0.747658,-0.0057 1.430651,0.677345 1.425003,1.425003 l 0,57.425104 14.575031,-14.625023 c 0.39153,-0.399953 1.03245,-0.531513 1.54988,-0.318145 0.51742,0.213376 0.87931,0.758473 0.87512,1.318146 l 0,22.625042 15.575033,-15.62503 c 0.39153,-0.39995 1.03246,-0.53151 1.54988,-0.31814 0.51743,0.21337 0.87932,0.75847 0.87512,1.31814 l 0,5.62501 18.15004,-18.15003 0,-39.275074 c -0.006,-0.747658 0.67734,-1.430652 1.425,-1.425003 l 40.27508,0 36.15007,-36.150068 -74.42514,0 c -0.74766,0.0057 -1.43066,-0.677345 -1.42501,-1.425003 l 0,-13.5500255 -0.75,0 0,-0.025 c -0.12117,0.00807 -1.49587,0.1472265 -3.35,0.3750007 -1.88147,0.2311324 -4.34424,0.5758045 -6.95002,1.0000019 -2.69691,0.4390327 -5.46733,0.9811276 -7.80001,1.600003 -2.41264,0.6400874 -3.98999,1.0649805 -5.12501,2.2000042 -1.33333,1.3333278 -1.65391,3.1773877 -1.92501,5.0750097 -0.12252,0.857658 -0.14082,1.502959 -0.2,2.025004 l -0.025,1.875003 1.55001,0 1,0 c 0.0252,0.0076 0.0502,0.01597 0.075,0.025 0,0 0.40683,0.02138 0.925,0.125 0.31902,0.0638 0.5829,0.143578 0.8,0.225001 0.10855,0.04071 0.21314,0.08552 0.3,0.125 0.0434,0.01974 0.0715,0.02167 0.125,0.05 0.0535,0.02833 0.0276,-0.07243 0.375,0.275001 0.34819,0.347604 0.24662,0.321414 0.275,0.375 0.0284,0.05358 0.0302,0.08154 0.05,0.125001 0.0395,0.08692 0.0843,0.191437 0.125,0.3 0.0814,0.217128 0.16121,0.481024 0.225,0.800002 0.10364,0.518223 0.125,0.925002 0.125,0.925002 0.009,0.02476 0.0174,0.04978 0.025,0.075 l 0,19.000036 c 0.006,0.747644 -0.67732,1.430629 -1.42496,1.425002 l -14.00002,0 c -0.74766,0.0057 -1.43065,-0.677344 -1.42501,-1.425002 l 0,-19.000036 c 0.008,-0.02522 0.016,-0.05024 0.025,-0.075 0,0 0.0214,-0.406945 0.125,-0.925002 0.0638,-0.318958 0.1436,-0.582921 0.225,-0.800002 0.0407,-0.10854 0.0855,-0.213147 0.125,-0.3 0.0198,-0.04342 0.0217,-0.0715 0.05,-0.125001 0.0283,-0.0535 -0.0723,-0.02764 0.275,-0.375 0.34793,-0.348311 0.32148,-0.246652 0.37501,-0.275001 0.0535,-0.02835 0.0816,-0.03026 0.125,-0.05 0.0869,-0.03949 0.19144,-0.08429 0.3,-0.125 0.21711,-0.08142 0.48099,-0.161197 0.8,-0.225001 0.51824,-0.103637 0.925,-0.125 0.925,-0.125 0.0247,-0.009 0.0498,-0.01737 0.075,-0.025 l 2,0 0.55,0 -0.025,-1.875003 c -0.0591,-0.521651 -0.0776,-1.167032 -0.2,-2.025004 -0.271,-1.897581 -0.59162,-3.7416741 -1.92496,-5.0750097 C 103.73996,7.4899926 102.16262,7.0650995 99.749977,6.4250121 97.417297,5.8061367 94.64688,5.2640418 91.949963,4.8250091 89.364134,4.4040604 86.933122,4.0566076 85.07495,3.8250072 83.216778,3.5934068 81.821792,3.4558999 81.724944,3.4500065 c -0.01664,2.946e-4 -0.03336,2.946e-4 -0.05,0 -5.04e-4,-3.11e-5 -0.05432,-0.00264 -0.05,0 -0.0108,-3.603e-4 -0.03648,3.705e-4 -0.05,0 -0.05408,-0.00148 -0.114734,0.00133 -0.2,0 -0.130649,-0.00204 -0.307376,0.00137 -0.475001,0 z"
     id="path3885"
     style="font-size:medium;font-style:normal;font-variant:normal;font-weight:normal;font-stretch:normal;text-indent:0;text-align:start;text-decoration:none;line-height:normal;letter-spacing:normal;word-spacing:normal;text-transform:none;direction:ltr;block-progression:tb;writing-mode:lr-tb;text-anchor:start;baseline-shift:baseline;color:#000000;fill:url(#linearGradient5438);fill-opacity:1;stroke:none;stroke-width:4.00000763;marker:none;visibility:visible;display:inline;overflow:visible;enable-background:accumulate;font-family:Sans;-inkscape-font-specification:Sans" />
  <path
     d="m 79.474939,2.0250038 0,15.0000282 -77.850147,0 39.000074,39.000074 40.850077,0 0,60.850114 17.000034,-17.050032 c 0,8.683352 0,17.366702 0,26.050052 l 18.000033,-18.05004 0,9.05002 21.00004,-21.000039 0,-39.850075 40.85008,0 39.00007,-39.000074 -77.85014,0 0,-15.0000282 -2.19342,0.030005 c -0.56842,0.030005 -5.24819,0.5139758 -10.50661,1.3699977 -2.72494,0.4435953 -5.54482,0.9868914 -7.95001,1.6250031 -2.40519,0.6381117 -4.29291,1.1178968 -5.75001,2.5750049 -1.70711,1.7071081 -2.05238,3.9666185 -2.32501,5.8750105 -0.14279,0.999532 -0.19036,1.874272 -0.23268,2.199639 l -0.0423,3.325372 3.00001,0 1,0 c 0,0 0.30115,0.01525 0.725,0.1 0.42385,0.08477 0.84641,0.271405 0.875,0.300001 0.0286,0.02859 0.21523,0.451146 0.3,0.875001 0.0848,0.423855 0.1,0.725002 0.1,0.725002 l 0,19.000036 -14.00002,0 0,-19.000036 c 0,0 0.0153,-0.301147 0.1,-0.725002 0.0848,-0.423855 0.2714,-0.846406 0.3,-0.875001 0.0286,-0.02859 0.45115,-0.21523 0.875,-0.300001 0.4239,-0.08477 0.725,-0.1 0.725,-0.1 l 2,0 2.00001,0 -0.0424,-3.325372 c -0.0423,-0.325367 -0.0901,-1.200107 -0.23264,-2.199639 -0.27262,-1.908392 -0.61788,-4.1679025 -2.32499,-5.8750106 -1.4571,-1.4571081 -3.34482,-1.9368932 -5.75001,-2.5750049 C 97.719787,4.4118978 94.899905,3.8686017 92.174963,3.4250064 86.958546,2.5758217 82.355913,2.0923049 81.802928,2.0586543 81.714408,2.034763 79.474939,2.0250038 79.474939,2.0250038 z m 4.000008,4.250008 c 1.883196,0.2104537 4.619937,0.537548 8.075015,1.1000021 2.650061,0.4314048 5.361455,0.9443646 7.550015,1.5250029 2.188563,0.5806383 3.932123,1.4821112 3.975013,1.5250032 0.29289,0.292891 0.94763,2.033399 1.175,3.625006 0.0742,0.519018 0.05,0.975002 0.05,0.975002 0,0 -0.64839,0.0097 -1.34996,0.150001 -0.82616,0.165229 -1.90361,0.478597 -2.87501,1.450002 -0.971403,0.971405 -1.284773,2.048861 -1.450003,2.875006 -0.16527,0.826145 -0.15004,1.525003 -0.15004,1.525003 l 0,19.000036 -68.17513,0 -7.000014,-7.000014 32.175061,0 4.000008,-4.000007 -40.175076,0 -8.000015,-8.000015 68.175128,0 -9.000017,9.000017 13.000025,0 z m 52.000103,0 0,23.7500452 13.00002,0 -9.00001,-9.000017 68.17512,0 -8.00001,8.000015 -40.17508,0 4.00001,4.000007 32.17506,0 -7.00001,7.000014 -68.17513,0 0,-19.000036 c 0,0 0.0153,-0.698858 -0.15,-1.525003 -0.16523,-0.826145 -0.47859,-1.903601 -1.45,-2.875006 -0.97141,-0.971405 -2.04886,-1.284773 -2.87501,-1.450002 -0.74271,-0.148543 -1.25461,-0.148713 -1.375,-0.150001 0.034,-0.432859 8e-4,-0.455984 0.075,-0.975002 0.22737,-1.591607 0.88211,-3.332115 1.175,-3.625006 0.0429,-0.0429 1.78645,-0.9443649 3.97501,-1.5250032 2.18855,-0.5806383 4.89995,-1.0935981 7.55001,-1.5250029 3.45508,-0.5624541 6.19182,-0.8895484 8.07502,-1.1000021 z M 34.299854,44.025083 l 64.175123,0 0,40.000076 4.000013,-4.000008 0,-36.000068 14.00002,0 0,40.000076 4.00001,-4.000008 0,-36.000068 64.17512,0 -8.00001,8.000015 -43.17509,0 0,42.17508 -13.00002,13.000022 0,-17.17503 -4.00001,4.000007 0,8.175013 -14.00002,14.00003 0,-26.02505 -17.000039,17.02503 0,-55.175102 -43.175082,0 z"
     id="stroke_curved_top_left"
     style="font-size:medium;font-style:normal;font-variant:normal;font-weight:normal;font-stretch:normal;text-indent:0;text-align:start;text-decoration:none;line-height:normal;letter-spacing:normal;word-spacing:normal;text-transform:none;direction:ltr;block-progression:tb;writing-mode:lr-tb;text-anchor:start;baseline-shift:baseline;color:#000000;fill:#ffffff;fill-opacity:1;stroke:none;stroke-width:1;marker:none;visibility:visible;display:inline;overflow:visible;enable-background:accumulate;font-family:Sans;-inkscape-font-specification:Sans" />
  <g
     transform="translate(1.4749954,152.42528)"
     id="g3771">
    <path
       d="m 103,15 c 0,0 -2,0 -3,1 -1,1 -1,3 -1,3 M 80,2 c 0,0 20,2 23,5 2,2 2,8 2,8"
       id="path3773"
       style="fill:none;stroke:#000000;stroke-width:4.00000763;stroke-linecap:round;stroke-miterlimit:4;stroke-dasharray:none" />
    <path
       d="m 113,15 c 0,0 2,0 3,1 1,1 1,3 1,3 M 136,2 c 0,0 -20,2 -23,5 -2,2 -2,8 -2,8"
       id="path3775"
       style="fill:none;stroke:#000000;stroke-width:4.00000763;stroke-linecap:round;stroke-miterlimit:4;stroke-dasharray:none" />
    <path
       d="m 99,19 c 0,0 0,58 0,58 M 82,93 c 0,0 0,-41 0,-41 0,0 -42,0 -42,0 0,0 -35,-35 -35,-35 0,0 75,0 75,0 m 25,-2 c 0,0 -2,0 -2,0 M 80,2 c 0,0 0,24 0,24 m -27,3 c 0,0 -36,0 -36,0 m 91,11 c 0,0 -80,0 -80,0"
       id="path3777"
       style="fill:none;stroke:#000000;stroke-width:4.00000763;stroke-linecap:round;stroke-miterlimit:4;stroke-dasharray:none" />
    <path
       d="m 117,19 c 0,0 0,58 0,58 m 17,16 c 0,0 0,-41 0,-41 0,0 42,0 42,0 0,0 35,-35 35,-35 0,0 -75,0 -75,0 m -25,-2 c 0,0 2,0 2,0 M 136,2 c 0,0 0,24 0,24 m 27,3 c 0,0 36,0 36,0 m -91,11 c 0,0 80,0 80,0"
       id="path3779"
       style="fill:none;stroke:#000000;stroke-width:4.00000763;stroke-linecap:round;stroke-miterlimit:4;stroke-dasharray:none" />
    <path
       d="m 134,89 c 0,0 0,4 0,4 0,0 -17,17 -17,17 0,0 0,-9 0,-9 0,0 -18,18 -18,18 0,0 0,-26 0,-26 0,0 -17,17 -17,17 0,0 0,-17 0,-17 m 35,0 c 0,0 0,8 0,8"
       id="path3781"
       style="fill:none;stroke:#000000;stroke-width:4.00000763;stroke-linecap:round;stroke-miterlimit:4;stroke-dasharray:none" />
    <path
       d="m 138,2 c 0,0 0,-2 0,-2 0,0 -2,0 -2,0 0,0 0,2 0,2 0,0 2,0 2,0 z m -4,24 c 0,0 0,2 0,2 0,0 13,0 13,0 0,0 -9,-9 -9,-9 0,0 -4,0 -4,0 0,0 0,7 0,7 z m 30,5 c 0,0 -2,0 -2,0 0,0 -4,-4 -4,-4 0,0 6,0 6,0 0,0 0,4 0,4 z M 112,17 c 0,0 -3,0 -3,0 0,0 0,-3 0,-3 0,0 3,0 3,0 0,0 0,3 0,3 z"
       id="path3783"
       style="fill:#000000;fill-opacity:1;stroke:none" />
    <path
       d="m 78,2 c 0,0 0,-2 0,-2 0,0 2,0 2,0 0,0 0,2 0,2 0,0 -2,0 -2,0 z m 4,24 c 0,0 0,2 0,2 0,0 -13,0 -13,0 0,0 9,-9 9,-9 0,0 4,0 4,0 0,0 0,7 0,7 z m -30,5 c 0,0 2,0 2,0 0,0 4,-4 4,-4 0,0 -6,0 -6,0 0,0 0,4 0,4 z m 52,-14 c 0,0 3,0 3,0 0,0 0,-3 0,-3 0,0 -3,0 -3,0 0,0 0,3 0,3 z"
       id="path3785"
       style="fill:#000000;fill-opacity:1;stroke:none" />
    <path
       d="m 97,82 c 0,0 4,-4 4,-4 0,0 0,-1 0,-1 0,0 -4,0 -4,0 0,0 0,5 0,5 z m 18,0 c 0,0 4,-4 4,-4 0,0 0,-1 0,-1 0,0 -4,0 -4,0 0,0 0,5 0,5 z m 0,11 c 0,0 4,0 4,0 0,0 0,-5 0,-5 0,0 -4,4 -4,4 0,0 0,1 0,1 z"
       id="path3787"
       style="fill:#000000;fill-opacity:1;stroke:none" />
  </g>
</svg>
