<?xml version="1.0" encoding="utf-8"?>
<!-- Generator: Adobe Illustrator 17.0.0, SVG Export Plug-In . SVG Version: 6.00 Build 0)  -->
<!DOCTYPE svg PUBLIC "-//W3C//DTD SVG 1.1//EN" "http://www.w3.org/Graphics/SVG/1.1/DTD/svg11.dtd">
<svg version="1.1" id="Layer_1" xmlns="http://www.w3.org/2000/svg" xmlns:xlink="http://www.w3.org/1999/xlink" x="0px" y="0px"
	 width="2000px" height="2000px" viewBox="0 0 2000 2000" enable-background="new 0 0 2000 2000" xml:space="preserve">
<path fill="#FF1E00" d="M1397.908,1348.203l0.038,0v49.743c-0.016,109.889-89.098,198.971-198.973,198.973H602.054v-198.973H1000
	l198.973-198.973H602.054v-99.486h696.406l198.973-198.973H602.054v-99.487h994.865l198.973-198.973H602.054V403.081
	c0.002-109.875,89.084-198.957,198.973-198.973h49.743l0,0.038c0-82.417-66.813-149.23-149.23-149.23L204.108,5.135v1989.731
	h1392.811c0,0-49.782-497.432-49.782-497.432C1547.138,1415.016,1480.325,1348.203,1397.908,1348.203"/>
</svg>
