<?xml version="1.0" encoding="UTF-8" standalone="no"?>
<!-- Created with Inkscape (http://www.inkscape.org/) -->

<svg
   xmlns:dc="http://purl.org/dc/elements/1.1/"
   xmlns:cc="http://creativecommons.org/ns#"
   xmlns:rdf="http://www.w3.org/1999/02/22-rdf-syntax-ns#"
   xmlns:svg="http://www.w3.org/2000/svg"
   xmlns="http://www.w3.org/2000/svg"
   version="1.1"
   width="128"
   height="128"
   id="svg3270">
  <defs
     id="defs3272" />
  <metadata
     id="metadata3275">
    <rdf:RDF>
      <cc:Work
         rdf:about="">
        <dc:format>image/svg+xml</dc:format>
        <dc:type
           rdf:resource="http://purl.org/dc/dcmitype/StillImage" />
        <dc:title></dc:title>
      </cc:Work>
    </rdf:RDF>
  </metadata>
  <g
     transform="translate(0,-924.36218)"
     id="layer1">
    <g
       transform="matrix(2.0181317,0,0,2.0181317,-1559.0547,-239.52865)"
       id="g2997">
      <path
         d="m 828.513,598.227 7.069,-6.984 -36.921,-0.01 0.008,-2.803 c -0.008,-3.262 2.229,-5.029 4.063,-5.055 1.052,-0.012 1.346,0.422 1.704,0.18 0.74,-0.504 -0.627,-3.486 -3.746,-4.461 -1.109,-0.35 -6.001,-0.957 -7.891,-1.229 l -8.383,-1.148 v 63.425 h 42.923 l -1.149,-8.383 c -0.271,-1.889 -0.879,-6.781 -1.229,-7.891 -0.975,-3.119 -3.957,-4.486 -4.461,-3.746 -0.242,0.359 0.191,0.652 0.179,1.705 -0.023,1.834 -1.792,4.07 -5.055,4.063 l -17.05,-0.02 0.016,-6.316 8.73,0.029 7.594,-7.516 -16.305,0.17 0.01,-4.265 20.168,0.07 6.55,-6.637 h -26.701 l 0.008,-3.188 29.869,0.01 z"
         id="path2999"
         style="fill:#ff1e00" />
    </g>
  </g>
</svg>
