<?xml version="1.0" encoding="utf-8"?>
<!-- Generator: Adobe Illustrator 16.0.0, SVG Export Plug-In . SVG Version: 6.00 Build 0)  -->
<!DOCTYPE svg PUBLIC "-//W3C//DTD SVG 1.1//EN" "http://www.w3.org/Graphics/SVG/1.1/DTD/svg11.dtd">
<svg version="1.1"
	 id="svg559" xmlns:sodipodi="http://sodipodi.sourceforge.net/DTD/sodipodi-0.dtd" sodipodi:version="0.33" sodipodi:docbase="/home/zinx/tmp" sodipodi:docname="/home/zinx/tmp/wet"
	 xmlns="http://www.w3.org/2000/svg" xmlns:xlink="http://www.w3.org/1999/xlink" x="0px" y="0px" width="200px" height="200px"
	 viewBox="474.678 525.5 200 200" enable-background="new 474.678 525.5 200 200" xml:space="preserve">
<sodipodi:namedview  id="base"></sodipodi:namedview>
<g>
	<path fill="#FF1E00" d="M447.27-45.785c-0.563-3.933-1.827-14.111-2.557-16.42c-2.026-6.492-8.232-9.338-9.282-7.797
		c-0.503,0.748,0.399,1.359,0.372,3.547c-0.05,3.819-3.729,8.473-10.52,8.457l-35.48-0.042l0.193-77.915
		c-0.016-6.789,4.637-10.469,8.457-10.518c2.188-0.028,2.8,0.874,3.547,0.372c1.541-1.05-1.305-7.256-7.797-9.282
		c-2.309-0.729-12.488-1.994-16.42-2.558l-17.445-2.392v131.992h89.324L447.27-45.785z"/>
</g>
<sodipodi:namedview  id="base"></sodipodi:namedview>
<path fill="#FF1E00" d="M312.173-87.716l10.014-9.894l-52.3-0.013l0.01-3.97c-0.011-4.621,3.156-7.126,5.756-7.16
	c1.489-0.019,1.906,0.596,2.415,0.253c1.049-0.714-0.888-4.938-5.308-6.318c-1.571-0.496-8.5-1.356-11.177-1.74l-11.875-1.628
	v89.845h60.802l-1.629-11.874c-0.383-2.677-1.244-9.605-1.74-11.178c-1.379-4.418-5.604-6.355-6.318-5.307
	c-0.342,0.509,0.272,0.925,0.253,2.415c-0.034,2.6-2.539,5.767-7.161,5.756l-24.151-0.028l0.022-8.947l12.367,0.04l10.757-10.646
	l-23.098,0.241l0.016-6.041l28.568,0.099l9.278-9.401h-37.824l0.011-4.516L312.173-87.716z"/>
<g>
	<g>
		<path fill="#FF1E00" d="M828.513,598.227l7.069-6.984l-36.921-0.01l0.008-2.803c-0.008-3.262,2.229-5.029,4.063-5.055
			c1.052-0.012,1.346,0.422,1.704,0.18c0.74-0.504-0.627-3.486-3.746-4.461c-1.109-0.35-6.001-0.957-7.891-1.229l-8.383-1.148
			v63.425h42.923l-1.149-8.383c-0.271-1.889-0.879-6.781-1.229-7.891c-0.975-3.119-3.957-4.486-4.461-3.746
			c-0.242,0.359,0.191,0.652,0.179,1.705c-0.023,1.834-1.792,4.07-5.055,4.063l-17.05-0.02l0.016-6.316l8.73,0.029l7.594-7.516
			l-16.305,0.17l0.01-4.265l20.168,0.07l6.55-6.637h-26.701l0.008-3.188L828.513,598.227z"/>
	</g>
	<g>
		<path fill="#FFFFFF" d="M778.409,671.152v3.132h-9.862v-25.197h3.563v22.065H778.409z"/>
		<path fill="#FFFFFF" d="M784.062,652.255v7.848h5.867v3.167h-5.867v7.883h7.883v3.132h-11.446v-25.197h11.446v3.168H784.062z"/>
		<path fill="#FFFFFF" d="M793.458,671.044c-0.756-1.547-0.792-2.915-0.792-3.059v-12.599c0-0.144,0.036-1.513,0.792-3.06
			c1.044-2.088,3.095-3.24,5.724-3.24c2.627,0,4.679,1.152,5.723,3.24c0.756,1.547,0.792,2.916,0.792,3.06v1.583h-3.6v-1.583
			c0-0.576-0.36-3.132-2.915-3.132c-2.557,0-2.952,2.592-2.952,3.132v12.599c0,0.539,0.396,3.167,2.952,3.167
			c2.555,0,2.915-2.591,2.915-3.167v-4.716h-2.34v-3.167h5.939v7.883c0,0.144-0.036,1.512-0.792,3.059
			c-1.044,2.088-3.096,3.24-5.723,3.24C796.553,674.284,794.502,673.132,793.458,671.044z"/>
		<path fill="#FFFFFF" d="M816.785,666.401h-5.256l-1.691,7.883h-3.636l5.399-25.197h5.111l5.399,25.197h-3.636L816.785,666.401z
			 M816.101,663.27l-1.943-9.034c-0.685,3.059-1.296,5.975-1.944,9.034H816.101z"/>
		<path fill="#FFFFFF" d="M824.994,671.044c-0.756-1.547-0.792-2.915-0.792-3.059v-12.599c0-0.144,0.036-1.513,0.792-3.06
			c1.044-2.088,3.096-3.24,5.723-3.24c2.628,0,4.68,1.152,5.724,3.24c0.756,1.547,0.792,2.916,0.792,3.06v1.583h-3.6v-1.583
			c0-0.576-0.359-3.132-2.916-3.132c-2.555,0-2.951,2.592-2.951,3.132v12.599c0,0.539,0.396,3.167,2.951,3.167
			c2.557,0,2.916-2.591,2.916-3.167v-1.584h3.6v1.584c0,0.144-0.036,1.512-0.792,3.059c-1.044,2.088-3.096,3.24-5.724,3.24
			C828.09,674.284,826.038,673.132,824.994,671.044z"/>
		<path fill="#FFFFFF" d="M851.453,649.087l-5.328,12.923v12.274h-3.563V662.01l-5.327-12.923h3.852l3.239,7.92
			c1.08-2.664,2.196-5.256,3.276-7.92H851.453z"/>
	</g>
</g>
<g>
	<path fill="#FF1E00" d="M363.19,598.226l7.069-6.984l-36.921-0.008l0.008-2.803c-0.008-3.262,2.229-5.031,4.063-5.055
		c1.052-0.014,1.346,0.42,1.704,0.178c0.74-0.504-0.627-3.486-3.746-4.459c-1.109-0.352-6.001-0.959-7.891-1.229l-8.383-1.15v63.426
		h42.923l-1.149-8.383c-0.271-1.889-0.879-6.781-1.229-7.891c-0.975-3.119-3.957-4.486-4.461-3.746
		c-0.242,0.359,0.191,0.652,0.179,1.705c-0.023,1.834-1.792,4.07-5.055,4.063l-17.05-0.02l0.016-6.316l8.73,0.029l7.594-7.516
		l-16.305,0.17l0.01-4.264l20.168,0.068l6.55-6.637h-26.701l0.008-3.188L363.19,598.226z"/>
	<g>
		<path d="M313.087,671.152v3.132h-9.862v-25.197h3.563v22.065H313.087z"/>
		<path d="M318.739,652.255v7.848h5.867v3.167h-5.867v7.883h7.883v3.132h-11.446v-25.197h11.446v3.168H318.739z"/>
		<path d="M328.136,671.044c-0.756-1.547-0.792-2.915-0.792-3.059v-12.599c0-0.144,0.036-1.513,0.792-3.06
			c1.044-2.088,3.095-3.24,5.724-3.24c2.627,0,4.679,1.152,5.723,3.24c0.756,1.547,0.792,2.916,0.792,3.06v1.583h-3.6v-1.583
			c0-0.576-0.36-3.132-2.915-3.132c-2.557,0-2.952,2.592-2.952,3.132v12.599c0,0.539,0.396,3.167,2.952,3.167
			c2.555,0,2.915-2.591,2.915-3.167v-4.716h-2.34v-3.167h5.939v7.883c0,0.144-0.036,1.512-0.792,3.059
			c-1.044,2.088-3.096,3.24-5.723,3.24C331.23,674.284,329.18,673.132,328.136,671.044z"/>
		<path d="M351.463,666.401h-5.256l-1.691,7.883h-3.636l5.399-25.197h5.111l5.399,25.197h-3.636L351.463,666.401z M350.778,663.27
			l-1.943-9.034c-0.685,3.059-1.296,5.975-1.944,9.034H350.778z"/>
		<path d="M359.672,671.044c-0.756-1.547-0.792-2.915-0.792-3.059v-12.599c0-0.144,0.036-1.513,0.792-3.06
			c1.044-2.088,3.096-3.24,5.723-3.24c2.628,0,4.68,1.152,5.724,3.24c0.756,1.547,0.792,2.916,0.792,3.06v1.583h-3.6v-1.583
			c0-0.576-0.359-3.132-2.916-3.132c-2.555,0-2.951,2.592-2.951,3.132v12.599c0,0.539,0.396,3.167,2.951,3.167
			c2.557,0,2.916-2.591,2.916-3.167v-1.584h3.6v1.584c0,0.144-0.036,1.512-0.792,3.059c-1.044,2.088-3.096,3.24-5.724,3.24
			C362.768,674.284,360.716,673.132,359.672,671.044z"/>
		<path d="M386.131,649.087l-5.328,12.923v12.274h-3.563V662.01l-5.327-12.923h3.852l3.239,7.92c1.08-2.664,2.196-5.256,3.276-7.92
			H386.131z"/>
	</g>
</g>
<g>
	<g>
		<path fill="#FF1E00" d="M75.836,617.551l4.122-4.072l-21.527-0.004l0.004-1.635c-0.004-1.902,1.299-2.934,2.369-2.947
			c0.613-0.008,0.785,0.246,0.994,0.104c0.432-0.293-0.365-2.031-2.184-2.6c-0.647-0.205-3.499-0.559-4.601-0.717l-4.888-0.67v36.98
			h25.026l-0.67-4.889c-0.158-1.1-0.512-3.953-0.716-4.6c-0.568-1.818-2.308-2.615-2.601-2.184
			c-0.142,0.209,0.111,0.381,0.104,0.994c-0.014,1.068-1.045,2.373-2.947,2.369l-9.941-0.012l0.009-3.684l5.09,0.018l4.427-4.383
			l-9.506,0.1l0.006-2.486l11.758,0.041l3.819-3.871H58.417l0.004-1.857L75.836,617.551z"/>
	</g>
	<g>
		<path d="M110.187,634.966v3.133h-9.863v-25.197h3.563v22.064H110.187z"/>
		<path d="M115.839,616.069v7.848h5.867v3.166h-5.867v7.883h7.883v3.133h-11.446v-25.197h11.446v3.168H115.839z"/>
		<path d="M125.235,634.858c-0.756-1.547-0.792-2.916-0.792-3.059v-12.6c0-0.143,0.036-1.512,0.792-3.059
			c1.044-2.088,3.095-3.24,5.723-3.24c2.627,0,4.679,1.152,5.723,3.24c0.756,1.547,0.792,2.916,0.792,3.059v1.584h-3.6V619.2
			c0-0.576-0.36-3.131-2.916-3.131s-2.952,2.592-2.952,3.131v12.6c0,0.539,0.396,3.166,2.952,3.166s2.916-2.59,2.916-3.166v-4.717
			h-2.34v-3.166h5.939v7.883c0,0.143-0.036,1.512-0.792,3.059c-1.044,2.088-3.096,3.24-5.723,3.24
			C128.331,638.099,126.279,636.946,125.235,634.858z"/>
		<path d="M148.562,630.216h-5.255l-1.692,7.883h-3.635l5.399-25.197h5.111l5.399,25.197h-3.636L148.562,630.216z M147.878,627.083
			l-1.943-9.033c-0.684,3.059-1.296,5.975-1.944,9.033H147.878z"/>
		<path d="M156.771,634.858c-0.756-1.547-0.792-2.916-0.792-3.059v-12.6c0-0.143,0.036-1.512,0.792-3.059
			c1.044-2.088,3.095-3.24,5.723-3.24c2.627,0,4.679,1.152,5.723,3.24c0.756,1.547,0.792,2.916,0.792,3.059v1.584h-3.6V619.2
			c0-0.576-0.36-3.131-2.916-3.131s-2.952,2.592-2.952,3.131v12.6c0,0.539,0.396,3.166,2.952,3.166s2.916-2.59,2.916-3.166v-1.584
			h3.6v1.584c0,0.143-0.036,1.512-0.792,3.059c-1.044,2.088-3.096,3.24-5.723,3.24C159.867,638.099,157.815,636.946,156.771,634.858
			z"/>
		<path d="M183.23,612.901l-5.328,12.922v12.275h-3.563v-12.275l-5.327-12.922h3.852l3.239,7.92c1.08-2.664,2.196-5.256,3.276-7.92
			H183.23z"/>
	</g>
	<g>
		<rect x="89" y="599.088" fill="#FF1E00" width="1" height="52.824"/>
	</g>
</g>
<g>
	<g>
		<path d="M177.198,790.989l4.074-4.024l-21.274-0.005l0.004-1.615c-0.004-1.879,1.284-2.899,2.341-2.913
			c0.605-0.007,0.775,0.242,0.981,0.104c0.426-0.291-0.361-2.009-2.159-2.57c-0.639-0.202-3.457-0.552-4.546-0.707l-4.83-0.663
			v36.548h24.732l-0.662-4.831c-0.156-1.088-0.506-3.907-0.708-4.546c-0.562-1.798-2.281-2.586-2.57-2.16
			c-0.14,0.208,0.11,0.376,0.103,0.983c-0.013,1.056-1.032,2.346-2.913,2.341l-9.825-0.012l0.01-3.64l5.03,0.018l4.376-4.33
			l-9.395,0.098l0.005-2.458l11.621,0.04l3.774-3.825h-15.386l0.005-1.835L177.198,790.989z"/>
		<g>
			<path d="M148.328,833.011v1.805h-5.683v-14.52h2.053v12.715H148.328z"/>
			<path d="M151.584,822.123v4.521h3.381v1.825h-3.381v4.542h4.542v1.805h-6.596v-14.52h6.596v1.827H151.584z"/>
			<path d="M156.999,832.949c-0.436-0.892-0.457-1.681-0.457-1.763v-7.259c0-0.084,0.021-0.873,0.457-1.764
				c0.601-1.204,1.783-1.868,3.298-1.868c1.514,0,2.696,0.664,3.298,1.868c0.436,0.891,0.456,1.68,0.456,1.764v0.911h-2.074v-0.911
				c0-0.334-0.208-1.805-1.68-1.805c-1.473,0-1.701,1.491-1.701,1.805v7.259c0,0.31,0.229,1.824,1.701,1.824
				c1.472,0,1.68-1.493,1.68-1.824v-2.718h-1.348v-1.825h3.422v4.543c0,0.082-0.021,0.871-0.456,1.763
				c-0.602,1.202-1.784,1.866-3.298,1.866C158.782,834.815,157.6,834.151,156.999,832.949z"/>
			<path d="M170.44,830.273h-3.029l-0.974,4.542h-2.095l3.111-14.52h2.945l3.111,14.52h-2.095L170.44,830.273z M170.046,828.469
				l-1.12-5.205c-0.395,1.762-0.747,3.441-1.12,5.205H170.046z"/>
			<path d="M175.17,832.949c-0.435-0.892-0.456-1.681-0.456-1.763v-7.259c0-0.084,0.021-0.873,0.456-1.764
				c0.602-1.204,1.784-1.868,3.298-1.868c1.514,0,2.697,0.664,3.298,1.868c0.436,0.891,0.456,1.68,0.456,1.764v0.911h-2.073v-0.911
				c0-0.334-0.207-1.805-1.681-1.805c-1.472,0-1.7,1.491-1.7,1.805v7.259c0,0.31,0.229,1.824,1.7,1.824
				c1.474,0,1.681-1.493,1.681-1.824v-0.913h2.073v0.913c0,0.082-0.02,0.871-0.456,1.763c-0.601,1.202-1.784,1.866-3.298,1.866
				C176.955,834.815,175.772,834.151,175.17,832.949z"/>
			<path d="M190.417,820.296l-3.07,7.446v7.073h-2.053v-7.073l-3.07-7.446h2.219l1.867,4.563c0.622-1.534,1.266-3.027,1.888-4.563
				H190.417z"/>
		</g>
	</g>
	<g>
		<g>
			<path d="M57.6,802.172l2.351-2.322l-12.275-0.002l0.002-0.932c-0.002-1.086,0.741-1.674,1.352-1.682
				c0.35-0.005,0.447,0.141,0.566,0.059c0.246-0.167-0.208-1.157-1.245-1.481c-0.369-0.117-1.996-0.318-2.624-0.409l-2.787-0.382
				v21.089h14.271l-0.382-2.788c-0.09-0.627-0.292-2.254-0.408-2.624c-0.324-1.036-1.316-1.491-1.483-1.245
				c-0.081,0.119,0.063,0.218,0.059,0.567c-0.008,0.609-0.596,1.354-1.681,1.352l-5.669-0.007l0.006-2.101l2.903,0.01l2.524-2.499
				l-5.421,0.057l0.003-1.418l6.706,0.023l2.178-2.207h-8.877l0.002-1.061L57.6,802.172z"/>
		</g>
		<g>
			<path d="M77.188,812.103v1.787h-5.624v-14.369h2.032v12.582H77.188z"/>
			<path d="M80.412,801.327v4.476h3.346v1.805h-3.346v4.495h4.495v1.787h-6.527v-14.369h6.527v1.807H80.412z"/>
			<path d="M85.77,812.041c-0.431-0.882-0.451-1.662-0.451-1.743v-7.186c0-0.081,0.021-0.861,0.451-1.743
				c0.596-1.191,1.766-1.849,3.264-1.849c1.499,0,2.668,0.657,3.264,1.849c0.432,0.882,0.452,1.662,0.452,1.743v0.903h-2.053v-0.903
				c0-0.328-0.206-1.785-1.663-1.785c-1.457,0-1.683,1.478-1.683,1.785v7.186c0,0.308,0.226,1.805,1.683,1.805
				c1.458,0,1.663-1.477,1.663-1.805v-2.69h-1.334v-1.805h3.387v4.495c0,0.081-0.021,0.861-0.452,1.743
				c-0.595,1.191-1.765,1.849-3.264,1.849C87.535,813.89,86.365,813.232,85.77,812.041z"/>
			<path d="M99.072,809.395h-2.997l-0.965,4.495h-2.073l3.079-14.369h2.915l3.079,14.369h-2.073L99.072,809.395z M98.682,807.607
				l-1.108-5.15c-0.39,1.743-0.739,3.407-1.108,5.15H98.682z"/>
			<path d="M103.753,812.041c-0.431-0.882-0.451-1.662-0.451-1.743v-7.186c0-0.081,0.021-0.861,0.451-1.743
				c0.595-1.191,1.765-1.849,3.264-1.849s2.668,0.657,3.264,1.849c0.431,0.882,0.452,1.662,0.452,1.743v0.903h-2.053v-0.903
				c0-0.328-0.206-1.785-1.663-1.785c-1.458,0-1.683,1.478-1.683,1.785v7.186c0,0.308,0.226,1.805,1.683,1.805
				c1.457,0,1.663-1.477,1.663-1.805v-0.903h2.053v0.903c0,0.081-0.021,0.861-0.452,1.743c-0.595,1.191-1.765,1.849-3.264,1.849
				S104.349,813.232,103.753,812.041z"/>
			<path d="M118.841,799.521l-3.038,7.369v7h-2.032v-7l-3.038-7.369h2.196l1.847,4.516c0.616-1.519,1.252-2.996,1.868-4.516H118.841
				z"/>
		</g>
		<g>
			<rect x="65.106" y="791.644" width="0.57" height="30.123"/>
		</g>
	</g>
</g>
<g>
	<g>
		<path fill="#FF1E00" d="M533.836,617.551l4.122-4.072l-21.527-0.004l0.005-1.635c-0.005-1.902,1.299-2.934,2.369-2.947
			c0.613-0.008,0.784,0.246,0.993,0.104c0.432-0.293-0.365-2.031-2.185-2.6c-0.646-0.205-3.498-0.559-4.6-0.717l-4.889-0.67v36.98
			h25.026l-0.67-4.889c-0.158-1.1-0.512-3.953-0.716-4.6c-0.568-1.818-2.308-2.615-2.601-2.184
			c-0.142,0.209,0.111,0.381,0.104,0.994c-0.014,1.068-1.045,2.373-2.947,2.369l-9.94-0.012l0.009-3.684l5.091,0.018l4.427-4.383
			l-9.507,0.1l0.006-2.486l11.759,0.041l3.819-3.871h-15.568l0.005-1.857L533.836,617.551z"/>
	</g>
	<g>
		<path fill="#FFFFFF" d="M568.187,634.966v3.133h-9.862v-25.197h3.563v22.064H568.187z"/>
		<path fill="#FFFFFF" d="M573.839,616.069v7.848h5.867v3.166h-5.867v7.883h7.883v3.133h-11.446v-25.197h11.446v3.168H573.839z"/>
		<path fill="#FFFFFF" d="M583.235,634.858c-0.756-1.547-0.792-2.916-0.792-3.059v-12.6c0-0.143,0.036-1.512,0.792-3.059
			c1.044-2.088,3.095-3.24,5.724-3.24c2.627,0,4.679,1.152,5.723,3.24c0.756,1.547,0.792,2.916,0.792,3.059v1.584h-3.6V619.2
			c0-0.576-0.36-3.131-2.915-3.131c-2.557,0-2.952,2.592-2.952,3.131v12.6c0,0.539,0.396,3.166,2.952,3.166
			c2.555,0,2.915-2.59,2.915-3.166v-4.717h-2.34v-3.166h5.939v7.883c0,0.143-0.036,1.512-0.792,3.059
			c-1.044,2.088-3.096,3.24-5.723,3.24C586.33,638.099,584.279,636.946,583.235,634.858z"/>
		<path fill="#FFFFFF" d="M606.563,630.216h-5.256l-1.691,7.883h-3.636l5.399-25.197h5.111l5.399,25.197h-3.636L606.563,630.216z
			 M605.878,627.083l-1.943-9.033c-0.685,3.059-1.296,5.975-1.944,9.033H605.878z"/>
		<path fill="#FFFFFF" d="M614.771,634.858c-0.756-1.547-0.792-2.916-0.792-3.059v-12.6c0-0.143,0.036-1.512,0.792-3.059
			c1.044-2.088,3.096-3.24,5.723-3.24c2.628,0,4.68,1.152,5.724,3.24c0.756,1.547,0.792,2.916,0.792,3.059v1.584h-3.6V619.2
			c0-0.576-0.359-3.131-2.916-3.131c-2.555,0-2.951,2.592-2.951,3.131v12.6c0,0.539,0.396,3.166,2.951,3.166
			c2.557,0,2.916-2.59,2.916-3.166v-1.584h3.6v1.584c0,0.143-0.036,1.512-0.792,3.059c-1.044,2.088-3.096,3.24-5.724,3.24
			C617.867,638.099,615.815,636.946,614.771,634.858z"/>
		<path fill="#FFFFFF" d="M641.23,612.901l-5.328,12.922v12.275h-3.563v-12.275l-5.327-12.922h3.852l3.239,7.92
			c1.08-2.664,2.196-5.256,3.276-7.92H641.23z"/>
	</g>
	<g>
		<rect x="547" y="599.088" fill="#FF1E00" width="1" height="52.824"/>
	</g>
</g>
<rect x="16.678" y="855.674" width="200" height="99.826"/>
<g>
	<g>
		<path fill="#FFFFFF" d="M177.198,888.267l4.074-4.024l-21.274-0.005l0.004-1.615c-0.004-1.879,1.284-2.899,2.341-2.913
			c0.605-0.007,0.775,0.242,0.981,0.104c0.426-0.291-0.361-2.009-2.159-2.57c-0.639-0.202-3.457-0.552-4.546-0.707l-4.83-0.663
			v36.548h24.732l-0.662-4.831c-0.156-1.088-0.506-3.907-0.708-4.546c-0.562-1.798-2.281-2.586-2.57-2.16
			c-0.14,0.208,0.11,0.376,0.103,0.983c-0.013,1.056-1.032,2.346-2.913,2.341l-9.825-0.012l0.01-3.64l5.03,0.018l4.376-4.33
			l-9.395,0.098l0.005-2.458l11.621,0.04l3.774-3.825h-15.386l0.005-1.835L177.198,888.267z"/>
		<g>
			<path fill="#FFFFFF" d="M148.328,930.288v1.805h-5.683v-14.52h2.053v12.715H148.328z"/>
			<path fill="#FFFFFF" d="M151.584,919.4v4.521h3.381v1.825h-3.381v4.542h4.542v1.805h-6.596v-14.52h6.596v1.827H151.584z"/>
			<path fill="#FFFFFF" d="M156.999,930.227c-0.436-0.892-0.457-1.681-0.457-1.763v-7.259c0-0.084,0.021-0.873,0.457-1.764
				c0.601-1.204,1.783-1.868,3.298-1.868c1.514,0,2.696,0.664,3.298,1.868c0.436,0.891,0.456,1.68,0.456,1.764v0.911h-2.074v-0.911
				c0-0.334-0.208-1.805-1.68-1.805c-1.473,0-1.701,1.491-1.701,1.805v7.259c0,0.31,0.229,1.824,1.701,1.824
				c1.472,0,1.68-1.493,1.68-1.824v-2.718h-1.348v-1.825h3.422v4.543c0,0.082-0.021,0.871-0.456,1.763
				c-0.602,1.202-1.784,1.866-3.298,1.866C158.782,932.093,157.6,931.429,156.999,930.227z"/>
			<path fill="#FFFFFF" d="M170.44,927.551h-3.029l-0.974,4.542h-2.095l3.111-14.52h2.945l3.111,14.52h-2.095L170.44,927.551z
				 M170.046,925.746l-1.12-5.205c-0.395,1.762-0.747,3.441-1.12,5.205H170.046z"/>
			<path fill="#FFFFFF" d="M175.17,930.227c-0.435-0.892-0.456-1.681-0.456-1.763v-7.259c0-0.084,0.021-0.873,0.456-1.764
				c0.602-1.204,1.784-1.868,3.298-1.868c1.514,0,2.697,0.664,3.298,1.868c0.436,0.891,0.456,1.68,0.456,1.764v0.911h-2.073v-0.911
				c0-0.334-0.207-1.805-1.681-1.805c-1.472,0-1.7,1.491-1.7,1.805v7.259c0,0.31,0.229,1.824,1.7,1.824
				c1.474,0,1.681-1.493,1.681-1.824v-0.913h2.073v0.913c0,0.082-0.02,0.871-0.456,1.763c-0.601,1.202-1.784,1.866-3.298,1.866
				C176.955,932.093,175.772,931.429,175.17,930.227z"/>
			<path fill="#FFFFFF" d="M190.417,917.573l-3.07,7.446v7.073h-2.053v-7.073l-3.07-7.446h2.219l1.867,4.563
				c0.622-1.534,1.266-3.027,1.888-4.563H190.417z"/>
		</g>
	</g>
	<g>
		<g>
			<path fill="#FFFFFF" d="M57.6,899.449l2.351-2.322l-12.275-0.002l0.002-0.932c-0.002-1.086,0.741-1.674,1.352-1.682
				c0.35-0.005,0.447,0.141,0.566,0.059c0.246-0.167-0.208-1.157-1.245-1.481c-0.369-0.117-1.996-0.318-2.624-0.409l-2.787-0.382
				v21.089h14.271l-0.382-2.788c-0.09-0.627-0.292-2.254-0.408-2.624c-0.324-1.036-1.316-1.491-1.483-1.245
				c-0.081,0.119,0.063,0.218,0.059,0.567c-0.008,0.609-0.596,1.354-1.681,1.352l-5.669-0.007l0.006-2.101l2.903,0.01l2.524-2.499
				l-5.421,0.057l0.003-1.418l6.706,0.023l2.178-2.207h-8.877l0.002-1.061L57.6,899.449z"/>
		</g>
		<g>
			<path fill="#FFFFFF" d="M77.188,909.38v1.787h-5.624v-14.369h2.032v12.582H77.188z"/>
			<path fill="#FFFFFF" d="M80.412,898.604v4.476h3.346v1.805h-3.346v4.495h4.495v1.787h-6.527v-14.369h6.527v1.807H80.412z"/>
			<path fill="#FFFFFF" d="M85.77,909.318c-0.431-0.882-0.451-1.662-0.451-1.743v-7.186c0-0.081,0.021-0.861,0.451-1.743
				c0.596-1.191,1.766-1.849,3.264-1.849c1.499,0,2.668,0.657,3.264,1.849c0.432,0.882,0.452,1.662,0.452,1.743v0.903h-2.053v-0.903
				c0-0.328-0.206-1.785-1.663-1.785c-1.457,0-1.683,1.478-1.683,1.785v7.186c0,0.308,0.226,1.805,1.683,1.805
				c1.458,0,1.663-1.477,1.663-1.805v-2.69h-1.334v-1.805h3.387v4.495c0,0.081-0.021,0.861-0.452,1.743
				c-0.595,1.191-1.765,1.849-3.264,1.849C87.535,911.167,86.365,910.51,85.77,909.318z"/>
			<path fill="#FFFFFF" d="M99.072,906.672h-2.997l-0.965,4.495h-2.073l3.079-14.369h2.915l3.079,14.369h-2.073L99.072,906.672z
				 M98.682,904.885l-1.108-5.15c-0.39,1.743-0.739,3.407-1.108,5.15H98.682z"/>
			<path fill="#FFFFFF" d="M103.753,909.318c-0.431-0.882-0.451-1.662-0.451-1.743v-7.186c0-0.081,0.021-0.861,0.451-1.743
				c0.595-1.191,1.765-1.849,3.264-1.849s2.668,0.657,3.264,1.849c0.431,0.882,0.452,1.662,0.452,1.743v0.903h-2.053v-0.903
				c0-0.328-0.206-1.785-1.663-1.785c-1.458,0-1.683,1.478-1.683,1.785v7.186c0,0.308,0.226,1.805,1.683,1.805
				c1.457,0,1.663-1.477,1.663-1.805v-0.903h2.053v0.903c0,0.081-0.021,0.861-0.452,1.743c-0.595,1.191-1.765,1.849-3.264,1.849
				S104.349,910.51,103.753,909.318z"/>
			<path fill="#FFFFFF" d="M118.841,896.798l-3.038,7.369v7h-2.032v-7l-3.038-7.369h2.196l1.847,4.516
				c0.616-1.519,1.252-2.996,1.868-4.516H118.841z"/>
		</g>
		<g>
			<rect x="65.106" y="888.921" fill="#FFFFFF" width="0.57" height="30.123"/>
		</g>
	</g>
</g>
<rect x="168.52" y="392.588" fill="none" width="403.48" height="53.997"/>
<text transform="matrix(1 0 0 1 168.52 434.5879)" fill="#FF1E00" font-family="'Kenzo'" font-size="60">kenzo regular</text>
</svg>
