<svg xmlns="http://www.w3.org/2000/svg" viewBox="0 0 256 128"><path d="M203.8,67.7a2.2,2.2,0,0,1,2.1,1.2l13,28.8a2,2,0,0,1-.5,2.3l-.3.2a2.5,2.5,0,0,0-.8,2.3l.3,1.2a1.6,1.6,0,0,0,1.8,1.1l32.7-6a1.3,1.3,0,0,0,1.1-1.6l-.3-1.2a2.7,2.7,0,0,0-1.8-1.8l-2.6-.6c-4.7-12.8-30.5-49-2.1-52l-5.6-6.9a5.5,5.5,0,0,0-2.4-1.5L233,31.8a3.9,3.9,0,0,1-2.1-1.7l-1.3-2.7a20.7,20.7,0,0,0-1.5-2.5H228a3.2,3.2,0,0,0-2.3-1.3l-4.7-.3a2.4,2.4,0,0,0-2.2,1.1l-1.8,3a2.7,2.7,0,0,1-2.1,1.3H149.5a4,4,0,0,1-2.4-1,3.4,3.4,0,0,0-4.8,0,4,4,0,0,1-2.4,1H134a1.5,1.5,0,0,0-1.5,1.4v1.1a1.5,1.5,0,0,1-1.5,1.5h-1a1.5,1.5,0,0,0-1.5,1.4v4.1a1.5,1.5,0,0,0,1.5,1.5h0a1.5,1.5,0,0,1,1.5,1.4v9.1a1.5,1.5,0,0,0,1.5,1.5h30a1.5,1.5,0,0,1,1.5,1.4v1.1c4.5.4,14.6-1.7,16.9,3.5-.5,5.2,2.1,10.3,7.9,10.8Zm-18.3-6.6a3.7,3.7,0,0,1,1-2.2l.2-.3a3.9,3.9,0,0,1,2.5-1h3.6a3.9,3.9,0,0,1,2.5,1l.2.3a3.7,3.7,0,0,1,1,2.2,4.3,4.3,0,0,1-1,2.2l-.2.2a4.1,4.1,0,0,1-2.5,1.1h-3.6a4.1,4.1,0,0,1-2.5-1.1l-.2-.2A4.3,4.3,0,0,1,185.5,61.1Z" style="fill:#fff"/><path d="M203.8,67.7a2.2,2.2,0,0,1,2.1,1.2l13,28.8a2,2,0,0,1-.5,2.3l-.3.2a2.5,2.5,0,0,0-.8,2.3l.3,1.2a1.6,1.6,0,0,0,1.8,1.1l32.7-6a1.3,1.3,0,0,0,1.1-1.6l-.3-1.2a2.7,2.7,0,0,0-1.8-1.8l-2.6-.6c-4.7-12.8-30.5-49-2.1-52l-5.6-6.9a5.5,5.5,0,0,0-2.4-1.5L233,31.8a3.9,3.9,0,0,1-2.1-1.7l-1.3-2.7a20.7,20.7,0,0,0-1.5-2.5H228a3.2,3.2,0,0,0-2.3-1.3l-4.7-.3a2.4,2.4,0,0,0-2.2,1.1l-1.8,3a2.7,2.7,0,0,1-2.1,1.3H149.5a4,4,0,0,1-2.4-1,3.4,3.4,0,0,0-4.8,0,4,4,0,0,1-2.4,1H134a1.5,1.5,0,0,0-1.5,1.4v1.1a1.5,1.5,0,0,1-1.5,1.5h-1a1.5,1.5,0,0,0-1.5,1.4v4.1a1.5,1.5,0,0,0,1.5,1.5h0a1.5,1.5,0,0,1,1.5,1.4v9.1a1.5,1.5,0,0,0,1.5,1.5h30a1.5,1.5,0,0,1,1.5,1.4v1.1c4.5.4,14.6-1.7,16.9,3.5-.5,5.2,2.1,10.3,7.9,10.8Zm-18.3-6.6a3.7,3.7,0,0,1,1-2.2l.2-.3a3.9,3.9,0,0,1,2.5-1h3.6a3.9,3.9,0,0,1,2.5,1l.2.3a3.7,3.7,0,0,1,1,2.2,4.3,4.3,0,0,1-1,2.2l-.2.2a4.1,4.1,0,0,1-2.5,1.1h-3.6a4.1,4.1,0,0,1-2.5-1.1l-.2-.2A4.3,4.3,0,0,1,185.5,61.1Z" style="fill:none;stroke:#231f20;stroke-miterlimit:10;stroke-width:1.4544159608544192px"/><rect x="66" y="27.1" width="64" height="27" rx="3" style="fill:#fff"/><rect x="66" y="27.1" width="64" height="27" rx="3" style="fill:none;stroke:#231f20;stroke-miterlimit:10;stroke-width:2.0039177314724785px"/></svg>