<svg xmlns="http://www.w3.org/2000/svg" viewBox="0 0 256 256"><path d="M217.7,194.1a11.1,11.1,0,0,1,.7,5.7l-6.9,36.1a4.4,4.4,0,0,1-3.5,3.3l-98.1,11.3a4.5,4.5,0,0,1-4.3-2.3L59.3,159.5a7,7,0,0,0-4.3-3.2l-9.1-1.8a5.4,5.4,0,0,1-3.6-3.6l-4.7-22.1a7.1,7.1,0,0,1,1.2-5.3l4.3-5.3a15,15,0,0,0,2.4-5.3l5.9-29.1a4.4,4.4,0,0,1,3.5-3.3l10.3-1.4a3.3,3.3,0,0,0,3-3.2A15.6,15.6,0,0,0,67,70.3L40.1,6.6c-.6-1.5-.4-1.6.5-.2l39.7,60A11.9,11.9,0,0,0,84.7,70l5.4,2.2a14.6,14.6,0,0,0,5.8.8L156,67.2c1.6-.2,3.4.6,3.9,1.8a5.4,5.4,0,0,0,4,2.3l7.1.4a5.5,5.5,0,0,1,4.2,2.9l5.5,12.5a7.2,7.2,0,0,1-.1,5.4l-3.8,7.4a6.5,6.5,0,0,0-.1,5.3Z" style="fill:#fff"/><path d="M217.7,194.1a11.1,11.1,0,0,1,.7,5.7l-6.9,36.1a4.4,4.4,0,0,1-3.5,3.3l-98.1,11.3a4.5,4.5,0,0,1-4.3-2.3L59.3,159.5a7,7,0,0,0-4.3-3.2l-9.1-1.8a5.4,5.4,0,0,1-3.6-3.6l-4.7-22.1a7.1,7.1,0,0,1,1.2-5.3l4.3-5.3a15,15,0,0,0,2.4-5.3l5.9-29.1a4.4,4.4,0,0,1,3.5-3.3l10.3-1.4a3.3,3.3,0,0,0,3-3.2A15.6,15.6,0,0,0,67,70.3L40.1,6.6c-.6-1.5-.4-1.6.5-.2l39.7,60A11.9,11.9,0,0,0,84.7,70l5.4,2.2a14.6,14.6,0,0,0,5.8.8L156,67.2c1.6-.2,3.4.6,3.9,1.8a5.4,5.4,0,0,0,4,2.3l7.1.4a5.5,5.5,0,0,1,4.2,2.9l5.5,12.5a7.2,7.2,0,0,1-.1,5.4l-3.8,7.4a6.5,6.5,0,0,0-.1,5.3Z" style="fill:none;stroke:#231f20;stroke-miterlimit:10;stroke-width:3px"/></svg>