<svg xmlns="http://www.w3.org/2000/svg" viewBox="0 0 64 32"><path d="M27,22.3h-.2L6.2,19.4a3.2,3.2,0,0,1-1.8-1l-.7-.7a2.3,2.3,0,0,1-.6-2.1l.3-1.8a2.4,2.4,0,0,1,1.2-1.7l1.5-.8a4.3,4.3,0,0,1,1.7-.4h.3l20.1,2.9a1.7,1.7,0,0,1,1,.6,1.2,1.2,0,0,1,.2,1l-.9,5.7A1.6,1.6,0,0,1,27,22.3Z" style="fill:#fff"/><path d="M7.8,11.4h.3l20.1,2.9a.9.9,0,0,1,.7,1.1L28,21a1,1,0,0,1-1,.8h-.1L6.3,18.9a2.7,2.7,0,0,1-1.6-.8L4,17.3a2.2,2.2,0,0,1-.4-1.6l.3-1.8a2.3,2.3,0,0,1,1-1.4l1.4-.8a3.7,3.7,0,0,1,1.5-.3m0-1a5.3,5.3,0,0,0-1.9.4l-1.5.8a3.2,3.2,0,0,0-1.5,2.1l-.3,1.8A2.8,2.8,0,0,0,3.3,18l.7.8a4.2,4.2,0,0,0,2.2,1.1l20.6,2.9H27a2,2,0,0,0,2-1.6l.9-5.7a1.7,1.7,0,0,0-.3-1.4,2.2,2.2,0,0,0-1.3-.8L8.2,10.4Z" style="fill:#231f20"/><path d="M25.4,30.9h-.2L4.7,28a3.9,3.9,0,0,1-1.9-1l-.7-.8a2.5,2.5,0,0,1-.6-2l.3-1.9A3,3,0,0,1,3,20.6l1.5-.8a4.3,4.3,0,0,1,1.7-.4h.4l20.1,2.9a1.8,1.8,0,0,1,.9.6,1.4,1.4,0,0,1,.2,1.1l-.9,5.6a1.6,1.6,0,0,1-1.5,1.3Z" style="fill:#fff"/><path d="M6.2,19.9h.3l20.1,2.9a1.1,1.1,0,0,1,.8,1.1l-1,5.7a1.1,1.1,0,0,1-1,.8h-.1L4.7,27.5a2.9,2.9,0,0,1-1.5-.9l-.8-.7A2.3,2.3,0,0,1,2,24.3l.3-1.9a1.9,1.9,0,0,1,1-1.3l1.4-.8a3.7,3.7,0,0,1,1.5-.4m0-1a3.8,3.8,0,0,0-1.9.5l-1.5.8a3.4,3.4,0,0,0-1.5,2L1,24.1a2.7,2.7,0,0,0,.7,2.4l.7.8a3.6,3.6,0,0,0,2.2,1.1l20.6,2.9h.2a2,2,0,0,0,2-1.7l.9-5.6a1.9,1.9,0,0,0-.3-1.5,2.2,2.2,0,0,0-1.3-.8L6.6,19Z" style="fill:#231f20"/><path d="M17.5,30.1h-.2l-2.5-.4a1.1,1.1,0,0,1-.9-.5,2.3,2.3,0,0,1-.3-1.1l2.7-14.9A1.4,1.4,0,0,1,17.7,12H18l2.3.4a1.5,1.5,0,0,1,.9.6,1.4,1.4,0,0,1,.3,1.1L18.9,28.9A1.4,1.4,0,0,1,17.5,30.1Z" style="fill:#fff"/><path d="M17.7,12.5h.2l2.3.4A1,1,0,0,1,21,14L18.5,28.8a1,1,0,0,1-1,.8h-.1l-2.5-.4a.9.9,0,0,1-.8-1l2.7-14.9a1.1,1.1,0,0,1,.9-.8m0-1h0a2,2,0,0,0-1.9,1.6L13.2,28a1.7,1.7,0,0,0,.3,1.4,1.6,1.6,0,0,0,1.2.8l2.5.4h.3A1.9,1.9,0,0,0,19.4,29L22,14.1a1.8,1.8,0,0,0-.4-1.4,2,2,0,0,0-1.2-.8L18,11.6Z" style="fill:#231f20"/><path d="M60.5,25.3a1.1,1.1,0,0,1-1.1-.6l-1.2-2.6a2,2,0,0,0-.7-.6L36.8,14.3h-.3l-.6.2-.6.3a.6.6,0,0,0-.1.4l1,2.1a1,1,0,0,1,.1.9.9.9,0,0,1-.6.7l-.5.2-.5.2a1.2,1.2,0,0,1-1.1-.7l-2.8-5.9c-.1-.3-.5-.5-.7-.6L17.9,8.7H16.8l-.8.3-1.2.2h-.5l-3-.5A2,2,0,0,1,10,7.7L9.6,6.5a3.3,3.3,0,0,1-.1-1.7L9.8,4a2.3,2.3,0,0,1,1-1.4l1.4-1a2.2,2.2,0,0,1,1.4-.5h.2l3.8.5a1.8,1.8,0,0,1,1.4.9l.3.5.8.6L32.9,7.4h1.2l1.4-.3h1.6l10.2,3.2h1.1l1.4-.4h1.7l5.8,2.3a1.9,1.9,0,0,1,1.2,1.3l1,3.2a6.9,6.9,0,0,0,.5,1.3l2.4,5.1a1.2,1.2,0,0,1-.5,1.6l-.9.4Z" style="fill:#fff"/><path d="M13.6,1.6h.2l3.7.5a1.4,1.4,0,0,1,1.1.7l.3.5a2.3,2.3,0,0,0,1.1.8L32.8,7.9h1.4l1.4-.3H37l10.2,3.2h1.4l1.3-.5h1.4l5.9,2.3a2,2,0,0,1,.8,1l1,3.1c.1.4.4,1,.5,1.4L62,23.4a.7.7,0,0,1-.4,1l-.8.4h-.3a.7.7,0,0,1-.7-.4l-1.2-2.5a2.2,2.2,0,0,0-1-.9L36.9,13.8h-.4l-.9.3-.5.3a.7.7,0,0,0-.3,1l1,2.1a.7.7,0,0,1-.4,1l-.4.2h-.3a.7.7,0,0,1-.6-.4l-2.9-6a1.6,1.6,0,0,0-1-.8L18,8.2H16.6l-.8.3-1,.2h-.4l-3-.5a1.2,1.2,0,0,1-.9-.8L10,6.3A2.8,2.8,0,0,1,10,5l.2-.8A5,5,0,0,1,11,3l1.5-1a2.1,2.1,0,0,1,1.1-.4m0-1a3.2,3.2,0,0,0-1.7.6l-1.4,1A4.1,4.1,0,0,0,9.3,3.9L9,4.6a5,5,0,0,0,.1,2.1l.4,1.1a2.7,2.7,0,0,0,1.8,1.5l2.9.5h.6l1.3-.2.9-.3h.7L30,12.5a.5.5,0,0,1,.3.3l2.9,5.9a1.6,1.6,0,0,0,1.5,1l.8-.2.4-.2a2.2,2.2,0,0,0,.9-1,2,2,0,0,0-.1-1.3l-.9-1.9.4-.3h.4L57.3,22c.1,0,.4.2.4.4l1.2,2.5a1.7,1.7,0,0,0,1.6.9h.7l.9-.4a2.2,2.2,0,0,0,.9-1,2,2,0,0,0-.1-1.3l-2.5-5.1L60,16.6l-1-3.1a2.4,2.4,0,0,0-1.5-1.6L51.7,9.6a3,3,0,0,0-1.2-.2h-.9l-1.3.4h-.8L37.3,6.8a2.7,2.7,0,0,0-1.2-.2h-.7L34,7H33L20.3,3.2c-.2,0-.5-.2-.5-.4l-.4-.5a2.5,2.5,0,0,0-1.8-1.1L13.9.7Z" style="fill:#231f20"/><path d="M49.7,15.4c11.4,3.3,7.4,23.3-23.6,4.3" style="fill:none;stroke:#231f20;stroke-linecap:round;stroke-miterlimit:10;stroke-width:3px"/><path d="M49.7,15.4c11.4,3.3,7.4,23.3-23.6,4.3" style="fill:none;stroke:#fff;stroke-linecap:round;stroke-miterlimit:10"/></svg>