<svg xmlns="http://www.w3.org/2000/svg" viewBox="0 0 256 256"><path d="M55.8,220.4a69.1,69.1,0,0,1-7.3-15.9c-1.5-5.2-2.3-16.5-1.7-25.1s2.5-19.8,4.2-24.9,6.8-15.6,11.3-23.1,11.1-16.9,14.6-20.9a184.1,184.1,0,0,1,18.9-17c6.9-5.4,16-11.4,20.2-13.4s12.6-5.5,18.8-8.1,15.1-1.3,19.8,2.8a11.2,11.2,0,0,0,16-1.1c4.1-4.7,1.6-13.5-5.7-19.6s-18.6-11.5-25.3-12a131,131,0,0,0-25.5,1.3c-7.3,1.2-17.4,4.5-22.3,7.3S76.6,62.2,69.1,70.1,53.7,84.8,51.7,85.2A6,6,0,0,1,46,82.8c-1.2-1.8,3.2-10.5,9.6-19.4l1.9-2.6c6.4-8.9,17.3-20.1,24.3-24.7S102,25.7,111.4,23.5A148.1,148.1,0,0,1,146,20.4c9.7.5,22.7,3.5,28.8,6.8s13.5,10.5,16.3,15.9a123.8,123.8,0,0,0,11.4,17.6c3.5,4.3,9.2,11,12.7,14.8s2.1,9.5-3.1,12.6-12.1,8.6-15.3,12.3-2.1,10,2.5,14.1,7,12.8,5.2,19.3-4.5,15.2-6.1,19.5-6.6,13.8-11.1,21.3-11.1,17-14.6,20.9a184.1,184.1,0,0,1-18.9,17c-6.9,5.5-16.6,11.8-21.5,14.1s-15.8,5.6-24.2,7.2-19.5,2.4-24.7,1.6a58.8,58.8,0,0,1-16.3-5A43.2,43.2,0,0,1,55.8,220.4Z" style="fill:#fff"/><path d="M55.8,220.4a69.1,69.1,0,0,1-7.3-15.9c-1.5-5.2-2.3-16.5-1.7-25.1s2.5-19.8,4.2-24.9,6.8-15.6,11.3-23.1,11.1-16.9,14.6-20.9a184.1,184.1,0,0,1,18.9-17c6.9-5.4,16-11.4,20.2-13.4s12.6-5.5,18.8-8.1,15.1-1.3,19.8,2.8a11.2,11.2,0,0,0,16-1.1c4.1-4.7,1.6-13.5-5.7-19.6s-18.6-11.5-25.3-12a131,131,0,0,0-25.5,1.3c-7.3,1.2-17.4,4.5-22.3,7.3S76.6,62.2,69.1,70.1,53.7,84.8,51.7,85.2A6,6,0,0,1,46,82.8c-1.2-1.8,3.2-10.5,9.6-19.4l1.9-2.6c6.4-8.9,17.3-20.1,24.3-24.7S102,25.7,111.4,23.5A148.1,148.1,0,0,1,146,20.4c9.7.5,22.7,3.5,28.8,6.8s13.5,10.5,16.3,15.9a123.8,123.8,0,0,0,11.4,17.6c3.5,4.3,9.2,11,12.7,14.8s2.1,9.5-3.1,12.6-12.1,8.6-15.3,12.3-2.1,10,2.5,14.1,7,12.8,5.2,19.3-4.5,15.2-6.1,19.5-6.6,13.8-11.1,21.3-11.1,17-14.6,20.9a184.1,184.1,0,0,1-18.9,17c-6.9,5.5-16.6,11.8-21.5,14.1s-15.8,5.6-24.2,7.2-19.5,2.4-24.7,1.6a58.8,58.8,0,0,1-16.3-5A43.2,43.2,0,0,1,55.8,220.4Z" style="fill:none;stroke:#231f20;stroke-miterlimit:10;stroke-width:3px"/><path d="M205,132c-3.2,3.6-16.9-3.8-19-5-21.2-11.5-28.1-29.4-38-39-.7-.7-2.4-2.3-2-3s3.6-.5,6,1a9.8,9.8,0,0,1,3,3c1,1.6,12.4,19.7,25,22,6.5,1.2,11.7-2.2,17,2a12.6,12.6,0,0,1,2,2C203.7,120.4,207.4,129.3,205,132Z" style="fill:#231f20"/></svg>