<svg xmlns="http://www.w3.org/2000/svg" viewBox="0 0 256 128"><path d="M66.5,20.2a11.1,11.1,0,0,1,8.4-2l5.2,1c2.7.6,5.6,2.6,6.4,4.5s3.7,3.8,6.5,4.2L201,42.5c2.8.4,5.2-.2,5.5-1.3a4.1,4.1,0,0,1,3-2.5,27.9,27.9,0,0,1,7.4.3l8.2,1.4c2.7.4,5.6,2.2,6.4,3.8a22.8,22.8,0,0,1,1.5,8V65.8a10.4,10.4,0,0,0,4.2,7.7l1.6,1c2.3,1.5,2.1,3.4-.5,4.3l-2.6.8c-2.6.9-5.2,3.2-5.7,5.1a4.2,4.2,0,0,1-4.5,3,7.4,7.4,0,0,1-5-4.5c-.8-2.2-3.7-4.4-6.4-4.9l-26.2-5.1a16.5,16.5,0,0,0-7.4,0c-1.4.6-4.7.6-7.4.1l-1.2-.2c-2.7-.5-7.1-1.5-9.7-2.3l-7.4-2.2a4,4,0,0,0-5.3,3.6h0a4.9,4.9,0,0,1-5.5,4.4l-28-3.7c-2.8-.4-5.2,0-5.5.8s1.7,1.8,4.5,2.2l55,7.6c2.8.4,5.9.3,7-.3a17.5,17.5,0,0,1,7-.5h1c2.8.2,5,1.1,5,1.9s2.2,1.9,4.9,2.3l31.2,5.4c2.7.4,5.6-.5,6.4-2.2a9.7,9.7,0,0,1,4.5-4c1.6-.5,3.2,1,3.5,3.5a9.3,9.3,0,0,0,5.1,6.6l1.8.8c2.6,1.2,2.6,3,0,4.2l-1.8.8c-2.6,1.2-5.1,3.5-5.6,5.1a6.9,6.9,0,0,1-4,4c-1.6.6-3.9-1-5-3.5a10.5,10.5,0,0,0-6.9-5.4l-30.2-5.2c-2.7-.5-4.9,0-4.9,1.1s-2.2,1.6-4.9,1.1l-1.2-.2a21.7,21.7,0,0,1-6.9-2.4c-1.1-.8-4.2-1.8-6.9-2.3L102.9,84c-2.7-.4-5.3.1-5.9,1.2s-3.2,1.6-5.9,1.1L79.9,84.1a9.9,9.9,0,0,1-6.7-5.6l-1.4-3.6a11.6,11.6,0,0,0-6.3-6.2,66.5,66.5,0,0,0-8-2c-1.9-.3-3.3.6-3,2a7.1,7.1,0,0,0,3.5,4c1.7.8,3.5,3.5,4,6a11,11,0,0,1-1.5,8c-1.4,1.9-4.7,3.3-7.5,3.1H52c-2.8-.3-6.1-1.6-7.5-3a12.6,12.6,0,0,1-3-6,17.6,17.6,0,0,1,.5-6.5c.6-1.6,1.4-4.5,1.9-6.2s-.9-3.9-3-4.5-4.5-3.4-5.3-6.1l-.2-.4A8.2,8.2,0,0,0,29,51.6L14,49.8c-2.8-.3-5.4-1.7-6-3.1a24.2,24.2,0,0,1-1-7.5v-.6a86.5,86.5,0,0,1,.5-9.2A55.3,55.3,0,0,1,9,21.7a10.9,10.9,0,0,1,2.5-4.5c.8-.5,3.7-.7,6.5-.3l40,5.6A11.8,11.8,0,0,0,66.5,20.2Z" style="fill:#fff"/><path d="M66.5,20.2a11.1,11.1,0,0,1,8.4-2l5.2,1c2.7.6,5.6,2.6,6.4,4.5s3.7,3.8,6.5,4.2L201,42.5c2.8.4,5.2-.2,5.5-1.3a4.1,4.1,0,0,1,3-2.5,27.9,27.9,0,0,1,7.4.3l8.2,1.4c2.7.4,5.6,2.2,6.4,3.8a22.8,22.8,0,0,1,1.5,8V65.8a10.4,10.4,0,0,0,4.2,7.7l1.6,1c2.3,1.5,2.1,3.4-.5,4.3l-2.6.8c-2.6.9-5.2,3.2-5.7,5.1a4.2,4.2,0,0,1-4.5,3,7.4,7.4,0,0,1-5-4.5c-.8-2.2-3.7-4.4-6.4-4.9l-26.2-5.1a16.5,16.5,0,0,0-7.4,0c-1.4.6-4.7.6-7.4.1l-1.2-.2c-2.7-.5-7.1-1.5-9.7-2.3l-7.4-2.2a4,4,0,0,0-5.3,3.6h0a4.9,4.9,0,0,1-5.5,4.4l-28-3.7c-2.8-.4-5.2,0-5.5.8s1.7,1.8,4.5,2.2l55,7.6c2.8.4,5.9.3,7-.3a17.5,17.5,0,0,1,7-.5h1c2.8.2,5,1.1,5,1.9s2.2,1.9,4.9,2.3l31.2,5.4c2.7.4,5.6-.5,6.4-2.2a9.7,9.7,0,0,1,4.5-4c1.6-.5,3.2,1,3.5,3.5a9.3,9.3,0,0,0,5.1,6.6l1.8.8c2.6,1.2,2.6,3,0,4.2l-1.8.8c-2.6,1.2-5.1,3.5-5.6,5.1a6.9,6.9,0,0,1-4,4c-1.6.6-3.9-1-5-3.5a10.5,10.5,0,0,0-6.9-5.4l-30.2-5.2c-2.7-.5-4.9,0-4.9,1.1s-2.2,1.6-4.9,1.1l-1.2-.2a21.7,21.7,0,0,1-6.9-2.4c-1.1-.8-4.2-1.8-6.9-2.3L102.9,84c-2.7-.4-5.3.1-5.9,1.2s-3.2,1.6-5.9,1.1L79.9,84.1a9.9,9.9,0,0,1-6.7-5.6l-1.4-3.6a11.6,11.6,0,0,0-6.3-6.2,66.5,66.5,0,0,0-8-2c-1.9-.3-3.3.6-3,2a7.1,7.1,0,0,0,3.5,4c1.7.8,3.5,3.5,4,6a11,11,0,0,1-1.5,8c-1.4,1.9-4.7,3.3-7.5,3.1H52c-2.8-.3-6.1-1.6-7.5-3a12.6,12.6,0,0,1-3-6,17.6,17.6,0,0,1,.5-6.5c.6-1.6,1.4-4.5,1.9-6.2s-.9-3.9-3-4.5-4.5-3.4-5.3-6.1l-.2-.4A8.2,8.2,0,0,0,29,51.6L14,49.8c-2.8-.3-5.4-1.7-6-3.1a24.2,24.2,0,0,1-1-7.5v-.6a86.5,86.5,0,0,1,.5-9.2A55.3,55.3,0,0,1,9,21.7a10.9,10.9,0,0,1,2.5-4.5c.8-.5,3.7-.7,6.5-.3l40,5.6A11.8,11.8,0,0,0,66.5,20.2Z" style="fill:none;stroke:#231f20;stroke-miterlimit:10;stroke-width:2px"/></svg>