<svg xmlns="http://www.w3.org/2000/svg" viewBox="0 0 256 128"><path d="M5.5,25.5a3.1,3.1,0,0,1,3-3h4c1.7,0,3,.8,3,1.7s1.4,1.7,3,1.7h61a8.1,8.1,0,0,0,3.9-.8c.4-.5,2.2-.9,3.8-.9h65.3c1.6,0,3-.4,3-.8s1.3-1.2,2.9-1.5l8.2-1.8a3.5,3.5,0,0,1,3.9,1.9,4.5,4.5,0,0,0,4,2.5h1a3.1,3.1,0,0,1,3,3v16a7.9,7.9,0,0,1-.7,3.8c-.5.4-.1,1.4.7,2.2a11.4,11.4,0,0,0,4.4,2.3l63.7,18.9a3.4,3.4,0,0,1,2.4,3.8l-5,27a2.4,2.4,0,0,1-3.3,1.9L201.3,88.6a53.6,53.6,0,0,1-5.4-2.6l-12.8-7a18.2,18.2,0,0,1-4.5-3.8L168.4,62.8a13.2,13.2,0,0,0-4.7-3.4l-2.4-.8a13.1,13.1,0,0,1-4.6-3.5l-2.4-3.2c-1-1.3-2.3-2.4-2.8-2.4s-1.2,1.3-1.5,3h0a16.7,16.7,0,0,0,.2,5.9l.6,2.2a17.2,17.2,0,0,0,2.5,5.3l6.4,8.2a3.1,3.1,0,0,1-.5,4.3l-7.4,6.2a3.4,3.4,0,0,1-4.4-.3L135.6,71.7a56,56,0,0,1-4-4.5l-1.7-1.9a10.7,10.7,0,0,0-4.8-2.9l-1.7-.3a12.2,12.2,0,0,0-5.7.5l-.6.3a4.9,4.9,0,0,0-2.9,4.1l-.7,41.5a2.9,2.9,0,0,1-3,3H96a3,3,0,0,1-3.1-3l-.4-58a2.9,2.9,0,0,0-3-3h0a3.1,3.1,0,0,0-3,3v1a2.8,2.8,0,0,1-3,2.9s-65-1.9-65-3.9.7-10,.7-10c.2-1.7-.6-3-1.7-3s-2,.5-2,1-1.3,1-3,1h-4a3,3,0,0,1-3-3Z" style="fill:#fff"/><path d="M5.5,25.5a3.1,3.1,0,0,1,3-3h4c1.7,0,3,.8,3,1.7s1.4,1.7,3,1.7h61a8.1,8.1,0,0,0,3.9-.8c.4-.5,2.2-.9,3.8-.9h65.3c1.6,0,3-.4,3-.8s1.3-1.2,2.9-1.5l8.2-1.8a3.5,3.5,0,0,1,3.9,1.9,4.5,4.5,0,0,0,4,2.5h1a3.1,3.1,0,0,1,3,3v16a7.9,7.9,0,0,1-.7,3.8c-.5.4-.1,1.4.7,2.2a11.4,11.4,0,0,0,4.4,2.3l63.7,18.9a3.4,3.4,0,0,1,2.4,3.8l-5,27a2.4,2.4,0,0,1-3.3,1.9L201.3,88.6a53.6,53.6,0,0,1-5.4-2.6l-12.8-7a18.2,18.2,0,0,1-4.5-3.8L168.4,62.8a13.2,13.2,0,0,0-4.7-3.4l-2.4-.8a13.1,13.1,0,0,1-4.6-3.5l-2.4-3.2c-1-1.3-2.3-2.4-2.8-2.4s-1.2,1.3-1.5,3h0a16.7,16.7,0,0,0,.2,5.9l.6,2.2a17.2,17.2,0,0,0,2.5,5.3l6.4,8.2a3.1,3.1,0,0,1-.5,4.3l-7.4,6.2a3.4,3.4,0,0,1-4.4-.3L135.6,71.7a56,56,0,0,1-4-4.5l-1.7-1.9a10.7,10.7,0,0,0-4.8-2.9l-1.7-.3a12.2,12.2,0,0,0-5.7.5l-.6.3a4.9,4.9,0,0,0-2.9,4.1l-.7,41.5a2.9,2.9,0,0,1-3,3H96a3,3,0,0,1-3.1-3l-.4-58a2.9,2.9,0,0,0-3-3h0a3.1,3.1,0,0,0-3,3v1a2.8,2.8,0,0,1-3,2.9s-65-1.9-65-3.9.7-10,.7-10c.2-1.7-.6-3-1.7-3s-2,.5-2,1-1.3,1-3,1h-4a3,3,0,0,1-3-3Z" style="fill:none;stroke:#231f20;stroke-miterlimit:10;stroke-width:3px"/></svg>