<svg xmlns="http://www.w3.org/2000/svg" viewBox="0 0 256 256"><path d="M66.1,249.9a4,4,0,0,1-4-4V193.1l-.2-.2H9.1a4,4,0,0,1-4-4V145.1a4,4,0,0,1,4-4H61.9l.2-.2V88.1a4,4,0,0,1,4-4h43.8a4,4,0,0,1,4,4v52.8l.2.2h52.8a4,4,0,0,1,4,4v43.8a4,4,0,0,1-4,4H114.1l-.2.2v52.8a4,4,0,0,1-4,4Z" style="fill:#fff"/><path d="M109.9,86a2.2,2.2,0,0,1,2.1,2.1v52.8a2.2,2.2,0,0,0,2.1,2.1h52.8a2.2,2.2,0,0,1,2.1,2.1v43.8a2.2,2.2,0,0,1-2.1,2.1H114.1a2.2,2.2,0,0,0-2.1,2.1v52.8a2.2,2.2,0,0,1-2.1,2.1H66.1a2.2,2.2,0,0,1-2.1-2.1V193.1a2.2,2.2,0,0,0-2.1-2.1H9.1A2.2,2.2,0,0,1,7,188.9V145.1A2.2,2.2,0,0,1,9.1,143H61.9a2.2,2.2,0,0,0,2.1-2.1V88.1A2.2,2.2,0,0,1,66.1,86h43.8m0-3.9H66.1a6,6,0,0,0-6,6v51H9.1a6,6,0,0,0-6,6v43.8a6,6,0,0,0,6,6h51v51a6,6,0,0,0,6,6h43.8a6,6,0,0,0,6-6v-51h51a6,6,0,0,0,6-6V145.1a6,6,0,0,0-6-6h-51v-51a6,6,0,0,0-6-6Z" style="fill:#231f20"/><path d="M193.2,155.1a2.3,2.3,0,0,1-2.3-2.3V123.2c0-.1,0-.1-.1-.1H161.2a2.3,2.3,0,0,1-2.3-2.3V96.2a2.3,2.3,0,0,1,2.3-2.3h29.6c.1,0,.1,0,.1-.1V64.2a2.3,2.3,0,0,1,2.3-2.3h24.6a2.3,2.3,0,0,1,2.3,2.3V93.8c0,.1,0,.1.1.1h29.6a2.3,2.3,0,0,1,2.3,2.3v24.6a2.3,2.3,0,0,1-2.3,2.3H220.2c-.1,0-.1,0-.1.1v29.6a2.3,2.3,0,0,1-2.3,2.3Z" style="fill:#fff"/><path d="M217.8,63a1.2,1.2,0,0,1,1.2,1.2V93.8a1.2,1.2,0,0,0,1.2,1.2h29.6a1.2,1.2,0,0,1,1.2,1.2v24.6a1.2,1.2,0,0,1-1.2,1.2H220.2a1.2,1.2,0,0,0-1.2,1.2v29.6a1.2,1.2,0,0,1-1.2,1.2H193.2a1.2,1.2,0,0,1-1.2-1.2V123.2a1.2,1.2,0,0,0-1.2-1.2H161.2a1.2,1.2,0,0,1-1.2-1.2V96.2a1.2,1.2,0,0,1,1.2-1.2h29.6a1.2,1.2,0,0,0,1.2-1.2V64.2a1.2,1.2,0,0,1,1.2-1.2h24.6m0-2.2H193.2a3.4,3.4,0,0,0-3.4,3.4V92.8H161.2a3.4,3.4,0,0,0-3.4,3.4v24.6a3.4,3.4,0,0,0,3.4,3.4h28.6v28.6a3.4,3.4,0,0,0,3.4,3.4h24.6a3.4,3.4,0,0,0,3.4-3.4V124.2h28.6a3.4,3.4,0,0,0,3.4-3.4V96.2a3.4,3.4,0,0,0-3.4-3.4H221.2V64.2a3.4,3.4,0,0,0-3.4-3.4Z" style="fill:#231f20"/><path d="M151.8,67.7a1.5,1.5,0,0,1-1.5-1.5V46.8H130.8a1.5,1.5,0,0,1-1.5-1.5V27.8a1.5,1.5,0,0,1,1.5-1.5h19.4V6.8a1.5,1.5,0,0,1,1.5-1.5h16.4a1.5,1.5,0,0,1,1.5,1.5V26.2h19.5a1.5,1.5,0,0,1,1.5,1.5V45.2a1.5,1.5,0,0,1-1.5,1.5H169.8V66.2a1.5,1.5,0,0,1-1.5,1.5Z" style="fill:#fff"/><path d="M168.2,6a.9.9,0,0,1,.8.8V26.2a.9.9,0,0,0,.8.8h19.4a.9.9,0,0,1,.8.8V45.2a.9.9,0,0,1-.8.8H169.8a.9.9,0,0,0-.8.8V66.2a.9.9,0,0,1-.8.8H151.8a.9.9,0,0,1-.8-.8V46.8a.9.9,0,0,0-.8-.8H130.8a.9.9,0,0,1-.8-.8V27.8a.9.9,0,0,1,.8-.8h19.4a.9.9,0,0,0,.8-.8V6.8a.9.9,0,0,1,.8-.8h16.4m0-1.5H151.8a2.4,2.4,0,0,0-2.3,2.3V25.5H130.8a2.4,2.4,0,0,0-2.3,2.3V45.2a2.4,2.4,0,0,0,2.3,2.3h18.7V66.2a2.4,2.4,0,0,0,2.3,2.3h16.4a2.4,2.4,0,0,0,2.3-2.3V47.5h18.7a2.4,2.4,0,0,0,2.3-2.3V27.8a2.4,2.4,0,0,0-2.3-2.3H170.5V6.8a2.4,2.4,0,0,0-2.3-2.3Z" style="fill:#231f20"/></svg>