<svg xmlns="http://www.w3.org/2000/svg" viewBox="0 0 256 128"><path d="M216.3,50.8a7.8,7.8,0,0,0,6.7,4.7h25.2a4.2,4.2,0,0,1,4.3,4.9l-.2,1.4-1.5,9.9-.5,3.6a66.1,66.1,0,0,0-.8,9.9v7.1c0,2.8-1.9,3.7-4.1,2.2L216.3,74.4a92.5,92.5,0,0,0-8.7-4.9l-3.5-1.6a34,34,0,0,0-9.5-2.4l-75.2-5.6c-2.8-.2-7.3-.4-10-.4H96.5c-2.8,0-5.5-1.1-6-2.5s-3.3-2.5-6-2.5h-39c-2.7,0-5-.7-5-1.5s-2.3-1.5-5-1.5h-22c-2.7,0-5.2-.7-5.5-1.5a2.8,2.8,0,0,0-2.5-1.5c-1.1,0-2-1.6-2-3.5A3.5,3.5,0,0,1,7,41.5c1.9,0,3.5-1.2,3.5-2.7S12.1,35.6,14,35a2.6,2.6,0,0,1,3.5,2.7c0,2.1,2.3,3.8,5,3.8h12c2.7,0,5-.9,5-2s2.3-2,5-2H81.3a24.3,24.3,0,0,1,7.5,1.1c1.4.6,3.1.6,3.6,0s3.3-1.1,6.1-1.1h28.6a29.9,29.9,0,0,1,8.1,1.1c1.7.6,3.8.2,4.6-1s3.9-2.1,6.6-2.1h3.3c2.7,0,5.2.9,5.4,2s2.6,3,5,4.1a28.4,28.4,0,0,0,9.6,2h4.7a17.1,17.1,0,0,0,9-3.1l1.5-1.2a47.9,47.9,0,0,0,5.5-5.3c.8-1.2,2.2-1.7,3.1-1.1a7.3,7.3,0,0,1,2.1,3.8,5.8,5.8,0,0,0,3.7,3.8l7.9,2.8,2.6,1a11.8,11.8,0,0,1,6.4,6.4Z" style="fill:#fff"/><path d="M216.3,50.8a7.8,7.8,0,0,0,6.7,4.7h25.2a4.2,4.2,0,0,1,4.3,4.9l-.2,1.4-1.5,9.9-.5,3.6a66.1,66.1,0,0,0-.8,9.9v7.1c0,2.8-1.9,3.7-4.1,2.2L216.3,74.4a92.5,92.5,0,0,0-8.7-4.9l-3.5-1.6a34,34,0,0,0-9.5-2.4l-75.2-5.6c-2.8-.2-7.3-.4-10-.4H96.5c-2.8,0-5.5-1.1-6-2.5s-3.3-2.5-6-2.5h-39c-2.7,0-5-.7-5-1.5s-2.3-1.5-5-1.5h-22c-2.7,0-5.2-.7-5.5-1.5a2.8,2.8,0,0,0-2.5-1.5c-1.1,0-2-1.6-2-3.5A3.5,3.5,0,0,1,7,41.5c1.9,0,3.5-1.2,3.5-2.7S12.1,35.6,14,35a2.6,2.6,0,0,1,3.5,2.7c0,2.1,2.3,3.8,5,3.8h12c2.7,0,5-.9,5-2s2.3-2,5-2H81.3a24.3,24.3,0,0,1,7.5,1.1c1.4.6,3.1.6,3.6,0s3.3-1.1,6.1-1.1h28.6a29.9,29.9,0,0,1,8.1,1.1c1.7.6,3.8.2,4.6-1s3.9-2.1,6.6-2.1h3.3c2.7,0,5.2.9,5.4,2s2.6,3,5,4.1a28.4,28.4,0,0,0,9.6,2h4.7a17.1,17.1,0,0,0,9-3.1l1.5-1.2a47.9,47.9,0,0,0,5.5-5.3c.8-1.2,2.2-1.7,3.1-1.1a7.3,7.3,0,0,1,2.1,3.8,5.8,5.8,0,0,0,3.7,3.8l7.9,2.8,2.6,1a11.8,11.8,0,0,1,6.4,6.4Z" style="fill:none;stroke:#231f20;stroke-miterlimit:10;stroke-width:3px"/></svg>