<svg xmlns="http://www.w3.org/2000/svg" viewBox="0 0 256 128"><path d="M166.1,52.5l24.2,10a8,8,0,0,0,5.5,0l3.5-1.6a14,14,0,0,1,5.7-1l37.1,2.6a3.4,3.4,0,0,1,3.1,3.2l.7,22a1.8,1.8,0,0,1-2.7,1.9L169.9,62.7a1.9,1.9,0,0,0-2.8,2v4.4a2.9,2.9,0,0,1-3,2.9l-11-.2a3.6,3.6,0,0,1-3.3-3.1l-.7-11" style="fill:none;stroke:#231f20;stroke-miterlimit:10;stroke-width:14px"/><path d="M4.6,36.7a2.9,2.9,0,0,1,3-3H64.4a58.5,58.5,0,0,1,6,.4l8.3,1.2c1.6.2,3.2-.3,3.5-1.1s1.8-1.5,3.5-1.5h23c1.7,0,3.3.7,3.7,1.5s2.1,1.5,3.8,1.4l43.6-.9a7.9,7.9,0,0,0,4.1-1,4.2,4.2,0,0,1,2.6-1c.9,0,2,1.1,2.3,2.5a23.5,23.5,0,0,1,.8,5.5v22a2.4,2.4,0,0,1-3,2.4l-13.8-2.8a5.9,5.9,0,0,0-5,1.4,10.6,10.6,0,0,1-5,2.4l-2,.2a23.3,23.3,0,0,1-5.9-.2l-4.1-.8a16.2,16.2,0,0,1-5.3-2.5l-1.4-1.2a17.9,17.9,0,0,1-3.6-4.6l-1.3-2.6a5,5,0,0,0-3.9-2.7,4.8,4.8,0,0,0-3.5,1.5c-.5.8-2.3,1.5-4,1.5H85.6c-1.7,0-3.3-.7-3.5-1.5s-1.9-1.3-3.5-1.1l-8.3,1.2a58.5,58.5,0,0,1-6,.4H7.6a2.9,2.9,0,0,1-3-3Z" style="fill:#fff"/><path d="M4.6,36.7a2.9,2.9,0,0,1,3-3H64.4a58.5,58.5,0,0,1,6,.4l8.3,1.2c1.6.2,3.2-.3,3.5-1.1s1.8-1.5,3.5-1.5h23c1.7,0,3.3.7,3.7,1.5s2.1,1.5,3.8,1.4l43.6-.9a7.9,7.9,0,0,0,4.1-1,4.2,4.2,0,0,1,2.6-1c.9,0,2,1.1,2.3,2.5a23.5,23.5,0,0,1,.8,5.5v22a2.4,2.4,0,0,1-3,2.4l-13.8-2.8a5.9,5.9,0,0,0-5,1.4,10.6,10.6,0,0,1-5,2.4l-2,.2a23.3,23.3,0,0,1-5.9-.2l-4.1-.8a16.2,16.2,0,0,1-5.3-2.5l-1.4-1.2a17.9,17.9,0,0,1-3.6-4.6l-1.3-2.6a5,5,0,0,0-3.9-2.7,4.8,4.8,0,0,0-3.5,1.5c-.5.8-2.3,1.5-4,1.5H85.6c-1.7,0-3.3-.7-3.5-1.5s-1.9-1.3-3.5-1.1l-8.3,1.2a58.5,58.5,0,0,1-6,.4H7.6a2.9,2.9,0,0,1-3-3Z" style="fill:none;stroke:#231f20;stroke-miterlimit:10;stroke-width:3px"/><path d="M166.1,52.5l24.2,10a8,8,0,0,0,5.5,0l3.5-1.6a14,14,0,0,1,5.7-1l37.1,2.6a3.4,3.4,0,0,1,3.1,3.2l.7,22a1.8,1.8,0,0,1-2.7,1.9L169.9,62.7a1.9,1.9,0,0,0-2.8,2v4.4a2.9,2.9,0,0,1-3,2.9l-11-.2a3.6,3.6,0,0,1-3.3-3.1l-.7-11" style="fill:none;stroke:#fff;stroke-miterlimit:10;stroke-width:6px"/></svg>