<svg xmlns="http://www.w3.org/2000/svg" viewBox="0 0 256 128"><path d="M177.3,39.9c1.8,0,3.2,1.1,3.2,2.3a4.4,4.4,0,0,0,1.6,3.4l4.4,2.6,1.5.8c1.6.9,4,2.4,5.4,3.4l.5.3a7,7,0,0,0,5.4,1l5.9-1.6h.2a26.5,26.5,0,0,1,6.3-.7h1.5l6.4.4,25.1,1.3,4.5.2a1.2,1.2,0,0,1,.9,1.6c-.3.8-.8,2.8-1.2,4.5l-.7,3.2a45.5,45.5,0,0,0-.9,6.3l-.6,7.1c-.1,1.7-.2,4.6-.2,6.3v6.5c0,.9-.8,1.3-1.7,1l-4.7-1.7-23.4-8.3-5.6-2a11,11,0,0,0-5.7,0h0l-6,1.7a6.3,6.3,0,0,1-5.2-1.4l-4.2-4-4.6-4.3-1.3-1.3c-1.3-1.2-2.9-2.2-3.6-2.1l-4.5.2h-2.3c-1.8.1-3.2-.9-3.3-2.3a3.4,3.4,0,0,0-1.8-2.9,36.3,36.3,0,0,0-4.8-.6L53.4,57.1l-6.1-.2A3.6,3.6,0,0,1,44,54.5a3.3,3.3,0,0,0-3.2-2.2h-6l-22.6-.9H7.8c-.6,0-1.2-1.5-1.2-3.2V44.3c0-1.8.6-3.2,1.3-3.2h2.3c.6,0,1.1-.3,1.1-.6s.7-1,1.6-1.7,1.6-.3,1.6.6,1.4,1.7,3.2,1.7H42.2c.7,0,1.5-.8,1.8-1.7s1-1.7,1.7-1.7H50l28.8-.7,6.3-.2h.2a6.5,6.5,0,0,1,4.2,1,7.1,7.1,0,0,0,4.2,1.1h6.8Z" style="fill:#fff"/><path d="M177.3,39.9c1.8,0,3.2,1.1,3.2,2.3a4.4,4.4,0,0,0,1.6,3.4l4.4,2.6,1.5.8c1.6.9,4,2.4,5.4,3.4l.5.3a7,7,0,0,0,5.4,1l5.9-1.6h.2a26.5,26.5,0,0,1,6.3-.7h1.5l6.4.4,25.1,1.3,4.5.2a1.2,1.2,0,0,1,.9,1.6c-.3.8-.8,2.8-1.2,4.5l-.7,3.2a45.5,45.5,0,0,0-.9,6.3l-.6,7.1c-.1,1.7-.2,4.6-.2,6.3v6.5c0,.9-.8,1.3-1.7,1l-4.7-1.7-23.4-8.3-5.6-2a11,11,0,0,0-5.7,0h0l-6,1.7a6.3,6.3,0,0,1-5.2-1.4l-4.2-4-4.6-4.3-1.3-1.3c-1.3-1.2-2.9-2.2-3.6-2.1l-4.5.2h-2.3c-1.8.1-3.2-.9-3.3-2.3a3.4,3.4,0,0,0-1.8-2.9,36.3,36.3,0,0,0-4.8-.6L53.4,57.1l-6.1-.2A3.6,3.6,0,0,1,44,54.5a3.3,3.3,0,0,0-3.2-2.2h-6l-22.6-.9H7.8c-.6,0-1.2-1.5-1.2-3.2V44.3c0-1.8.6-3.2,1.3-3.2h2.3c.6,0,1.1-.3,1.1-.6s.7-1,1.6-1.7,1.6-.3,1.6.6,1.4,1.7,3.2,1.7H42.2c.7,0,1.5-.8,1.8-1.7s1-1.7,1.7-1.7H50l28.8-.7,6.3-.2h.2a6.5,6.5,0,0,1,4.2,1,7.1,7.1,0,0,0,4.2,1.1h6.8Z" style="fill:none;stroke:#231f20;stroke-miterlimit:10;stroke-width:3.175028443336487px"/></svg>