<svg xmlns="http://www.w3.org/2000/svg" viewBox="0 0 256 256"><path d="M94.2,243.1l-1.3-.2-14.5-4a20.7,20.7,0,0,1-5.8-2.8L61,228.2a5.2,5.2,0,0,1-1.8-6.3L122.1,84.1a3.1,3.1,0,0,0-.5-3.2l-5.1-5.2a6.2,6.2,0,0,1-1-6.5l25.9-53.4a4.9,4.9,0,0,1,4.3-2.7,4.7,4.7,0,0,1,1.7.3l21.1,8.4c1.6.6,4.1,1.8,5.6,2.5l20.5,10.4a4.9,4.9,0,0,1,2.3,6.1L174.2,97.1a6.2,6.2,0,0,1-5.5,3.7h-7.6a3.5,3.5,0,0,0-2.8,1.9L98.8,240.1A5.2,5.2,0,0,1,94.2,243.1Z" style="fill:#fff"/><path d="M145.7,14.6l1.2.2,21,8.4a54.5,54.5,0,0,1,5.5,2.5l20.5,10.4a3.3,3.3,0,0,1,1.6,4.1L172.8,96.5a4.6,4.6,0,0,1-4.1,2.8h-7.6a5.2,5.2,0,0,0-4.2,2.8L97.4,239.5a3.6,3.6,0,0,1-3.2,2.1h-.9l-14.5-4.1a22,22,0,0,1-5.4-2.5l-11.6-8a3.6,3.6,0,0,1-1.2-4.4L123.5,84.7a4.6,4.6,0,0,0-.8-4.8l-5.1-5.2a4.8,4.8,0,0,1-.8-4.9l26-53.4a3.2,3.2,0,0,1,2.9-1.8m0-3h0a6.2,6.2,0,0,0-5.6,3.5l-26,53.4a7.7,7.7,0,0,0,1.4,8.3l5,5.1a2.2,2.2,0,0,1,.3,1.6l-63,137.7a7,7,0,0,0,2.3,8.2l11.6,8a25.6,25.6,0,0,0,6.3,2.9l14.5,4.1,1.7.2a6.6,6.6,0,0,0,5.9-3.9l59.6-137.4a2.3,2.3,0,0,1,1.4-1h7.6a7.7,7.7,0,0,0,6.9-4.6l22.7-56.4a6.3,6.3,0,0,0-3-7.9L174.8,23,169,20.4,148,12a8.5,8.5,0,0,0-2.3-.4Z" style="fill:#231f20"/><path d="M160.4,100.5c.9-.7.3-1.2-1.3-1.1h-1a83.3,83.3,0,0,1-8.6-.8,58.9,58.9,0,0,1-9.9-2.9c-3.3-1.6-9.7-6.4-9.7-6.4s-1.6-.7-.5.5,5.7,7,8.7,9.6,7.3,6.3,9.4,7.2a53.3,53.3,0,0,0,5.6,2,3.3,3.3,0,0,0,3.9-2.1l.7-1.9A8.8,8.8,0,0,1,160.4,100.5Z" style="fill:#231f20"/></svg>