<svg xmlns="http://www.w3.org/2000/svg" viewBox="0 0 256 128"><path d="M250.5,66.5a2,2,0,0,1,2,2v20a2,2,0,0,1-2,2H82.4a12.8,12.8,0,0,0-3.9.7l-27.1,9.6a3,3,0,0,0-1.9,2.7v1a2,2,0,0,1-2,2h-6a2,2,0,0,1-2-2v-1a2,2,0,0,0-2-2h-8a2,2,0,0,1-2-2V96.7a2.1,2.1,0,0,0-2-2.1l-5.4-.2A7.2,7.2,0,0,1,16.6,93L8,85.8a8.9,8.9,0,0,1-2.1-3.2s-1.4-4.7-1.3-7a26.6,26.6,0,0,1,1.3-6,6.8,6.8,0,0,1,2.2-3.1l8.4-6.8a7.7,7.7,0,0,1,3.6-1.2h5.4a2,2,0,0,0,2-2v-1a2,2,0,0,1,2-2h8a2,2,0,0,0,2-2v-2a2,2,0,0,1,2-2h6a2,2,0,0,1,2,2V52a3,3,0,0,0,1.9,2.7l27.1,11a10.9,10.9,0,0,0,3.9.8H97.1a6.7,6.7,0,0,0,3.6-1.2l3.1-2.2a5.2,5.2,0,0,0,1.8-3.2l3.6-39.4c.1-1.1.7-2,1.2-2s1.1.9,1.1,2l3.1,44a2.3,2.3,0,0,0,2.2,2Z" style="fill:#fff"/><path d="M250.5,66.5a2,2,0,0,1,2,2v20a2,2,0,0,1-2,2H82.4a12.8,12.8,0,0,0-3.9.7l-27.1,9.6a3,3,0,0,0-1.9,2.7v1a2,2,0,0,1-2,2h-6a2,2,0,0,1-2-2v-1a2,2,0,0,0-2-2h-8a2,2,0,0,1-2-2V96.7a2.1,2.1,0,0,0-2-2.1l-5.4-.2A7.2,7.2,0,0,1,16.6,93L8,85.8a8.9,8.9,0,0,1-2.1-3.2s-1.4-4.7-1.3-7a26.6,26.6,0,0,1,1.3-6,6.8,6.8,0,0,1,2.2-3.1l8.4-6.8a7.7,7.7,0,0,1,3.6-1.2h5.4a2,2,0,0,0,2-2v-1a2,2,0,0,1,2-2h8a2,2,0,0,0,2-2v-2a2,2,0,0,1,2-2h6a2,2,0,0,1,2,2V52a3,3,0,0,0,1.9,2.7l27.1,11a10.9,10.9,0,0,0,3.9.8H97.1a6.7,6.7,0,0,0,3.6-1.2l3.1-2.2a5.2,5.2,0,0,0,1.8-3.2l3.6-39.4c.1-1.1.7-2,1.2-2s1.1.9,1.1,2l3.1,44a2.3,2.3,0,0,0,2.2,2Z" style="fill:none;stroke:#231f20;stroke-miterlimit:10;stroke-width:3px"/></svg>