<svg xmlns="http://www.w3.org/2000/svg" viewBox="0 0 256 128"><path d="M7.7,61.6a3.1,3.1,0,0,1-3.1-3.1V49.2a3.1,3.1,0,0,1,3.1-3.1H165.6a7,7,0,0,0,4.2-1.2c.5-.7,2.4-1.2,4.1-1.2h5c1.7,0,3.6.5,4.1,1.2a6.9,6.9,0,0,0,4.1,1.2h26.7a9.1,9.1,0,0,0,4.1-.8,10,10,0,0,1,4.2-.8h4.7a9.4,9.4,0,0,1,4.1.8,9.1,9.1,0,0,0,4.1.8h13.3a3.1,3.1,0,0,1,3.1,3.1v9.3a3.1,3.1,0,0,1-3.1,3.1H235.6a9.1,9.1,0,0,0-4.1.8,8.2,8.2,0,0,1-4.2.9h-4.8c-1.8,0-3.2-.4-3.2-.9s-1.4-.8-3.1-.8H187.3a9.1,9.1,0,0,0-4.1.8,8.2,8.2,0,0,1-4.2.9h-4.7c-1.7,0-3.6-.4-4.1-.9a10,10,0,0,0-4.2-.8h-2.5a7.7,7.7,0,0,0-4.7,1.5,7.6,7.6,0,0,0-1.5,4.6v5.4a8.3,8.3,0,0,0,2.3,5.4l.7.7c1.2,1.2,2.2,2.9,2.2,3.8s-1.4,1.6-3.1,1.6H140.9a8.7,8.7,0,0,1-5.3-2.2L116.8,63.6a8.7,8.7,0,0,0-5.4-2.2H99.7a3.1,3.1,0,0,0-3.1,3.1V70a8.2,8.2,0,0,0,1.8,5,6.2,6.2,0,0,1,1.8,3.6c0,1-1.4,1.9-3.1,1.9h-.5a9.8,9.8,0,0,1-5.5-2.1l-3.6-3.2A7.9,7.9,0,0,1,85.1,70V64.8A3.2,3.2,0,0,0,82,61.6Z" style="fill:#fff"/><path d="M7.7,61.6a3.1,3.1,0,0,1-3.1-3.1V49.2a3.1,3.1,0,0,1,3.1-3.1H165.6a7,7,0,0,0,4.2-1.2c.5-.7,2.4-1.2,4.1-1.2h5c1.7,0,3.6.5,4.1,1.2a6.9,6.9,0,0,0,4.1,1.2h26.7a9.1,9.1,0,0,0,4.1-.8,10,10,0,0,1,4.2-.8h4.7a9.4,9.4,0,0,1,4.1.8,9.1,9.1,0,0,0,4.1.8h13.3a3.1,3.1,0,0,1,3.1,3.1v9.3a3.1,3.1,0,0,1-3.1,3.1H235.6a9.1,9.1,0,0,0-4.1.8,8.2,8.2,0,0,1-4.2.9h-4.8c-1.8,0-3.2-.4-3.2-.9s-1.4-.8-3.1-.8H187.3a9.1,9.1,0,0,0-4.1.8,8.2,8.2,0,0,1-4.2.9h-4.7c-1.7,0-3.6-.4-4.1-.9a10,10,0,0,0-4.2-.8h-2.5a7.7,7.7,0,0,0-4.7,1.5,7.6,7.6,0,0,0-1.5,4.6v5.4a8.3,8.3,0,0,0,2.3,5.4l.7.7c1.2,1.2,2.2,2.9,2.2,3.8s-1.4,1.6-3.1,1.6H140.9a8.7,8.7,0,0,1-5.3-2.2L116.8,63.6a8.7,8.7,0,0,0-5.4-2.2H99.7a3.1,3.1,0,0,0-3.1,3.1V70a8.2,8.2,0,0,0,1.8,5,6.2,6.2,0,0,1,1.8,3.6c0,1-1.4,1.9-3.1,1.9h-.5a9.8,9.8,0,0,1-5.5-2.1l-3.6-3.2A7.9,7.9,0,0,1,85.1,70V64.8A3.2,3.2,0,0,0,82,61.6Z" style="fill:none;stroke:#231f20;stroke-miterlimit:10;stroke-width:3.135837021522775px"/></svg>