<svg xmlns="http://www.w3.org/2000/svg" viewBox="0 0 256 128"><path d="M50.1,57.7c.8-1.4,1.9-1.3,2.4.2l17,47.8a4.6,4.6,0,0,0,4,2.8h1.6a1.9,1.9,0,0,0,1.9-2.8L57.7,55.1a12.8,12.8,0,0,1-.6-5.8V49a2.7,2.7,0,0,1,3.3-2.4L117.6,59a3.6,3.6,0,0,1,2.7,3.6l-.6,8.8a3.7,3.7,0,0,0,2.7,3.7l9.2,2.1a2.7,2.7,0,0,0,3.3-2.4l1.2-9.9a2.6,2.6,0,0,1,3.3-2.3l19.2,4.3a3.7,3.7,0,0,1,2.7,3.7l-.6,8.8a22.4,22.4,0,0,0,.6,5.8l.4,1.1a6.2,6.2,0,0,0,3.6,3.8l4.4,1.5a6.6,6.6,0,0,1,3.6,3.9l1.4,4.4a29.9,29.9,0,0,1,.8,5.9V111a3,3,0,0,0,3,3.1l9,.4a3.4,3.4,0,0,0,3.5-2.8l1.1-6.7a23.5,23.5,0,0,0-.2-5.9l-3.7-15.8a1.8,1.8,0,0,1,2.3-2.3l5.1,1a5,5,0,0,0,4.7-1.8l.6-.8a4.9,4.9,0,0,1,4.6-2l9.2,1.4a7.3,7.3,0,0,1,4.5,3l5.9,9.7A20.7,20.7,0,0,0,229,96l9.4,7.6a9.7,9.7,0,0,0,5.3,1.9h3a3.1,3.1,0,0,0,3.1-3l.8-26c.1-1.7.3-4.3.6-6l1-6.6a3,3,0,0,0-2.4-3.5h-1.1a12.5,12.5,0,0,0-5.8.6l-6.4,2.4a12.8,12.8,0,0,1-5.8.5l-25.6-5.1a21.8,21.8,0,0,1-5.5-2.2L181.1,45.3a26.3,26.3,0,0,0-5.5-2.2l-23.3-5.5a19.4,19.4,0,0,0-5.9-.3l-4,.4A4,4,0,0,0,139,41l-.2,1c-.2,1.6-1.1,2.7-1.9,2.4a4.6,4.6,0,0,1-2-2.9,10.4,10.4,0,0,1,.6-5.1l1.8-4.7a3,3,0,0,0-1.4-3.9,2.6,2.6,0,0,0-3.5,1.1,6,6,0,0,1-4,2.8l-14.1,2.4a4.7,4.7,0,0,0-3.5,2.8c-.3,1.3-1.8,2-3.4,1.7L51.1,26.1a7.1,7.1,0,0,1-4-2.3,9.8,9.8,0,0,1-.6-4.7l.3-3.2c.2-1.6-.6-3.2-1.7-3.5s-2.3.7-2.7,2.3l-1.5,5.6a4.4,4.4,0,0,1-3.8,3.1l-10,.7c-1.7.2-3.5-.5-4-1.5a6.4,6.4,0,0,0-4-2.1L17,20.2a7.3,7.3,0,0,0-4.4.7,6.5,6.5,0,0,1-4.5.7L7,21.4a2.7,2.7,0,0,0-3.2,2.5l-.5,6.6a2.7,2.7,0,0,0,2.7,3h.5c1.6,0,3.2.5,3.5,1.1s1.8,1.5,3.4,1.9l3.2.8a7.9,7.9,0,0,0,4.9-.4,2.2,2.2,0,0,1,3,1.1,6.3,6.3,0,0,0,3.9,3l15.2,3.2a3.8,3.8,0,0,1,2.9,3.5A13.7,13.7,0,0,1,45,53.2L16,105.9a1.6,1.6,0,0,0,1.5,2.6h3a5.6,5.6,0,0,0,4.4-2.7Z" style="fill:#fff"/><path d="M50.1,57.7c.8-1.4,1.9-1.3,2.4.2l17,47.8a4.6,4.6,0,0,0,4,2.8h1.6a1.9,1.9,0,0,0,1.9-2.8L57.7,55.1a12.8,12.8,0,0,1-.6-5.8V49a2.7,2.7,0,0,1,3.3-2.4L117.6,59a3.6,3.6,0,0,1,2.7,3.6l-.6,8.8a3.7,3.7,0,0,0,2.7,3.7l9.2,2.1a2.7,2.7,0,0,0,3.3-2.4l1.2-9.9a2.6,2.6,0,0,1,3.3-2.3l19.2,4.3a3.7,3.7,0,0,1,2.7,3.7l-.6,8.8a22.4,22.4,0,0,0,.6,5.8l.4,1.1a6.2,6.2,0,0,0,3.6,3.8l4.4,1.5a6.6,6.6,0,0,1,3.6,3.9l1.4,4.4a29.9,29.9,0,0,1,.8,5.9V111a3,3,0,0,0,3,3.1l9,.4a3.4,3.4,0,0,0,3.5-2.8l1.1-6.7a23.5,23.5,0,0,0-.2-5.9l-3.7-15.8a1.8,1.8,0,0,1,2.3-2.3l5.1,1a5,5,0,0,0,4.7-1.8l.6-.8a4.9,4.9,0,0,1,4.6-2l9.2,1.4a7.3,7.3,0,0,1,4.5,3l5.9,9.7A20.7,20.7,0,0,0,229,96l9.4,7.6a9.7,9.7,0,0,0,5.3,1.9h3a3.1,3.1,0,0,0,3.1-3l.8-26c.1-1.7.3-4.3.6-6l1-6.6a3,3,0,0,0-2.4-3.5h-1.1a12.5,12.5,0,0,0-5.8.6l-6.4,2.4a12.8,12.8,0,0,1-5.8.5l-25.6-5.1a21.8,21.8,0,0,1-5.5-2.2L181.1,45.3a26.3,26.3,0,0,0-5.5-2.2l-23.3-5.5a19.4,19.4,0,0,0-5.9-.3l-4,.4A4,4,0,0,0,139,41l-.2,1c-.2,1.6-1.1,2.7-1.9,2.4a4.6,4.6,0,0,1-2-2.9,10.4,10.4,0,0,1,.6-5.1l1.8-4.7a3,3,0,0,0-1.4-3.9,2.6,2.6,0,0,0-3.5,1.1,6,6,0,0,1-4,2.8l-14.1,2.4a4.7,4.7,0,0,0-3.5,2.8c-.3,1.3-1.8,2-3.4,1.7L51.1,26.1a7.1,7.1,0,0,1-4-2.3,9.8,9.8,0,0,1-.6-4.7l.3-3.2c.2-1.6-.6-3.2-1.7-3.5s-2.3.7-2.7,2.3l-1.5,5.6a4.4,4.4,0,0,1-3.8,3.1l-10,.7c-1.7.2-3.5-.5-4-1.5a6.4,6.4,0,0,0-4-2.1L17,20.2a7.3,7.3,0,0,0-4.4.7,6.5,6.5,0,0,1-4.5.7L7,21.4a2.7,2.7,0,0,0-3.2,2.5l-.5,6.6a2.7,2.7,0,0,0,2.7,3h.5c1.6,0,3.2.5,3.5,1.1s1.8,1.5,3.4,1.9l3.2.8a7.9,7.9,0,0,0,4.9-.4,2.2,2.2,0,0,1,3,1.1,6.3,6.3,0,0,0,3.9,3l15.2,3.2a3.8,3.8,0,0,1,2.9,3.5A13.7,13.7,0,0,1,45,53.2L16,105.9a1.6,1.6,0,0,0,1.5,2.6h3a5.6,5.6,0,0,0,4.4-2.7Z" style="fill:none;stroke:#231f20;stroke-miterlimit:10;stroke-width:3px"/></svg>