<svg xmlns="http://www.w3.org/2000/svg" viewBox="0 0 256 256"><path d="M118,158a7.1,7.1,0,0,0-4.7,2.7l-4.2,6.1a23.3,23.3,0,0,1-4.2,4.1,22.2,22.2,0,0,1-2.8,1.5,33.1,33.1,0,0,1-3.4,1.3l-5,1.3a12.4,12.4,0,0,0-4.3,2.6l-54.3,51a59.9,59.9,0,0,1-4.7,3.8L12.7,245c-1.4.9-1.7.6-.8-.8l12.2-18.3a42.5,42.5,0,0,1,3.7-4.7l50.5-51.7a12.8,12.8,0,0,0,2.8-5.1l.4-1.4a48.6,48.6,0,0,1,1-5.5,14,14,0,0,1,1.3-2.1,41.6,41.6,0,0,1,4.2-4.2l9.2-8.1a8.6,8.6,0,0,0,2.3-5s0-6.2,1-9a28.6,28.6,0,0,1,3.3-5.5,41.8,41.8,0,0,1,4-4.4l80.7-77.8a3.9,3.9,0,0,0,.7-4.6s-6.6-11.2-4.8-15.8c.9-2.6,6.8-5.7,9.5-5.4,5.8.5,16.1,12.7,16.1,12.7a2.8,2.8,0,0,0,4.1.3l6.2-5.7a5.7,5.7,0,0,0,1.5-5s-1.5-6.3-.4-9.1,3.6-4.3,5.3-4.3c3.3-.1,8.3,5.3,10.6,7.6a73.3,73.3,0,0,1,10.6,15.3c1.3,2.5,3.8,8.1,3.2,10.9s-2.6,4.9-4.2,5.4S239,42,239,42a4.3,4.3,0,0,0-4.8.8l-5.4,5.3c-1.1,1.2-1.6,2.9-1,3.8s1.7,2.8,2.5,4.3,7.6,14.4,5.9,20.1c-.8,2.6-5.9,6.5-8.5,6.6s-9.4-5.5-9.4-5.5a3.2,3.2,0,0,0-4.4,0l-74.5,69.7-4.5,4s-4.5,4.1-7.3,5.2S118,158,118,158Z" style="fill:#fff"/><path d="M118,158a7.1,7.1,0,0,0-4.7,2.7l-4.2,6.1a23.3,23.3,0,0,1-4.2,4.1,22.2,22.2,0,0,1-2.8,1.5,33.1,33.1,0,0,1-3.4,1.3l-5,1.3a12.4,12.4,0,0,0-4.3,2.6l-54.3,51a59.9,59.9,0,0,1-4.7,3.8L12.7,245c-1.4.9-1.7.6-.8-.8l12.2-18.3a42.5,42.5,0,0,1,3.7-4.7l50.5-51.7a12.8,12.8,0,0,0,2.8-5.1l.4-1.4a48.6,48.6,0,0,1,1-5.5,14,14,0,0,1,1.3-2.1,41.6,41.6,0,0,1,4.2-4.2l9.2-8.1a8.6,8.6,0,0,0,2.3-5s0-6.2,1-9a28.6,28.6,0,0,1,3.3-5.5,41.8,41.8,0,0,1,4-4.4l80.7-77.8a3.9,3.9,0,0,0,.7-4.6s-6.6-11.2-4.8-15.8c.9-2.6,6.8-5.7,9.5-5.4,5.8.5,16.1,12.7,16.1,12.7a2.8,2.8,0,0,0,4.1.3l6.2-5.7a5.7,5.7,0,0,0,1.5-5s-1.5-6.3-.4-9.1,3.6-4.3,5.3-4.3c3.3-.1,8.3,5.3,10.6,7.6a73.3,73.3,0,0,1,10.6,15.3c1.3,2.5,3.8,8.1,3.2,10.9s-2.6,4.9-4.2,5.4S239,42,239,42a4.3,4.3,0,0,0-4.8.8l-5.4,5.3c-1.1,1.2-1.6,2.9-1,3.8s1.7,2.8,2.5,4.3,7.6,14.4,5.9,20.1c-.8,2.6-5.9,6.5-8.5,6.6s-9.4-5.5-9.4-5.5a3.2,3.2,0,0,0-4.4,0l-74.5,69.7-4.5,4s-4.5,4.1-7.3,5.2S118,158,118,158Z" style="fill:none;stroke:#231f20;stroke-miterlimit:10;stroke-width:3px"/></svg>