<svg xmlns="http://www.w3.org/2000/svg" viewBox="0 0 256 256"><path d="M249.6,215.7c.8,3-1.5,9.3-3,12s-8.3,10.6-12,13-8.1,4.7-11,4-4-2.7-4-2.7a19.9,19.9,0,0,1-3.1-5l-1.8-4.5a11,11,0,0,0-3.6-4.4s-24.2-16.2-32.5-24.4-19.1-20.1-26-28c-4.9-5.5-13-18.6-13-18.6a2.4,2.4,0,0,0-3.8-.6,39.7,39.7,0,0,0-5.2,5.2,38.3,38.3,0,0,0-2.9,6.2,2.7,2.7,0,0,1-3.8,1.5l-4.6-2.3a3.4,3.4,0,0,1-1.7-4.2s2.2-6.5,4-9.2a43,43,0,0,1,5.4-5.4,2.6,2.6,0,0,0,.2-4L56.5,71.7a18.3,18.3,0,0,1-3.1-5s-5-14.2-19-30.2A122.9,122.9,0,0,0,7.2,13.3c-1.4-.9-1.2-1.6.4-1.7,0,0,24.2-1.4,32.8.9s20.7,10.6,27,15,21.3,18.5,28,25C110.2,67,156,116.9,156,116.9a2.8,2.8,0,0,0,4.1,0,34.3,34.3,0,0,1,3.5-3.2,54,54,0,0,1,7.3-3.7,3.1,3.1,0,0,1,4,1.4l2.4,4.7a3,3,0,0,1-1.4,4,62.7,62.7,0,0,0-6.3,3.6l-1.9,1.7a2.4,2.4,0,0,0,.5,3.8s12.1,7.9,17.9,13.5c7.6,7.4,20.7,21,27.5,29s19.6,32.4,19.6,32.4a9.4,9.4,0,0,0,4.2,3.7l5.4,1.9a19.9,19.9,0,0,1,5,3.1A7.8,7.8,0,0,1,249.6,215.7Z" style="fill:#fff"/><path d="M249.6,215.7c.8,3-1.5,9.3-3,12s-8.3,10.6-12,13-8.1,4.7-11,4-4-2.7-4-2.7a19.9,19.9,0,0,1-3.1-5l-1.8-4.5a11,11,0,0,0-3.6-4.4s-24.2-16.2-32.5-24.4-19.1-20.1-26-28c-4.9-5.5-13-18.6-13-18.6a2.4,2.4,0,0,0-3.8-.6,39.7,39.7,0,0,0-5.2,5.2,38.3,38.3,0,0,0-2.9,6.2,2.7,2.7,0,0,1-3.8,1.5l-4.6-2.3a3.4,3.4,0,0,1-1.7-4.2s2.2-6.5,4-9.2a43,43,0,0,1,5.4-5.4,2.6,2.6,0,0,0,.2-4L56.5,71.7a18.3,18.3,0,0,1-3.1-5s-5-14.2-19-30.2A122.9,122.9,0,0,0,7.2,13.3c-1.4-.9-1.2-1.6.4-1.7,0,0,24.2-1.4,32.8.9s20.7,10.6,27,15,21.3,18.5,28,25C110.2,67,156,116.9,156,116.9a2.8,2.8,0,0,0,4.1,0,34.3,34.3,0,0,1,3.5-3.2,54,54,0,0,1,7.3-3.7,3.1,3.1,0,0,1,4,1.4l2.4,4.7a3,3,0,0,1-1.4,4,62.7,62.7,0,0,0-6.3,3.6l-1.9,1.7a2.4,2.4,0,0,0,.5,3.8s12.1,7.9,17.9,13.5c7.6,7.4,20.7,21,27.5,29s19.6,32.4,19.6,32.4a9.4,9.4,0,0,0,4.2,3.7l5.4,1.9a19.9,19.9,0,0,1,5,3.1A7.8,7.8,0,0,1,249.6,215.7Z" style="fill:none;stroke:#231f20;stroke-linecap:round;stroke-miterlimit:10;stroke-width:3px"/></svg>