<svg xmlns="http://www.w3.org/2000/svg" viewBox="0 0 256 256"><path d="M120.9,132.8c-1.1-1.3-1.9-1-2,.6,0,0-.3,26.2.1,35.9a157.9,157.9,0,0,0,2.3,19.4,163.9,163.9,0,0,0,7.1,21.5c3.6,8,16.2,28.1,16.2,28.1a8,8,0,0,1,.7,5.5s-1.4,4.9-3.9,6.3-9.2.4-9.2.4a7.9,7.9,0,0,1-4.7-2.9s-15.1-21.6-19.1-30.2c-3-6.2-7.2-19-8.3-25.6-1.4-8.1-1.5-24.5-1.2-32.7s2.1-32.8,2.1-32.8a4,4,0,0,0-2.1-4,8.1,8.1,0,0,1-3.5-3.8L80,81.1a31.3,31.3,0,0,1-1.8-5.7l-14-62.7c-.4-1.6.1-3.4,1.1-4s2.3.2,3.1,1.7l25,50c.7,1.5.9,1.4.4-.2L77.4,8.6a2.5,2.5,0,0,1,2-3.4,4.6,4.6,0,0,1,4.4,2.1l31.4,58.1a43.7,43.7,0,0,1,2.4,5.5L131,109.2a7.3,7.3,0,0,1-.2,4.9c-.7,1.1-.3,3,.8,4.3S151,140.6,158,148.9c5.1,6.1,15,18.7,18.9,25.5A153.6,153.6,0,0,1,187.5,200c2.4,8.7,4.4,32.8,4.4,32.8a6.7,6.7,0,0,1-1.9,5s-4.3,3.8-7.2,4.1-8.1-2.6-8.1-2.6a6.2,6.2,0,0,1-2.8-4.5s-1.4-19.4-3.3-26.6-8-21.8-11.8-28.7c-2.7-4.8-9.5-13.9-13-18.4C137.7,153.4,120.9,132.8,120.9,132.8Z" style="fill:#fff"/><path d="M120.9,132.8c-1.1-1.3-1.9-1-2,.6,0,0-.3,26.2.1,35.9a157.9,157.9,0,0,0,2.3,19.4,163.9,163.9,0,0,0,7.1,21.5c3.6,8,16.2,28.1,16.2,28.1a8,8,0,0,1,.7,5.5s-1.4,4.9-3.9,6.3-9.2.4-9.2.4a7.9,7.9,0,0,1-4.7-2.9s-15.1-21.6-19.1-30.2c-3-6.2-7.2-19-8.3-25.6-1.4-8.1-1.5-24.5-1.2-32.7s2.1-32.8,2.1-32.8a4,4,0,0,0-2.1-4,8.1,8.1,0,0,1-3.5-3.8L80,81.1a31.3,31.3,0,0,1-1.8-5.7l-14-62.7c-.4-1.6.1-3.4,1.1-4s2.3.2,3.1,1.7l25,50c.7,1.5.9,1.4.4-.2L77.4,8.6a2.5,2.5,0,0,1,2-3.4,4.6,4.6,0,0,1,4.4,2.1l31.4,58.1a43.7,43.7,0,0,1,2.4,5.5L131,109.2a7.3,7.3,0,0,1-.2,4.9c-.7,1.1-.3,3,.8,4.3S151,140.6,158,148.9c5.1,6.1,15,18.7,18.9,25.5A153.6,153.6,0,0,1,187.5,200c2.4,8.7,4.4,32.8,4.4,32.8a6.7,6.7,0,0,1-1.9,5s-4.3,3.8-7.2,4.1-8.1-2.6-8.1-2.6a6.2,6.2,0,0,1-2.8-4.5s-1.4-19.4-3.3-26.6-8-21.8-11.8-28.7c-2.7-4.8-9.5-13.9-13-18.4C137.7,153.4,120.9,132.8,120.9,132.8Z" style="fill:none;stroke:#231f20;stroke-miterlimit:10;stroke-width:3px"/></svg>