<svg xmlns="http://www.w3.org/2000/svg" viewBox="0 0 256 128"><path d="M202.4,44.1a2.5,2.5,0,0,1,2.1,1.3l12.3,27.1a2,2,0,0,1-.5,2.3l-.3.2a2.7,2.7,0,0,0-.8,2.4l.3,1.3a1.8,1.8,0,0,0,1.9,1.2l33.5-6.3a1.3,1.3,0,0,0,1.1-1.7l-.3-1.3a2.9,2.9,0,0,0-1.9-1.8l-1.2-.3a3.6,3.6,0,0,1-2.1-1.7l-12.3-25a24.7,24.7,0,0,1-1-2.9l-.9-4.3a14.5,14.5,0,0,1-.3-3V28.9a4.2,4.2,0,0,1,1-2.6l1.6-1.9a5.6,5.6,0,0,1,2.4-1.6l7-1.8a.8.8,0,0,0,.4-1.5L240.3,15a6.2,6.2,0,0,0-2.5-1.4l-5-.8a2.6,2.6,0,0,1-1.9-1.6l-.3-1.1a7.9,7.9,0,0,0-1.3-2.6l-1.1-1.3A3.3,3.3,0,0,0,225.8,5H221a3.3,3.3,0,0,0-2.5,1.2l-1.3,1.6A3.7,3.7,0,0,1,214.7,9H142.8a4.6,4.6,0,0,1-2.5-1,3.1,3.1,0,0,0-4.6,0,4.6,4.6,0,0,1-2.5,1h-1.7a1.5,1.5,0,0,0-1.5,1.5v1a1.5,1.5,0,0,1-1.5,1.5h0a1.5,1.5,0,0,0-1.5,1.5v2c0,.8.4,1.5,1,1.5s1,.7,1,1.5v6a1.5,1.5,0,0,0,1.5,1.5h25a1.5,1.5,0,0,1,1.5,1.5,1.5,1.5,0,0,0,1.5,1.5h13.1a14.5,14.5,0,0,1,3,.4l1.3.3a5.1,5.1,0,0,1,2.3,1.5l.3.3a5.9,5.9,0,0,1,1,2.6l.3,3.8a5.2,5.2,0,0,0,1.2,2.6l1,1a7.9,7.9,0,0,0,2.5,1.5l1.5.5a14.5,14.5,0,0,0,3,.4ZM184,36.5a4.3,4.3,0,0,1,1-2.2l.2-.2a4.1,4.1,0,0,1,2.5-1.1h3.6a4.1,4.1,0,0,1,2.5,1.1l.2.2a4.3,4.3,0,0,1,1,2.2,4.3,4.3,0,0,1-1,2.2l-.2.2a4.1,4.1,0,0,1-2.5,1.1h-3.6a4.1,4.1,0,0,1-2.5-1.1l-.2-.2A4.3,4.3,0,0,1,184,36.5Z" style="fill:#fff"/><path d="M202.4,44.1a2.5,2.5,0,0,1,2.1,1.3l12.3,27.1a2,2,0,0,1-.5,2.3l-.3.2a2.7,2.7,0,0,0-.8,2.4l.3,1.3a1.8,1.8,0,0,0,1.9,1.2l33.5-6.3a1.3,1.3,0,0,0,1.1-1.7l-.3-1.3a2.9,2.9,0,0,0-1.9-1.8l-1.2-.3a3.6,3.6,0,0,1-2.1-1.7l-12.3-25a24.7,24.7,0,0,1-1-2.9l-.9-4.3a14.5,14.5,0,0,1-.3-3V28.9a4.2,4.2,0,0,1,1-2.6l1.6-1.9a5.6,5.6,0,0,1,2.4-1.6l7-1.8a.8.8,0,0,0,.4-1.5L240.3,15a6.2,6.2,0,0,0-2.5-1.4l-5-.8a2.6,2.6,0,0,1-1.9-1.6l-.3-1.1a7.9,7.9,0,0,0-1.3-2.6l-1.1-1.3A3.3,3.3,0,0,0,225.8,5H221a3.3,3.3,0,0,0-2.5,1.2l-1.3,1.6A3.7,3.7,0,0,1,214.7,9H142.8a4.6,4.6,0,0,1-2.5-1,3.1,3.1,0,0,0-4.6,0,4.6,4.6,0,0,1-2.5,1h-1.7a1.5,1.5,0,0,0-1.5,1.5v1a1.5,1.5,0,0,1-1.5,1.5h0a1.5,1.5,0,0,0-1.5,1.5v2c0,.8.4,1.5,1,1.5s1,.7,1,1.5v6a1.5,1.5,0,0,0,1.5,1.5h25a1.5,1.5,0,0,1,1.5,1.5,1.5,1.5,0,0,0,1.5,1.5h13.1a14.5,14.5,0,0,1,3,.4l1.3.3a5.1,5.1,0,0,1,2.3,1.5l.3.3a5.9,5.9,0,0,1,1,2.6l.3,3.8a5.2,5.2,0,0,0,1.2,2.6l1,1a7.9,7.9,0,0,0,2.5,1.5l1.5.5a14.5,14.5,0,0,0,3,.4ZM184,36.5a4.3,4.3,0,0,1,1-2.2l.2-.2a4.1,4.1,0,0,1,2.5-1.1h3.6a4.1,4.1,0,0,1,2.5,1.1l.2.2a4.3,4.3,0,0,1,1,2.2,4.3,4.3,0,0,1-1,2.2l-.2.2a4.1,4.1,0,0,1-2.5,1.1h-3.6a4.1,4.1,0,0,1-2.5-1.1l-.2-.2A4.3,4.3,0,0,1,184,36.5Z" style="fill:none;stroke:#231f20;stroke-miterlimit:10;stroke-width:1.5px"/><path d="M131.4,89.1a2.5,2.5,0,0,1,2.1,1.3l12.3,27.1a2,2,0,0,1-.5,2.3l-.3.2a2.7,2.7,0,0,0-.8,2.4l.3,1.3a1.8,1.8,0,0,0,1.9,1.2l33.5-6.3a1.3,1.3,0,0,0,1.1-1.7l-.3-1.3a2.9,2.9,0,0,0-1.9-1.8l-1.2-.3a3.6,3.6,0,0,1-2.1-1.7l-12.3-25a24.7,24.7,0,0,1-1-2.9l-.9-4.3a14.5,14.5,0,0,1-.3-3V73.9a4.2,4.2,0,0,1,1-2.6l1.6-1.9a5.6,5.6,0,0,1,2.4-1.6l7-1.8a.8.8,0,0,0,.4-1.5L169.3,60a6.2,6.2,0,0,0-2.5-1.4l-5-.8a2.6,2.6,0,0,1-1.9-1.6l-.3-1.1a7.9,7.9,0,0,0-1.3-2.6l-1.1-1.3a3.3,3.3,0,0,0-2.4-1.2h-4.5a3.3,3.3,0,0,0-2.5,1.2l-1.3,1.6A3.7,3.7,0,0,1,144,54H71.8a4.6,4.6,0,0,1-2.5-1,3.1,3.1,0,0,0-4.6,0,4.6,4.6,0,0,1-2.5,1H60.5A1.5,1.5,0,0,0,59,55.5v1A1.5,1.5,0,0,1,57.5,58h0A1.5,1.5,0,0,0,56,59.5v2c0,.8.4,1.5,1,1.5s1,.7,1,1.5v6A1.5,1.5,0,0,0,59.5,72h25A1.5,1.5,0,0,1,86,73.5,1.5,1.5,0,0,0,87.5,75h13.1a14.5,14.5,0,0,1,3,.4l1.3.3a5.1,5.1,0,0,1,2.3,1.5l.3.3a5.9,5.9,0,0,1,1,2.6l.3,3.8a5.2,5.2,0,0,0,1.2,2.6l1,1a7.9,7.9,0,0,0,2.5,1.5l1.5.5a14.5,14.5,0,0,0,3,.4ZM113,81.5a4.3,4.3,0,0,1,1-2.2l.2-.2a4.1,4.1,0,0,1,2.5-1.1h3.6a4.1,4.1,0,0,1,2.5,1.1l.2.2a4.3,4.3,0,0,1,1,2.2,4.3,4.3,0,0,1-1,2.2l-.2.2a4.1,4.1,0,0,1-2.5,1.1h-3.6a4.1,4.1,0,0,1-2.5-1.1l-.2-.2A4.3,4.3,0,0,1,113,81.5Z" style="fill:#fff"/><path d="M131.4,89.1a2.5,2.5,0,0,1,2.1,1.3l12.3,27.1a2,2,0,0,1-.5,2.3l-.3.2a2.7,2.7,0,0,0-.8,2.4l.3,1.3a1.8,1.8,0,0,0,1.9,1.2l33.5-6.3a1.3,1.3,0,0,0,1.1-1.7l-.3-1.3a2.9,2.9,0,0,0-1.9-1.8l-1.2-.3a3.6,3.6,0,0,1-2.1-1.7l-12.3-25a24.7,24.7,0,0,1-1-2.9l-.9-4.3a14.5,14.5,0,0,1-.3-3V73.9a4.2,4.2,0,0,1,1-2.6l1.6-1.9a5.6,5.6,0,0,1,2.4-1.6l7-1.8a.8.8,0,0,0,.4-1.5L169.3,60a6.2,6.2,0,0,0-2.5-1.4l-5-.8a2.6,2.6,0,0,1-1.9-1.6l-.3-1.1a7.9,7.9,0,0,0-1.3-2.6l-1.1-1.3a3.3,3.3,0,0,0-2.4-1.2h-4.5a3.3,3.3,0,0,0-2.5,1.2l-1.3,1.6A3.7,3.7,0,0,1,144,54H71.8a4.6,4.6,0,0,1-2.5-1,3.1,3.1,0,0,0-4.6,0,4.6,4.6,0,0,1-2.5,1H60.5A1.5,1.5,0,0,0,59,55.5v1A1.5,1.5,0,0,1,57.5,58h0A1.5,1.5,0,0,0,56,59.5v2c0,.8.4,1.5,1,1.5s1,.7,1,1.5v6A1.5,1.5,0,0,0,59.5,72h25A1.5,1.5,0,0,1,86,73.5,1.5,1.5,0,0,0,87.5,75h13.1a14.5,14.5,0,0,1,3,.4l1.3.3a5.1,5.1,0,0,1,2.3,1.5l.3.3a5.9,5.9,0,0,1,1,2.6l.3,3.8a5.2,5.2,0,0,0,1.2,2.6l1,1a7.9,7.9,0,0,0,2.5,1.5l1.5.5a14.5,14.5,0,0,0,3,.4ZM113,81.5a4.3,4.3,0,0,1,1-2.2l.2-.2a4.1,4.1,0,0,1,2.5-1.1h3.6a4.1,4.1,0,0,1,2.5,1.1l.2.2a4.3,4.3,0,0,1,1,2.2,4.3,4.3,0,0,1-1,2.2l-.2.2a4.1,4.1,0,0,1-2.5,1.1h-3.6a4.1,4.1,0,0,1-2.5-1.1l-.2-.2A4.3,4.3,0,0,1,113,81.5Z" style="fill:none;stroke:#231f20;stroke-miterlimit:10;stroke-width:1.5px"/></svg>