<svg xmlns="http://www.w3.org/2000/svg" viewBox="0 0 256 128"><path d="M170.2,52.2c-.4-.1-.7-1.1-.7-2.2V47.3c0-.4-1.3-.8-3-.8h-1c-1.6,0-3,.4-3,.9s-.1,2.3-.2,3.9l-.6,9.2a3.3,3.3,0,0,1-3.2,3H26.5a40.5,40.5,0,0,1-6-.5l-7.4-1.4L9.3,61c-.4-.1-.8.1-.8.4V77.9c0,.5.3.8.6.7l3.6-.5,7.8-1.2c1.7-.2,4.3-.4,6-.4h132a2.8,2.8,0,0,1,3,2.5,2.7,2.7,0,0,0,3,2.5h80a3,3,0,0,0,3-3V55.9c0-.8-.4-1.4-1-1.4s-1-.7-1-1.6V39.8c0-.7-1.3-1.3-3-1.3h0c-1.6,0-3,.6-3,1.3v5.7a2.9,2.9,0,0,1-3,3h-8a3.1,3.1,0,0,0-3,3v4.1a.9.9,0,0,1-.9.9H210.3c-.4,0-.8-.3-.8-.6v-2c0-.8-.4-1.4-.8-1.4H173.9A14.1,14.1,0,0,1,170.2,52.2Z" style="fill:#fff"/><path d="M170.2,52.2c-.4-.1-.7-1.1-.7-2.2V47.3c0-.4-1.3-.8-3-.8h-1c-1.6,0-3,.4-3,.9s-.1,2.3-.2,3.9l-.6,9.2a3.3,3.3,0,0,1-3.2,3H26.5a40.5,40.5,0,0,1-6-.5l-7.4-1.4L9.3,61c-.4-.1-.8.1-.8.4V77.9c0,.5.3.8.6.7l3.6-.5,7.8-1.2c1.7-.2,4.3-.4,6-.4h132a2.8,2.8,0,0,1,3,2.5,2.7,2.7,0,0,0,3,2.5h80a3,3,0,0,0,3-3V55.9c0-.8-.4-1.4-1-1.4s-1-.7-1-1.6V39.8c0-.7-1.3-1.3-3-1.3h0c-1.6,0-3,.6-3,1.3v5.7a2.9,2.9,0,0,1-3,3h-8a3.1,3.1,0,0,0-3,3v4.1a.9.9,0,0,1-.9.9H210.3c-.4,0-.8-.3-.8-.6v-2c0-.8-.4-1.4-.8-1.4H173.9A14.1,14.1,0,0,1,170.2,52.2Z" style="fill:none;stroke:#231f20;stroke-miterlimit:10;stroke-width:3px"/></svg>