<svg xmlns="http://www.w3.org/2000/svg" viewBox="0 0 256 256"><path d="M18.9,243.3a2.6,2.6,0,0,1-1.9-.8,2.3,2.3,0,0,1-.6-2l7.2-85.3a45.1,45.1,0,0,0-.6-10.4l-1.1-5.9a61.1,61.1,0,0,1-.9-9.5V68.6a6.3,6.3,0,0,1,3.4-5.1L65.9,45.9a9.9,9.9,0,0,0,5.5-9L69.8,15.4a2.6,2.6,0,0,1,.7-1.9,2.3,2.3,0,0,1,1.8-.8l36.6.8a2.7,2.7,0,0,1,2,.9,2.9,2.9,0,0,1,.7,2l-1.4,20.5a22.7,22.7,0,0,0,2.3,10.5l7.4,13.8A17.8,17.8,0,0,1,122,67c0,2.5,2.6,4.4,6,4.4s6-1.9,6-4.4a17.8,17.8,0,0,1,2.1-5.8l7.4-13.8a22.7,22.7,0,0,0,2.3-10.5l-1.4-20.4a3,3,0,0,1,.7-2.1,2.7,2.7,0,0,1,2-.9l36.5-.8a2.4,2.4,0,0,1,1.9.8,2.7,2.7,0,0,1,.7,2l-1.6,21.4a9.7,9.7,0,0,0,5.5,9l41.5,17.6a6.4,6.4,0,0,1,3.4,5.2v60.7a61.1,61.1,0,0,1-.9,9.5l-1.1,5.9a45.1,45.1,0,0,0-.6,10.4l7.2,85.3a2.3,2.3,0,0,1-.6,2,2.6,2.6,0,0,1-1.9.8l-71.8-.9a2.8,2.8,0,0,1-2-.8,3.1,3.1,0,0,1-.7-2.1l6.3-84.3a10.2,10.2,0,0,0-5.1-9.2l-27.6-14.1c-2.4-1.2-6.1-2.5-8.2-2.5s-5.8,1.3-8.2,2.5L92.2,146a10.2,10.2,0,0,0-5.1,9.2l6.3,84.3a3.1,3.1,0,0,1-.7,2.1,2.8,2.8,0,0,1-2,.8Z" style="fill:#fff"/><path d="M72.3,14.7h.1l36.4.8.6.2a.8.8,0,0,1,.2.6l-1.4,20.5a25.4,25.4,0,0,0,2.5,11.5l7.4,13.8A22.2,22.2,0,0,1,120,67c0,3.7,3.5,6.4,8,6.4s8-2.7,8-6.3a20.7,20.7,0,0,1,1.9-5l7.4-13.8a25.1,25.1,0,0,0,2.5-11.5l-1.4-20.5a.8.8,0,0,1,.2-.6l.6-.2,36.5-.8.4.2c.1.1.1.2.1.4l-1.6,21.5a11.4,11.4,0,0,0,6.7,10.9l41.5,17.7a4.1,4.1,0,0,1,2.2,3.3v60.7a55,55,0,0,1-.9,9.1l-1.1,5.9a45.2,45.2,0,0,0-.6,11l7.2,85.3c.1.2,0,.3-.1.4a.5.5,0,0,1-.4.2l-71.8-.9-.5-.2a.8.8,0,0,1-.2-.5l6.3-84.3a12,12,0,0,0-6.2-11.2l-27.6-14.1a23.1,23.1,0,0,0-9.1-2.7,23.1,23.1,0,0,0-9.1,2.7L91.3,144.2a12,12,0,0,0-6.2,11.2l6.3,84.3a.8.8,0,0,1-.2.5c-.1.2-.3.2-.5.2l-71.8.9h-.4a.4.4,0,0,1-.1-.5l7.2-85.3a45.2,45.2,0,0,0-.6-11l-1.1-5.9a55,55,0,0,1-.9-9.1V68.6a4.1,4.1,0,0,1,2.2-3.2L66.7,47.7a11.6,11.6,0,0,0,6.7-10.9L71.8,15.3a.7.7,0,0,1,.1-.5h.4m0-4a4.5,4.5,0,0,0-4.5,4.9l1.6,21.5A7.4,7.4,0,0,1,65.1,44L23.6,61.7A8.3,8.3,0,0,0,19,68.6v60.8a66.2,66.2,0,0,0,.9,9.9l1.2,5.9a46.6,46.6,0,0,1,.5,9.9l-7.2,85.3a4.4,4.4,0,0,0,4.5,4.9H19l71.7-.9a4.6,4.6,0,0,0,4.7-5L89,155.1a8.3,8.3,0,0,1,4.1-7.3l27.6-14.2a21.7,21.7,0,0,1,7.3-2.2,21.7,21.7,0,0,1,7.3,2.2l27.6,14.2a8.2,8.2,0,0,1,4.1,7.3l-6.4,84.3a4.6,4.6,0,0,0,4.7,5l71.7.9h.1a4.4,4.4,0,0,0,4.5-4.9l-7.2-85.3a46.6,46.6,0,0,1,.5-9.9l1.2-5.9a66.2,66.2,0,0,0,.9-9.9V68.7a8.3,8.3,0,0,0-4.6-7L190.9,44a7.4,7.4,0,0,1-4.3-6.9l1.6-21.5a4.5,4.5,0,0,0-4.5-4.9h-.2l-36.4.8a4.7,4.7,0,0,0-4.7,5.1L143.8,37a20.2,20.2,0,0,1-2.1,9.4l-7.3,13.8c-1.3,2.4-2.4,5.5-2.4,6.8s-1.8,2.4-4,2.4-4-1.1-4-2.4-1.1-4.4-2.4-6.8l-7.3-13.8a20.2,20.2,0,0,1-2.1-9.4l1.4-20.4a4.7,4.7,0,0,0-4.7-5.1l-36.4-.8Z" style="fill:#231f20"/></svg>