<svg xmlns="http://www.w3.org/2000/svg" viewBox="0 0 256 256"><path d="M241.7,223.3c1.3-.3,2.5.8,2.7,2.4l.5,8.1a7.6,7.6,0,0,1-1.7,5.2l-3.1,3.5a8.4,8.4,0,0,1-4.9,2.4l-9.1.4a2.7,2.7,0,0,1-2.9-2.7,2.9,2.9,0,0,0-3-2.8h-5a7.4,7.4,0,0,1-5-2.4l-1.1-1.3a20.7,20.7,0,0,1-3-5.2l-.9-2.3a12.4,12.4,0,0,0-3.4-4.7l-44.3-34.3a34.1,34.1,0,0,1-4.3-4.2l-10.1-12.3a54.8,54.8,0,0,1-3.5-4.9l-10.1-17.4a2.2,2.2,0,0,0-3.6-.5l-13.6,13.4a3.1,3.1,0,0,1-4.3-.1l-3.7-3.7a3,3,0,0,1,0-4.3l8.7-8.7a3,3,0,0,0,0-4.3L98.3,127.9l-4.1-4.4L36.1,54.1a33.9,33.9,0,0,1-3.4-5L11.6,12.4c-.8-1.5-.3-2,1.2-1.2L49.5,32.3a28.5,28.5,0,0,1,4.9,3.4l72.5,61.1c1.2,1.1,3.1,3,4.2,4.2l11.1,12.5a2.8,2.8,0,0,0,4.1.1l8.7-8.7a3.2,3.2,0,0,1,4.4-.2l4.5,4.1a2.8,2.8,0,0,1,.1,4.1l-12.1,11.9a2.3,2.3,0,0,0,.3,3.8L170,141l4.8,3.7,13.1,11.1a33.8,33.8,0,0,1,4,4.4l30.5,42.1a12,12,0,0,0,4.5,3.6l4.5,1.7a20.1,20.1,0,0,1,4.8,3.2,8.8,8.8,0,0,1,2.2,4.9l.5,5.1A2.5,2.5,0,0,0,241.7,223.3Z" style="fill:#fff"/><path d="M241.7,223.3c1.3-.3,2.5.8,2.7,2.4l.5,8.1a7.6,7.6,0,0,1-1.7,5.2l-3.1,3.5a8.4,8.4,0,0,1-4.9,2.4l-9.1.4a2.7,2.7,0,0,1-2.9-2.7,2.9,2.9,0,0,0-3-2.8h-5a7.4,7.4,0,0,1-5-2.4l-1.1-1.3a20.7,20.7,0,0,1-3-5.2l-.9-2.3a12.4,12.4,0,0,0-3.4-4.7l-44.3-34.3a34.1,34.1,0,0,1-4.3-4.2l-10.1-12.3a54.8,54.8,0,0,1-3.5-4.9l-10.1-17.4a2.2,2.2,0,0,0-3.6-.5l-13.6,13.4a3.1,3.1,0,0,1-4.3-.1l-3.7-3.7a3,3,0,0,1,0-4.3l8.7-8.7a3,3,0,0,0,0-4.3L98.3,127.9l-4.1-4.4L36.1,54.1a33.9,33.9,0,0,1-3.4-5L11.6,12.4c-.8-1.5-.3-2,1.2-1.2L49.5,32.3a28.5,28.5,0,0,1,4.9,3.4l72.5,61.1c1.2,1.1,3.1,3,4.2,4.2l11.1,12.5a2.8,2.8,0,0,0,4.1.1l8.7-8.7a3.2,3.2,0,0,1,4.4-.2l4.5,4.1a2.8,2.8,0,0,1,.1,4.1l-12.1,11.9a2.3,2.3,0,0,0,.3,3.8L170,141l4.8,3.7,13.1,11.1a33.8,33.8,0,0,1,4,4.4l30.5,42.1a12,12,0,0,0,4.5,3.6l4.5,1.7a20.1,20.1,0,0,1,4.8,3.2,8.8,8.8,0,0,1,2.2,4.9l.5,5.1A2.5,2.5,0,0,0,241.7,223.3Z" style="fill:none;stroke:#231f20;stroke-linecap:round;stroke-miterlimit:10;stroke-width:3px"/></svg>