<svg xmlns="http://www.w3.org/2000/svg" viewBox="0 0 256 128"><path d="M219.3,103.3a2.2,2.2,0,0,1-1.4-.6,2.3,2.3,0,0,1-.7-1.5V90.9a8,8,0,0,0-.5-2.6L202.9,57.7a1.7,1.7,0,0,0-1.5-.9H174.5a2.4,2.4,0,0,1-2.3-2.3V47.9a.8.8,0,0,0-.7-.8l-36-1.5c-.5,0-.7.2-.7.3a2.2,2.2,0,0,1-2.3,1.9h-7a2.4,2.4,0,0,1-2.3-2.3v-11a5.1,5.1,0,0,1,1.3-3.1l3.6-3.8a4.7,4.7,0,0,1,2.8-1.4,2.6,2.6,0,0,1,2.3,2.1l1,3.9a1.4,1.4,0,0,0,1.2.9l37.1-1a1,1,0,0,0,.8-.3c-.1-.8.9-1.6,2.2-1.6h38a2,2,0,0,0,1.6-.9l1.5-2.4a3.7,3.7,0,0,1,2.9-1.7h23.1a5.3,5.3,0,0,1,3.1,1.3l.8.8a5.3,5.3,0,0,1,1.3,3.1v13a5.1,5.1,0,0,1-1.3,3.1l-6.4,6.9a4.6,4.6,0,0,0-1.1,2.2l-1.1,7.2a4.7,4.7,0,0,0,.4,2.3l13.4,26.2a5.7,5.7,0,0,1,.2,3.4l-1.1,3.2a3.1,3.1,0,0,1-2.6,2.1l-28.6,3.2Z" style="fill:#fff"/><path d="M242.6,26a3.8,3.8,0,0,1,2.5,1.1l.8.8a3.8,3.8,0,0,1,1.1,2.5v13a4.9,4.9,0,0,1-1,2.6l-6.5,6.9a5.7,5.7,0,0,0-1.2,2.6l-1.1,7.1a5.8,5.8,0,0,0,.5,2.9L251,91.7a3.6,3.6,0,0,1,.2,2.7l-1.1,3.3a2.4,2.4,0,0,1-1.9,1.6l-28.7,3.2h-.2a1.3,1.3,0,0,1-1.3-1.3V90.9a10,10,0,0,0-.6-2.9L203.6,57.4a2.6,2.6,0,0,0-2.2-1.4H174.5a1.5,1.5,0,0,1-1.5-1.5V47.9a1.5,1.5,0,0,0-1.5-1.5l-36-1.6h-.1a1.3,1.3,0,0,0-1.4,1.1c0,.6-.7,1.1-1.5,1.1h-7a1.5,1.5,0,0,1-1.5-1.5v-11a4.9,4.9,0,0,1,1-2.6l3.7-3.8a3.8,3.8,0,0,1,2.2-1.1,1.9,1.9,0,0,1,1.6,1.5l1,3.9a2,2,0,0,0,1.9,1.4h0l37.1-1c.8,0,1.5-.4,1.5-.9s.7-.9,1.5-.9h38a3.2,3.2,0,0,0,2.3-1.3l1.4-2.4a3.2,3.2,0,0,1,2.3-1.3h23.1m0-1.5H219.5a4.3,4.3,0,0,0-3.6,2l-1.4,2.4a1.5,1.5,0,0,1-1,.6h-38a2.9,2.9,0,0,0-2.9,1.8h-.1l-37.1,1a.4.4,0,0,1-.4-.3l-1.1-3.9a3.2,3.2,0,0,0-3-2.6,5.3,5.3,0,0,0-3.3,1.5L124,30.9a5.3,5.3,0,0,0-1.5,3.6v11a2.9,2.9,0,0,0,3,3h7a3,3,0,0,0,3-2.2l35.9,1.6h.1v6.6a2.9,2.9,0,0,0,3,3h26.9a1.1,1.1,0,0,1,.8.5L216,88.6a6.4,6.4,0,0,1,.5,2.3v10.3a2.7,2.7,0,0,0,2.8,2.8h.4l28.6-3.2a4.4,4.4,0,0,0,3.3-2.6l1-3.3a5.3,5.3,0,0,0-.3-3.9L239,64.8a4.2,4.2,0,0,1-.3-1.9l1.1-7.2a4.2,4.2,0,0,1,.8-1.8l6.5-6.9a6,6,0,0,0,1.4-3.6v-13a5.5,5.5,0,0,0-1.5-3.6l-.8-.8a5.5,5.5,0,0,0-3.6-1.5Z" style="fill:#231f20"/><rect x="70" y="28" width="53" height="21" rx="3" style="fill:#fff"/><rect x="70" y="28" width="53" height="21" rx="3" style="fill:none;stroke:#231f20;stroke-miterlimit:10;stroke-width:1.5176911913471256px"/></svg>