<svg xmlns="http://www.w3.org/2000/svg" viewBox="0 0 256 128"><path d="M5.5,24.5a3,3,0,0,1,3-3h1.8a4.4,4.4,0,0,0,3.9-2.9l.4-1.2a4.3,4.3,0,0,1,3.9-2.9,3.3,3.3,0,0,1,3.2,3v1A3.1,3.1,0,0,0,25,21.4l26.5-.8a56,56,0,0,0,5.9-.7l15.2-2.8a38,38,0,0,1,5.9-.6h53c1.6,0,3.2-.9,3.5-2s1.6-1.3,3-.3l1,.6a11.1,11.1,0,0,0,5.5,1.7h26.1a7.7,7.7,0,0,1,5,2.2l4.9,5.6a12,12,0,0,1,2.5,5.2v.6a5,5,0,0,0,3.4,3.6l44.5,9.2a5.4,5.4,0,0,0,4.8-1.7l14.1-17.9c1-1.3,1.7-1,1.6.6v1.5a54,54,0,0,1-1.1,5.8l-2.9,9.7c-.5,1.6-1.1,4.2-1.5,5.8l-.4,2.2a30.4,30.4,0,0,0-.5,6v2.3c.1,1.7.2,4.4.2,6l.5,9.4c.1,1.7.2,4.4.3,6v2.3c.1,1.7-.5,1.8-1.2.4L233.3,59.1a6.7,6.7,0,0,0-4.3-3.2l-41.6-7.8a12.2,12.2,0,0,0-5.7.3l-.4.2a7.4,7.4,0,0,0-3.9,3.7l-1.8,4.4a8.9,8.9,0,0,0,0,5.6l8.8,21.4a2.7,2.7,0,0,1-1.8,3.6l-9.2,2.4a3.6,3.6,0,0,1-4.2-1.9L156.8,62.2a5.9,5.9,0,0,0-4.3-3l-5-.4a4.7,4.7,0,0,1-3.8-3.2l-1.4-5.2a4.2,4.2,0,0,0-3.8-2.9h-19a10,10,0,0,1-5.3-1.9l-1.4-1.2a8.9,8.9,0,0,0-3.8-1.9,7.2,7.2,0,0,0-3.6,2.1l-3.8,3.8a7.4,7.4,0,0,1-4.1,2.1c-1.1,0-2,1.4-2,3v60a3.1,3.1,0,0,1-3,3h-9a3,3,0,0,1-3-3v-60c0-1.6-.7-3-1.5-3s-1.5-1.4-1.5-3v-7a4.1,4.1,0,0,0-2.9-3.7L56.4,32.2a38.1,38.1,0,0,0-5.9-.8L8.5,30a3.2,3.2,0,0,1-3-3.1Z" style="fill:#fff"/><path d="M5.5,24.5a3,3,0,0,1,3-3h1.8a4.4,4.4,0,0,0,3.9-2.9l.4-1.2a4.3,4.3,0,0,1,3.9-2.9,3.3,3.3,0,0,1,3.2,3v1A3.1,3.1,0,0,0,25,21.4l26.5-.8a56,56,0,0,0,5.9-.7l15.2-2.8a38,38,0,0,1,5.9-.6h53c1.6,0,3.2-.9,3.5-2s1.6-1.3,3-.3l1,.6a11.1,11.1,0,0,0,5.5,1.7h26.1a7.7,7.7,0,0,1,5,2.2l4.9,5.6a12,12,0,0,1,2.5,5.2v.6a5,5,0,0,0,3.4,3.6l44.5,9.2a5.4,5.4,0,0,0,4.8-1.7l14.1-17.9c1-1.3,1.7-1,1.6.6v1.5a54,54,0,0,1-1.1,5.8l-2.9,9.7c-.5,1.6-1.1,4.2-1.5,5.8l-.4,2.2a30.4,30.4,0,0,0-.5,6v2.3c.1,1.7.2,4.4.2,6l.5,9.4c.1,1.7.2,4.4.3,6v2.3c.1,1.7-.5,1.8-1.2.4L233.3,59.1a6.7,6.7,0,0,0-4.3-3.2l-41.6-7.8a12.2,12.2,0,0,0-5.7.3l-.4.2a7.4,7.4,0,0,0-3.9,3.7l-1.8,4.4a8.9,8.9,0,0,0,0,5.6l8.8,21.4a2.7,2.7,0,0,1-1.8,3.6l-9.2,2.4a3.6,3.6,0,0,1-4.2-1.9L156.8,62.2a5.9,5.9,0,0,0-4.3-3l-5-.4a4.7,4.7,0,0,1-3.8-3.2l-1.4-5.2a4.2,4.2,0,0,0-3.8-2.9h-19a10,10,0,0,1-5.3-1.9l-1.4-1.2a8.9,8.9,0,0,0-3.8-1.9,7.2,7.2,0,0,0-3.6,2.1l-3.8,3.8a7.4,7.4,0,0,1-4.1,2.1c-1.1,0-2,1.4-2,3v60a3.1,3.1,0,0,1-3,3h-9a3,3,0,0,1-3-3v-60c0-1.6-.7-3-1.5-3s-1.5-1.4-1.5-3v-7a4.1,4.1,0,0,0-2.9-3.7L56.4,32.2a38.1,38.1,0,0,0-5.9-.8L8.5,30a3.2,3.2,0,0,1-3-3.1Z" style="fill:none;stroke:#231f20;stroke-linecap:round;stroke-miterlimit:10;stroke-width:3px"/></svg>