<svg xmlns="http://www.w3.org/2000/svg" viewBox="0 0 256 256"><path d="M159.2,96.8c6.5,9.3,14.7,11.4,14.7,11.4a9.5,9.5,0,0,0,6.8-1.3s14.5-10.7,20-15.6c8.4-7.5,24.4-23.6,31.3-32.5,5.6-7.2,17.3-28,17.3-28,1-1.8.2-2.9-1.9-2.4,0,0-23,6.2-31.4,9.8-10.4,4.4-29.9,16-39.3,22.2-6.1,4.1-20.1,15.5-20.1,15.5a9.2,9.2,0,0,0-3,6.2S153.7,89,159.2,96.8Z" style="fill:#fff"/><path d="M159.2,96.8c6.5,9.3,14.7,11.4,14.7,11.4a9.5,9.5,0,0,0,6.8-1.3s14.5-10.7,20-15.6c8.4-7.5,24.4-23.6,31.3-32.5,5.6-7.2,17.3-28,17.3-28,1-1.8.2-2.9-1.9-2.4,0,0-23,6.2-31.4,9.8-10.4,4.4-29.9,16-39.3,22.2-6.1,4.1-20.1,15.5-20.1,15.5a9.2,9.2,0,0,0-3,6.2S153.7,89,159.2,96.8Z" style="fill:none;stroke:#231f20;stroke-linecap:round;stroke-miterlimit:10;stroke-width:3px"/><path d="M154.2,146.7l21.4-34.3a2.6,2.6,0,0,0-1.7-4.2s-8.2-2.1-14.7-11.4c-5.5-7.8-5.6-14.7-5.6-14.7a2.6,2.6,0,0,0-3.6-2.6L111.4,91.6" style="fill:#fff"/><path d="M154.2,146.7l21.4-34.3a2.6,2.6,0,0,0-1.7-4.2s-8.2-2.1-14.7-11.4c-5.5-7.8-5.6-14.7-5.6-14.7a2.6,2.6,0,0,0-3.6-2.6L111.4,91.6" style="fill:none;stroke:#231f20;stroke-linecap:round;stroke-miterlimit:10;stroke-width:3px"/><path d="M111.4,91.6,8.6,171.3a7,7,0,0,0-2.3,6.1s1.6,8.7,3.2,12.6,7.2,13,10.2,16.9,9.8,11.1,13.8,14,11.4,6.3,11.4,6.3a6.9,6.9,0,0,0,6.4-.7l102.9-79.8" style="fill:#fff"/><path d="M111.4,91.6,8.6,171.3a7,7,0,0,0-2.3,6.1s1.6,8.7,3.2,12.6,7.2,13,10.2,16.9,9.8,11.1,13.8,14,11.4,6.3,11.4,6.3a6.9,6.9,0,0,0,6.4-.7l102.9-79.8" style="fill:none;stroke:#231f20;stroke-linecap:round;stroke-miterlimit:10;stroke-width:3px"/><path d="M121.2,116.5a3.6,3.6,0,0,1-.8,4.5L32.9,192.8a3.1,3.1,0,0,1-4.3-.4A13.5,13.5,0,0,1,27,190a17.5,17.5,0,0,1-1.1-2.5,4.8,4.8,0,0,1,1.4-4.8l89.2-72c1.3-1,2.5-.5,2.7,1.1a11.4,11.4,0,0,0,.8,2.2Z" style="fill:#231f20"/></svg>