<svg xmlns="http://www.w3.org/2000/svg" viewBox="0 0 256 128"><path d="M216.3,50.8a7.8,7.8,0,0,0,6.7,4.7h25.2a4.2,4.2,0,0,1,4.3,4.9l-.2,1.4-1.5,9.9-.5,3.6a66.1,66.1,0,0,0-.8,9.9v7.1c0,2.8-1.9,3.7-4.1,2.2L216.3,74.4a92.5,92.5,0,0,0-8.7-4.9l-3.5-1.6a34,34,0,0,0-9.5-2.4l-75.2-5.6c-2.8-.2-7.3-.4-10-.4H96.5c-2.8,0-5.5-1.1-6-2.5s-3.3-2.5-6-2.5h-39c-2.7,0-5-.7-5-1.5s-2.3-1.5-5-1.5h-22c-2.7,0-5.2-.7-5.5-1.5a2.8,2.8,0,0,0-2.5-1.5c-1.1,0-2-1.6-2-3.5A3.5,3.5,0,0,1,7,41.5c1.9,0,3.5-1.2,3.5-2.7S12.1,35.6,14,35a2.6,2.6,0,0,1,3.5,2.7c0,2.1,2.3,3.8,5,3.8h12c2.7,0,5-.9,5-2s2.3-2,5-2H81.3a24.3,24.3,0,0,1,7.5,1.1c1.4.6,3.1.6,3.6,0s3.3-1.1,6.1-1.1h28.6a29.9,29.9,0,0,1,8.1,1.1c1.7.6,3.8.2,4.6-1s3.9-2.1,6.6-2.1h3.3c2.7,0,5.2.9,5.4,2s2.6,3,5,4.1a28.4,28.4,0,0,0,9.6,2h4.7a17.1,17.1,0,0,0,9-3.1l1.5-1.2a47.9,47.9,0,0,0,5.5-5.3c.8-1.2,2.2-1.7,3.1-1.1a7.3,7.3,0,0,1,2.1,3.8,5.8,5.8,0,0,0,3.7,3.8l7.9,2.8,2.6,1a11.8,11.8,0,0,1,6.4,6.4Z" style="fill:#fff"/><path d="M216.3,50.8a7.8,7.8,0,0,0,6.7,4.7h25.2a4.2,4.2,0,0,1,4.3,4.9l-.2,1.4-1.5,9.9-.5,3.6a66.1,66.1,0,0,0-.8,9.9v7.1c0,2.8-1.9,3.7-4.1,2.2L216.3,74.4a92.5,92.5,0,0,0-8.7-4.9l-3.5-1.6a34,34,0,0,0-9.5-2.4l-75.2-5.6c-2.8-.2-7.3-.4-10-.4H96.5c-2.8,0-5.5-1.1-6-2.5s-3.3-2.5-6-2.5h-39c-2.7,0-5-.7-5-1.5s-2.3-1.5-5-1.5h-22c-2.7,0-5.2-.7-5.5-1.5a2.8,2.8,0,0,0-2.5-1.5c-1.1,0-2-1.6-2-3.5A3.5,3.5,0,0,1,7,41.5c1.9,0,3.5-1.2,3.5-2.7S12.1,35.6,14,35a2.6,2.6,0,0,1,3.5,2.7c0,2.1,2.3,3.8,5,3.8h12c2.7,0,5-.9,5-2s2.3-2,5-2H81.3a24.3,24.3,0,0,1,7.5,1.1c1.4.6,3.1.6,3.6,0s3.3-1.1,6.1-1.1h28.6a29.9,29.9,0,0,1,8.1,1.1c1.7.6,3.8.2,4.6-1s3.9-2.1,6.6-2.1h3.3c2.7,0,5.2.9,5.4,2s2.6,3,5,4.1a28.4,28.4,0,0,0,9.6,2h4.7a17.1,17.1,0,0,0,9-3.1l1.5-1.2a47.9,47.9,0,0,0,5.5-5.3c.8-1.2,2.2-1.7,3.1-1.1a7.3,7.3,0,0,1,2.1,3.8,5.8,5.8,0,0,0,3.7,3.8l7.9,2.8,2.6,1a11.8,11.8,0,0,1,6.4,6.4Z" style="fill:none;stroke:#231f20;stroke-miterlimit:10;stroke-width:3px"/><path d="M76.9,117a22.2,22.2,0,0,1-4.4,2.7,27.4,27.4,0,0,1-7.3,1.3,41.2,41.2,0,0,1-7.5-.4,40.3,40.3,0,0,1-7.2-2.6,53.1,53.1,0,0,1-6.6-3.6,55.1,55.1,0,0,1-5.6-5,41.3,41.3,0,0,1-4.6-5.5l-3.1-5.3a6.6,6.6,0,0,1,.2-6A3.2,3.2,0,0,0,30,88c-1.5-1.1-4.1-.1-5.6,2.3s-2.8,5.8-2.7,7.8a33.4,33.4,0,0,0,1.2,7.5,25.3,25.3,0,0,0,2.9,6.4,43.2,43.2,0,0,0,6.4,6c2.6,2,4.9,4,5,4.6a1.7,1.7,0,0,1-.5,1.8c-.5.4-3.2-.6-6-2.2l-.8-.5a34,34,0,0,1-8.1-6.3,35.1,35.1,0,0,1-4.7-8.3,44.1,44.1,0,0,1-2-10.1,26,26,0,0,1,1-8.8,14,14,0,0,1,4.2-5.3A38.7,38.7,0,0,0,25.1,79l4-4.2c1-1.2,2.7-1,3.8.5A22.7,22.7,0,0,0,37,79.4c1.2.8,3,.3,4.1-1.2A6.1,6.1,0,0,1,46.6,76a50.6,50.6,0,0,1,5.9,1.2,45.9,45.9,0,0,1,6.7,2.5,60.2,60.2,0,0,1,6.6,3.7,45.1,45.1,0,0,1,5.6,5,33,33,0,0,1,4.9,5.9,39.8,39.8,0,0,1,2.9,6.9,27.5,27.5,0,0,1,1.3,7.2,17,17,0,0,1-1,4.9A9.6,9.6,0,0,1,76.9,117Z" style="fill:#fff"/><path d="M76.9,117a22.2,22.2,0,0,1-4.4,2.7,27.4,27.4,0,0,1-7.3,1.3,41.2,41.2,0,0,1-7.5-.4,40.3,40.3,0,0,1-7.2-2.6,53.1,53.1,0,0,1-6.6-3.6,55.1,55.1,0,0,1-5.6-5,41.3,41.3,0,0,1-4.6-5.5l-3.1-5.3a6.6,6.6,0,0,1,.2-6A3.2,3.2,0,0,0,30,88c-1.5-1.1-4.1-.1-5.6,2.3s-2.8,5.8-2.7,7.8a33.4,33.4,0,0,0,1.2,7.5,25.3,25.3,0,0,0,2.9,6.4,43.2,43.2,0,0,0,6.4,6c2.6,2,4.9,4,5,4.6a1.7,1.7,0,0,1-.5,1.8c-.5.4-3.2-.6-6-2.2l-.8-.5a34,34,0,0,1-8.1-6.3,35.1,35.1,0,0,1-4.7-8.3,44.1,44.1,0,0,1-2-10.1,26,26,0,0,1,1-8.8,14,14,0,0,1,4.2-5.3A38.7,38.7,0,0,0,25.1,79l4-4.2c1-1.2,2.7-1,3.8.5A22.7,22.7,0,0,0,37,79.4c1.2.8,3,.3,4.1-1.2A6.1,6.1,0,0,1,46.6,76a50.6,50.6,0,0,1,5.9,1.2,45.9,45.9,0,0,1,6.7,2.5,60.2,60.2,0,0,1,6.6,3.7,45.1,45.1,0,0,1,5.6,5,33,33,0,0,1,4.9,5.9,39.8,39.8,0,0,1,2.9,6.9,27.5,27.5,0,0,1,1.3,7.2,17,17,0,0,1-1,4.9A9.6,9.6,0,0,1,76.9,117Z" style="fill:none;stroke:#231f20;stroke-miterlimit:10;stroke-width:2.038909673690796px"/><path d="M53.7,76.8c.8,1.2-2.3,4.6-2.8,5.1-4.8,5.3-10.4,6-13.9,8.2-.2.2-.8.6-1,.4s.1-1.1.7-1.7a3,3,0,0,1,1.1-.6c.5-.2,6.5-2.2,8.1-5.7.8-1.8.2-3.5,1.7-4.7l.8-.5C50.2,76.3,53.1,75.9,53.7,76.8Z" style="fill:#231f20"/></svg>