<svg xmlns="http://www.w3.org/2000/svg" viewBox="0 0 256 128"><path d="M212.9,61.5a29.7,29.7,0,0,0-5.9.7l-6.3,1.6a8.3,8.3,0,0,1-5.6-.9l-9-5.4c-1.4-.8-2.6-2.4-2.6-3.5s-1.4-1.9-3-1.8l-24,.7a2.7,2.7,0,0,1-3-2.6,2.9,2.9,0,0,1,3-2.8h8a3.1,3.1,0,0,0,3-3v-8a3.1,3.1,0,0,0-3-3h-55a3.1,3.1,0,0,0-3,3v7a3.1,3.1,0,0,0,3,3h16a3.1,3.1,0,0,1,3,3v.9a3.1,3.1,0,0,1-3,3.1l-29.4,1c-1.6,0-3.5-.4-4-1a7.5,7.5,0,0,0-4-1H49.7c-1.6,0-3.5.4-4,1s-2.4,1-4.1,1H17.5a2.8,2.8,0,0,1-3-2.5c0-1.3-1-1.4-2.1-.3l-.6.6a8.4,8.4,0,0,1-5.2,2.2H5.5a3.1,3.1,0,0,0-3,3v6a3.1,3.1,0,0,0,3,3H41.4c1.7,0,3.5.9,4,2a5,5,0,0,0,4.1,2.1l124.9,3.9a12.6,12.6,0,0,1,5.6,1.7l15.2,9.9a8.9,8.9,0,0,0,5.5,1.1l6.2-1a16.7,16.7,0,0,1,5.9.2l34.8,8.7a2.3,2.3,0,0,0,2.9-2.3V87.7c0-1.6.1-4.4.3-6l.4-4.1a40.8,40.8,0,0,1,1.1-5.9l1.5-6.3a2.3,2.3,0,0,0-2.3-3Zm-66.4-11a3.1,3.1,0,0,1-3,3h-6a3.1,3.1,0,0,1-3-3v-1a3.1,3.1,0,0,1,3-3h6a3.1,3.1,0,0,1,3,3Z" style="fill:#fff"/><path d="M212.9,61.5a29.7,29.7,0,0,0-5.9.7l-6.3,1.6a8.3,8.3,0,0,1-5.6-.9l-9-5.4c-1.4-.8-2.6-2.4-2.6-3.5s-1.4-1.9-3-1.8l-24,.7a2.7,2.7,0,0,1-3-2.6,2.9,2.9,0,0,1,3-2.8h8a3.1,3.1,0,0,0,3-3v-8a3.1,3.1,0,0,0-3-3h-55a3.1,3.1,0,0,0-3,3v7a3.1,3.1,0,0,0,3,3h16a3.1,3.1,0,0,1,3,3v.9a3.1,3.1,0,0,1-3,3.1l-29.4,1c-1.6,0-3.5-.4-4-1a7.5,7.5,0,0,0-4-1H49.7c-1.6,0-3.5.4-4,1s-2.4,1-4.1,1H17.5a2.8,2.8,0,0,1-3-2.5c0-1.3-1-1.4-2.1-.3l-.6.6a8.4,8.4,0,0,1-5.2,2.2H5.5a3.1,3.1,0,0,0-3,3v6a3.1,3.1,0,0,0,3,3H41.4c1.7,0,3.5.9,4,2a5,5,0,0,0,4.1,2.1l124.9,3.9a12.6,12.6,0,0,1,5.6,1.7l15.2,9.9a8.9,8.9,0,0,0,5.5,1.1l6.2-1a16.7,16.7,0,0,1,5.9.2l34.8,8.7a2.3,2.3,0,0,0,2.9-2.3V87.7c0-1.6.1-4.4.3-6l.4-4.1a40.8,40.8,0,0,1,1.1-5.9l1.5-6.3a2.3,2.3,0,0,0-2.3-3Zm-66.4-11a3.1,3.1,0,0,1-3,3h-6a3.1,3.1,0,0,1-3-3v-1a3.1,3.1,0,0,1,3-3h6a3.1,3.1,0,0,1,3,3Z" style="fill:none;stroke:#231f20;stroke-miterlimit:10;stroke-width:3.032081723213196px"/></svg>