<svg xmlns="http://www.w3.org/2000/svg" viewBox="0 0 256 256"><path d="M178.5,57.9a3.8,3.8,0,0,1-.1-4.6s8.1-10.3,8.2-19.9c.2-14.3-11.1-27.2-25.3-28a26.9,26.9,0,0,0-28.4,26.9c0,.6-15.3-1.4-15.3-1.4a19.5,19.5,0,0,0-5.9.2L99.4,33.5a4.2,4.2,0,0,1-4.3-2.1s-3.1-5.6-7.9-4.2a7.1,7.1,0,0,0,2.1,14h.4c.4,0,.8,1.3.8,2.9V66.5a3.1,3.1,0,0,1-3,3h-20a3.1,3.1,0,0,0-3,3v175a3.1,3.1,0,0,0,3,3h103a3.1,3.1,0,0,0,3-3v-59a8.3,8.3,0,0,1,2.1-5.2l14.1-14.4a7.4,7.4,0,0,0,1.9-5.1L186,69.3a11.6,11.6,0,0,0-2.1-5.3ZM159.3,16.2a16.1,16.1,0,0,1,5,31.4,13.5,13.5,0,0,1-5,.8,16,16,0,0,1-15.8-13.5,22.8,22.8,0,0,1-.2-2.6A16.1,16.1,0,0,1,159.3,16.2ZM140.5,69.5a3.1,3.1,0,0,1-3-3V64a2.8,2.8,0,0,1,3-2.9L162,62.2a9.9,9.9,0,0,1,5.2,2.1l3.9,3.2c1.2,1.1.9,2-.8,2Z" style="fill:#fff"/><path d="M178.5,57.9a3.8,3.8,0,0,1-.1-4.6s8.1-10.3,8.2-19.9c.2-14.3-11.1-27.2-25.3-28a26.9,26.9,0,0,0-28.4,26.9c0,.6-15.3-1.4-15.3-1.4a19.5,19.5,0,0,0-5.9.2L99.4,33.5a4.2,4.2,0,0,1-4.3-2.1s-3.1-5.6-7.9-4.2a7.1,7.1,0,0,0,2.1,14h.4c.4,0,.8,1.3.8,2.9V66.5a3.1,3.1,0,0,1-3,3h-20a3.1,3.1,0,0,0-3,3v175a3.1,3.1,0,0,0,3,3h103a3.1,3.1,0,0,0,3-3v-59a8.3,8.3,0,0,1,2.1-5.2l14.1-14.4a7.4,7.4,0,0,0,1.9-5.1L186,69.3a11.6,11.6,0,0,0-2.1-5.3ZM159.3,16.2a16.1,16.1,0,0,1,5,31.4,13.5,13.5,0,0,1-5,.8,16,16,0,0,1-15.8-13.5,22.8,22.8,0,0,1-.2-2.6A16.1,16.1,0,0,1,159.3,16.2ZM140.5,69.5a3.1,3.1,0,0,1-3-3V64a2.8,2.8,0,0,1,3-2.9L162,62.2a9.9,9.9,0,0,1,5.2,2.1l3.9,3.2c1.2,1.1.9,2-.8,2Z" style="fill:none;stroke:#231f20;stroke-miterlimit:10;stroke-width:3px"/></svg>