<svg xmlns="http://www.w3.org/2000/svg" viewBox="0 0 256 128"><path d="M221.3,78.7a1.8,1.8,0,0,1-1.4-.6,2.1,2.1,0,0,1-.7-1.5V66.8a8,8,0,0,0-.5-2.6L205.4,34.7a1.7,1.7,0,0,0-1.4-.9H178.5a2.4,2.4,0,0,1-2.3-2.3V26a.8.8,0,0,0-.7-.8l-35-1.4a2.1,2.1,0,0,0-.8.2c.1,1-.9,1.8-2.2,1.8h-7a2.4,2.4,0,0,1-2.3-2.3V13.2a5.1,5.1,0,0,1,1.3-3.1l3.4-3.5a4.2,4.2,0,0,1,2.7-1.4,2.6,2.6,0,0,1,2.3,2.1l.9,3.6a1.5,1.5,0,0,0,1.2.8l35.5-.9a.7.7,0,0,0,.7-.5,2.3,2.3,0,0,1,2.3-2.1h38a2,2,0,0,0,1.6-.9l1.5-2.4a3.7,3.7,0,0,1,2.9-1.7h21.2a5.3,5.3,0,0,1,3.1,1.3l.7.7a5.1,5.1,0,0,1,1.3,3.1V20.8a5.3,5.3,0,0,1-1.3,3.1l-6.1,6.6a4.3,4.3,0,0,0-1.1,2.1l-1,6.9a5.1,5.1,0,0,0,.4,2.4l12.8,25.2a4.7,4.7,0,0,1,.3,3.3l-1.1,3.1a3.2,3.2,0,0,1-2.5,2.1l-27.6,3.1Z" style="fill:#fff"/><path d="M243.7,4a3.8,3.8,0,0,1,2.5,1.1l.7.7A3.8,3.8,0,0,1,248,8.3V20.8a4.9,4.9,0,0,1-1,2.6l-6.2,6.5a6.2,6.2,0,0,0-1.2,2.6l-1.1,6.9a5.4,5.4,0,0,0,.5,2.8l12.8,25.2a3.9,3.9,0,0,1,.2,2.8l-1,3a2.4,2.4,0,0,1-1.9,1.6l-27.6,3.1h-.2a1.3,1.3,0,0,1-1.3-1.4V66.8a10,10,0,0,0-.6-2.9L206.1,34.4A2.6,2.6,0,0,0,204,33H178.5a1.5,1.5,0,0,1-1.5-1.5V26a1.7,1.7,0,0,0-1.5-1.6l-35-1.3h-.1c-.8,0-1.4.4-1.4.9s-.7,1-1.5,1h-7a1.5,1.5,0,0,1-1.5-1.5V13.2a4.9,4.9,0,0,1,1-2.6l3.5-3.5A3.3,3.3,0,0,1,135.6,6a1.9,1.9,0,0,1,1.6,1.5l.9,3.6a2.1,2.1,0,0,0,1.9,1.4h0l35.5-.9c.8-.1,1.5-.7,1.5-1.3A1.4,1.4,0,0,1,178.5,9h38a3.2,3.2,0,0,0,2.3-1.3l1.4-2.4A3.2,3.2,0,0,1,222.5,4h21.2m0-1.5H222.5a4.3,4.3,0,0,0-3.6,2l-1.4,2.4a1.5,1.5,0,0,1-1,.6h-38a2.9,2.9,0,0,0-3,2.5h0L140,11a.4.4,0,0,1-.4-.3l-1-3.6a3.3,3.3,0,0,0-3-2.6A5.3,5.3,0,0,0,132.4,6L129,9.6a5.3,5.3,0,0,0-1.5,3.6V23.5a2.9,2.9,0,0,0,3,3h7a2.8,2.8,0,0,0,2.9-1.9l35,1.3a.1.1,0,0,1,.1.1v5.5a2.9,2.9,0,0,0,3,3H204a1.2,1.2,0,0,1,.7.5L218,64.5a6.4,6.4,0,0,1,.5,2.3v9.8a2.8,2.8,0,0,0,2.8,2.9h.4l27.5-3.1a4,4,0,0,0,3.3-2.6l1-3a5.8,5.8,0,0,0-.3-3.9L240.3,41.5a4,4,0,0,1-.3-1.9l1.1-6.9a3.4,3.4,0,0,1,.8-1.7l6.2-6.6a6,6,0,0,0,1.4-3.6V8.3A5.5,5.5,0,0,0,248,4.7l-.7-.7a5.5,5.5,0,0,0-3.6-1.5Z" style="fill:#231f20"/><path d="M149.3,123.7a1.8,1.8,0,0,1-1.4-.6,2.1,2.1,0,0,1-.7-1.5v-9.8a8,8,0,0,0-.5-2.6L133.4,79.7a1.7,1.7,0,0,0-1.4-.9H106.5a2.4,2.4,0,0,1-2.3-2.3V71a.8.8,0,0,0-.7-.8l-35-1.4a2.1,2.1,0,0,0-.8.2c.1,1-.9,1.8-2.2,1.8h-7a2.4,2.4,0,0,1-2.3-2.3V58.2a5.1,5.1,0,0,1,1.3-3.1l3.4-3.5a4.2,4.2,0,0,1,2.7-1.4,2.6,2.6,0,0,1,2.3,2.1l.9,3.6a1.5,1.5,0,0,0,1.2.8l35.5-.9a.7.7,0,0,0,.7-.5,2.3,2.3,0,0,1,2.3-2.1h38a2,2,0,0,0,1.6-.9l1.5-2.4a3.7,3.7,0,0,1,2.9-1.7h21.2a5.3,5.3,0,0,1,3.1,1.3l.7.7a5.1,5.1,0,0,1,1.3,3.1V65.8a5.3,5.3,0,0,1-1.3,3.1l-6.1,6.6a4.3,4.3,0,0,0-1.1,2.1l-1,6.9a5.1,5.1,0,0,0,.4,2.4l12.8,25.2a4.7,4.7,0,0,1,.3,3.3l-1.1,3.1a3.2,3.2,0,0,1-2.5,2.1l-27.6,3.1Z" style="fill:#fff"/><path d="M171.7,49a3.8,3.8,0,0,1,2.5,1.1l.7.7a3.8,3.8,0,0,1,1.1,2.5V65.8a4.9,4.9,0,0,1-1,2.6l-6.2,6.5a6.2,6.2,0,0,0-1.2,2.6l-1.1,6.9a5.4,5.4,0,0,0,.5,2.8l12.8,25.2a3.9,3.9,0,0,1,.2,2.8l-1,3a2.4,2.4,0,0,1-1.9,1.6l-27.6,3.1h-.2a1.3,1.3,0,0,1-1.3-1.4v-9.8a10,10,0,0,0-.6-2.9L134.1,79.4A2.6,2.6,0,0,0,132,78H106.5a1.5,1.5,0,0,1-1.5-1.5V71a1.7,1.7,0,0,0-1.5-1.6l-35-1.3h-.1c-.8,0-1.4.4-1.4.9s-.7,1-1.5,1h-7A1.5,1.5,0,0,1,57,68.5V58.2a4.9,4.9,0,0,1,1-2.6l3.5-3.5A3.3,3.3,0,0,1,63.6,51a1.9,1.9,0,0,1,1.6,1.5l.9,3.6A2.1,2.1,0,0,0,68,57.5h0l35.5-.9c.8-.1,1.5-.7,1.5-1.3a1.4,1.4,0,0,1,1.5-1.3h38a3.2,3.2,0,0,0,2.3-1.3l1.4-2.4a3.2,3.2,0,0,1,2.3-1.3h21.2m0-1.5H150.5a4.3,4.3,0,0,0-3.6,2l-1.4,2.4a1.5,1.5,0,0,1-1,.6h-38a2.9,2.9,0,0,0-3,2.5h0L68,56a.4.4,0,0,1-.4-.3l-1-3.6a3.3,3.3,0,0,0-3-2.6A5.3,5.3,0,0,0,60.4,51L57,54.6a5.3,5.3,0,0,0-1.5,3.6V68.5a2.9,2.9,0,0,0,3,3h7a2.8,2.8,0,0,0,2.9-1.9l35,1.3h.1v5.5a2.9,2.9,0,0,0,3,3H132a1.2,1.2,0,0,1,.7.5L146,109.5a6.4,6.4,0,0,1,.5,2.3v9.8a2.8,2.8,0,0,0,2.8,2.9h.4l27.5-3.1a4,4,0,0,0,3.3-2.6l1-3a5.8,5.8,0,0,0-.3-3.9L168.3,86.5a4,4,0,0,1-.3-1.9l1.1-6.9a3.4,3.4,0,0,1,.8-1.7l6.2-6.6a6,6,0,0,0,1.4-3.6V53.3a5.5,5.5,0,0,0-1.5-3.6l-.7-.7a5.5,5.5,0,0,0-3.6-1.5Z" style="fill:#231f20"/></svg>