<svg xmlns="http://www.w3.org/2000/svg" xmlns:xlink="http://www.w3.org/1999/xlink" viewBox="0 0 256 256"><defs><linearGradient id="a" x1="175.13" y1="143.65" x2="141.8" y2="139.16" gradientTransform="matrix(0.96, 0.68, -0.61, 0.86, 96.4, -66.18)" gradientUnits="userSpaceOnUse"><stop offset="0" stop-color="#fff"/><stop offset="1" stop-color="#bec0c2"/></linearGradient><linearGradient id="b" x1="126.14" y1="135.57" x2="90.69" y2="129.32" gradientTransform="matrix(0.96, 0.68, -0.61, 0.86, 96.4, -66.18)" gradientUnits="userSpaceOnUse"><stop offset="0" stop-color="#ebebec"/><stop offset="1" stop-color="#d1d3d4"/></linearGradient></defs><g style="isolation:isolate"><path d="M128.7,35.8a3.9,3.9,0,0,0,5,0L162.8,9.2a3.6,3.6,0,0,1,5,.1l3.8,3.9a10.4,10.4,0,0,0,5.8,2.7H179a7.3,7.3,0,0,0,5.6-2.3l6.6-8.1a9.4,9.4,0,0,1,4.6-2.9c1.3-.1,3,1.2,3.7,3L209,30.4a18.3,18.3,0,0,1,1.1,6.6l-.5,11a9,9,0,0,0,2.2,5.9L253,95.1a3.4,3.4,0,0,1-.1,4.8l-34.2,33.5c-1.4,1.3-2.1,3.2-1.6,4.3s-.3,3-1.7,4.2L204,152.1c-1.4,1.2-3.1,1.9-3.8,1.4s-2.3.2-3.7,1.5L95.4,252a3.6,3.6,0,0,1-4.9,0L4.4,165.5a3.4,3.4,0,0,1,0-4.8L80.1,87.9a3.8,3.8,0,0,0,.2-5l-1.2-1.5a3.8,3.8,0,0,1,.2-5l43.2-41.7a3.6,3.6,0,0,1,4.9-.1Z" style="fill:#fff"/><path d="M128.7,35.8a3.9,3.9,0,0,0,5,0L162.8,9.2a3.6,3.6,0,0,1,5,.1l3.8,3.9a10.4,10.4,0,0,0,5.8,2.7H179a7.3,7.3,0,0,0,5.6-2.3l6.6-8.1a9.4,9.4,0,0,1,4.6-2.9c1.3-.1,3,1.2,3.7,3L209,30.4a18.3,18.3,0,0,1,1.1,6.6l-.5,11a9,9,0,0,0,2.2,5.9L253,95.1a3.4,3.4,0,0,1-.1,4.8l-34.2,33.5c-1.4,1.3-2.1,3.2-1.6,4.3s-.3,3-1.7,4.2L204,152.1c-1.4,1.2-3.1,1.9-3.8,1.4s-2.3.2-3.7,1.5L95.4,252a3.6,3.6,0,0,1-4.9,0L4.4,165.5a3.4,3.4,0,0,1,0-4.8L80.1,87.9a3.8,3.8,0,0,0,.2-5l-1.2-1.5a3.8,3.8,0,0,1,.2-5l43.2-41.7a3.6,3.6,0,0,1,4.9-.1Z" style="fill:none;stroke:#231f20;stroke-miterlimit:10;stroke-width:3.4275269394640913px"/><polygon points="70.5 229.7 231.7 73.2 254.4 96.8 92.6 252.8 70.5 229.7" style="fill:url(#a)"/><path d="M179.5,27c1.8.2,4.7.4,6.3.4a7.1,7.1,0,0,0,4.8-2.8l3.5-4.9a2.2,2.2,0,0,1,3.9.1l3.1,4.4a8.9,8.9,0,0,1,1,6.2L199.5,40a6.7,6.7,0,0,0,1.6,5.8l5.1,5.3c1.4,1.4,2.8,1,3.2-.9l3.8-17.3a9.4,9.4,0,0,0-1.2-6.2L199.4,7.4c-1.1-1.5-3-2.7-4.4-2.6a9.1,9.1,0,0,0-4.5,2.9l-6.7,8.1a7.4,7.4,0,0,1-5.6,2.4l-1.6-.2a12.7,12.7,0,0,0-6.3,1.5L160.9,25a16.5,16.5,0,0,0-5,4.5l-1.2,1.7c-1.1,1.6-2.7,4.2-3.6,5.9L147,45.2a14.3,14.3,0,0,1-3.5,4.6c-1.1.9-1,2.7.4,4l.6.7a4.2,4.2,0,0,0,5.2.5,14.2,14.2,0,0,0,4.2-4.9l3.8-7.5a43.6,43.6,0,0,1,3.5-5.9l.4-.5a19.9,19.9,0,0,1,4.9-4.7l5-3.2a11.5,11.5,0,0,1,6.3-1.4Z" style="fill:#fff"/><path d="M179.5,27c1.8.2,4.7.4,6.3.4a7.1,7.1,0,0,0,4.8-2.8l3.5-4.9a2.2,2.2,0,0,1,3.9.1l3.1,4.4a8.9,8.9,0,0,1,1,6.2L199.5,40a6.7,6.7,0,0,0,1.6,5.8l5.1,5.3c1.4,1.4,2.8,1,3.2-.9l3.8-17.3a9.4,9.4,0,0,0-1.2-6.2L199.4,7.4c-1.1-1.5-3-2.7-4.4-2.6a9.1,9.1,0,0,0-4.5,2.9l-6.7,8.1a7.4,7.4,0,0,1-5.6,2.4l-1.6-.2a12.7,12.7,0,0,0-6.3,1.5L160.9,25a16.5,16.5,0,0,0-5,4.5l-1.2,1.7c-1.1,1.6-2.7,4.2-3.6,5.9L147,45.2a14.3,14.3,0,0,1-3.5,4.6c-1.1.9-1,2.7.4,4l.6.7a4.2,4.2,0,0,0,5.2.5,14.2,14.2,0,0,0,4.2-4.9l3.8-7.5a43.6,43.6,0,0,1,3.5-5.9l.4-.5a19.9,19.9,0,0,1,4.9-4.7l5-3.2a11.5,11.5,0,0,1,6.3-1.4Z" style="fill:none;stroke:#231f20;stroke-miterlimit:10;stroke-width:3.4275269394640913px"/><polygon points="22.6 183.8 190 31.7 215.9 58 52.5 213.8 22.6 183.8" style="fill:url(#b)"/><g style="opacity:0.5;mix-blend-mode:multiply"><path d="M216,158.2c.5,1.1-.3,3-1.7,4.2L203,172.6c-1.4,1.3-3.1,1.9-3.8,1.4a30.1,30.1,0,0,1-3.6-3.3l-54.9-55.6a3.5,3.5,0,0,0-4.9-.1l-21.5,20.2a3.6,3.6,0,0,1-4.9-.1L83.9,108.5l-4.6-5.1-1.2-1.5a3.8,3.8,0,0,1,.2-5l43.1-41.7a3.8,3.8,0,0,1,5-.1l1.2,1.2c1.4,1.3,3.7,3.4,5,4.8l26.7,27a3.4,3.4,0,0,1-.1,4.8l-1.7,1.6a3.4,3.4,0,0,0-.1,4.8l55.3,54.6A15.9,15.9,0,0,1,216,158.2Z"/><path d="M216,158.2c.5,1.1-.3,3-1.7,4.2L203,172.6c-1.4,1.3-3.1,1.9-3.8,1.4a30.1,30.1,0,0,1-3.6-3.3l-54.9-55.6a3.5,3.5,0,0,0-4.9-.1l-21.5,20.2a3.6,3.6,0,0,1-4.9-.1L83.9,108.5l-4.6-5.1-1.2-1.5a3.8,3.8,0,0,1,.2-5l43.1-41.7a3.8,3.8,0,0,1,5-.1l1.2,1.2c1.4,1.3,3.7,3.4,5,4.8l26.7,27a3.4,3.4,0,0,1-.1,4.8l-1.7,1.6a3.4,3.4,0,0,0-.1,4.8l55.3,54.6A15.9,15.9,0,0,1,216,158.2Z" style="fill:none;stroke:#000;stroke-miterlimit:10;stroke-width:3.4275269394640913px"/></g><path d="M217.1,137.7c.4,1.1-.3,3-1.7,4.2L204,152.1c-1.4,1.2-3.1,1.9-3.8,1.4s-2.3-2-3.6-3.3L141.7,94.5a3.6,3.6,0,0,0-4.9,0l-21.5,20.2a3.4,3.4,0,0,1-4.8-.2L84.9,87.9c-1.3-1.3-3.4-3.6-4.6-5l-1.2-1.5a3.8,3.8,0,0,1,.2-5l43.2-41.7a3.6,3.6,0,0,1,4.9-.1l1.3,1.2c1.4,1.2,3.6,3.4,4.9,4.7l26.7,27.1a3.4,3.4,0,0,1-.1,4.8L158.5,74a3.2,3.2,0,0,0-.1,4.7l55.4,54.7A19,19,0,0,1,217.1,137.7Z" style="fill:#fff"/><path d="M217.1,137.7c.4,1.1-.3,3-1.7,4.2L204,152.1c-1.4,1.2-3.1,1.9-3.8,1.4s-2.3-2-3.6-3.3L141.7,94.5a3.6,3.6,0,0,0-4.9,0l-21.5,20.2a3.4,3.4,0,0,1-4.8-.2L84.9,87.9c-1.3-1.3-3.4-3.6-4.6-5l-1.2-1.5a3.8,3.8,0,0,1,.2-5l43.2-41.7a3.6,3.6,0,0,1,4.9-.1l1.3,1.2c1.4,1.2,3.6,3.4,4.9,4.7l26.7,27.1a3.4,3.4,0,0,1-.1,4.8L158.5,74a3.2,3.2,0,0,0-.1,4.7l55.4,54.7A19,19,0,0,1,217.1,137.7Z" style="fill:none;stroke:#231f20;stroke-miterlimit:10;stroke-width:3.4275269394640913px"/><path d="M128.7,35.8a3.9,3.9,0,0,0,5,0L162.8,9.2a3.6,3.6,0,0,1,5,.1l3.8,3.9a10.4,10.4,0,0,0,5.8,2.7H179a7.3,7.3,0,0,0,5.6-2.3l6.6-8.1a9.4,9.4,0,0,1,4.6-2.9c1.3-.1,3.3,1.1,4.3,2.6l12.7,19.3a9.4,9.4,0,0,1,1.1,6.2l-3.8,17.3a7.1,7.1,0,0,0,1.7,5.8L253,95.1a3.4,3.4,0,0,1-.1,4.8l-34.2,33.5c-1.4,1.3-2.1,3.2-1.6,4.3s-.3,3-1.7,4.2L204,152.1c-1.4,1.2-3.1,1.9-3.8,1.4s-2.3.2-3.7,1.5L95.4,252a3.6,3.6,0,0,1-4.9,0L4.4,165.5a3.4,3.4,0,0,1,0-4.8L80.1,87.9a3.8,3.8,0,0,0,.2-5l-1.2-1.5a3.8,3.8,0,0,1,.2-5l43.2-41.7a3.6,3.6,0,0,1,4.9-.1Z" style="fill:none;stroke:#231f20;stroke-miterlimit:10;stroke-width:3.4275269394640913px"/><polyline points="186.4 26.8 198.6 39.7 213.4 55.5" style="fill:#fff;stroke:#231f20;stroke-miterlimit:10;stroke-width:3.4275269394640913px"/></g></svg>