<svg xmlns="http://www.w3.org/2000/svg" viewBox="0 0 256 256"><path d="M151.8,132.7a4.5,4.5,0,0,1,4.2,2.5l25.6,57.6a4,4,0,0,1-1.1,4.6l-.3.2a5.2,5.2,0,0,0-1.6,4.8l.5,2.2a3.3,3.3,0,0,0,3.7,2.4l64.1-12a2.7,2.7,0,0,0,2.2-3.4l-.6-2.2a5.4,5.4,0,0,0-3.6-3.6l-5.1-1.3c-9.2-25.5-60-98-4-104L224.7,66.8a10.3,10.3,0,0,0-4.8-3.1l-10.4-2.8a7.8,7.8,0,0,1-4.3-3.5l-2.5-5.2a33,33,0,0,0-3.1-5.1v-.2a7.4,7.4,0,0,0-4.8-2.6l-9-.6a5.6,5.6,0,0,0-4.5,2.4L178,51.9a5.9,5.9,0,0,1-4.5,2.6H45.2a8,8,0,0,1-5-2,7.7,7.7,0,0,0-4.7-2,7.4,7.4,0,0,0-4.6,2,8.2,8.2,0,0,1-5,2H14.5a3,3,0,0,0-3,3v2a3.1,3.1,0,0,1-3,3h-1a3,3,0,0,0-3,3v7a3,3,0,0,0,3,3h0a3.1,3.1,0,0,1,3,3v17a3,3,0,0,0,3,3h58a3.1,3.1,0,0,1,3,3v4c8.8.8,28.8-3.3,33.3,7-1.1,10.5,4.1,20.6,15.5,21.7Zm-34.3-14.2a7.5,7.5,0,0,1,2.1-4.5l.3-.3a7.9,7.9,0,0,1,5-2.2h7.2a7.9,7.9,0,0,1,5,2.2l.3.3a7.5,7.5,0,0,1,2.1,4.5,7.5,7.5,0,0,1-2.1,4.5l-.3.3a7.9,7.9,0,0,1-5,2.2h-7.2a7.9,7.9,0,0,1-5-2.2l-.3-.3A7.5,7.5,0,0,1,117.5,118.5Z" style="fill:#fff"/><path d="M151.8,132.7a4.5,4.5,0,0,1,4.2,2.5l25.6,57.6a4,4,0,0,1-1.1,4.6l-.3.2a5.2,5.2,0,0,0-1.6,4.8l.5,2.2a3.3,3.3,0,0,0,3.7,2.4l64.1-12a2.7,2.7,0,0,0,2.2-3.4l-.6-2.2a5.4,5.4,0,0,0-3.6-3.6l-5.1-1.3c-9.2-25.5-60-98-4-104L224.7,66.8a10.3,10.3,0,0,0-4.8-3.1l-10.4-2.8a7.8,7.8,0,0,1-4.3-3.5l-2.5-5.2a33,33,0,0,0-3.1-5.1v-.2a7.4,7.4,0,0,0-4.8-2.6l-9-.6a5.6,5.6,0,0,0-4.5,2.4L178,51.9a5.9,5.9,0,0,1-4.5,2.6H45.2a8,8,0,0,1-5-2,7.7,7.7,0,0,0-4.7-2,7.4,7.4,0,0,0-4.6,2,8.2,8.2,0,0,1-5,2H14.5a3,3,0,0,0-3,3v2a3.1,3.1,0,0,1-3,3h-1a3,3,0,0,0-3,3v7a3,3,0,0,0,3,3h0a3.1,3.1,0,0,1,3,3v17a3,3,0,0,0,3,3h58a3.1,3.1,0,0,1,3,3v4c8.8.8,28.8-3.3,33.3,7-1.1,10.5,4.1,20.6,15.5,21.7Zm-34.3-14.2a7.5,7.5,0,0,1,2.1-4.5l.3-.3a7.9,7.9,0,0,1,5-2.2h7.2a7.9,7.9,0,0,1,5,2.2l.3.3a7.5,7.5,0,0,1,2.1,4.5,7.5,7.5,0,0,1-2.1,4.5l-.3.3a7.9,7.9,0,0,1-5,2.2h-7.2a7.9,7.9,0,0,1-5-2.2l-.3-.3A7.5,7.5,0,0,1,117.5,118.5Z" style="fill:none;stroke:#231f20;stroke-miterlimit:10;stroke-width:3px"/></svg>