<svg xmlns="http://www.w3.org/2000/svg" xmlns:xlink="http://www.w3.org/1999/xlink" viewBox="0 0 256 256"><image width="256" height="256" xlink:href="../../untitled.png"/><path d="M194.5,110.5a3.1,3.1,0,0,0-3,3v125a3.1,3.1,0,0,0,3,3h1a3.1,3.1,0,0,1,3,3v4a3.1,3.1,0,0,1-3,3H61.5a3.1,3.1,0,0,1-3-3v-4a3.1,3.1,0,0,1,3-3h0a3.1,3.1,0,0,0,3-3v-125a3.1,3.1,0,0,0-3-3h0a3.1,3.1,0,0,1-3-3v-4a3.1,3.1,0,0,1,3-3h26a3.1,3.1,0,0,0,3-3h0a3.1,3.1,0,0,1,3-3h4a3.1,3.1,0,0,0,3-3v-2a3.1,3.1,0,0,0-3-3h0a3.1,3.1,0,0,1-3-3v-7a3.3,3.3,0,0,0-3-3.2l-7.1-.6a8.6,8.6,0,0,0-5.3,1.7s-6.3,5-12.8,3.6a9.8,9.8,0,0,1-7.8-8.7c-.4-7,5.1-10.8,12-10.8,5.2,0,9.2,3.9,9.2,3.9a8,8,0,0,0,5.1,2.1h6.7a3.1,3.1,0,0,0,3-3v-20a2.8,2.8,0,0,1,2.5-3,2.8,2.8,0,0,0,2.5-3V31.9a24.1,24.1,0,0,0-.9-5.9L93.4,8.4a2.9,2.9,0,0,1,2-3.7l1.2-.4a3.1,3.1,0,0,1,3.7,2.1l5,19.2a4.1,4.1,0,0,0,3.7,2.9h5.4a6.2,6.2,0,0,0,4.7-2.5l7.8-12a2.5,2.5,0,0,1,3.9-.6l1.4,1.2a3.4,3.4,0,0,1,.7,4.4L122.1,36c-.9,1.4-.7,2.5.4,2.5s2,1.4,2,3v42a2.8,2.8,0,0,1-2.5,3,2.8,2.8,0,0,0-2.5,3v2a3.1,3.1,0,0,0,3,3h4a3.1,3.1,0,0,1,3,3h0a3.1,3.1,0,0,0,3,3h62a3.1,3.1,0,0,1,3,3v4a3.1,3.1,0,0,1-3,3Z" style="fill:#fff"/><path d="M194.5,110.5a3.1,3.1,0,0,0-3,3v125a3.1,3.1,0,0,0,3,3h1a3.1,3.1,0,0,1,3,3v4a3.1,3.1,0,0,1-3,3H61.5a3.1,3.1,0,0,1-3-3v-4a3.1,3.1,0,0,1,3-3h0a3.1,3.1,0,0,0,3-3v-125a3.1,3.1,0,0,0-3-3h0a3.1,3.1,0,0,1-3-3v-4a3.1,3.1,0,0,1,3-3h26a3.1,3.1,0,0,0,3-3h0a3.1,3.1,0,0,1,3-3h4a3.1,3.1,0,0,0,3-3v-2a3.1,3.1,0,0,0-3-3h0a3.1,3.1,0,0,1-3-3v-7a3.3,3.3,0,0,0-3-3.2l-7.1-.6a8.6,8.6,0,0,0-5.3,1.7s-6.3,5-12.8,3.6a9.8,9.8,0,0,1-7.8-8.7c-.4-7,5.1-10.8,12-10.8,5.2,0,9.2,3.9,9.2,3.9a8,8,0,0,0,5.1,2.1h6.7a3.1,3.1,0,0,0,3-3v-20a2.8,2.8,0,0,1,2.5-3,2.8,2.8,0,0,0,2.5-3V31.9a24.1,24.1,0,0,0-.9-5.9L93.4,8.4a2.9,2.9,0,0,1,2-3.7l1.2-.4a3.1,3.1,0,0,1,3.7,2.1l5,19.2a4.1,4.1,0,0,0,3.7,2.9h5.4a6.2,6.2,0,0,0,4.7-2.5l7.8-12a2.5,2.5,0,0,1,3.9-.6l1.4,1.2a3.4,3.4,0,0,1,.7,4.4L122.1,36c-.9,1.4-.7,2.5.4,2.5s2,1.4,2,3v42a2.8,2.8,0,0,1-2.5,3,2.8,2.8,0,0,0-2.5,3v2a3.1,3.1,0,0,0,3,3h4a3.1,3.1,0,0,1,3,3h0a3.1,3.1,0,0,0,3,3h62a3.1,3.1,0,0,1,3,3v4a3.1,3.1,0,0,1-3,3Z" style="fill:none;stroke:#231f20;stroke-miterlimit:10;stroke-width:3px"/></svg>