<svg xmlns="http://www.w3.org/2000/svg" viewBox="0 0 256 128"><path d="M166,65.2a1.6,1.6,0,0,1,1.6-2H181c1.1,0,2,.7,2,1.5s.9,1.4,2,1.4,9.5.1,13.3.5c5.6.5,16.5,2.3,22,3.3s22.8,5.3,22.8,5.3a1.6,1.6,0,0,0,1.9-1.6V35a1.6,1.6,0,0,0-2-1.6s-17.3,3.2-23.8,4-16.4,1.5-21.9,2l-12.3.8c-1.1.1-2,.5-2,1.1s-.9.9-2,.9H170a5.2,5.2,0,0,1-3.4-1.4l-3.2-2.9a5.3,5.3,0,0,1-1.4-2.8c0-.7.9-1.3,2-1.2l7,.5a1.8,1.8,0,0,0,2-1.8V24.7a1.7,1.7,0,0,0-2-1.7s-5.8.8-8.4,1c-4.4.3-13.4.2-17.9,0-2.7-.2-8.7-1-8.7-1a1.7,1.7,0,0,0-2,1.7v9.6a1.6,1.6,0,0,0,2,1.6l7.2-1.3a2.8,2.8,0,0,1,2.9,1.4,9,9,0,0,1,1,3.2,5.5,5.5,0,0,1-.1,1.2,3.4,3.4,0,0,1-2.8,1.8h-7.4a10,10,0,0,1-3.8-.8l-1-.4a12.9,12.9,0,0,0-3.9-.8H90c-1.1,0-2,.7-2,1.5s-.9,1.5-2,1.5H52.9A3.8,3.8,0,0,1,50,41.7a6.8,6.8,0,0,1-1-3.5v-3a2,2,0,0,0-2-2H46a2,2,0,0,0-2,2v5.2a1.4,1.4,0,0,1-1.9,1.4h-.2a16.7,16.7,0,0,0-3.9-.6H13a2,2,0,0,0-2,2v9a2,2,0,0,0,2,2H24a2,2,0,0,1,2,2v2a2,2,0,0,0,2,2H42.5a4.6,4.6,0,0,1,3.2,1.5A5.1,5.1,0,0,0,49,63.2H86a2,2,0,0,1,2,2v2a2,2,0,0,0,2,2h32.6a6.3,6.3,0,0,0,3.5-1.3l5.4-5c.8-.7,1.5-.4,1.5.7v2.6a5.1,5.1,0,0,0,1.5,3.3l6.5,5.4a6.9,6.9,0,0,0,3.6,1.3,51.3,51.3,0,0,1,6.1.5,27.5,27.5,0,0,1,3.9,1.3,4,4,0,0,1,2.2,2.7s2,12.3,1.6,17a34.5,34.5,0,0,1-1.3,5.1,1.5,1.5,0,0,0,1.4,2.1s6.6.4,9.4-.2a30.5,30.5,0,0,0,5-2,2.9,2.9,0,0,0,1.3-2.9Z" style="fill:#fff"/><path d="M166,65.2a1.6,1.6,0,0,1,1.6-2H181c1.1,0,2,.7,2,1.5s.9,1.4,2,1.4,9.5.1,13.3.5c5.6.5,16.5,2.3,22,3.3s22.8,5.3,22.8,5.3a1.6,1.6,0,0,0,1.9-1.6V35a1.6,1.6,0,0,0-2-1.6s-17.3,3.2-23.8,4-16.4,1.5-21.9,2l-12.3.8c-1.1.1-2,.5-2,1.1s-.9.9-2,.9H170a5.2,5.2,0,0,1-3.4-1.4l-3.2-2.9a5.3,5.3,0,0,1-1.4-2.8c0-.7.9-1.3,2-1.2l7,.5a1.8,1.8,0,0,0,2-1.8V24.7a1.7,1.7,0,0,0-2-1.7s-5.8.8-8.4,1c-4.4.3-13.4.2-17.9,0-2.7-.2-8.7-1-8.7-1a1.7,1.7,0,0,0-2,1.7v9.6a1.6,1.6,0,0,0,2,1.6l7.2-1.3a2.8,2.8,0,0,1,2.9,1.4,9,9,0,0,1,1,3.2,5.5,5.5,0,0,1-.1,1.2,3.4,3.4,0,0,1-2.8,1.8h-7.4a10,10,0,0,1-3.8-.8l-1-.4a12.9,12.9,0,0,0-3.9-.8H90c-1.1,0-2,.7-2,1.5s-.9,1.5-2,1.5H52.9A3.8,3.8,0,0,1,50,41.7a6.8,6.8,0,0,1-1-3.5v-3a2,2,0,0,0-2-2H46a2,2,0,0,0-2,2v5.2a1.4,1.4,0,0,1-1.9,1.4h-.2a16.7,16.7,0,0,0-3.9-.6H13a2,2,0,0,0-2,2v9a2,2,0,0,0,2,2H24a2,2,0,0,1,2,2v2a2,2,0,0,0,2,2H42.5a4.6,4.6,0,0,1,3.2,1.5A5.1,5.1,0,0,0,49,63.2H86a2,2,0,0,1,2,2v2a2,2,0,0,0,2,2h32.6a6.3,6.3,0,0,0,3.5-1.3l5.4-5c.8-.7,1.5-.4,1.5.7v2.6a5.1,5.1,0,0,0,1.5,3.3l6.5,5.4a6.9,6.9,0,0,0,3.6,1.3,51.3,51.3,0,0,1,6.1.5,27.5,27.5,0,0,1,3.9,1.3,4,4,0,0,1,2.2,2.7s2,12.3,1.6,17a34.5,34.5,0,0,1-1.3,5.1,1.5,1.5,0,0,0,1.4,2.1s6.6.4,9.4-.2a30.5,30.5,0,0,0,5-2,2.9,2.9,0,0,0,1.3-2.9Z" style="fill:none;stroke:#231f20;stroke-miterlimit:10;stroke-width:3px"/></svg>