<svg xmlns="http://www.w3.org/2000/svg" viewBox="0 0 256 256"><path d="M30.5,187.5a6,6,0,0,0,6,6h34a6,6,0,0,1,6,6v20.4a19.6,19.6,0,0,0,3.8,10.7l1.7,2.2a14.3,14.3,0,0,0,9.8,4.7H197.2a19.3,19.3,0,0,0,10.6-3.9l4.2-3.7a14.9,14.9,0,0,0,4.5-9.9l.9-117.5a58.5,58.5,0,0,1,1.4-11.8l5.3-21.3a58.5,58.5,0,0,0,1.4-11.8V48.3a19,19,0,0,0-3.9-10.5l-7.5-8.6a20.7,20.7,0,0,0-9.8-5.7L184,19.6a77.3,77.3,0,0,0-11.8-1.1H123.8a79.8,79.8,0,0,0-11.9,1.1l-20.6,4A21.6,21.6,0,0,0,81.2,29l-8.5,9a17.2,17.2,0,0,0-4.2,10.3v9.3a58.5,58.5,0,0,0,1.4,11.8l5.2,21.3A53.5,53.5,0,0,1,76.5,101a4.5,4.5,0,0,1-4.5,4.5c-2.4,0-5-2.6-5.7-5.9l-4.8-21a115.8,115.8,0,0,1-1.8-11.8L56.4,25.9c-.2-3.3-.6-3.3-.8,0L53.2,64.7a65,65,0,0,1-2,11.7L44.9,98.7a8.4,8.4,0,0,1-7.6,5.8h-.8a6,6,0,0,0-6,6Z" style="fill:#fff"/><path d="M30.5,187.5a6,6,0,0,0,6,6h34a6,6,0,0,1,6,6v20.4a19.6,19.6,0,0,0,3.8,10.7l1.7,2.2a14.3,14.3,0,0,0,9.8,4.7H197.2a19.3,19.3,0,0,0,10.6-3.9l4.2-3.7a14.9,14.9,0,0,0,4.5-9.9l.9-117.5a58.5,58.5,0,0,1,1.4-11.8l5.3-21.3a58.5,58.5,0,0,0,1.4-11.8V48.3a19,19,0,0,0-3.9-10.5l-7.5-8.6a20.7,20.7,0,0,0-9.8-5.7L184,19.6a77.3,77.3,0,0,0-11.8-1.1H123.8a79.8,79.8,0,0,0-11.9,1.1l-20.6,4A21.6,21.6,0,0,0,81.2,29l-8.5,9a17.2,17.2,0,0,0-4.2,10.3v9.3a58.5,58.5,0,0,0,1.4,11.8l5.2,21.3A53.5,53.5,0,0,1,76.5,101a4.5,4.5,0,0,1-4.5,4.5c-2.4,0-5-2.6-5.7-5.9l-4.8-21a115.8,115.8,0,0,1-1.8-11.8L56.4,25.9c-.2-3.3-.6-3.3-.8,0L53.2,64.7a65,65,0,0,1-2,11.7L44.9,98.7a8.4,8.4,0,0,1-7.6,5.8h-.8a6,6,0,0,0-6,6Z" style="fill:none;stroke:#231f20;stroke-miterlimit:10;stroke-width:3px"/><path d="M97.2,123.5c-7.5-3.3-7.1-4.5.9-2.6l31.8,7.2c8,1.9,21.2,1.9,29.2.2l34.4-7.6c8-1.7,8.4-.5.9,2.8l-34.9,15.3c-7.5,3.4-19.9,3.4-27.4,0Z" style="fill:#231f20"/></svg>