<svg xmlns="http://www.w3.org/2000/svg" viewBox="0 0 256 256"><path d="M188.7,206a4.1,4.1,0,0,1-3-1.2,3.8,3.8,0,0,1-1.2-2.9V181.7a15,15,0,0,0-1.1-5.1l-28.2-63.2a3.5,3.5,0,0,0-2.8-1.9H102a4.5,4.5,0,0,1-4.5-4.5v-7a1.7,1.7,0,0,0-1.6-1.7l-70-3.6h-.1c-.8,0-1.3.3-1.3.4,0,1.9-2,3.4-4.5,3.4H7A4.5,4.5,0,0,1,2.5,94V73.3A10.3,10.3,0,0,1,5,67.1l6.7-7a8.8,8.8,0,0,1,5.4-2.6,5,5,0,0,1,4.5,4l1.9,7.2a2.4,2.4,0,0,0,2.2,1.7l70.2-2.8A1.6,1.6,0,0,0,97.5,66V65a4.5,4.5,0,0,1,4.5-4.5h76a4.8,4.8,0,0,0,3.3-1.8l2.9-4.9a7.2,7.2,0,0,1,5.8-3.3h43.3a9.9,9.9,0,0,1,6.2,2.6l1.4,1.5a9.4,9.4,0,0,1,2.6,6.1V85.2a11.6,11.6,0,0,1-2.2,6.2l-10.9,13.2a11.2,11.2,0,0,0-2,4.6l-2.1,14a10.2,10.2,0,0,0,.6,4.9l25.4,54.4a10.3,10.3,0,0,1,.4,6.7l-2.1,6.3a6.8,6.8,0,0,1-5.2,4.2L189.1,206Z" style="fill:#fff"/><path d="M233.3,52a8.9,8.9,0,0,1,5.1,2.1l1.5,1.5a8.9,8.9,0,0,1,2.1,5.1V85.2a10.3,10.3,0,0,1-1.9,5.3l-10.9,13.2a12.6,12.6,0,0,0-2.3,5.3l-2.1,14a11.2,11.2,0,0,0,.8,5.7L251,183.2a8.6,8.6,0,0,1,.3,5.5l-2.1,6.3a5.1,5.1,0,0,1-3.9,3.2L189,204.5h-.3a2.6,2.6,0,0,1-2.7-2.6V181.7a16.2,16.2,0,0,0-1.2-5.7l-28.2-63.3a5.1,5.1,0,0,0-4.2-2.7H102a3.1,3.1,0,0,1-3-3v-7a3.2,3.2,0,0,0-3-3.2L26,93.2h-.2c-1.6,0-2.8.8-2.8,1.8s-1.3,2-3,2H7a3.1,3.1,0,0,1-3-3V73.3a8.3,8.3,0,0,1,2.1-5.1l6.7-7A7.4,7.4,0,0,1,17.1,59c1.3,0,2.6,1.3,3.1,2.9L22,69.1a4.1,4.1,0,0,0,3.7,2.8h.1L96,69.1A3,3,0,0,0,99,66V65a3,3,0,0,1,3-3h76a5.7,5.7,0,0,0,4.5-2.6l3-4.8A5.9,5.9,0,0,1,190,52h43.3m0-3H190a8.9,8.9,0,0,0-7.1,4L180,57.9a3.1,3.1,0,0,1-2,1.1H102a6,6,0,0,0-6,6v1h-.1L25.7,68.9h0a1,1,0,0,1-.8-.6l-1.8-7.2c-.8-2.9-3.3-5.1-6-5.1s-5,1.6-6.5,3.1l-6.7,7A11.5,11.5,0,0,0,1,73.3V94a6,6,0,0,0,6,6H20c2.9,0,5.2-1.6,5.8-3.8l70,3.6a.2.2,0,0,1,.2.2v7a6,6,0,0,0,6,6h50.4c.4,0,1.3.5,1.4,1L182,177.2a14.6,14.6,0,0,1,1,4.5v20.2a5.6,5.6,0,0,0,5.7,5.6h.6l56.3-6.3A8.2,8.2,0,0,0,252,196l2.1-6.3a11.6,11.6,0,0,0-.4-7.8l-25.4-54.5a10.3,10.3,0,0,1-.6-3.9l2.1-14.1a10.8,10.8,0,0,1,1.7-3.8l10.9-13.2a12.7,12.7,0,0,0,2.6-7.2V60.7a11.4,11.4,0,0,0-3-7.2L240.5,52a11.4,11.4,0,0,0-7.2-3Z" style="fill:#231f20"/></svg>