<svg xmlns="http://www.w3.org/2000/svg" viewBox="0 0 256 128"><path d="M3.5,42.5a3.1,3.1,0,0,1,3-3h2c1.6,0,3-.7,3-1.5s.9-1.5,2-1.5,2-1.4,2-3v-1a2.8,2.8,0,0,1,2.5-3,2.3,2.3,0,0,1,2.5,1.9,4.3,4.3,0,0,0,1.4,3,8.3,8.3,0,0,0,4.4,1.1H60.6a8,8,0,0,0,4.3-1,6.1,6.1,0,0,1,3.5-1,5.5,5.5,0,0,1,3.4,1,7.6,7.6,0,0,0,4.2,1h2.3a8.2,8.2,0,0,0,5-2,6.9,6.9,0,0,1,4-2,6.2,6.2,0,0,1,3.9,2,7.3,7.3,0,0,0,4.8,2h5.9a7.6,7.6,0,0,0,4.5-1.5,5.5,5.5,0,0,1,3.3-1.5,1.7,1.7,0,0,1,1.8,1.5,1.4,1.4,0,0,0,1.3,1.5c.8,0,2-1,2.9-2.2a6.2,6.2,0,0,1,4.5-2.5l9.1-.6c1.7-.1,2.9.8,2.6,2.1s1,2.2,2.6,2.2h16.2a22.7,22.7,0,0,0,5.8-1l2.8-1c1.5-.5,2.6.3,2.3,2l-1,5a4,4,0,0,0,2.2,4.2l14.6,6.6a7.7,7.7,0,0,0,5.4,0l1.5-.6a12.8,12.8,0,0,1,5.8-.8l56.4,7.2a7.1,7.1,0,0,1,4.3,2.4,9.7,9.7,0,0,1,1.2,5l-.8,29a16.8,16.8,0,0,1-1.1,5c-.6,1.1-2.2,1.5-3.8.8L190.9,74.7a11.5,11.5,0,0,0-5.8-.7l-6,1a4.2,4.2,0,0,1-4.3-2.2l-1.4-2.6a9.1,9.1,0,0,0-4.1-3.9l-10.5-4.6a2.7,2.7,0,0,0-3.7,1.6L154,66.7a9,9,0,0,1-3.4,4.3,8.4,8.4,0,0,1-5.4.8l-2.2-.6a6.6,6.6,0,0,1-4-3.5l-.9-2.4a21.7,21.7,0,0,0-2.5-4.8,6.8,6.8,0,0,0-4.5-2.1L73.9,56.6a7.9,7.9,0,0,1-5-2.4L67,51.8a7.1,7.1,0,0,0-4.9-2.3H24.7a2.4,2.4,0,0,0-2.5,3h0c.3,1.7,0,3-.6,3s-2-1-3.1-2.3l-2-2.4c-1.1-1.3-2.7-2.3-3.5-2.3A1.5,1.5,0,0,1,11.5,47c0-.8-1.4-1.5-3-1.5h-2a3.1,3.1,0,0,1-3-3Z" style="fill:#fff"/><path d="M3.5,42.5a3.1,3.1,0,0,1,3-3h2c1.6,0,3-.7,3-1.5s.9-1.5,2-1.5,2-1.4,2-3v-1a2.8,2.8,0,0,1,2.5-3,2.3,2.3,0,0,1,2.5,1.9,4.3,4.3,0,0,0,1.4,3,8.3,8.3,0,0,0,4.4,1.1H60.6a8,8,0,0,0,4.3-1,6.1,6.1,0,0,1,3.5-1,5.5,5.5,0,0,1,3.4,1,7.6,7.6,0,0,0,4.2,1h2.3a8.2,8.2,0,0,0,5-2,6.9,6.9,0,0,1,4-2,6.2,6.2,0,0,1,3.9,2,7.3,7.3,0,0,0,4.8,2h5.9a7.6,7.6,0,0,0,4.5-1.5,5.5,5.5,0,0,1,3.3-1.5,1.7,1.7,0,0,1,1.8,1.5,1.4,1.4,0,0,0,1.3,1.5c.8,0,2-1,2.9-2.2a6.2,6.2,0,0,1,4.5-2.5l9.1-.6c1.7-.1,2.9.8,2.6,2.1s1,2.2,2.6,2.2h16.2a22.7,22.7,0,0,0,5.8-1l2.8-1c1.5-.5,2.6.3,2.3,2l-1,5a4,4,0,0,0,2.2,4.2l14.6,6.6a7.7,7.7,0,0,0,5.4,0l1.5-.6a12.8,12.8,0,0,1,5.8-.8l56.4,7.2a7.1,7.1,0,0,1,4.3,2.4,9.7,9.7,0,0,1,1.2,5l-.8,29a16.8,16.8,0,0,1-1.1,5c-.6,1.1-2.2,1.5-3.8.8L190.9,74.7a11.5,11.5,0,0,0-5.8-.7l-6,1a4.2,4.2,0,0,1-4.3-2.2l-1.4-2.6a9.1,9.1,0,0,0-4.1-3.9l-10.5-4.6a2.7,2.7,0,0,0-3.7,1.6L154,66.7a9,9,0,0,1-3.4,4.3,8.4,8.4,0,0,1-5.4.8l-2.2-.6a6.6,6.6,0,0,1-4-3.5l-.9-2.4a21.7,21.7,0,0,0-2.5-4.8,6.8,6.8,0,0,0-4.5-2.1L73.9,56.6a7.9,7.9,0,0,1-5-2.4L67,51.8a7.1,7.1,0,0,0-4.9-2.3H24.7a2.4,2.4,0,0,0-2.5,3h0c.3,1.7,0,3-.6,3s-2-1-3.1-2.3l-2-2.4c-1.1-1.3-2.7-2.3-3.5-2.3A1.5,1.5,0,0,1,11.5,47c0-.8-1.4-1.5-3-1.5h-2a3.1,3.1,0,0,1-3-3Z" style="fill:none;stroke:#231f20;stroke-miterlimit:10;stroke-width:3px"/></svg>