<svg xmlns="http://www.w3.org/2000/svg" viewBox="0 0 256 128"><path d="M157,64.3a4.6,4.6,0,0,0-4.9,4.8v.4a4.8,4.8,0,0,1-5,4.9l-28.3-.5c-2.8-.1-5.2.6-5.3,1.5s1.9,1.7,4.6,1.9l55.6,4.2c2.8.2,5.9-.2,6.9-.9s4.1-1.3,6.9-1.4h1c2.8,0,5.1.6,5.2,1.5s2.4,1.8,5.1,2.1l31.6,3.4c2.8.3,5.5-.9,6.1-2.7a9.3,9.3,0,0,1,4.1-4.6c1.6-.8,3.3.6,3.8,3.2a10.7,10.7,0,0,0,5.7,6.5h.2c2.5,1,2.8,3.2.7,4.9l-.5.3c-2.2,1.7-4.2,4.5-4.6,6.3a7.8,7.8,0,0,1-3.5,4.6c-1.6.8-4-.6-5.4-3h0a11.1,11.1,0,0,0-7.5-4.9l-30.6-3.6c-2.7-.3-4.8.4-4.7,1.5s-2,1.9-4.8,1.7h-1.1a21.1,21.1,0,0,1-7.2-1.7,23.3,23.3,0,0,0-7.1-1.8l-66.9-5.8c-2.8-.3-5.3.5-5.8,1.7s-3,2-5.7,1.8l-11.4-.9A9.7,9.7,0,0,1,77,84.8l-1.9-3.9a12,12,0,0,0-6.9-5.5A44.2,44.2,0,0,0,60,74.3c-1.9-.1-3.2,1-2.7,2.4s2.2,3,3.9,3.7,3.8,3.2,4.6,5.7a12.4,12.4,0,0,1-.6,8.5c-1.1,2.1-4.3,3.9-7.1,4h-1c-2.8.1-6.3-.9-7.8-2.2a13,13,0,0,1-3.6-5.8,19.7,19.7,0,0,1-.3-6.8c.4-1.8.9-4.8,1.2-6.7a4.1,4.1,0,0,0-3.4-4.3c-2.3-.4-4.9-2.9-6-5.4l-.3-.8A8,8,0,0,0,30.1,62H27.5c-2.7,0-5.3.7-5.8,1.5S18.6,65,15.9,65h-1c-2.8-.1-5.8-1.1-6.8-2.4S6,58,5.5,55.3L5,51.9A41.1,41.1,0,0,1,4.6,42l.2-2.3a38.1,38.1,0,0,1,1.5-8,11.1,11.1,0,0,1,2.5-4.1c.8-.7,3.6-1.1,6.4-1h.9c2.8.1,5.5.8,6,1.6s3.2,1.6,5.9,1.6l27.6.8a12.3,12.3,0,0,0,8.2-3.2,11.5,11.5,0,0,1,8.1-2.9l5.3.5c2.7.2,5.8,1.9,6.9,3.7S88.2,32,90.9,32L203,34.5c2.7.1,5.1-.8,5.3-1.9a27.1,27.1,0,0,1,1.2-4.7c.5-1.5,3.1-2.6,5.9-2.5l8.2.5a8.2,8.2,0,0,1,6.8,4.9h.1a35.6,35.6,0,0,1,2,9.7l1,21.7a58,58,0,0,1-.2,9.4c-.2,2.3-2.7,4.3-5.5,4.2h-11c-2.8,0-5.5-1-6-2.3a25.7,25.7,0,0,1-1.5-4.7c-.3-1.4-2.8-2.5-5.5-2.7Z" style="fill:#fff"/><path d="M157,64.3a4.6,4.6,0,0,0-4.9,4.8v.4a4.8,4.8,0,0,1-5,4.9l-28.3-.5c-2.8-.1-5.2.6-5.3,1.5s1.9,1.7,4.6,1.9l55.6,4.2c2.8.2,5.9-.2,6.9-.9s4.1-1.3,6.9-1.4h1c2.8,0,5.1.6,5.2,1.5s2.4,1.8,5.1,2.1l31.6,3.4c2.8.3,5.5-.9,6.1-2.7a9.3,9.3,0,0,1,4.1-4.6c1.6-.8,3.3.6,3.8,3.2a10.7,10.7,0,0,0,5.7,6.5h.2c2.5,1,2.8,3.2.7,4.9l-.5.3c-2.2,1.7-4.2,4.5-4.6,6.3a7.8,7.8,0,0,1-3.5,4.6c-1.6.8-4-.6-5.4-3h0a11.1,11.1,0,0,0-7.5-4.9l-30.6-3.6c-2.7-.3-4.8.4-4.7,1.5s-2,1.9-4.8,1.7h-1.1a21.1,21.1,0,0,1-7.2-1.7,23.3,23.3,0,0,0-7.1-1.8l-66.9-5.8c-2.8-.3-5.3.5-5.8,1.7s-3,2-5.7,1.8l-11.4-.9A9.7,9.7,0,0,1,77,84.8l-1.9-3.9a12,12,0,0,0-6.9-5.5A44.2,44.2,0,0,0,60,74.3c-1.9-.1-3.2,1-2.7,2.4s2.2,3,3.9,3.7,3.8,3.2,4.6,5.7a12.4,12.4,0,0,1-.6,8.5c-1.1,2.1-4.3,3.9-7.1,4h-1c-2.8.1-6.3-.9-7.8-2.2a13,13,0,0,1-3.6-5.8,19.7,19.7,0,0,1-.3-6.8c.4-1.8.9-4.8,1.2-6.7a4.1,4.1,0,0,0-3.4-4.3c-2.3-.4-4.9-2.9-6-5.4l-.3-.8A8,8,0,0,0,30.1,62H27.5c-2.7,0-5.3.7-5.8,1.5S18.6,65,15.9,65h-1c-2.8-.1-5.8-1.1-6.8-2.4S6,58,5.5,55.3L5,51.9A41.1,41.1,0,0,1,4.6,42l.2-2.3a38.1,38.1,0,0,1,1.5-8,11.1,11.1,0,0,1,2.5-4.1c.8-.7,3.6-1.1,6.4-1h.9c2.8.1,5.5.8,6,1.6s3.2,1.6,5.9,1.6l27.6.8a12.3,12.3,0,0,0,8.2-3.2,11.5,11.5,0,0,1,8.1-2.9l5.3.5c2.7.2,5.8,1.9,6.9,3.7S88.2,32,90.9,32L203,34.5c2.7.1,5.1-.8,5.3-1.9a27.1,27.1,0,0,1,1.2-4.7c.5-1.5,3.1-2.6,5.9-2.5l8.2.5a8.2,8.2,0,0,1,6.8,4.9h.1a35.6,35.6,0,0,1,2,9.7l1,21.7a58,58,0,0,1-.2,9.4c-.2,2.3-2.7,4.3-5.5,4.2h-11c-2.8,0-5.5-1-6-2.3a25.7,25.7,0,0,1-1.5-4.7c-.3-1.4-2.8-2.5-5.5-2.7Z" style="fill:none;stroke:#231f20;stroke-miterlimit:10;stroke-width:2px"/></svg>