<?xml version="1.0" encoding="UTF-8" standalone="no"?>
<!-- Created with Inkscape (http://www.inkscape.org/) -->

<svg
   width="1024"
   height="1024"
   viewBox="0 0 270.93333 270.93334"
   version="1.1"
   id="svg8"
   inkscape:export-filename="C:\Users\kemon\Desktop\legacy\icons\reload.png"
   inkscape:export-xdpi="96"
   inkscape:export-ydpi="96"
   inkscape:version="1.4 (86a8ad7, 2024-10-11)"
   sodipodi:docname="gears.svg"
   xml:space="preserve"
   xmlns:inkscape="http://www.inkscape.org/namespaces/inkscape"
   xmlns:sodipodi="http://sodipodi.sourceforge.net/DTD/sodipodi-0.dtd"
   xmlns="http://www.w3.org/2000/svg"
   xmlns:svg="http://www.w3.org/2000/svg"
   xmlns:rdf="http://www.w3.org/1999/02/22-rdf-syntax-ns#"
   xmlns:cc="http://creativecommons.org/ns#"
   xmlns:dc="http://purl.org/dc/elements/1.1/"><defs
     id="defs2" /><sodipodi:namedview
     id="base"
     pagecolor="#ffffff"
     bordercolor="#666666"
     borderopacity="1.0"
     inkscape:pageopacity="0.0"
     inkscape:pageshadow="2"
     inkscape:zoom="0.49497475"
     inkscape:cx="384.86812"
     inkscape:cy="617.2032"
     inkscape:document-units="mm"
     inkscape:current-layer="layer1"
     showgrid="false"
     units="px"
     showguides="true"
     inkscape:guide-bbox="true"
     inkscape:window-width="1920"
     inkscape:window-height="1017"
     inkscape:window-x="-8"
     inkscape:window-y="-8"
     inkscape:window-maximized="1"
     inkscape:showpageshadow="0"
     inkscape:pagecheckerboard="1"
     inkscape:deskcolor="#505050" /><metadata
     id="metadata5"><rdf:RDF><cc:Work
         rdf:about=""><dc:format>image/svg+xml</dc:format><dc:type
           rdf:resource="http://purl.org/dc/dcmitype/StillImage" /></cc:Work></rdf:RDF></metadata><g
     inkscape:label="Layer 1"
     inkscape:groupmode="layer"
     id="layer1"
     transform="translate(0,-26.06665)"><g
       style="fill:#000000;stroke:#000000;stroke-width:0.00045973"
       id="g3"
       transform="matrix(4.0286798,0,0,4.0286798,42.863434,68.930088)"><g
         id="SVGRepo_bgCarrier"
         stroke-width="0" /><g
         id="SVGRepo_tracerCarrier"
         stroke-linecap="round"
         stroke-linejoin="round"
         stroke="#cccccc"
         stroke-width="1.56308" /><g
         id="SVGRepo_iconCarrier"> <g
   id="g2"> <g
   id="g1"> <path
   d="m 43.454,18.443 h -2.437 c -0.453,-1.766 -1.16,-3.42 -2.082,-4.933 l 1.752,-1.756 C 41.16,11.281 41.42,10.65 41.42,9.98 41.42,9.311 41.158,8.679 40.687,8.207 L 37.767,5.29 C 36.82,4.342 35.165,4.343 34.222,5.289 L 32.396,7.104 C 30.9,6.232 29.296,5.56 27.529,5.128 V 2.52 C 27.529,1.137 26.424,0 25.041,0 H 20.913 C 19.53,0 18.442,1.137 18.442,2.52 v 2.607 c -1.766,0.431 -3.38,1.104 -4.878,1.977 L 11.739,5.289 C 10.793,4.341 9.137,4.342 8.188,5.288 L 5.27,8.205 C 4.802,8.672 4.535,9.318 4.535,9.978 c 0,0.669 0.259,1.299 0.733,1.772 L 7.02,13.51 C 6.099,15.023 5.391,16.677 4.939,18.443 H 2.501 C 1.117,18.443 0,19.555 0,20.935 v 4.125 c 0,1.384 1.117,2.471 2.501,2.471 h 2.438 c 0.452,1.766 1.159,3.43 2.079,4.943 l -1.752,1.763 c -0.474,0.473 -0.734,1.106 -0.734,1.776 0,0.67 0.261,1.303 0.734,1.776 l 2.92,2.919 c 0.474,0.473 1.103,0.733 1.772,0.733 0.669,0 1.299,-0.261 1.773,-0.733 l 1.833,-1.816 c 1.498,0.873 3.112,1.545 4.878,1.978 v 2.604 c 0,1.383 1.088,2.498 2.471,2.498 h 4.128 c 1.383,0 2.488,-1.115 2.488,-2.498 v -2.605 c 1.767,-0.432 3.371,-1.104 4.869,-1.977 l 1.817,1.812 c 0.474,0.475 1.104,0.735 1.775,0.735 0.67,0 1.301,-0.261 1.774,-0.733 l 2.92,-2.917 c 0.473,-0.472 0.732,-1.103 0.734,-1.772 0,-0.67 -0.262,-1.299 -0.734,-1.773 l -1.75,-1.77 c 0.92,-1.514 1.627,-3.179 2.08,-4.943 h 2.438 c 1.383,0 2.52,-1.087 2.52,-2.471 v -4.125 c 10e-4,-1.38 -1.135,-2.492 -2.518,-2.492 z M 22.976,30.85 c -4.378,0 -7.928,-3.517 -7.928,-7.852 0,-4.338 3.55,-7.85 7.928,-7.85 4.379,0 7.931,3.512 7.931,7.85 -0.001,4.336 -3.552,7.852 -7.931,7.852 z"
   id="path1" /> </g> </g> </g></g></g></svg>
