<?xml version="1.0" encoding="utf-8"?>
<!-- Generator: Adobe Illustrator 17.0.0, SVG Export Plug-In . SVG Version: 6.00 Build 0)  -->
<!DOCTYPE svg PUBLIC "-//W3C//DTD SVG 1.1//EN" "http://www.w3.org/Graphics/SVG/1.1/DTD/svg11.dtd">
<svg version="1.1" id="Layer_1" xmlns="http://www.w3.org/2000/svg" xmlns:xlink="http://www.w3.org/1999/xlink" x="0px" y="0px"
	 width="2000px" height="2000px" viewBox="0 0 2000 2000" enable-background="new 0 0 2000 2000" xml:space="preserve">
<path fill="#FF1E00" d="M338.91,1096.36l0.011,0v13.766c-0.004,30.41-24.657,55.063-55.063,55.063H118.669v-55.063h110.126
	l55.063-55.063H118.669v-27.531h192.72l55.063-55.063H118.669v-27.531h275.315l55.063-55.063H118.669v-55.063
	c0-30.406,24.653-55.059,55.063-55.063h13.766l0,0.011c0-22.808-18.489-41.297-41.297-41.297L8.543,724.685v550.63h385.441
	c0,0-13.776-137.657-13.776-137.657C380.208,1114.85,361.718,1096.36,338.91,1096.36"/>
<polyline fill="#FF1E00" points="504.11,669.622 504.11,1330.378 531.642,1330.378 531.642,669.622 "/>
<g>
	<path fill="#FFFFFF" d="M754.35,1227.414v47.901H586.705V889.874h60.571v337.54H754.35z"/>
	<path fill="#FFFFFF" d="M850.344,938.34v120.022h99.727v48.466h-99.727v120.586h133.985v47.901H789.773V889.874h194.556v48.466
		H850.344z"/>
	<path fill="#FFFFFF" d="M1009.984,1225.747c-12.843-23.655-13.47-44.595-13.47-46.799V986.241c0-2.204,0.627-23.144,13.47-46.799
		c17.741-31.961,52.596-49.568,97.278-49.568c44.652,0,79.537,17.607,97.278,49.568c12.843,23.655,13.44,44.595,13.44,46.799v24.219
		h-61.168v-24.219c0-8.817-6.123-47.901-49.55-47.901c-43.457,0-50.177,39.622-50.177,47.901v192.707
		c0,8.279,6.72,48.466,50.177,48.466c43.427,0,49.55-39.649,49.55-48.466v-72.121h-39.783v-48.466h100.952v120.586
		c0,2.204-0.597,23.144-13.44,46.799c-17.741,31.961-52.626,49.568-97.278,49.568
		C1062.581,1275.315,1027.726,1257.708,1009.984,1225.747z"/>
	<path fill="#FFFFFF" d="M1406.384,1154.729h-89.303l-28.762,120.586h-61.796l91.782-385.441h86.854l91.782,385.441h-61.796
		L1406.384,1154.729z M1394.765,1106.827l-33.033-138.22c-11.618,46.799-22.012,91.421-33.033,138.22H1394.765z"/>
	<path fill="#FFFFFF" d="M1545.834,1225.747c-12.843-23.655-13.47-44.595-13.47-46.799V986.241c0-2.204,0.627-23.144,13.47-46.799
		c17.741-31.961,52.596-49.568,97.278-49.568c44.652,0,79.537,17.607,97.278,49.568c12.843,23.655,13.44,44.595,13.44,46.799v24.219
		h-61.168v-24.219c0-8.817-6.123-47.901-49.55-47.901c-43.457,0-50.177,39.622-50.177,47.901v192.707
		c0,8.279,6.72,48.466,50.177,48.466c43.427,0,49.55-39.649,49.55-48.466v-24.219h61.168v24.219c0,2.204-0.597,23.144-13.44,46.799
		c-17.741,31.961-52.626,49.568-97.278,49.568C1598.431,1275.315,1563.575,1257.708,1545.834,1225.747z"/>
	<path fill="#FFFFFF" d="M1995.457,889.874l-90.528,197.68v187.761h-60.571v-187.761l-90.558-197.68h65.469l55.046,121.124
		c18.368-40.724,37.334-80.373,55.703-121.124H1995.457z"/>
</g>
</svg>
