<?xml version="1.0" encoding="UTF-8" standalone="no"?>
<!-- Created with Inkscape (http://www.inkscape.org/) -->

<svg
   xmlns:dc="http://purl.org/dc/elements/1.1/"
   xmlns:cc="http://creativecommons.org/ns#"
   xmlns:rdf="http://www.w3.org/1999/02/22-rdf-syntax-ns#"
   xmlns:svg="http://www.w3.org/2000/svg"
   xmlns="http://www.w3.org/2000/svg"
   xmlns:sodipodi="http://sodipodi.sourceforge.net/DTD/sodipodi-0.dtd"
   xmlns:inkscape="http://www.inkscape.org/namespaces/inkscape"
   width="1024"
   height="1024"
   viewBox="0 0 270.93333 270.93334"
   version="1.1"
   id="svg8"
   inkscape:export-filename="C:\Users\kemon\Desktop\legacy\icons\jump.png"
   inkscape:export-xdpi="96"
   inkscape:export-ydpi="96"
   inkscape:version="0.92.4 (5da689c313, 2019-01-14)"
   sodipodi:docname="jump.svg">
  <defs
     id="defs2" />
  <sodipodi:namedview
     id="base"
     pagecolor="#ffffff"
     bordercolor="#666666"
     borderopacity="1.0"
     inkscape:pageopacity="0.0"
     inkscape:pageshadow="2"
     inkscape:zoom="0.35"
     inkscape:cx="1016.7813"
     inkscape:cy="-3.1559677"
     inkscape:document-units="mm"
     inkscape:current-layer="layer1"
     showgrid="false"
     units="px"
     showguides="true"
     inkscape:guide-bbox="true"
     inkscape:window-width="2560"
     inkscape:window-height="1417"
     inkscape:window-x="-8"
     inkscape:window-y="-8"
     inkscape:window-maximized="1" />
  <metadata
     id="metadata5">
    <rdf:RDF>
      <cc:Work
         rdf:about="">
        <dc:format>image/svg+xml</dc:format>
        <dc:type
           rdf:resource="http://purl.org/dc/dcmitype/StillImage" />
        <dc:title />
      </cc:Work>
    </rdf:RDF>
  </metadata>
  <g
     inkscape:label="Layer 1"
     inkscape:groupmode="layer"
     id="layer1"
     transform="translate(0,-26.06665)"
     style="display:inline">
    <path
       style="fill:#000000;stroke:none;stroke-width:0.21881755px;stroke-linecap:butt;stroke-linejoin:miter;stroke-opacity:1"
       d="m 131.39886,120.24592 c -5.8155,0.37893 -25.43374,0.46494 -25.28306,0.55427 7.15126,8.09671 -5.42258,15.98794 -11.99261,8.70688 -0.676978,0.35692 -0.966015,0.58658 -1.717799,0.7832 12.181419,35.24044 -6.698787,36.45879 -3.335713,63.11966 37.502952,-4.97337 62.188292,15.40911 97.588852,0.663 -2.50369,-15.54633 -18.47912,-10.04297 -29.50879,-12.26746 -2.31876,-0.92229 -4.70741,-2.55956 -7.01507,-4.53099 -0.58282,0.70966 -1.19117,1.49583 -1.88568,2.44843 -1.5,0.6583 -2.74135,-0.88563 -2.22415,-2.03605 0.59605,-1.08016 1.13855,-1.92749 1.66863,-2.6417 -1.88724,-1.83327 -3.67731,-3.811 -5.27513,-5.70973 -0.83741,0.95418 -1.67698,2.00499 -2.69802,3.40547 -1.5,0.65831 -2.74082,-0.88565 -2.22364,-2.03605 1.01731,-1.84354 1.88007,-3.00745 2.78898,-3.98942 -1.18627,-1.50672 -2.21163,-2.88505 -2.99672,-3.97805 -2.03752,1.65295 -3.45774,2.93024 -5.65289,5.3821 -1.55834,0.50489 -2.96993,-1.09979 -2.00866,-2.24792 2.18276,-3.16005 3.63627,-4.13888 5.86114,-5.77381 0.0365,-1.7498 0.0298,-3.53085 -0.009,-5.33301 -3.85298,0.031 -5.88205,0.0563 -9.91206,0.7736 -1.53816,-0.12131 -1.53073,-2.81279 -0.19533,-3.0086 4.41731,-1.37561 6.02879,-0.91021 10.00869,-0.89504 -0.12505,-2.8649 -0.33479,-5.78192 -0.61805,-8.7328 -4.3244,0.0471 -8.60857,0.37731 -12.83229,1.12913 -1.25284,-0.0108 -1.55,-1.96254 -0.36226,-2.59209 4.52109,-1.40793 8.44291,-1.61153 12.86692,-1.66036 -0.72312,-6.44087 -1.77053,-13.01146 -3.03651,-19.53266 z m -30.84876,74.35101 c -4.058725,0.0309 -8.343377,0.30583 -12.917028,0.91261 l 0.07286,5.02295 c 37.259238,-4.42774 71.645898,17.73956 102.157578,-0.60203 l -0.99426,-4.64158 C 151.6726,210.2897 133.59979,194.3451 100.5501,194.59693 Z"
       id="path1041-2-6"
       inkscape:connector-curvature="0"
       sodipodi:nodetypes="ccccccccccccccccccccccccccccccccccc" />
    <path
       style="display:inline;fill:#000000;fill-opacity:1;stroke:none;stroke-width:0.26458332px;stroke-linecap:butt;stroke-linejoin:miter;stroke-opacity:1"
       d="m 135.46667,68.92915 c -20.5243,0 -39.48793,6.678417 -54.83955,17.978747 L 96.67368,99.971183 C 107.90287,92.880297 121.20431,88.7729 135.46667,88.7729 c 40.18445,0 72.76041,32.57595 72.76041,72.76041 0,40.18447 -32.57596,72.76042 -72.76041,72.76042 -40.18446,0 -72.76042,-32.57595 -72.76042,-72.76042 0,-13.05871 3.44308,-25.31197 9.46661,-35.90685 L 56.81824,112.62312 c -8.8452,14.19322 -13.95574,30.95491 -13.95574,48.91019 0,51.14386 41.46031,92.60417 92.60417,92.60417 51.14384,0 92.60416,-41.46031 92.60416,-92.60417 1e-5,-51.14388 -41.46031,-92.60416 -92.60416,-92.60416 z m -78.64843,43.69397 z m 15.35462,13.00334 z"
       id="path36"
       inkscape:connector-curvature="0"
       sodipodi:nodetypes="sccssssccsssscccc" />
    <path
       style="display:inline;fill:#000000;stroke:#000000;stroke-width:0.24451293px;stroke-linecap:butt;stroke-linejoin:miter;stroke-opacity:1"
       d="m 55.152658,69.431323 c 11.921414,18.224351 32.170075,26.305675 37.111031,31.121427 0.796012,0.71075 1.261567,1.55367 1.234989,2.59345 -1.511665,13.74847 5.941608,14.53677 11.608762,17.90717 6.6088,7.48252 -4.48738,14.07685 -10.559027,7.34811 -1.775225,0.93593 -3.823387,1.28695 -6.174883,0.98797 1.440675,-1.59645 2.808612,-3.27374 3.519673,-5.68089 -2.758103,2.28471 -5.516219,3.45794 -8.27433,3.51969 2.235697,-1.78944 4.488209,-3.56465 5.680889,-6.23664 -3.306783,2.38524 -7.396431,3.43959 -12.349767,3.0257 3.232792,-1.29234 6.245582,-2.83611 8.336096,-5.4339 -4.383432,1.72716 -9.201833,1.81112 -14.325728,0.74099 3.539756,-0.6116 6.891587,-1.57815 9.69457,-3.58144 -6.241268,0.55483 -12.514862,0.60056 -19.080402,-3.95192 3.487219,-0.0551 7.094307,0.54915 10.435557,-0.30875 -5.592278,-0.99793 -10.915178,-4.18942 -15.931199,-9.87981 5.238998,2.45592 10.280238,3.67585 15.190212,4.07542 -7.317377,-2.44667 -14.22572,-5.962127 -19.018642,-15.004975 6.252081,4.920424 12.187281,7.115718 18.030668,8.521349 C 61.320835,95.70919 54.182002,89.303986 50.397995,77.520422 55.904023,84.621175 62.189872,88.60266 68.675649,91.784404 61.668203,86.42224 56.184048,79.787184 55.152658,69.431323 Z"
       id="path1129-0"
       inkscape:connector-curvature="0"
       sodipodi:nodetypes="cccccccccccccccccccccc" />
  </g>
</svg>
