<?xml version="1.0" encoding="UTF-8" standalone="no"?>
<!-- Created with Inkscape (http://www.inkscape.org/) -->

<svg
   width="210mm"
   height="297mm"
   viewBox="0 0 210 297"
   version="1.1"
   id="svg1"
   xml:space="preserve"
   inkscape:version="1.4 (e7c3feb100, 2024-10-09)"
   sodipodi:docname="medic_revive.svg"
   inkscape:export-filename="../workspace/etlegacy/etmain/sprites/src_medicrevive.png"
   inkscape:export-xdpi="134"
   inkscape:export-ydpi="134"
   xmlns:inkscape="http://www.inkscape.org/namespaces/inkscape"
   xmlns:sodipodi="http://sodipodi.sourceforge.net/DTD/sodipodi-0.dtd"
   xmlns:xlink="http://www.w3.org/1999/xlink"
   xmlns="http://www.w3.org/2000/svg"
   xmlns:svg="http://www.w3.org/2000/svg"><sodipodi:namedview
     id="namedview1"
     pagecolor="#000000"
     bordercolor="#000000"
     borderopacity="0.25"
     inkscape:showpageshadow="2"
     inkscape:pageopacity="0.0"
     inkscape:pagecheckerboard="false"
     inkscape:deskcolor="#d1d1d1"
     inkscape:document-units="mm"
     inkscape:zoom="0.45254834"
     inkscape:cx="-112.69514"
     inkscape:cy="654.07377"
     inkscape:window-width="1920"
     inkscape:window-height="1028"
     inkscape:window-x="0"
     inkscape:window-y="22"
     inkscape:window-maximized="1"
     inkscape:current-layer="layer1"
     showgrid="false"><inkscape:grid
       id="grid1"
       units="mm"
       originx="0"
       originy="0"
       spacingx="0.99999998"
       spacingy="1"
       empcolor="#0099e5"
       empopacity="0.30196078"
       color="#0099e5"
       opacity="0.14901961"
       empspacing="5"
       enabled="true"
       visible="false" /></sodipodi:namedview><defs
     id="defs1"><linearGradient
       id="linearGradient8"
       inkscape:collect="always"><stop
         style="stop-color:#5d0505;stop-opacity:0.30000001;"
         offset="0"
         id="stop8" /><stop
         style="stop-color:#b01117;stop-opacity:0.34999999;"
         offset="1"
         id="stop11" /></linearGradient><radialGradient
       inkscape:collect="always"
       xlink:href="#linearGradient8"
       id="radialGradient9"
       cx="81.028648"
       cy="81.028648"
       fx="81.028648"
       fy="81.028648"
       r="86.081396"
       gradientUnits="userSpaceOnUse"
       gradientTransform="translate(24.370765,39.07249)" /></defs><g
     inkscape:label="Layer 1"
     inkscape:groupmode="layer"
     id="layer1"><ellipse
       style="opacity:1;fill:url(#radialGradient9);stroke:#c0c0c0;stroke-width:6;stroke-linejoin:bevel;stroke-miterlimit:4.3;stroke-dasharray:none;stroke-opacity:1"
       id="path7"
       cx="105.39941"
       cy="120.10114"
       inkscape:export-filename="../workspace/etlegacy/etmain/sprites/src_medicrevive.png"
       inkscape:export-xdpi="96"
       inkscape:export-ydpi="96"
       rx="81.028999"
       ry="81.028648" /><path
       style="fill:#c0c0c0;fill-opacity:1;stroke-width:1.00013;stroke-dasharray:none"
       d="m 102.05656,229.37553 c -1.23693,-0.71143 -3.448182,-2.10976 -4.913902,-3.10739 -1.46571,-0.99764 -3.549307,-2.42399 -4.630197,-3.16968 -1.0809,-0.74569 -4.52512,-3.14846 -7.65382,-5.3395 -3.12869,-2.19103 -6.04572,-4.23886 -6.48229,-4.55073 -0.43656,-0.31186 -2.0439,-1.43181 -3.57187,-2.48877 -1.52797,-1.05696 -2.91667,-2.19632 -3.08601,-2.5319 -0.16933,-0.33559 -0.24239,-0.78081 -0.16235,-0.98939 0.08,-0.20859 0.42346,-0.48491 0.76316,-0.61406 0.36192,-0.13761 0.811645,0.0138 3.99881,0.0126 4.332923,-0.048 5.271032,0.53583 5.31264,-3.26762 0.02124,-1.94162 -0.903831,-5.64199 0.18611,-5.51654 16.678706,1.91969 29.685079,1.96837 42.755859,-0.11913 2.94296,-0.47001 3.14841,-2.10635 3.14841,3.52139 0,5.62775 0.51157,5.51813 4.87803,5.57008 3.37422,0.0401 4.97232,0.0355 5.18389,0.24466 0.21921,0.21667 0.22704,0.44958 0.0277,0.82209 -0.153,0.28588 -1.38442,1.3527 -2.73649,2.37072 -1.35208,1.01802 -3.23222,2.38217 -4.17811,3.03144 -0.94588,0.64927 -4.57748,3.20327 -8.07023,5.67556 -3.49272,2.47228 -7.8385,5.50646 -9.65727,6.74261 -1.81876,1.23615 -4.34285,2.86686 -5.60909,3.62379 -1.26623,0.75694 -2.51639,1.3756 -2.77812,1.37479 -0.26174,-8e-4 -1.48792,-0.58354 -2.72484,-1.29497 z"
       id="path6-5"
       sodipodi:nodetypes="ssssssssscsssssssssssssss" /></g><g
     inkscape:groupmode="layer"
     id="layer2"
     inkscape:label="Layer 2"><path
       d="m 104.77725,187.16908 c 0,0 -0.0826,-9.16591 -0.0949,-19.93108 -0.0146,-12.65908 -0.11628,-20.39445 -0.28793,-21.89841 -0.22374,-1.96043 -0.38254,-2.49894 -1.01178,-3.43131 -0.74637,-1.10592 -0.74637,-1.10592 -0.7058,-5.49397 0.0406,-4.38803 0.0406,-4.38803 -0.89063,-5.4004 -0.51215,-0.5568 -1.345,-1.71055 -1.850763,-2.56389 -0.505778,-0.85334 -1.20054,-1.97239 -1.543921,-2.48679 -0.624329,-0.93527 -0.624329,-0.93527 -0.639918,-19.45374 -0.0086,-10.185159 -0.03542,-21.762208 -0.05968,-25.726797 -0.04409,-7.208338 -0.04409,-7.208338 -1.416585,-7.605946 -0.754875,-0.218682 -1.615761,-0.49112 -1.913081,-0.60542 -0.297318,-0.1143 -0.445931,-0.529869 -0.600636,-0.869411 -0.219489,-0.481727 -0.234999,-0.474369 -0.205511,-0.756655 1.659559,-0.002 3.400368,0.0744 5.128327,0.04619 2.976408,-0.0027 2.551698,0.373783 2.488088,-5.849165 -0.0636,-6.222948 -0.0636,-6.222948 -1.85213,-7.329869 -0.983691,-0.608806 -1.818856,-1.264343 -1.85592,-1.45675 -0.05811,-0.301692 1.033737,-0.349828 7.93493,-0.349828 7.16588,0 8.00231,0.0398 8.00232,0.380721 2e-5,0.209397 -0.18795,0.538337 -0.41769,0.730975 -0.22974,0.192639 -0.90107,0.542468 -1.49185,0.777397 -0.59077,0.234928 -1.23525,0.508311 -1.43217,0.607517 -0.29996,0.151109 -0.37741,1.202485 -0.47739,6.480139 -0.0657,3.464871 -0.3195,6.027379 0.67141,6.020557 2.08245,-0.01434 2.66248,-0.01272 4.65854,-0.05065 1.21703,-0.02312 2.46444,-0.04287 2.46444,-0.04287 0,0 0.0135,0.404791 -0.0572,0.475459 -0.10625,0.216327 -0.27084,0.772814 -0.59905,0.956177 -0.3282,0.183362 -1.0603,0.501452 -1.69472,0.722647 -1.0231,0.356717 -1.22512,0.423483 -1.47194,0.486055 -0.18727,0.04748 -0.38705,0.106491 -0.43082,0.236644 -0.0437,0.130154 -0.0157,5.366542 0.0623,11.636412 0.0781,6.26987 0.0989,17.575991 0.0463,25.124791 -0.0621,8.92161 -0.1862,14.01742 -0.35448,14.56048 -0.14239,0.45949 -0.73467,1.66464 -1.31618,2.67812 -0.58151,1.01347 -1.52456,2.36239 -2.09565,2.99758 -1.03835,1.15489 -1.03835,1.15489 -1.05194,5.496 -0.0127,4.05226 -0.0497,4.40677 -0.55611,5.32821 -0.29838,0.54292 -0.7429,1.37361 -0.98781,1.84599 -0.24493,0.47238 -0.48904,1.45193 -0.54248,2.17678 -0.0534,0.72484 -0.25348,6.79597 -0.44453,13.49138 -0.19104,6.69541 -0.42039,15.55698 -0.50967,19.69237 -0.0893,4.13542 -0.24356,7.29444 -0.34282,7.62264 -0.10972,0.36277 -0.2488,1.37042 -0.2488,1.37042 z"
       style="fill:#c0c0c0;fill-opacity:1;stroke-width:0.902273;stroke-dasharray:none"
       id="path1"
       sodipodi:nodetypes="ccsscssscsssssssssssssssssccsssccssssssssscscc" /></g></svg>
