<svg id="e5Cc6zHv3mr1" xmlns="http://www.w3.org/2000/svg" xmlns:xlink="http://www.w3.org/1999/xlink" viewBox="0 0 270.93333 270.93334" shape-rendering="geometricPrecision" text-rendering="geometricPrecision" project-id="1734d3fa92b54d37baa12e80d907cc77" export-id="7730b6b80ee8443997ec103576509ac0" cached="false"><g transform="translate(-.000002-26.066648)"><path d="M135.46666,68.929157c-51.143857,0-92.604157,41.460273-92.604157,92.604163s41.4603,92.60416,92.604157,92.60416s92.60417-41.4603,92.60417-92.60416-41.46031-92.604163-92.60417-92.604163Zm0,19.84375c40.18445,0,72.76042,32.575943,72.76042,72.760413s-32.57597,72.76041-72.76042,72.76041-72.760407-32.57594-72.760407-72.76041s32.57595-72.760413,72.760407-72.760413Z" stroke-width="2.6766"/></g><path d="M107.940187,88.589522h18.62129l1.290585,12.537107h-3.318647v8.849721h22.124306v-7.927876h-4.056123l1.843692-13.458953h18.99003l1.659323,13.458953h-3.871754v9.21846l15.487014,2.396799l8.502364,30.552817-5.655407.157095l3.770272,24.349671.314189,10.839529-3.298988,2.199325-5.812502.314189-7.540543.314189-6.597975-.471285-7.226354-1.885136-.314189-7.540543l4.241555-24.349671-12.567572-.157094v-4.241556h-17.594601v4.084461l-13.510139.157095l4.39865,22.30744-.31419,9.268584-3.298987,2.042231-6.597975.314189-8.168922.314189-7.069259-.314189-5.812502-2.199325.314189-8.326016l4.555745-26.863185-5.812502-.31419l8.326016-30.790551l15.55237-1.570947.31419-9.268584-4.555745-.157095l2.689096-13.839848Z" transform="translate(.053402-.023364)" fill="none" stroke="#000" stroke-width="5"/></svg>
