<?xml version="1.0" encoding="UTF-8" standalone="no"?>
<!-- Created with Inkscape (http://www.inkscape.org/) -->

<svg
   width="1024"
   height="1024"
   viewBox="0 0 270.93333 270.93334"
   version="1.1"
   id="svg8"
   inkscape:export-filename="C:\Users\kemon\Desktop\legacy\icons\reload.png"
   inkscape:export-xdpi="96"
   inkscape:export-ydpi="96"
   inkscape:version="1.4 (86a8ad7, 2024-10-11)"
   sodipodi:docname="btn_crouch.svg"
   xml:space="preserve"
   xmlns:inkscape="http://www.inkscape.org/namespaces/inkscape"
   xmlns:sodipodi="http://sodipodi.sourceforge.net/DTD/sodipodi-0.dtd"
   xmlns="http://www.w3.org/2000/svg"
   xmlns:svg="http://www.w3.org/2000/svg"
   xmlns:rdf="http://www.w3.org/1999/02/22-rdf-syntax-ns#"
   xmlns:cc="http://creativecommons.org/ns#"
   xmlns:dc="http://purl.org/dc/elements/1.1/"><defs
     id="defs2" /><sodipodi:namedview
     id="base"
     pagecolor="#ffffff"
     bordercolor="#666666"
     borderopacity="1.0"
     inkscape:pageopacity="0.0"
     inkscape:pageshadow="2"
     inkscape:zoom="0.49497475"
     inkscape:cx="384.86812"
     inkscape:cy="615.1829"
     inkscape:document-units="mm"
     inkscape:current-layer="layer1"
     showgrid="false"
     units="px"
     showguides="true"
     inkscape:guide-bbox="true"
     inkscape:window-width="1920"
     inkscape:window-height="1017"
     inkscape:window-x="-8"
     inkscape:window-y="-8"
     inkscape:window-maximized="1"
     inkscape:showpageshadow="0"
     inkscape:pagecheckerboard="1"
     inkscape:deskcolor="#505050" /><metadata
     id="metadata5"><rdf:RDF><cc:Work
         rdf:about=""><dc:format>image/svg+xml</dc:format><dc:type
           rdf:resource="http://purl.org/dc/dcmitype/StillImage" /></cc:Work></rdf:RDF></metadata><g
     inkscape:label="Layer 1"
     inkscape:groupmode="layer"
     id="layer1"
     transform="translate(0,-26.06665)"><g
       style="display:none;shape-rendering:geometricPrecision;text-rendering:geometricPrecision"
       id="g1"
       transform="matrix(1.5290083,0,0,1.5290083,-71.662988,-45.596346)"><rect
         width="48"
         height="48"
         rx="6.2199998"
         ry="6.2199998"
         transform="matrix(2.536516,0,0,2.536516,74.590281,74.590286)"
         fill="#b3b3b3"
         id="rect1"
         x="0"
         y="0" /><rect
         width="48"
         height="48"
         rx="6.2199998"
         ry="6.2199998"
         transform="matrix(2.027454,0,0,2.027454,86.807769,86.807774)"
         fill="#c3c3c3"
         stroke="#b8b8b8"
         stroke-width="2"
         id="rect2"
         x="0"
         y="0" /><path
         d="m 65.67,54 q 0,9.62 -4,14.71 -4,5.09 -11.67,5.11 -7.58,0 -11.59,-5 -4.01,-5 -4.08,-14.33 V 46 q 0,-9.71 4,-14.74 4,-5.03 11.61,-5 7.58,0 11.59,5 4.01,5 4.11,14.31 z m -9.2,-9.38 q 0,-5.77 -1.58,-8.4 C 53.878757,34.500359 51.991869,33.489388 50,33.6 c -1.936819,-0.119832 -3.780773,0.842565 -4.79,2.5 q -1.54,2.5 -1.64,7.83 v 11.28 q 0,5.67 1.54,8.43 c 0.978602,1.823491 2.935507,2.903703 5,2.76 1.999776,0.135371 3.8976,-0.897325 4.87,-2.65 q 1.5,-2.65 1.56,-8.1 z m 9.2,9.38 q 0,9.62 -4,14.71 -4,5.09 -11.67,5.11 -7.58,0 -11.59,-5 -4.01,-5 -4.08,-14.33 V 46 q 0,-9.71 4,-14.74 4,-5.03 11.61,-5 7.58,0 11.59,5 4.01,5 4.11,14.31 z m -9.2,-9.38 q 0,-5.77 -1.58,-8.4 C 53.878757,34.500359 51.991869,33.489388 50,33.6 c -1.936819,-0.119832 -3.780773,0.842565 -4.79,2.5 q -1.54,2.5 -1.64,7.83 v 11.28 q 0,5.67 1.54,8.43 c 0.978602,1.823491 2.935507,2.903703 5,2.76 1.999776,0.135371 3.8976,-0.897325 4.87,-2.65 q 1.5,-2.65 1.56,-8.1 z"
         transform="translate(85.466665,85.426725)"
         fill="#818181"
         id="path2" /></g><g
       style="shape-rendering:geometricPrecision;text-rendering:geometricPrecision"
       id="g4"
       transform="matrix(1.2082819,0,0,1.2082819,-47.026693,27.020732)"><rect
         width="64"
         height="9.6199999"
         rx="0"
         ry="0"
         transform="matrix(2.140817,-2.154988,0.709436,0.70477,82.83617,180.49607)"
         fill="#0e0e0e"
         id="rect1-3"
         x="0"
         y="0" /><rect
         width="64"
         height="9.6199999"
         rx="0"
         ry="0"
         transform="matrix(0,-2.151687,1,0,218.45082,188.62562)"
         fill="#0e0e0e"
         id="rect2-3"
         x="0"
         y="0" /><rect
         width="64"
         height="9.6199999"
         rx="0"
         ry="0"
         transform="matrix(-2.151687,-3.97e-4,1.84e-4,-1,228.06905,188.651)"
         fill="#0e0e0e"
         id="rect3"
         x="0"
         y="0" /><path
         d="m 228.20957,58 -0.14052,-24 -9.47948,10"
         transform="translate(-0.138744)"
         fill="#0e0e0e"
         stroke-width="0.541867"
         id="path3" /><path
         d="m 227.97798,53.635345 v -20 l -8.12955,8.83617"
         transform="matrix(0,1,1,0,40.364655,-39.352358)"
         fill="#0e0e0e"
         stroke-width="0.541867"
         id="path4" /><path
         d="m 213.00481,128 h -15.57552 v 9.2855 l -0.70932,-4.56798 -11.82411,6.73596 0.002,11.70628 h 13.47703 v 24.10272"
         fill="none"
         stroke="#0e0e0e"
         stroke-width="4.5"
         id="path5" /><path
         d="m 184.44731,151.1157 -15.03604,21.67823 h -20.92248"
         transform="translate(2e-6,-0.074758)"
         fill="none"
         stroke="#0e0e0e"
         stroke-width="4.5"
         id="path6" /><path
         d="m 184.89802,138.6285 v -16.78717 l -3.6648,-0.82754 -2.83727,-2.83727 -1.41863,-4.37412 0.70931,-4.37412 2.83727,-2.36439 3.42837,-1.1822 3.78302,0.47288 3.07371,2.71905 1.41863,3.31014 -0.11822,3.54659 -2.00973,3.31014 -4.2821,2.64565"
         transform="translate(3e-6)"
         fill="none"
         stroke="#0e0e0e"
         stroke-width="4.5"
         id="path7" /></g></g></svg>
