<svg id="eAWxnVRZy3c1" xmlns="http://www.w3.org/2000/svg" xmlns:xlink="http://www.w3.org/1999/xlink" viewBox="0 0 270.93333 270.93334" shape-rendering="geometricPrecision" text-rendering="geometricPrecision" project-id="c287d30a7f32456ca2d52d34f1de6301" export-id="e11ba52d838149778938a2253b690bbd" cached="false"><g transform="translate(0-26.0667)"><path d="M135.46666,68.929157c-51.143857,0-92.604157,41.460273-92.604157,92.604163s41.4603,92.60416,92.604157,92.60416s92.60417-41.4603,92.60417-92.60416-41.46031-92.604163-92.60417-92.604163Zm0,19.84375c40.18445,0,72.76042,32.575943,72.76042,72.760413s-32.57597,72.76041-72.76042,72.76041-72.760407-32.57594-72.760407-72.76041s32.57595-72.760413,72.760407-72.760413Z" stroke-width="2.6766"/><g><path d="M152.41085,134.54172v23.74884-23.74884Zm-14.88918-12.42815v36.05394-.12305-35.93089ZM122.6325,125.3129v33.46986-33.46986Zm-7.13696,91.30383h44.54447v-10.8285c4.55677-.35442,6.28383-3.28133,7.26001-6.89084v-64.35567c0-9.23664-14.88917-8.89841-14.88917,0v-12.42815c0-8.82924-14.88918-9.35815-14.88918,0v-6.7678c0-8.6316-14.88917-7.93473-14.88917,0v9.96713c0-7.25785-14.52001-7.99677-14.52001,0v46.02641L95.007557,158.23439c-7.137641-7.13765-17.009967,2.43209-9.721028,9.72102L115.24945,197.8568v0l.24609,18.75993Z" fill="none" stroke="#000" stroke-width="4.30678"/></g></g></svg>
