<svg id="eYV9MTl1uvd1" xmlns="http://www.w3.org/2000/svg" xmlns:xlink="http://www.w3.org/1999/xlink" viewBox="0 0 270.93333 270.93334" shape-rendering="geometricPrecision" text-rendering="geometricPrecision" project-id="1734d3fa92b54d37baa12e80d907cc77" export-id="bf8bf33f3b7e4beaad3961bf47babb96" cached="false"><g transform="translate(0-26.0667)"><path d="M135.46666,68.929157c-51.143857,0-92.604157,41.460273-92.604157,92.604163s41.4603,92.60416,92.604157,92.60416s92.60417-41.4603,92.60417-92.60416-41.46031-92.604163-92.60417-92.604163Zm0,19.84375c40.18445,0,72.76042,32.575943,72.76042,72.760413s-32.57597,72.76041-72.76042,72.76041-72.760407-32.57594-72.760407-72.76041s32.57595-72.760413,72.760407-72.760413Z" stroke-width="2.6766"/></g><path d="M72.396754,66.767853h10.264324v16.089212h-10.264324v21.683574h-17.987006v-21.683574h-37.147077l-.801595-12.576473L54.214237,4.08064h18.182516Zm-38.046427,0h20.03987v-35.496011L53.19758,33.548618Zm38.046427,0h10.264324v16.089212h-10.264324v21.683574h-17.987006v-21.683574h-37.147077l-.801595-12.576473L54.214237,4.08064h18.182516Zm-38.046427,0h20.03987v-35.496011L53.19758,33.548618Z" transform="translate(85.908923 81.15936)"/></svg>
