<svg id="edvSOumHshl1" xmlns="http://www.w3.org/2000/svg" xmlns:xlink="http://www.w3.org/1999/xlink" viewBox="0 0 270.93333 270.93334" shape-rendering="geometricPrecision" text-rendering="geometricPrecision" project-id="c287d30a7f32456ca2d52d34f1de6301" export-id="a8d9568929e0413989c7db1dd4e19c75" cached="false"><g transform="translate(0 0.000001)"><rect width="64" height="9.62" rx="0" ry="0" transform="matrix(0-1.877494 0.652727 0 248.72056 200.933792)" fill="#0e0e0e"/><rect width="64" height="9.62" rx="0" ry="0" transform="matrix(0-1.877494 0.652727 0 15.936043 200.933792)" fill="#0e0e0e"/><rect width="64" height="9.62" rx="0" ry="0" transform="matrix(-3.735417-.000688 0.00012-.652727 254.999796 200.989254)" fill="#0e0e0e"/><rect width="64" height="9.62" rx="0" ry="0" transform="matrix(-3.735417-.000688 0.00012-.652727 255.001569 86.323295)" fill="#0e0e0e"/></g><g transform="translate(.000001 0.000001)"><polygon points="67.835085,-4.073109 64.027627,-9.52655 16.578225,33.902874 -30.692556,-10.259467 -34.500014,-4.801977 16.566927,44.83 16.578225,44.813806 16.578225,44.813806 67.835085,-4.073109" transform="matrix(0 1-1 0 71.314144 123.919744)" fill="#0e0e0e"/><polygon points="67.835085,-4.073109 64.027627,-9.52655 16.578225,33.902874 -30.692556,-10.259467 -34.500014,-4.801977 16.566927,44.83 16.578225,44.813806 16.578225,44.813806 67.835085,-4.073109" transform="matrix(0 1-1 0 84.003673 123.919744)" fill="#0e0e0e"/><polygon points="67.835085,-4.073109 64.027627,-9.52655 16.578225,33.902874 -30.692556,-10.259467 -34.500014,-4.801977 16.566927,44.83 16.578225,44.813806 16.578225,44.813806 67.835085,-4.073109" transform="matrix(0 1-1 0 98.858878 123.919744)" fill="#0e0e0e"/><polygon points="67.835085,-4.073109 64.027627,-9.52655 16.578225,33.902874 -30.692556,-10.259467 -34.500014,-4.801977 16.566927,44.83 16.578225,44.813806 16.578225,44.813806 67.835085,-4.073109" transform="matrix(0 1-1 0 111.548407 123.919744)" fill="#0e0e0e"/></g><g transform="translate(.000001 0.000001)"><polygon points="67.835085,-4.073109 64.027627,-9.52655 16.578225,33.902874 -30.692556,-10.259467 -34.500014,-4.801977 16.566927,44.83 16.578225,44.813806 16.578225,44.813806 67.835085,-4.073109" transform="matrix(0-1 1 0 159.259466 157.52152)" fill="#0e0e0e"/><polygon points="67.835085,-4.073109 64.027627,-9.52655 16.578225,33.902874 -30.692556,-10.259467 -34.500014,-4.801977 16.566927,44.83 16.578225,44.813806 16.578225,44.813806 67.835085,-4.073109" transform="matrix(0-1 1 0 171.948995 157.52152)" fill="#0e0e0e"/><polygon points="67.835085,-4.073109 64.027627,-9.52655 16.578225,33.902874 -30.692556,-10.259467 -34.500014,-4.801977 16.566927,44.83 16.578225,44.813806 16.578225,44.813806 67.835085,-4.073109" transform="matrix(0-1 1 0 186.804202 157.52152)" fill="#0e0e0e"/><polygon points="67.835085,-4.073109 64.027627,-9.52655 16.578225,33.902874 -30.692556,-10.259467 -34.500014,-4.801977 16.566927,44.83 16.578225,44.813806 16.578225,44.813806 67.835085,-4.073109" transform="matrix(0-1 1 0 199.49373 157.52152)" fill="#0e0e0e"/></g><g transform="translate(86.975272-4.920002)"><path d="M75,54.08c0,13.807119-11.192881,25-25,25s-25-11.192881-25-25s11.192881-25,25-25" transform="matrix(0 1 1 0-1.508817 95.773986)" fill="none" stroke="#0e0e0e" stroke-width="7" stroke-linecap="round" stroke-linejoin="round"/><polyline points="48.19,37.25 58.31,29.08 48.19,20.92" transform="matrix(0 1 1 0-1.508817 95.773986)" fill="none" stroke="#0e0e0e" stroke-width="7" stroke-linecap="round" stroke-linejoin="round"/></g></svg>
