<?xml version="1.0" encoding="UTF-8" standalone="no"?>
<!-- Created with Inkscape (http://www.inkscape.org/) -->

<svg
   width="1024"
   height="1024"
   viewBox="0 0 270.93333 270.93334"
   version="1.1"
   id="svg8"
   inkscape:export-filename="C:\Users\kemon\Desktop\legacy\icons\reload.png"
   inkscape:export-xdpi="96"
   inkscape:export-ydpi="96"
   inkscape:version="1.4 (86a8ad7, 2024-10-11)"
   sodipodi:docname="btn_reload.svg"
   xml:space="preserve"
   xmlns:inkscape="http://www.inkscape.org/namespaces/inkscape"
   xmlns:sodipodi="http://sodipodi.sourceforge.net/DTD/sodipodi-0.dtd"
   xmlns="http://www.w3.org/2000/svg"
   xmlns:svg="http://www.w3.org/2000/svg"
   xmlns:rdf="http://www.w3.org/1999/02/22-rdf-syntax-ns#"
   xmlns:cc="http://creativecommons.org/ns#"
   xmlns:dc="http://purl.org/dc/elements/1.1/"><defs
     id="defs2" /><sodipodi:namedview
     id="base"
     pagecolor="#ffffff"
     bordercolor="#666666"
     borderopacity="1.0"
     inkscape:pageopacity="0.0"
     inkscape:pageshadow="2"
     inkscape:zoom="0.49497475"
     inkscape:cx="384.86812"
     inkscape:cy="453.55849"
     inkscape:document-units="mm"
     inkscape:current-layer="layer1"
     showgrid="false"
     units="px"
     showguides="true"
     inkscape:guide-bbox="true"
     inkscape:window-width="1920"
     inkscape:window-height="1017"
     inkscape:window-x="-8"
     inkscape:window-y="-8"
     inkscape:window-maximized="1"
     inkscape:showpageshadow="0"
     inkscape:pagecheckerboard="1"
     inkscape:deskcolor="#505050" /><metadata
     id="metadata5"><rdf:RDF><cc:Work
         rdf:about=""><dc:format>image/svg+xml</dc:format><dc:type
           rdf:resource="http://purl.org/dc/dcmitype/StillImage" /></cc:Work></rdf:RDF></metadata><g
     inkscape:label="Layer 1"
     inkscape:groupmode="layer"
     id="layer1"
     transform="translate(0,-26.06665)"><g
       style="display:none;shape-rendering:geometricPrecision;text-rendering:geometricPrecision"
       id="g1"
       transform="matrix(1.5290083,0,0,1.5290083,-71.662988,-45.596346)"><rect
         width="48"
         height="48"
         rx="6.2199998"
         ry="6.2199998"
         transform="matrix(2.536516,0,0,2.536516,74.590281,74.590286)"
         fill="#b3b3b3"
         id="rect1"
         x="0"
         y="0" /><rect
         width="48"
         height="48"
         rx="6.2199998"
         ry="6.2199998"
         transform="matrix(2.027454,0,0,2.027454,86.807769,86.807774)"
         fill="#c3c3c3"
         stroke="#b8b8b8"
         stroke-width="2"
         id="rect2"
         x="0"
         y="0" /><path
         d="m 65.67,54 q 0,9.62 -4,14.71 -4,5.09 -11.67,5.11 -7.58,0 -11.59,-5 -4.01,-5 -4.08,-14.33 V 46 q 0,-9.71 4,-14.74 4,-5.03 11.61,-5 7.58,0 11.59,5 4.01,5 4.11,14.31 z m -9.2,-9.38 q 0,-5.77 -1.58,-8.4 C 53.878757,34.500359 51.991869,33.489388 50,33.6 c -1.936819,-0.119832 -3.780773,0.842565 -4.79,2.5 q -1.54,2.5 -1.64,7.83 v 11.28 q 0,5.67 1.54,8.43 c 0.978602,1.823491 2.935507,2.903703 5,2.76 1.999776,0.135371 3.8976,-0.897325 4.87,-2.65 q 1.5,-2.65 1.56,-8.1 z m 9.2,9.38 q 0,9.62 -4,14.71 -4,5.09 -11.67,5.11 -7.58,0 -11.59,-5 -4.01,-5 -4.08,-14.33 V 46 q 0,-9.71 4,-14.74 4,-5.03 11.61,-5 7.58,0 11.59,5 4.01,5 4.11,14.31 z m -9.2,-9.38 q 0,-5.77 -1.58,-8.4 C 53.878757,34.500359 51.991869,33.489388 50,33.6 c -1.936819,-0.119832 -3.780773,0.842565 -4.79,2.5 q -1.54,2.5 -1.64,7.83 v 11.28 q 0,5.67 1.54,8.43 c 0.978602,1.823491 2.935507,2.903703 5,2.76 1.999776,0.135371 3.8976,-0.897325 4.87,-2.65 q 1.5,-2.65 1.56,-8.1 z"
         transform="translate(85.466665,85.426725)"
         fill="#818181"
         id="path2" /></g><g
       style="shape-rendering:geometricPrecision;text-rendering:geometricPrecision"
       id="g5"
       transform="matrix(0.77868949,0,0,0.77868949,29.979223,52.131618)"><g
         id="g4"><rect
           width="64"
           height="9.6199999"
           rx="0"
           ry="0"
           transform="matrix(0,-1.877494,0.652727,0,248.72056,200.93379)"
           fill="#0e0e0e"
           id="rect1-4"
           x="0"
           y="0" /><rect
           width="64"
           height="9.6199999"
           rx="0"
           ry="0"
           transform="matrix(0,-1.877494,0.652727,0,15.936043,200.93379)"
           fill="#0e0e0e"
           id="rect2-6"
           x="0"
           y="0" /><rect
           width="64"
           height="9.6199999"
           rx="0"
           ry="0"
           transform="matrix(-3.735417,-6.88e-4,1.2e-4,-0.652727,254.9998,200.98925)"
           fill="#0e0e0e"
           id="rect3"
           x="0"
           y="0" /><rect
           width="64"
           height="9.6199999"
           rx="0"
           ry="0"
           transform="matrix(-3.735417,-6.88e-4,1.2e-4,-0.652727,255.00157,86.323295)"
           fill="#0e0e0e"
           id="rect4"
           x="0"
           y="0" /></g><g
         id="g7"><polygon
           points="16.566927,44.83 16.578225,44.813806 16.578225,44.813806 67.835085,-4.073109 64.027627,-9.52655 16.578225,33.902874 -30.692556,-10.259467 -34.500014,-4.801977 "
           transform="rotate(90,-26.3028,97.616944)"
           fill="#0e0e0e"
           id="polygon4" /><polygon
           points="16.566927,44.83 16.578225,44.813806 16.578225,44.813806 67.835085,-4.073109 64.027627,-9.52655 16.578225,33.902874 -30.692556,-10.259467 -34.500014,-4.801977 "
           transform="rotate(90,-19.958035,103.96171)"
           fill="#0e0e0e"
           id="polygon5" /><polygon
           points="16.566927,44.83 16.578225,44.813806 16.578225,44.813806 67.835085,-4.073109 64.027627,-9.52655 16.578225,33.902874 -30.692556,-10.259467 -34.500014,-4.801977 "
           transform="rotate(90,-12.530433,111.38931)"
           fill="#0e0e0e"
           id="polygon6" /><polygon
           points="16.566927,44.83 16.578225,44.813806 16.578225,44.813806 67.835085,-4.073109 64.027627,-9.52655 16.578225,33.902874 -30.692556,-10.259467 -34.500014,-4.801977 "
           transform="rotate(90,-6.1856685,117.73408)"
           fill="#0e0e0e"
           id="polygon7" /></g><g
         id="g11"><polygon
           points="16.566927,44.83 16.578225,44.813806 16.578225,44.813806 67.835085,-4.073109 64.027627,-9.52655 16.578225,33.902874 -30.692556,-10.259467 -34.500014,-4.801977 "
           transform="rotate(-90,158.39049,-0.868973)"
           fill="#0e0e0e"
           id="polygon8" /><polygon
           points="16.566927,44.83 16.578225,44.813806 16.578225,44.813806 67.835085,-4.073109 64.027627,-9.52655 16.578225,33.902874 -30.692556,-10.259467 -34.500014,-4.801977 "
           transform="rotate(-90,164.73526,-7.2137375)"
           fill="#0e0e0e"
           id="polygon9" /><polygon
           points="16.566927,44.83 16.578225,44.813806 16.578225,44.813806 67.835085,-4.073109 64.027627,-9.52655 16.578225,33.902874 -30.692556,-10.259467 -34.500014,-4.801977 "
           transform="rotate(-90,172.16286,-14.641341)"
           fill="#0e0e0e"
           id="polygon10" /><polygon
           points="16.566927,44.83 16.578225,44.813806 16.578225,44.813806 67.835085,-4.073109 64.027627,-9.52655 16.578225,33.902874 -30.692556,-10.259467 -34.500014,-4.801977 "
           transform="rotate(-90,178.50763,-20.986105)"
           fill="#0e0e0e"
           id="polygon11" /></g><g
         transform="translate(86.975272,-4.920002)"
         id="g12"><path
           d="m 75,54.08 c 0,13.807119 -11.192881,25 -25,25 -13.807119,0 -25,-11.192881 -25,-25 0,-13.807119 11.192881,-25 25,-25"
           transform="matrix(0,1,1,0,-1.508817,95.773986)"
           fill="none"
           stroke="#0e0e0e"
           stroke-width="7"
           stroke-linecap="round"
           stroke-linejoin="round"
           id="path11" /><polyline
           points="48.19,37.25 58.31,29.08 48.19,20.92"
           transform="matrix(0,1,1,0,-1.508817,95.773986)"
           fill="none"
           stroke="#0e0e0e"
           stroke-width="7"
           stroke-linecap="round"
           stroke-linejoin="round"
           id="polyline11" /></g></g></g></svg>
