<svg id="e4L8QEKzaO61" xmlns="http://www.w3.org/2000/svg" xmlns:xlink="http://www.w3.org/1999/xlink" viewBox="0 0 270.93333 270.93334" shape-rendering="geometricPrecision" text-rendering="geometricPrecision" project-id="1734d3fa92b54d37baa12e80d907cc77" export-id="150cde08468d4f05a1244d40cc50e96c" cached="false"><g transform="translate(0-26.0667)"><path d="M135.46666,68.929157c-51.143857,0-92.604157,41.460273-92.604157,92.604163s41.4603,92.60416,92.604157,92.60416s92.60417-41.4603,92.60417-92.60416-41.46031-92.604163-92.60417-92.604163Zm0,19.84375c40.18445,0,72.76042,32.575943,72.76042,72.760413s-32.57597,72.76041-72.76042,72.76041-72.760407-32.57594-72.760407-72.76041s32.57595-72.760413,72.760407-72.760413Z" stroke-width="2.6766"/></g><path d="M55.182122,53.291981c-2.092731,2.158038-4.975612,3.368212-7.981511,3.350473-3.557784.142793-6.989713-1.329173-9.338653-4.005381q-3.501995-4.005381-3.501995-10.801242c-.026519-2.760481.62527-5.485229,1.8981-7.934831c1.192131-2.334388,3.021838-4.282755,5.276718-5.618924c2.299991-1.35056,4.925484-2.046384,7.592401-2.012182c2.735226-.046901,5.42425.70874,7.734758,2.173536c2.323455,1.529279,4.150607,3.702945,5.257737,6.254849c1.293003,2.941693,1.940252,6.12647,1.8981,9.339562v3.236576q0,11.000562-5.466528,17.283885t-15.479007,6.719929h-2.144853v-7.298906h1.8981q11.426563-.493554,12.356632-10.687345Zm-5.836658-3.321999c1.302211.038635,2.582607-.340532,3.653843-1.082022.974398-.67477,1.769313-1.577282,2.315682-2.629125v-3.59725q0-4.441987-1.689309-6.890775c-.980827-1.552511-2.70048-2.480783-4.536459-2.448788-1.757062.002473-3.388932.909953-4.318178,2.401331-1.179997,1.782665-1.77086,3.890725-1.689309,6.027055-.087413,2.09596.490631,4.165826,1.651347,5.913158c1.044461,1.509153,2.78811,2.379272,4.621874,2.306416Zm5.836658,3.321999c-2.092731,2.158038-4.975612,3.368212-7.981511,3.350473-3.557784.142793-6.989713-1.329173-9.338653-4.005381q-3.501995-4.005381-3.501995-10.801242c-.026519-2.760481.62527-5.485229,1.8981-7.934831c1.192131-2.334388,3.021838-4.282755,5.276718-5.618924c2.299991-1.35056,4.925484-2.046384,7.592401-2.012182c2.735226-.046901,5.42425.70874,7.734758,2.173536c2.323455,1.529279,4.150607,3.702945,5.257737,6.254849c1.293003,2.941693,1.940252,6.12647,1.8981,9.339562v3.236576q0,11.000562-5.466528,17.283885t-15.479007,6.719929h-2.144853v-7.298906h1.8981q11.426563-.493554,12.356632-10.687345Zm-5.836658-3.321999c1.302211.038635,2.582607-.340532,3.653843-1.082022.974398-.67477,1.769313-1.577282,2.315682-2.629125v-3.59725q0-4.441987-1.689309-6.890775c-.980827-1.552511-2.70048-2.480783-4.536459-2.448788-1.757062.002473-3.388932.909953-4.318178,2.401331-1.179997,1.782665-1.77086,3.890725-1.689309,6.027055-.087413,2.09596.490631,4.165826,1.651347,5.913158c1.044461,1.509153,2.78811,2.379272,4.621874,2.306416Z" transform="matrix(2.231933 0 0 2.231933 25.682389 26.611763)"/></svg>
