<svg id="eyJF7LXABs41" xmlns="http://www.w3.org/2000/svg" xmlns:xlink="http://www.w3.org/1999/xlink" viewBox="0 0 270.93333 270.93334" shape-rendering="geometricPrecision" text-rendering="geometricPrecision" project-id="1734d3fa92b54d37baa12e80d907cc77" export-id="8c5f58bb2a8f48b0a5ba7347d360ab8c" cached="false"><g transform="translate(0-26.0667)"><path d="M135.46666,68.929157c-51.143857,0-92.604157,41.460273-92.604157,92.604163s41.4603,92.60416,92.604157,92.60416s92.60417-41.4603,92.60417-92.60416-41.46031-92.604163-92.60417-92.604163Zm0,19.84375c40.18445,0,72.76042,32.575943,72.76042,72.760413s-32.57597,72.76041-72.76042,72.76041-72.760407-32.57594-72.760407-72.76041s32.57595-72.760413,72.760407-72.760413Z" stroke-width="2.6766"/></g><path d="M72.447115,101.606895h-20.455986v-78.866719L27.532885,30.322231v-16.631606l42.690753-15.29752h2.223477Zm0,0h-20.455986v-78.866719L27.532885,30.322231v-16.631606l42.690753-15.29752h2.223477Z" transform="translate(85.476667 85.466619)"/></svg>
