<svg id="eGOXEfW8Pxe1" xmlns="http://www.w3.org/2000/svg" xmlns:xlink="http://www.w3.org/1999/xlink" viewBox="0 0 270.93333 270.93334" shape-rendering="geometricPrecision" text-rendering="geometricPrecision" project-id="1734d3fa92b54d37baa12e80d907cc77" export-id="37dbe5bf735f4e7e97039cdd903b1279" cached="false"><g transform="translate(0-26.0667)"><path d="M135.46666,68.929157c-51.143857,0-92.604157,41.460273-92.604157,92.604163s41.4603,92.60416,92.604157,92.60416s92.60417-41.4603,92.60417-92.60416-41.46031-92.604163-92.60417-92.604163Zm0,19.84375c40.18445,0,72.76042,32.575943,72.76042,72.760413s-32.57597,72.76041-72.76042,72.76041-72.760407-32.57594-72.760407-72.76041s32.57595-72.760413,72.760407-72.760413Z" stroke-width="2.6766"/></g><path d="M83.25295,103.059105h-64.334898v-13.456677L49.2838,55.42674c3.477374-3.854311,6.576915-8.069343,9.251431-12.580925c1.849126-3.057895,2.884027-6.584606,2.996087-10.209987.207214-3.754229-.918697-7.455241-3.158038-10.380865-2.324468-2.618101-5.635363-4.0045-9.028749-3.780685-3.816043-.185963-7.49701,1.511262-9.959965,4.592358-2.546619,3.431718-3.839812,7.714677-3.64389,12.06829h-18.685057c-.073633-5.793411,1.324372-11.501939,4.048766-16.532489c2.730784-4.9859,6.746034-9.052147,11.579472-11.726533c5.225358-2.903671,11.059373-4.372792,16.964331-4.271961q14.494584,0,22.531385,7.347773t8.097533,20.740371c-.075285,5.212863-1.309541,10.334252-3.603402,14.951863-3.341487,6.520736-7.494552,12.540613-12.348737,17.899517L42.906993,87.21013h40.345957Zm0,0h-64.334898v-13.456677L49.2838,55.42674c3.477374-3.854311,6.576915-8.069343,9.251431-12.580925c1.849126-3.057895,2.884027-6.584606,2.996087-10.209987.207214-3.754229-.918697-7.455241-3.158038-10.380865-2.324468-2.618101-5.635363-4.0045-9.028749-3.780685-3.816043-.185963-7.49701,1.511262-9.959965,4.592358-2.546619,3.431718-3.839812,7.714677-3.64389,12.06829h-18.685057c-.073633-5.793411,1.324372-11.501939,4.048766-16.532489c2.730784-4.9859,6.746034-9.052147,11.579472-11.726533c5.225358-2.903671,11.059373-4.372792,16.964331-4.271961q14.494584,0,22.531385,7.347773t8.097533,20.740371c-.075285,5.212863-1.309541,10.334252-3.603402,14.951863-3.341487,6.520736-7.494552,12.540613-12.348737,17.899517L42.906993,87.21013h40.345957Z" transform="translate(85.31705 82.640895)" fill="#070707"/></svg>
