<svg id="eKtd4EneINq1" xmlns="http://www.w3.org/2000/svg" xmlns:xlink="http://www.w3.org/1999/xlink" viewBox="0 0 270.93333 270.93334" shape-rendering="geometricPrecision" text-rendering="geometricPrecision" project-id="1734d3fa92b54d37baa12e80d907cc77" export-id="a5ba0d1a94f04370984efa6119904cc8" cached="false"><g transform="translate(0-26.0667)"><path d="M135.46666,68.929157c-51.143857,0-92.604157,41.460273-92.604157,92.604163s41.4603,92.60416,92.604157,92.60416s92.60417-41.4603,92.60417-92.60416-41.46031-92.604163-92.60417-92.604163Zm0,19.84375c40.18445,0,72.76042,32.575943,72.76042,72.760413s-32.57597,72.76041-72.76042,72.76041-72.760407-32.57594-72.760407-72.76041s32.57595-72.760413,72.760407-72.760413Z" stroke-width="2.6766"/></g><path d="M62.804181,38.34416c.03736,1.992431-.514257,3.951536-1.585656,5.631555-1.088507,1.662679-2.592503,3.011904-4.3629,3.913931c2.01276.932855,3.744151,2.379972,5.01968,4.195509c1.26395,1.850003,1.919889,4.048183,1.876516,6.28857.161504,3.496738-1.291292,6.873964-3.940684,9.160663q-3.968831,3.360161-10.780585,3.360161t-10.752437-3.378933c-2.658017-2.274517-4.121774-5.646164-3.968831-9.141891-.042922-2.246166.612804-4.450193,1.876516-6.307342c1.260672-1.815903,2.984122-3.261266,4.991533-4.186123-1.767291-.899239-3.265857-2.249401-4.344135-3.913931-1.060715-1.683894-1.605415-3.641597-1.566891-5.631555-.14847-3.358746,1.210736-6.608235,3.706119-8.860314Q42.669163,26.18,49.030553,26.18t10.048744,3.275688c2.510123,2.254925,3.877166,5.517019,3.724884,8.888471ZM55.063552,57.744868c.074634-1.66343-.516241-3.288072-1.641952-4.51463-1.155138-1.169734-2.748603-1.799854-4.391048-1.736396-1.652292-.072674-3.258026.558252-4.419195,1.736396-1.137552,1.238193-1.7293,2.882145-1.641952,4.56156-.07574,1.650048.504451,3.263012,1.613804,4.486472c1.18432,1.151688,2.798652,1.751316,4.447343,1.651923c1.634703.092343,3.233556-.503187,4.409813-1.642537c1.127828-1.235435,1.712626-2.8721,1.623186-4.542788Zm-.938258-18.978341c.074108-1.480277-.404048-2.935324-1.341709-4.082878-.959456-1.046568-2.335301-1.610866-3.753032-1.539292-1.409434-.078312-2.781968.467464-3.753032,1.492362-.949863,1.155508-1.429001,2.62695-1.341709,4.120421-.065855,1.499246.410466,2.972038,1.341709,4.148579.944227,1.072934,2.325816,1.656864,3.753032,1.586221c1.427216.070642,2.808805-.513287,3.753032-1.586221.942178-1.169554,1.434762-2.637841,1.388622-4.139193Zm8.631974-.422367c.03736,1.992431-.514257,3.951536-1.585656,5.631555-1.088507,1.662679-2.592503,3.011904-4.3629,3.913931c2.01276.932855,3.744151,2.379972,5.01968,4.195509c1.26395,1.850003,1.919889,4.048183,1.876516,6.28857.161504,3.496738-1.291292,6.873964-3.940684,9.160663q-3.921919,3.360161-10.733672,3.360161t-10.752437-3.378933c-2.658017-2.274517-4.121774-5.646164-3.968831-9.141891-.042922-2.246166.612804-4.450193,1.876516-6.307342c1.260672-1.815903,2.984122-3.261266,4.991533-4.186123-1.767291-.899239-3.265857-2.249401-4.344135-3.913931-1.060715-1.683894-1.605415-3.641597-1.566891-5.631555-.14847-3.358746,1.210736-6.608235,3.706119-8.860314Q42.669163,26.18,49.030553,26.18t10.048744,3.275688c2.510123,2.254925,3.877166,5.517019,3.724884,8.888471ZM55.063552,57.744868c.074634-1.66343-.516241-3.288072-1.641952-4.51463-1.155138-1.169734-2.748603-1.799854-4.391048-1.736396-1.652292-.072674-3.258026.558252-4.419195,1.736396-1.137552,1.238193-1.7293,2.882145-1.641952,4.56156-.07574,1.650048.504451,3.263012,1.613804,4.486472c1.18432,1.151688,2.798652,1.751316,4.447343,1.651923c1.634703.092343,3.233556-.503187,4.409813-1.642537c1.127828-1.235435,1.712626-2.8721,1.623186-4.542788Zm-.938258-18.978341c.074108-1.480277-.404048-2.935324-1.341709-4.082878-.959456-1.046568-2.335301-1.610866-3.753032-1.539292-1.409434-.078312-2.781968.467464-3.753032,1.492362-.949863,1.155508-1.429001,2.62695-1.341709,4.120421-.065855,1.499246.410466,2.972038,1.341709,4.148579.944227,1.072934,2.325816,1.656864,3.753032,1.586221c1.427216.070642,2.808805-.513287,3.753032-1.586221.942178-1.169554,1.434762-2.637841,1.388622-4.139193Z" transform="matrix(2.246696 0 0 2.246696 25.311902 26.421499)"/></svg>
