<svg id="equX8jhFLpz1" xmlns="http://www.w3.org/2000/svg" xmlns:xlink="http://www.w3.org/1999/xlink" viewBox="0 0 270.93333 270.93334" shape-rendering="geometricPrecision" text-rendering="geometricPrecision" project-id="1734d3fa92b54d37baa12e80d907cc77" export-id="24550c66ede14d2d871b5034b1a8f225" cached="false"><g transform="translate(0-26.0667)"><path d="M135.46666,68.929157c-51.143857,0-92.604157,41.460273-92.604157,92.604163s41.4603,92.60416,92.604157,92.60416s92.60417-41.4603,92.60417-92.60416-41.46031-92.604163-92.60417-92.604163Zm0,19.84375c40.18445,0,72.76042,32.575943,72.76042,72.760413s-32.57597,72.76041-72.76042,72.76041-72.760407-32.57594-72.760407-72.76041s32.57595-72.760413,72.760407-72.760413Z" stroke-width="2.6766"/></g><path d="M20.983033,53.117292L26.618989,2.773236h54.881971v16.389597h-38.945091L40.128398,40.531278c4.538675-2.478318,9.619125-3.764076,14.775916-3.739478q13.973793,0,21.910571,8.782431t7.873452,24.509605c.08728,5.944574-1.283486,11.818227-3.989497,17.094755-2.591047,4.982303-6.578625,9.078469-11.461888,11.774014-5.410905,2.924241-11.471933,4.39563-17.604448,4.273689-5.687608.051929-11.314167-1.189477-16.464591-3.632636-4.857574-2.248368-9.012137-5.803656-12.010708-10.278222-2.936726-4.431424-4.555775-9.622799-4.664968-14.957912h19.229798c.165866,3.634121,1.672334,7.073048,4.22169,9.637169c2.660077,2.349377,6.121841,3.553297,9.646562,3.354846c3.959273.208688,7.762934-1.584479,10.153164-4.786532c2.60645-4.013848,3.858057-8.774557,3.567328-13.568962.315094-4.680469-1.149997-9.305716-4.095039-12.92791-3.076688-3.161583-7.362229-4.807961-11.736299-4.508742-4.058068-.182019-8.044968,1.122856-11.229695,3.675373l-1.878653,1.77358Zm0,0L26.618989,2.773236h54.881971v16.389597h-38.945091L40.128398,40.531278c4.538675-2.478318,9.619125-3.764076,14.775916-3.739478q13.973793,0,21.910571,8.782431t7.873452,24.509605c.08728,5.944574-1.283486,11.818227-3.989497,17.094755-2.591047,4.982303-6.578625,9.078469-11.461888,11.774014-5.410905,2.924241-11.471933,4.39563-17.604448,4.273689-5.687608.051929-11.314167-1.189477-16.464591-3.632636-4.857574-2.248368-9.012137-5.803656-12.010708-10.278222-2.936726-4.431424-4.555775-9.622799-4.664968-14.957912h19.229798c.165866,3.634121,1.672334,7.073048,4.22169,9.637169c2.660077,2.349377,6.121841,3.553297,9.646562,3.354846c3.959273.208688,7.762934-1.584479,10.153164-4.786532c2.60645-4.013848,3.858057-8.774557,3.567328-13.568962.315094-4.680469-1.149997-9.305716-4.095039-12.92791-3.076688-3.161583-7.362229-4.807961-11.736299-4.508742-4.058068-.182019-8.044968,1.122856-11.229695,3.675373l-1.878653,1.77358Z" transform="translate(83.877764 82.466764)"/></svg>
