<svg id="e7moiwjDvC81" xmlns="http://www.w3.org/2000/svg" xmlns:xlink="http://www.w3.org/1999/xlink" viewBox="0 0 270.93333 270.93334" shape-rendering="geometricPrecision" text-rendering="geometricPrecision" project-id="c287d30a7f32456ca2d52d34f1de6301" export-id="709e90e117fd4c618c4141db55558cb5" cached="false"><rect width="64" height="9.62" rx="0" ry="0" transform="matrix(2.140817-2.154988 0.709436 0.70477 82.83617 180.49607)" fill="#0e0e0e"/><rect width="64" height="9.62" rx="0" ry="0" transform="matrix(0-2.151687 1 0 218.450823 188.625618)" fill="#0e0e0e"/><rect width="64" height="9.62" rx="0" ry="0" transform="matrix(-2.151687-.000397 0.000184-1 228.069051 188.650998)" fill="#0e0e0e"/><path d="M228.209569,58l-.140518-24-9.479484,10" transform="translate(-.138744 0)" fill="#0e0e0e" stroke-width="0.541867"/><path d="M227.977976,53.635345v-20l-8.129548,8.83617" transform="matrix(0 1 1 0 40.364655-39.352358)" fill="#0e0e0e" stroke-width="0.541867"/><path d="M213.004808,128h-15.575516v9.2855l-.709317-4.567979-11.824113,6.735956.002162,11.706287h13.477024l.000001,24.102717" fill="none" stroke="#0e0e0e" stroke-width="4.5"/><path d="M184.447313,151.1157l-15.036044,21.678234h-20.922474" transform="translate(.000002-.074758)" fill="none" stroke="#0e0e0e" stroke-width="4.5"/><path d="M184.898024,138.628497v-16.78717l-3.664804-.827537-2.837269-2.837269-1.418635-4.374121.709317-4.374122l2.837269-2.36439l3.428365-1.182196l3.783024.472878l3.073706,2.719047l1.418633,3.310146-.118219,3.546584-2.009732,3.310145-4.282094,2.645652" transform="translate(.000003 0.000008)" fill="none" stroke="#0e0e0e" stroke-width="4.5"/></svg>
