<?xml version="1.0" encoding="UTF-8" standalone="no"?>
<!-- Created with Inkscape (http://www.inkscape.org/) -->

<svg
   width="1024"
   height="1024"
   viewBox="0 0 270.93333 270.93334"
   version="1.1"
   id="svg8"
   inkscape:export-filename="C:\Users\kemon\Desktop\legacy\icons\reload.png"
   inkscape:export-xdpi="96"
   inkscape:export-ydpi="96"
   inkscape:version="1.4 (86a8ad7, 2024-10-11)"
   sodipodi:docname="btn_activate.svg"
   xml:space="preserve"
   xmlns:inkscape="http://www.inkscape.org/namespaces/inkscape"
   xmlns:sodipodi="http://sodipodi.sourceforge.net/DTD/sodipodi-0.dtd"
   xmlns="http://www.w3.org/2000/svg"
   xmlns:svg="http://www.w3.org/2000/svg"
   xmlns:rdf="http://www.w3.org/1999/02/22-rdf-syntax-ns#"
   xmlns:cc="http://creativecommons.org/ns#"
   xmlns:dc="http://purl.org/dc/elements/1.1/"><defs
     id="defs2" /><sodipodi:namedview
     id="base"
     pagecolor="#ffffff"
     bordercolor="#666666"
     borderopacity="1.0"
     inkscape:pageopacity="0.0"
     inkscape:pageshadow="2"
     inkscape:zoom="0.49497475"
     inkscape:cx="384.86812"
     inkscape:cy="615.1829"
     inkscape:document-units="mm"
     inkscape:current-layer="layer1"
     showgrid="false"
     units="px"
     showguides="true"
     inkscape:guide-bbox="true"
     inkscape:window-width="1920"
     inkscape:window-height="1017"
     inkscape:window-x="-8"
     inkscape:window-y="-8"
     inkscape:window-maximized="1"
     inkscape:showpageshadow="0"
     inkscape:pagecheckerboard="1"
     inkscape:deskcolor="#505050" /><metadata
     id="metadata5"><rdf:RDF><cc:Work
         rdf:about=""><dc:format>image/svg+xml</dc:format><dc:type
           rdf:resource="http://purl.org/dc/dcmitype/StillImage" /></cc:Work></rdf:RDF></metadata><g
     inkscape:label="Layer 1"
     inkscape:groupmode="layer"
     id="layer1"
     transform="translate(0,-26.06665)"><g
       style="display:none;shape-rendering:geometricPrecision;text-rendering:geometricPrecision"
       id="g1"
       transform="matrix(1.5290083,0,0,1.5290083,-71.662988,-45.596346)"><rect
         width="48"
         height="48"
         rx="6.2199998"
         ry="6.2199998"
         transform="matrix(2.536516,0,0,2.536516,74.590281,74.590286)"
         fill="#b3b3b3"
         id="rect1"
         x="0"
         y="0" /><rect
         width="48"
         height="48"
         rx="6.2199998"
         ry="6.2199998"
         transform="matrix(2.027454,0,0,2.027454,86.807769,86.807774)"
         fill="#c3c3c3"
         stroke="#b8b8b8"
         stroke-width="2"
         id="rect2"
         x="0"
         y="0" /><path
         d="m 65.67,54 q 0,9.62 -4,14.71 -4,5.09 -11.67,5.11 -7.58,0 -11.59,-5 -4.01,-5 -4.08,-14.33 V 46 q 0,-9.71 4,-14.74 4,-5.03 11.61,-5 7.58,0 11.59,5 4.01,5 4.11,14.31 z m -9.2,-9.38 q 0,-5.77 -1.58,-8.4 C 53.878757,34.500359 51.991869,33.489388 50,33.6 c -1.936819,-0.119832 -3.780773,0.842565 -4.79,2.5 q -1.54,2.5 -1.64,7.83 v 11.28 q 0,5.67 1.54,8.43 c 0.978602,1.823491 2.935507,2.903703 5,2.76 1.999776,0.135371 3.8976,-0.897325 4.87,-2.65 q 1.5,-2.65 1.56,-8.1 z m 9.2,9.38 q 0,9.62 -4,14.71 -4,5.09 -11.67,5.11 -7.58,0 -11.59,-5 -4.01,-5 -4.08,-14.33 V 46 q 0,-9.71 4,-14.74 4,-5.03 11.61,-5 7.58,0 11.59,5 4.01,5 4.11,14.31 z m -9.2,-9.38 q 0,-5.77 -1.58,-8.4 C 53.878757,34.500359 51.991869,33.489388 50,33.6 c -1.936819,-0.119832 -3.780773,0.842565 -4.79,2.5 q -1.54,2.5 -1.64,7.83 v 11.28 q 0,5.67 1.54,8.43 c 0.978602,1.823491 2.935507,2.903703 5,2.76 1.999776,0.135371 3.8976,-0.897325 4.87,-2.65 q 1.5,-2.65 1.56,-8.1 z"
         transform="translate(85.466665,85.426725)"
         fill="#818181"
         id="path2" /></g><g
       style="shape-rendering:geometricPrecision;text-rendering:geometricPrecision"
       id="g4"
       transform="matrix(1.0051438,0,0,1.0051438,-0.69680743,25.369893)"><g
         transform="translate(0,-26.0667)"
         id="g3"><path
           d="m 135.46666,68.929157 c -51.143857,0 -92.604157,41.460273 -92.604157,92.604163 0,51.14389 41.4603,92.60416 92.604157,92.60416 51.14386,0 92.60417,-41.4603 92.60417,-92.60416 0,-51.14386 -41.46031,-92.604163 -92.60417,-92.604163 z m 0,19.84375 c 40.18445,0 72.76042,32.575943 72.76042,72.760413 0,40.18447 -32.57597,72.76041 -72.76042,72.76041 -40.18445,0 -72.760407,-32.57594 -72.760407,-72.76041 0,-40.18447 32.57595,-72.760413 72.760407,-72.760413 z"
           stroke-width="2.6766"
           id="path1" /><g
           id="g2"><path
             d="m 152.41085,134.54172 v 23.74884 z m -14.88918,-12.42815 v 36.05394 -0.12305 z m -14.88917,3.19933 v 33.46986 z m -7.13696,91.30383 h 44.54447 v -10.8285 c 4.55677,-0.35442 6.28383,-3.28133 7.26001,-6.89084 v -64.35567 c 0,-9.23664 -14.88917,-8.89841 -14.88917,0 v -12.42815 c 0,-8.82924 -14.88918,-9.35815 -14.88918,0 v -6.7678 c 0,-8.6316 -14.88917,-7.93473 -14.88917,0 v 9.96713 c 0,-7.25785 -14.52001,-7.99677 -14.52001,0 v 46.02641 L 95.007557,158.23439 c -7.137641,-7.13765 -17.009967,2.43209 -9.721028,9.72102 l 29.962921,29.90139 v 0 z"
             fill="none"
             stroke="#000000"
             stroke-width="4.30678"
             id="path2-9" /></g></g></g></g></svg>
