<svg id="e2RyEfFT8ho1" xmlns="http://www.w3.org/2000/svg" xmlns:xlink="http://www.w3.org/1999/xlink" viewBox="0 0 270.93333 270.93334" shape-rendering="geometricPrecision" text-rendering="geometricPrecision" project-id="1734d3fa92b54d37baa12e80d907cc77" export-id="52aa142ec6c04d6ba05d08de3917af99" cached="false"><g transform="translate(0-26.0667)"><path d="M135.46666,68.929157c-51.143857,0-92.604157,41.460273-92.604157,92.604163s41.4603,92.60416,92.604157,92.60416s92.60417-41.4603,92.60417-92.60416-41.46031-92.604163-92.60417-92.604163Zm0,19.84375c40.18445,0,72.76042,32.575943,72.76042,72.760413s-32.57597,72.76041-72.76042,72.76041-72.760407-32.57594-72.760407-72.76041s32.57595-72.760413,72.760407-72.760413Z" stroke-width="2.6766"/></g><path d="M63.801879,31.935922L47.278306,72.606511h-8.948349L54.91804,34.148212h-21.28804v-7.328212h30.171879Zm0,0L47.278306,72.606511h-8.948349L54.91804,34.148212h-21.28804v-7.328212h30.171879Z" transform="matrix(2.194096 0 0 2.194096 28.582552 26.394345)"/></svg>
