<svg id="ej4mS83Kz0t1" xmlns="http://www.w3.org/2000/svg" xmlns:xlink="http://www.w3.org/1999/xlink" viewBox="0 0 270.93333 270.93334" shape-rendering="geometricPrecision" text-rendering="geometricPrecision" project-id="1734d3fa92b54d37baa12e80d907cc77" export-id="8571609429ab41179d266493e29e396d" cached="false"><g transform="translate(0-26.0667)"><path d="M135.46666,68.929157c-51.143857,0-92.604157,41.460273-92.604157,92.604163s41.4603,92.60416,92.604157,92.60416s92.60417-41.4603,92.60417-92.60416-41.46031-92.604163-92.60417-92.604163Zm0,19.84375c40.18445,0,72.76042,32.575943,72.76042,72.760413s-32.57597,72.76041-72.76042,72.76041-72.760407-32.57594-72.760407-72.76041s32.57595-72.760413,72.760407-72.760413Z" stroke-width="2.6766"/></g><path d="M83.099532,58.404728q0,20.320198-8.449147,31.071737t-24.650385,10.793785q-16.011133,0-24.481402-10.561433t-8.61813-30.269068v-17.933314q0-20.510303,8.449147-31.135105t24.523648-10.561433q16.011133,0,24.481402,10.561433t8.681498,30.226822ZM63.666495,38.59148q0-12.187894-3.337413-17.743208C58.193047,17.215897,54.207398,15.080437,50,15.314081c-4.091117-.25312-7.986076,1.779739-10.117853,5.280717q-3.252921,5.280717-3.46415,16.539204v23.826593q0,11.976665,3.252921,17.806576c2.067088,3.851736,6.200632,6.133453,10.561433,5.829911c4.2241.285942,8.232848-1.895408,10.286836-5.59756q3.16843-5.59756,3.295167-17.109522ZM83.099532,58.404728q0,20.320198-8.449147,31.071737t-24.650385,10.793785q-16.011133,0-24.481402-10.561433t-8.61813-30.269068v-17.933314q0-20.510303,8.449147-31.135105t24.523648-10.561433q16.011133,0,24.481402,10.561433t8.681498,30.226822ZM63.666495,38.59148q0-12.187894-3.337413-17.743208C58.193047,17.215897,54.207398,15.080437,50,15.314081c-4.091117-.25312-7.986076,1.779739-10.117853,5.280717q-3.252921,5.280717-3.46415,16.539204v23.826593q0,11.976665,3.252921,17.806576c2.067088,3.851736,6.200632,6.133453,10.561433,5.829911c4.2241.285942,8.232848-1.895408,10.286836-5.59756q3.16843-5.59756,3.295167-17.109522Z" transform="translate(85.466665 85.426674)"/></svg>
