<svg id="eYnqgjRv9GT1" xmlns="http://www.w3.org/2000/svg" xmlns:xlink="http://www.w3.org/1999/xlink" viewBox="0 0 270.93333 270.93334" shape-rendering="geometricPrecision" text-rendering="geometricPrecision" project-id="1734d3fa92b54d37baa12e80d907cc77" export-id="e262228485f14f36a8468cc2a83be93c" cached="false"><g transform="translate(0-26.0667)"><path d="M135.46666,68.929157c-51.143857,0-92.604157,41.460273-92.604157,92.604163s41.4603,92.60416,92.604157,92.60416s92.60417-41.4603,92.60417-92.60416-41.46031-92.604163-92.60417-92.604163Zm0,19.84375c40.18445,0,72.76042,32.575943,72.76042,72.760413s-32.57597,72.76041-72.76042,72.76041-72.760407-32.57594-72.760407-72.76041s32.57595-72.760413,72.760407-72.760413Z" stroke-width="2.6766"/></g><path d="M57.690746,26.259905v7.352292h-.843402q-5.913291.096996-9.476428,3.152368c-2.463808,2.151637-4.016252,5.197516-4.330728,8.496844c2.320784-2.425324,5.526234-3.747545,8.841507-3.647047c3.514757-.144204,6.891246,1.411358,9.116324,4.199924q3.326226,4.199924,3.326226,11.057536c.025496,2.765259-.626091,5.493014-1.895286,7.934267-1.191357,2.323382-3.014844,4.243717-5.249941,5.528768-2.347648,1.325769-4.995183,1.994876-7.675907,1.939919-4.272081.163534-8.389207-1.649625-11.210614-4.937093q-4.292822-4.907994-4.292822-13.201147v-3.162067c-.089185-4.465682.835326-8.891626,2.700782-12.929558c1.688575-3.614488,4.386131-6.635475,7.751718-8.681136c3.561647-2.099799,7.612665-3.172437,11.722342-3.10387ZM49.161961,48.81146c-1.343082-.006869-2.659461.383871-3.790571,1.125153-1.112843.714287-1.993449,1.750664-2.530206,2.977775v2.715886c-.1391,2.452629.459524,4.889975,1.715233,6.983707c1.073386,1.636933,2.898822,2.587664,4.823502,2.512195c1.774921.038086,3.45852-.803668,4.520256-2.260005c1.21344-1.697203,1.825165-3.7672,1.734186-5.868254.107897-2.124188-.504745-4.221271-1.734186-5.936151-1.129404-1.492216-2.895729-2.331093-4.738214-2.250306Zm8.528785-22.551555v7.352292h-.843402q-5.913291.096996-9.476428,3.152368c-2.463808,2.151637-4.016252,5.197516-4.330728,8.496844c2.320784-2.425324,5.526234-3.747545,8.841507-3.647047c3.514757-.144204,6.891246,1.411358,9.116324,4.199924q3.326226,4.199924,3.326226,11.057536c.025496,2.765259-.626091,5.493014-1.895286,7.934267-1.191357,2.323382-3.014844,4.243717-5.249941,5.528768-2.347648,1.325769-4.995183,1.994876-7.675907,1.939919-4.272081.163534-8.389207-1.649625-11.210614-4.937093q-4.292822-4.907994-4.292822-13.201147v-3.162067c-.089185-4.465682.835326-8.891626,2.700782-12.929558c1.688575-3.614488,4.386131-6.635475,7.751718-8.681136c3.561647-2.099799,7.612665-3.172437,11.722342-3.10387ZM49.161961,48.81146c-1.343082-.006869-2.659461.383871-3.790571,1.125153-1.112843.714287-1.993449,1.750664-2.530206,2.977775v2.715886c-.1391,2.452629.459524,4.889975,1.715233,6.983707c1.073386,1.636933,2.898822,2.587664,4.823502,2.512195c1.774921.038086,3.45852-.803668,4.520256-2.260005c1.21344-1.697203,1.825165-3.7672,1.734186-5.868254.107897-2.124188-.504745-4.221271-1.734186-5.936151-1.129404-1.492216-2.895729-2.331093-4.738214-2.250306Z" transform="matrix(2.182581 0 0 2.182581 28.175749 27.932187)"/></svg>
