<svg id="efYv1cLMwya1" xmlns="http://www.w3.org/2000/svg" xmlns:xlink="http://www.w3.org/1999/xlink" viewBox="0 0 270.93333 270.93334" shape-rendering="geometricPrecision" text-rendering="geometricPrecision" project-id="1734d3fa92b54d37baa12e80d907cc77" export-id="ff0c979aa3fe42bc82a824379ec6a699" cached="false"><g transform="translate(0-26.0667)"><path d="M135.46666,68.929157c-51.143857,0-92.604157,41.460273-92.604157,92.604163s41.4603,92.60416,92.604157,92.60416s92.60417-41.4603,92.60417-92.60416-41.46031-92.604163-92.60417-92.604163Zm0,19.84375c40.18445,0,72.76042,32.575943,72.76042,72.760413s-32.57597,72.76041-72.76042,72.76041-72.760407-32.57594-72.760407-72.76041s32.57595-72.760413,72.760407-72.760413Z" stroke-width="2.6766"/></g><path d="M35.207438,39.869598h9.464245q6.760175,0,10.024374-3.690179c2.244283-2.661076,3.419743-6.192044,3.264199-9.805332.181528-3.427685-.993058-6.775602-3.225569-9.193816-2.458911-2.312692-5.644553-3.492151-8.884801-3.289531-3.093271-.11502-6.124129.968031-8.55645,3.057577-2.235798,1.904826-3.511472,4.854544-3.438032,7.949699h-17.769603c-.033542-4.900239,1.315163-9.693015,3.862957-13.727464C22.60444,6.993864,26.268105,3.70208,30.53326,1.660435c4.701151-2.318877,9.810636-3.484908,14.968959-3.416051q14.215682,0,22.269948,7.422531c5.435544,5.093018,8.408767,12.643638,8.054266,20.454133.008361,4.453042-1.306446,8.788921-3.747068,12.356826-2.522306,3.782121-5.913326,6.771452-9.831226,8.666648c4.528838,1.563341,8.481206,4.666564,11.279835,8.856429c2.53273,4.121451,3.834902,8.997729,3.727754,13.959418.256191,8.065071-2.968903,15.794021-8.710968,20.875867q-8.710968,7.865352-23.023225,7.865352-13.404461,0-21.922282-7.717745c-5.597303-4.983432-8.746751-12.530714-8.517821-20.411959h17.769603c-.0645,3.493766,1.363189,6.821519,3.862957,9.004036c2.609265,2.365554,5.919586,3.610213,9.309727,3.500398c3.543408.15468,7.008604-1.164127,9.696022-3.690179c2.423361-2.515949,3.733061-6.052146,3.59255-9.699898q0-14.634194-14.756496-14.634194h-9.348356Zm0,0h9.464245q6.760175,0,10.024374-3.690179c2.244283-2.661076,3.419743-6.192044,3.264199-9.805332.181528-3.427685-.993058-6.775602-3.225569-9.193816-2.458911-2.312692-5.644553-3.492151-8.884801-3.289531-3.093271-.11502-6.124129.968031-8.55645,3.057577-2.235798,1.904826-3.511472,4.854544-3.438032,7.949699h-17.769603c-.033542-4.900239,1.315163-9.693015,3.862957-13.727464C22.60444,6.993864,26.268105,3.70208,30.53326,1.660435c4.701151-2.318877,9.810636-3.484908,14.968959-3.416051q14.215682,0,22.269948,7.422531c5.435544,5.093018,8.408767,12.643638,8.054266,20.454133.008361,4.453042-1.306446,8.788921-3.747068,12.356826-2.522306,3.782121-5.913326,6.771452-9.831226,8.666648c4.528838,1.563341,8.481206,4.666564,11.279835,8.856429c2.53273,4.121451,3.834902,8.997729,3.727754,13.959418.256191,8.065071-2.968903,15.794021-8.710968,20.875867q-8.710968,7.865352-23.023225,7.865352-13.404461,0-21.922282-7.717745c-5.597303-4.983432-8.746751-12.530714-8.517821-20.411959h17.769603c-.0645,3.493766,1.363189,6.821519,3.862957,9.004036c2.609265,2.365554,5.919586,3.610213,9.309727,3.500398c3.543408.15468,7.008604-1.164127,9.696022-3.690179c2.423361-2.515949,3.733061-6.052146,3.59255-9.699898q0-14.634194-14.756496-14.634194h-9.348356Z" transform="translate(87.300147 86.998407)"/></svg>
