<svg width="256" height="256" viewBox="0 0 256 256" fill="none" xmlns="http://www.w3.org/2000/svg">
<path d="M82.2 170.7C87.6 173.7 91.7 171.1 91.3 164.9L90.5 153.9C90.1 147.7 85.1 140.4 79.5 137.8L50.7 124.3C45.1 121.7 40.3 117.4 40 114.8C39.8445 111.954 40.4668 109.119 41.8 106.6C42.566 105.526 43.5686 104.643 44.7304 104.019C45.8922 103.395 47.1819 103.046 48.5 103C50.9 103 57.6 105 63.4 107.5L105.2 125.5C110.9 128 115.9 135.1 116.4 141.3L117.5 157.1C117.9 163.3 123.1 166.6 128.9 164.4L152.7 155.6C158.5 153.4 163 146.5 162.5 140.3L161 117.5C160.5 111.3 161.3 104.6 162.6 102.6C163.9 100.6 168.4 99 172.6 99C176.8 99 181.2 100.4 182.5 102C183.8 103.6 185.4 110.1 186.1 116.3L191.4 161.5C192.1 167.6 190.7 177.4 188.4 183.2L182.1 198.6C179.7 204.4 181.6 212.5 186.3 216.6L197.9 226.8C202.6 230.9 206.5 236.3 206.6 238.7C206.347 241.977 205.206 245.123 203.3 247.8C201.4 250.3 197.9 252.1 195.5 251.9C193.1 251.7 187.2 248 182.5 244L159.4 224C154.6 219.9 152.5 211.7 154.5 205.8L156.8 199.1C158.9 193.2 155.8 190.1 149.9 192.2L121.9 202.2C116.909 204.022 111.796 205.492 106.6 206.6C103.378 206.827 100.14 206.557 97 205.8C94.3 205 87.8 201.7 82.5 198.3L73.9 192.9C68.6 189.5 59.5 188.5 53.6 190.6L31.5 198.6C25.7 200.7 18.7 202.3 16.1 202.1C13.5 201.9 10.5 199.3 9.59999 196.3C8.69999 193.3 8.69999 189.1 9.59999 186.9C10.5 184.7 16.1 181.3 22 179.2L58.3 167C64.2 165 73.5 165.8 78.9 168.9L82.2 170.7Z" fill="white" stroke="black" stroke-width="4" stroke-miterlimit="10"/>
<path d="M226 188C239.255 188 250 179.046 250 168C250 156.954 239.255 148 226 148C212.745 148 202 156.954 202 168C202 179.046 212.745 188 226 188Z" fill="white" stroke="black" stroke-width="4" stroke-miterlimit="10"/>
<path d="M103.8 18.5H98.2C95.052 18.5 92.5 21.052 92.5 24.2V74.8C92.5 77.948 95.052 80.5 98.2 80.5H103.8C106.948 80.5 109.5 77.948 109.5 74.8V24.2C109.5 21.052 106.948 18.5 103.8 18.5Z" fill="white" stroke="black" stroke-width="3" stroke-miterlimit="10"/>
<path d="M170.8 6.5H165.2C162.052 6.5 159.5 9.05198 159.5 12.2V62.8C159.5 65.948 162.052 68.5 165.2 68.5H170.8C173.948 68.5 176.5 65.948 176.5 62.8V12.2C176.5 9.05198 173.948 6.5 170.8 6.5Z" fill="white" stroke="black" stroke-width="3" stroke-miterlimit="10"/>
<path d="M137.8 50.5H132.2C129.052 50.5 126.5 53.052 126.5 56.2V106.8C126.5 109.948 129.052 112.5 132.2 112.5H137.8C140.948 112.5 143.5 109.948 143.5 106.8V56.2C143.5 53.052 140.948 50.5 137.8 50.5Z" fill="white" stroke="black" stroke-width="3" stroke-miterlimit="10"/>
</svg>
