<svg id="ei7QhyfwRZ61" xmlns="http://www.w3.org/2000/svg" xmlns:xlink="http://www.w3.org/1999/xlink" viewBox="0 0 270.93333 270.93334" shape-rendering="geometricPrecision" text-rendering="geometricPrecision" project-id="c287d30a7f32456ca2d52d34f1de6301" export-id="e2ff3c1bf0f34b84b95c8acae5c44305" cached="false"><rect width="48" height="48" rx="6.22" ry="6.22" transform="matrix(2.536516 0 0 2.536516 74.590281 74.590286)" fill="#b3b3b3"/><rect width="48" height="48" rx="6.22" ry="6.22" transform="matrix(2.027454 0 0 2.027454 86.807769 86.807774)" fill="#c3c3c3" stroke="#b8b8b8" stroke-width="2"/><path d="M66.35,73.5h-31.78v-6.3l15-16c1.717745-1.804469,3.248849-3.777817,4.57-5.89.913427-1.431612,1.424645-3.082709,1.48-4.78.102359-1.757614-.453816-3.490313-1.56-4.86-1.148235-1.225714-2.783743-1.874783-4.46-1.77-1.88504-.087062-3.703355.707526-4.92,2.15-1.257973,1.606624-1.896781,3.611773-1.8,5.65h-9.23c-.036373-2.712296.65421-5.384852,2-7.74c1.348946-2.334244,3.33239-4.237935,5.72-5.49c2.58121-1.359409,5.463083-2.047206,8.38-2q7.16,0,11.13,3.44t4,9.71c-.037189,2.440501-.646884,4.838177-1.78,7-1.65062,3.052807-3.702141,5.871127-6.1,8.38L46.42,66.08h19.93Zm0,0h-31.78v-6.3l15-16c1.717745-1.804469,3.248849-3.777817,4.57-5.89.913427-1.431612,1.424645-3.082709,1.48-4.78.102359-1.757614-.453816-3.490313-1.56-4.86-1.148235-1.225714-2.783743-1.874783-4.46-1.77-1.88504-.087062-3.703355.707526-4.92,2.15-1.257973,1.606624-1.896781,3.611773-1.8,5.65h-9.23c-.036373-2.712296.65421-5.384852,2-7.74c1.348946-2.334244,3.33239-4.237935,5.72-5.49c2.58121-1.359409,5.463083-2.047206,8.38-2q7.16,0,11.13,3.44t4,9.71c-.037189,2.440501-.646884,4.838177-1.78,7-1.65062,3.052807-3.702141,5.871127-6.1,8.38L46.42,66.08h19.93Z" transform="translate(85.467321 85.482763)" fill="#818181"/></svg>
