<?xml version="1.0" encoding="UTF-8" standalone="no"?>
<!-- Created with Inkscape (http://www.inkscape.org/) -->

<svg
   width="1024"
   height="1024"
   viewBox="0 0 270.93333 270.93334"
   version="1.1"
   id="svg8"
   inkscape:export-filename="C:\Users\kemon\Desktop\legacy\icons\reload.png"
   inkscape:export-xdpi="96"
   inkscape:export-ydpi="96"
   inkscape:version="1.4 (86a8ad7, 2024-10-11)"
   sodipodi:docname="btn_8.svg"
   xml:space="preserve"
   xmlns:inkscape="http://www.inkscape.org/namespaces/inkscape"
   xmlns:sodipodi="http://sodipodi.sourceforge.net/DTD/sodipodi-0.dtd"
   xmlns="http://www.w3.org/2000/svg"
   xmlns:svg="http://www.w3.org/2000/svg"
   xmlns:rdf="http://www.w3.org/1999/02/22-rdf-syntax-ns#"
   xmlns:cc="http://creativecommons.org/ns#"
   xmlns:dc="http://purl.org/dc/elements/1.1/"><defs
     id="defs2" /><sodipodi:namedview
     id="base"
     pagecolor="#ffffff"
     bordercolor="#666666"
     borderopacity="1.0"
     inkscape:pageopacity="0.0"
     inkscape:pageshadow="2"
     inkscape:zoom="0.49497475"
     inkscape:cx="384.86812"
     inkscape:cy="617.2032"
     inkscape:document-units="mm"
     inkscape:current-layer="layer1"
     showgrid="false"
     units="px"
     showguides="true"
     inkscape:guide-bbox="true"
     inkscape:window-width="1920"
     inkscape:window-height="1017"
     inkscape:window-x="-8"
     inkscape:window-y="-8"
     inkscape:window-maximized="1"
     inkscape:showpageshadow="0"
     inkscape:pagecheckerboard="1"
     inkscape:deskcolor="#505050" /><metadata
     id="metadata5"><rdf:RDF><cc:Work
         rdf:about=""><dc:format>image/svg+xml</dc:format><dc:type
           rdf:resource="http://purl.org/dc/dcmitype/StillImage" /></cc:Work></rdf:RDF></metadata><g
     inkscape:label="Layer 1"
     inkscape:groupmode="layer"
     id="layer1"
     transform="translate(0,-26.06665)"><g
       style="shape-rendering:geometricPrecision;text-rendering:geometricPrecision"
       id="g9"
       transform="matrix(1.5290081,0,0,1.5290081,-71.662961,-45.596322)"><rect
         width="48"
         height="48"
         rx="6.2199998"
         ry="6.2199998"
         transform="matrix(2.536516,0,0,2.536516,74.590281,74.590286)"
         fill="#b3b3b3"
         id="rect1"
         x="0"
         y="0" /><rect
         width="48"
         height="48"
         rx="6.2199998"
         ry="6.2199998"
         transform="matrix(2.027454,0,0,2.027454,86.807769,86.807774)"
         fill="#c3c3c3"
         stroke="#b8b8b8"
         stroke-width="2"
         id="rect2"
         x="0"
         y="0" /><path
         d="m 64.68,39.14 c 0.03982,2.122786 -0.548098,4.210065 -1.69,6 -1.160136,1.77146 -2.763102,3.208958 -4.65,4.17 2.145209,0.993887 3.990534,2.535682 5.35,4.47 1.347124,1.97104 2.046227,4.313035 2,6.7 0.172132,3.725512 -1.376265,7.323693 -4.2,9.76 q -4.23,3.58 -11.49,3.58 -7.26,0 -11.46,-3.6 c -2.832928,-2.423327 -4.393007,-6.015564 -4.23,-9.74 -0.04575,-2.393122 0.65313,-4.741347 2,-6.72 1.34363,-1.934709 3.180492,-3.474634 5.32,-4.46 -1.883587,-0.958072 -3.480766,-2.396568 -4.63,-4.17 -1.130515,-1.794063 -1.711059,-3.879849 -1.67,-6 -0.15824,-3.578492 1.290408,-7.040579 3.95,-9.44 q 3.94,-3.51 10.72,-3.51 6.78,0 10.71,3.49 c 2.675301,2.402454 4.132302,5.87797 3.97,9.47 z M 56.43,59.81 C 56.509545,58.03774 55.879788,56.306806 54.68,55 53.448848,53.753736 51.750525,53.082391 50,53.15 48.238979,53.07257 46.52758,53.744776 45.29,55 c -1.212409,1.319202 -1.843096,3.070709 -1.75,4.86 -0.08072,1.758002 0.537646,3.476495 1.72,4.78 1.262254,1.227037 2.982817,1.865896 4.74,1.76 1.742274,0.09838 3.44634,-0.536108 4.7,-1.75 1.202045,-1.316263 1.825325,-3.060007 1.73,-4.84 z m -1,-20.22 C 55.50899,38.012876 54.999364,36.462632 54,35.24 52.977407,34.12496 51.511025,33.523743 50,33.6 c -1.502182,-0.08344 -2.965035,0.498048 -4,1.59 -1.012369,1.231107 -1.523036,2.798818 -1.43,4.39 -0.07019,1.597334 0.437477,3.166484 1.43,4.42 1.006362,1.143131 2.478866,1.765264 4,1.69 1.521134,0.07526 2.993638,-0.546869 4,-1.69 1.004178,-1.246072 1.529176,-2.810422 1.48,-4.41 z m 9.2,-0.45 c 0.03982,2.122786 -0.548098,4.210065 -1.69,6 -1.160136,1.77146 -2.763102,3.208958 -4.65,4.17 2.145209,0.993887 3.990534,2.535682 5.35,4.47 1.347124,1.97104 2.046227,4.313035 2,6.7 0.172132,3.725512 -1.376265,7.323693 -4.2,9.76 q -4.18,3.58 -11.44,3.58 -7.26,0 -11.46,-3.6 c -2.832928,-2.423327 -4.393007,-6.015564 -4.23,-9.74 -0.04575,-2.393122 0.65313,-4.741347 2,-6.72 1.34363,-1.934709 3.180492,-3.474634 5.32,-4.46 -1.883587,-0.958072 -3.480766,-2.396568 -4.63,-4.17 -1.130515,-1.794063 -1.711059,-3.879849 -1.67,-6 -0.15824,-3.578492 1.290408,-7.040579 3.95,-9.44 q 3.94,-3.51 10.72,-3.51 6.78,0 10.71,3.49 c 2.675301,2.402454 4.132302,5.87797 3.97,9.47 z m -8.2,20.67 C 56.509545,58.03774 55.879788,56.306806 54.68,55 53.448848,53.753736 51.750525,53.082391 50,53.15 48.238979,53.07257 46.52758,53.744776 45.29,55 c -1.212409,1.319202 -1.843096,3.070709 -1.75,4.86 -0.08072,1.758002 0.537646,3.476495 1.72,4.78 1.262254,1.227037 2.982817,1.865896 4.74,1.76 1.742274,0.09838 3.44634,-0.536108 4.7,-1.75 1.202045,-1.316263 1.825325,-3.060007 1.73,-4.84 z m -1,-20.22 C 55.50899,38.012876 54.999364,36.462632 54,35.24 52.977407,34.12496 51.511025,33.523743 50,33.6 c -1.502182,-0.08344 -2.965035,0.498048 -4,1.59 -1.012369,1.231107 -1.523036,2.798818 -1.43,4.39 -0.07019,1.597334 0.437477,3.166484 1.43,4.42 1.006362,1.143131 2.478866,1.765264 4,1.69 1.521134,0.07526 2.993638,-0.546869 4,-1.69 1.004178,-1.246072 1.529176,-2.810422 1.48,-4.41 z"
         transform="translate(85.466024,85.46667)"
         fill="#818181"
         id="path2" /></g></g></svg>
