<?xml version="1.0" encoding="UTF-8" standalone="no"?>
<!-- Created with Inkscape (http://www.inkscape.org/) -->

<svg
   width="1024"
   height="1024"
   viewBox="0 0 270.93333 270.93334"
   version="1.1"
   id="svg8"
   inkscape:export-filename="C:\Users\kemon\Desktop\legacy\icons\reload.png"
   inkscape:export-xdpi="96"
   inkscape:export-ydpi="96"
   inkscape:version="1.4 (86a8ad7, 2024-10-11)"
   sodipodi:docname="btn_0.svg"
   xml:space="preserve"
   xmlns:inkscape="http://www.inkscape.org/namespaces/inkscape"
   xmlns:sodipodi="http://sodipodi.sourceforge.net/DTD/sodipodi-0.dtd"
   xmlns="http://www.w3.org/2000/svg"
   xmlns:svg="http://www.w3.org/2000/svg"
   xmlns:rdf="http://www.w3.org/1999/02/22-rdf-syntax-ns#"
   xmlns:cc="http://creativecommons.org/ns#"
   xmlns:dc="http://purl.org/dc/elements/1.1/"><defs
     id="defs2" /><sodipodi:namedview
     id="base"
     pagecolor="#ffffff"
     bordercolor="#666666"
     borderopacity="1.0"
     inkscape:pageopacity="0.0"
     inkscape:pageshadow="2"
     inkscape:zoom="0.49497475"
     inkscape:cx="384.86812"
     inkscape:cy="617.2032"
     inkscape:document-units="mm"
     inkscape:current-layer="g1"
     showgrid="false"
     units="px"
     showguides="true"
     inkscape:guide-bbox="true"
     inkscape:window-width="1920"
     inkscape:window-height="1017"
     inkscape:window-x="-8"
     inkscape:window-y="-8"
     inkscape:window-maximized="1"
     inkscape:showpageshadow="0"
     inkscape:pagecheckerboard="1"
     inkscape:deskcolor="#505050" /><metadata
     id="metadata5"><rdf:RDF><cc:Work
         rdf:about=""><dc:format>image/svg+xml</dc:format><dc:type
           rdf:resource="http://purl.org/dc/dcmitype/StillImage" /></cc:Work></rdf:RDF></metadata><g
     inkscape:label="Layer 1"
     inkscape:groupmode="layer"
     id="layer1"
     transform="translate(0,-26.06665)"><g
       style="shape-rendering:geometricPrecision;text-rendering:geometricPrecision"
       id="g1"
       transform="matrix(1.5290083,0,0,1.5290083,-71.662988,-45.596346)"><rect
         width="48"
         height="48"
         rx="6.2199998"
         ry="6.2199998"
         transform="matrix(2.536516,0,0,2.536516,74.590281,74.590286)"
         fill="#b3b3b3"
         id="rect1"
         x="0"
         y="0" /><rect
         width="48"
         height="48"
         rx="6.2199998"
         ry="6.2199998"
         transform="matrix(2.027454,0,0,2.027454,86.807769,86.807774)"
         fill="#c3c3c3"
         stroke="#b8b8b8"
         stroke-width="2"
         id="rect2"
         x="0"
         y="0" /><path
         d="m 65.67,54 q 0,9.62 -4,14.71 -4,5.09 -11.67,5.11 -7.58,0 -11.59,-5 -4.01,-5 -4.08,-14.33 V 46 q 0,-9.71 4,-14.74 4,-5.03 11.61,-5 7.58,0 11.59,5 4.01,5 4.11,14.31 z m -9.2,-9.38 q 0,-5.77 -1.58,-8.4 C 53.878757,34.500359 51.991869,33.489388 50,33.6 c -1.936819,-0.119832 -3.780773,0.842565 -4.79,2.5 q -1.54,2.5 -1.64,7.83 v 11.28 q 0,5.67 1.54,8.43 c 0.978602,1.823491 2.935507,2.903703 5,2.76 1.999776,0.135371 3.8976,-0.897325 4.87,-2.65 q 1.5,-2.65 1.56,-8.1 z m 9.2,9.38 q 0,9.62 -4,14.71 -4,5.09 -11.67,5.11 -7.58,0 -11.59,-5 -4.01,-5 -4.08,-14.33 V 46 q 0,-9.71 4,-14.74 4,-5.03 11.61,-5 7.58,0 11.59,5 4.01,5 4.11,14.31 z m -9.2,-9.38 q 0,-5.77 -1.58,-8.4 C 53.878757,34.500359 51.991869,33.489388 50,33.6 c -1.936819,-0.119832 -3.780773,0.842565 -4.79,2.5 q -1.54,2.5 -1.64,7.83 v 11.28 q 0,5.67 1.54,8.43 c 0.978602,1.823491 2.935507,2.903703 5,2.76 1.999776,0.135371 3.8976,-0.897325 4.87,-2.65 q 1.5,-2.65 1.56,-8.1 z"
         transform="translate(85.466665,85.426725)"
         fill="#818181"
         id="path2" /></g></g></svg>
