<?xml version="1.0" encoding="UTF-8" standalone="no"?>
<!-- Created with Inkscape (http://www.inkscape.org/) -->

<svg
   width="1024"
   height="1024"
   viewBox="0 0 270.93333 270.93334"
   version="1.1"
   id="svg8"
   inkscape:export-filename="C:\Users\kemon\Desktop\legacy\icons\reload.png"
   inkscape:export-xdpi="96"
   inkscape:export-ydpi="96"
   inkscape:version="1.4 (86a8ad7, 2024-10-11)"
   sodipodi:docname="btn_jump.svg"
   xml:space="preserve"
   xmlns:inkscape="http://www.inkscape.org/namespaces/inkscape"
   xmlns:sodipodi="http://sodipodi.sourceforge.net/DTD/sodipodi-0.dtd"
   xmlns:xlink="http://www.w3.org/1999/xlink"
   xmlns="http://www.w3.org/2000/svg"
   xmlns:svg="http://www.w3.org/2000/svg"
   xmlns:rdf="http://www.w3.org/1999/02/22-rdf-syntax-ns#"
   xmlns:cc="http://creativecommons.org/ns#"
   xmlns:dc="http://purl.org/dc/elements/1.1/"><defs
     id="defs2"><linearGradient
       id="main-gradient"
       x1="0.5"
       y1="0"
       x2="0.5"
       y2="1"
       gradientUnits="objectBoundingBox"><stop
         offset="0%"
         stop-color="#dcdcdc"
         id="stop1" /><stop
         offset="98%"
         stop-color="#c6c6c6"
         id="stop2" /><stop
         offset="100%"
         stop-color="#c6c6c6"
         id="stop3" /></linearGradient><linearGradient
       id="mid-gradient"
       x1="0.5"
       y1="0"
       x2="0.5"
       y2="1"
       gradientUnits="objectBoundingBox"><stop
         offset="0%"
         stop-color="#c6c6c6"
         id="stop4" /><stop
         offset="100%"
         stop-color="#9e9e9e"
         id="stop5" /></linearGradient><linearGradient
       id="dark-gradient"
       x1="0.5"
       y1="0"
       x2="0.5"
       y2="1"
       gradientUnits="objectBoundingBox"><stop
         offset="0%"
         stop-color="#9e9e9e"
         id="stop6" /><stop
         offset="100%"
         stop-color="#818181"
         id="stop7" /></linearGradient><radialGradient
       id="gradient-dark"
       cx="42.862503"
       cy="68.929158"
       r="92.604163"
       gradientUnits="userSpaceOnUse"
       fx="42.862503"
       fy="68.929158"><stop
         offset="46%"
         stop-color="#505050"
         id="stop1-9" /><stop
         offset="100%"
         stop-color="#bababa"
         id="stop2-2" /></radialGradient><radialGradient
       id="gradient-light"
       cx="0"
       cy="0"
       r="0.5"
       gradientUnits="objectBoundingBox"
       gradientTransform="translate(0.5 0.5)"><stop
         offset="0%"
         stop-color="#fff"
         id="stop3-7" /><stop
         offset="100%"
         stop-color="#d1d1d1"
         id="stop4-9" /></radialGradient><radialGradient
       id="gradient-stroke"
       cx="0"
       cy="0"
       r="0.5"
       gradientUnits="objectBoundingBox"
       gradientTransform="translate(0.5 0.5)"><stop
         offset="0%"
         stop-color="#5e5e5e"
         id="stop5-5" /><stop
         offset="100%"
         stop-color="#676565"
         id="stop6-4" /></radialGradient><radialGradient
       inkscape:collect="always"
       xlink:href="#gradient-light"
       id="radialGradient19"
       gradientUnits="userSpaceOnUse"
       gradientTransform="scale(0.9978094,1.0021954)"
       cx="41.615365"
       cy="67.442793"
       r="93.736672"
       fx="41.615365"
       fy="67.442793" /><radialGradient
       inkscape:collect="always"
       xlink:href="#gradient-stroke"
       id="radialGradient20"
       gradientUnits="userSpaceOnUse"
       gradientTransform="scale(0.9978094,1.0021954)"
       cx="41.615365"
       cy="67.442793"
       r="93.736672"
       fx="41.615365"
       fy="67.442793" /><radialGradient
       inkscape:collect="always"
       xlink:href="#gradient-light"
       id="radialGradient21"
       gradientUnits="userSpaceOnUse"
       gradientTransform="scale(1.6741739,0.59730951)"
       cx="-0.80039477"
       cy="-2.2433931"
       r="19.914299"
       fx="-0.80039477"
       fy="-2.2433931" /><radialGradient
       inkscape:collect="always"
       xlink:href="#gradient-stroke"
       id="radialGradient22"
       gradientUnits="userSpaceOnUse"
       gradientTransform="scale(1.6741739,0.59730951)"
       cx="-0.80039477"
       cy="-2.2433931"
       r="19.914299"
       fx="-0.80039477"
       fy="-2.2433931" /><radialGradient
       inkscape:collect="always"
       xlink:href="#gradient-light"
       id="radialGradient23"
       gradientUnits="userSpaceOnUse"
       gradientTransform="scale(1.6741739,0.59730951)"
       cx="-0.80039477"
       cy="-2.2433931"
       r="19.914299"
       fx="-0.80039477"
       fy="-2.2433931" /><radialGradient
       inkscape:collect="always"
       xlink:href="#gradient-stroke"
       id="radialGradient24"
       gradientUnits="userSpaceOnUse"
       gradientTransform="scale(1.6741739,0.59730951)"
       cx="-0.80039477"
       cy="-2.2433931"
       r="19.914299"
       fx="-0.80039477"
       fy="-2.2433931" /><radialGradient
       inkscape:collect="always"
       xlink:href="#gradient-light"
       id="radialGradient25"
       gradientUnits="userSpaceOnUse"
       gradientTransform="scale(1.6741739,0.59730951)"
       cx="-0.80039477"
       cy="-2.2433931"
       r="19.914299"
       fx="-0.80039477"
       fy="-2.2433931" /><radialGradient
       inkscape:collect="always"
       xlink:href="#gradient-stroke"
       id="radialGradient26"
       gradientUnits="userSpaceOnUse"
       gradientTransform="scale(1.6741739,0.59730951)"
       cx="-0.80039477"
       cy="-2.2433931"
       r="19.914299"
       fx="-0.80039477"
       fy="-2.2433931" /><radialGradient
       inkscape:collect="always"
       xlink:href="#gradient-light"
       id="radialGradient27"
       gradientUnits="userSpaceOnUse"
       gradientTransform="scale(1.6741739,0.59730951)"
       cx="-0.80039477"
       cy="-2.2433931"
       r="19.914299"
       fx="-0.80039477"
       fy="-2.2433931" /><radialGradient
       inkscape:collect="always"
       xlink:href="#gradient-stroke"
       id="radialGradient28"
       gradientUnits="userSpaceOnUse"
       gradientTransform="scale(1.6741739,0.59730951)"
       cx="-0.80039477"
       cy="-2.2433931"
       r="19.914299"
       fx="-0.80039477"
       fy="-2.2433931" /><linearGradient
       id="gradient1"
       x1="56.92767"
       y1="130.53285"
       x2="96.136955"
       y2="102.43126"
       gradientUnits="userSpaceOnUse"
       gradientTransform="scale(1.763305,0.56711686)"><stop
         offset="0%"
         stop-color="#808080"
         id="stop1-3" /><stop
         offset="64%"
         stop-color="#bcbcbc"
         id="stop2-1" /><stop
         offset="100%"
         stop-color="#fff"
         id="stop3-2" /></linearGradient><linearGradient
       id="gradient2"
       x1="57.001157"
       y1="167.01936"
       x2="166.30369"
       y2="119.70451"
       gradientUnits="userSpaceOnUse"
       gradientTransform="scale(1.1278459,0.88664592)"><stop
         offset="27%"
         stop-color="#cdcdcd"
         id="stop4-3" /><stop
         offset="57%"
         stop-color="#b3b3b3"
         id="stop5-3" /><stop
         offset="91%"
         stop-color="#bcbcbc"
         id="stop6-41" /><stop
         offset="100%"
         stop-color="#fff"
         id="stop7-1" /></linearGradient><linearGradient
       id="gradient3"
       x1="0"
       y1="0.5"
       x2="1.970455"
       y2="0.160675"
       gradientUnits="objectBoundingBox"><stop
         offset="0%"
         stop-color="#b1b1b1"
         id="stop8" /><stop
         offset="100%"
         stop-color="#c6c6c6"
         id="stop9" /></linearGradient><linearGradient
       id="gradient4"
       x1="87.129181"
       y1="240.68557"
       x2="114.44118"
       y2="218.64488"
       gradientUnits="userSpaceOnUse"
       gradientTransform="scale(1.6140145,0.61957311)"><stop
         offset="22.5873%"
         stop-color="#9f9f9f"
         id="stop10" /><stop
         offset="100%"
         stop-color="#afafaf"
         id="stop11" /></linearGradient><linearGradient
       id="gradient5"
       x1="110.23613"
       y1="182.43075"
       x2="110.23613"
       y2="256.8187"
       gradientUnits="userSpaceOnUse"
       gradientTransform="scale(1.2436597,0.80407849)"><stop
         offset="0%"
         stop-color="#535353"
         id="stop12" /><stop
         offset="100%"
         stop-color="#fff"
         id="stop13" /></linearGradient><linearGradient
       id="elUVJ5Fizeu2-fill"
       x1="-0.5"
       y1="46.5"
       x2="46.5"
       y2="-0.5"
       spreadMethod="pad"
       gradientUnits="userSpaceOnUse"><stop
         id="elUVJ5Fizeu2-fill-0"
         offset="0%"
         stop-color="#8c8c8c" /><stop
         id="elUVJ5Fizeu2-fill-1"
         offset="100%"
         stop-color="#ccc7c7" /></linearGradient><linearGradient
       id="ecjmX547NxC2-fill"
       x1="114.64292"
       y1="169.58511"
       x2="114.64292"
       y2="246.94678"
       spreadMethod="pad"
       gradientUnits="userSpaceOnUse"
       gradientTransform="scale(1.1958544,0.83622223)"><stop
         id="ecjmX547NxC2-fill-0"
         offset="0%"
         stop-color="#535353" /><stop
         id="ecjmX547NxC2-fill-1"
         offset="100%"
         stop-color="#fff" /></linearGradient><linearGradient
       id="ecjmX547NxC4-fill"
       x1="0"
       y1="0.5"
       x2="1.970455"
       y2="0.160675"
       spreadMethod="pad"
       gradientUnits="objectBoundingBox"
       gradientTransform="translate(0 0)"><stop
         id="ecjmX547NxC4-fill-0"
         offset="0%"
         stop-color="#b1b1b1" /><stop
         id="ecjmX547NxC4-fill-1"
         offset="100%"
         stop-color="#c6c6c6" /></linearGradient><linearGradient
       id="ecjmX547NxC6-fill"
       x1="57.001157"
       y1="167.01936"
       x2="166.30369"
       y2="119.70451"
       spreadMethod="pad"
       gradientUnits="userSpaceOnUse"
       gradientTransform="scale(1.1278459,0.88664592)"><stop
         id="ecjmX547NxC6-fill-0"
         offset="27%"
         stop-color="#cdcdcd" /><stop
         id="ecjmX547NxC6-fill-1"
         offset="57%"
         stop-color="#b3b3b3" /><stop
         id="ecjmX547NxC6-fill-2"
         offset="91%"
         stop-color="#bcbcbc" /><stop
         id="ecjmX547NxC6-fill-3"
         offset="100%"
         stop-color="#fff" /></linearGradient><linearGradient
       id="ecjmX547NxC7-fill"
       x1="56.92767"
       y1="130.53285"
       x2="96.136955"
       y2="102.43126"
       spreadMethod="pad"
       gradientUnits="userSpaceOnUse"
       gradientTransform="scale(1.763305,0.56711686)"><stop
         id="ecjmX547NxC7-fill-0"
         offset="0%"
         stop-color="#808080" /><stop
         id="ecjmX547NxC7-fill-1"
         offset="64%"
         stop-color="#bcbcbc" /><stop
         id="ecjmX547NxC7-fill-2"
         offset="100%"
         stop-color="#fff" /></linearGradient><linearGradient
       id="ecjmX547NxC8-fill"
       x1="87.129181"
       y1="240.68557"
       x2="114.44118"
       y2="218.64488"
       spreadMethod="pad"
       gradientUnits="userSpaceOnUse"
       gradientTransform="scale(1.6140145,0.61957311)"><stop
         id="ecjmX547NxC8-fill-0"
         offset="22.5873%"
         stop-color="#9f9f9f" /><stop
         id="ecjmX547NxC8-fill-1"
         offset="100%"
         stop-color="#afafaf" /></linearGradient><linearGradient
       inkscape:collect="always"
       xlink:href="#ecjmX547NxC4-fill"
       id="linearGradient29"
       gradientUnits="userSpaceOnUse"
       gradientTransform="scale(1.5232055,0.65651022)"
       x1="79.013007"
       y1="155.57813"
       x2="105.92127"
       y2="150.94436"
       spreadMethod="pad" /><linearGradient
       inkscape:collect="always"
       xlink:href="#ecjmX547NxC4-fill"
       id="linearGradient30"
       gradientUnits="userSpaceOnUse"
       gradientTransform="scale(1.5312193,0.6530743)"
       x1="75.52146"
       y1="132.47122"
       x2="102.88043"
       y2="127.75983"
       spreadMethod="pad" /></defs><sodipodi:namedview
     id="base"
     pagecolor="#ffffff"
     bordercolor="#666666"
     borderopacity="1.0"
     inkscape:pageopacity="0.0"
     inkscape:pageshadow="2"
     inkscape:zoom="0.49497475"
     inkscape:cx="384.86812"
     inkscape:cy="617.2032"
     inkscape:document-units="mm"
     inkscape:current-layer="layer1"
     showgrid="false"
     units="px"
     showguides="true"
     inkscape:guide-bbox="true"
     inkscape:window-width="1920"
     inkscape:window-height="1017"
     inkscape:window-x="-8"
     inkscape:window-y="-8"
     inkscape:window-maximized="1"
     inkscape:showpageshadow="0"
     inkscape:pagecheckerboard="1"
     inkscape:deskcolor="#505050" /><metadata
     id="metadata5"><rdf:RDF><cc:Work
         rdf:about=""><dc:format>image/svg+xml</dc:format><dc:type
           rdf:resource="http://purl.org/dc/dcmitype/StillImage" /></cc:Work></rdf:RDF></metadata><g
     inkscape:label="Layer 1"
     inkscape:groupmode="layer"
     id="layer1"
     transform="translate(0,-26.06665)"><g
       style="display:none;shape-rendering:geometricPrecision;text-rendering:geometricPrecision"
       id="g19"
       transform="matrix(1.0051436,0,0,1.0051436,-0.69678469,25.369912)"><g
         transform="translate(-2e-6,-26.0667)"
         id="g6"><path
           d="m 135.46666,68.929157 c -51.143857,0 -92.604157,41.460273 -92.604157,92.604163 0,51.14389 41.4603,92.60416 92.604157,92.60416 51.14386,0 92.60417,-41.4603 92.60417,-92.60416 0,-51.14386 -41.46031,-92.604163 -92.60417,-92.604163 z m 0,19.84375 c 40.18445,0 72.76042,32.575943 72.76042,72.760413 0,40.18447 -32.57597,72.76041 -72.76042,72.76041 -40.18445,0 -72.760407,-32.57594 -72.760407,-72.76041 0,-40.18447 32.57595,-72.760413 72.760407,-72.760413 z"
           fill="url(#gradient-dark)"
           stroke-width="2.6766"
           id="path6"
           style="fill:url(#gradient-dark)" /></g><g
         transform="matrix(0.383851,0,0,0.383851,83.467649,73.461926)"
         id="g7"><path
           d="m 135.46666,68.929157 c -4.79788,-10e-7 -9.51054,0.364874 -14.11175,1.06839 -39.119505,5.9813 -70.18251,36.440973 -77.066117,75.256153 -0.937292,5.28519 -1.42629,10.7253 -1.42629,16.27962 0,4.96567 0.390842,9.84005 1.143441,14.59407 6.165469,38.94599 36.609452,69.81359 75.341176,76.61204 5.23494,0.91887 10.62128,1.39805 16.11954,1.39805 5.63895,0 11.16018,-0.50402 16.52111,-1.46945 37.92718,-6.83022 67.83053,-36.75556 74.62807,-74.69409 0.95601,-5.33569 0.82308,-28.92103 -0.38094,-34.88006 -7.6284,-37.75487 -38.2225,-67.185061 -76.57561,-73.08393 -4.62686,-0.71163 -9.36663,-1.080794 -14.19263,-1.080793 z m 0,19.84375 c 4.78037,10e-7 9.49413,0.441098 14.08775,1.286827 28.25067,5.201213 51.95771,25.706506 58.67267,53.034146 1.37156,5.58181 -0.57181,28.95378 -1.65735,33.95256 -6.0106,27.67787 -27.77127,49.48127 -55.42585,55.5541 -5.04926,1.1088 -10.29499,1.69319 -15.67722,1.69319 -5.32395,0 -10.51435,-0.57181 -15.51313,-1.65735 -28.101758,-6.10265 -50.14775,-28.4415 -55.822015,-56.70061 -0.9348,-4.65551 -1.425263,-9.4717 -1.425262,-14.40245 -10e-7,-5.77653 0.673154,-11.39584 1.945299,-16.78376 6.50408,-27.54675 28.665495,-49.04509 56.572528,-54.583304 4.60588,-0.914045 9.36825,-1.393348 14.24258,-1.393349 z"
           fill="url(#gradient-light)"
           stroke="url(#gradient-stroke)"
           stroke-width="2.6766"
           id="path7"
           style="fill:url(#radialGradient19);stroke:url(#radialGradient20)" /></g><rect
         width="64"
         height="21.110001"
         rx="0"
         ry="0"
         transform="matrix(0.460504,0,0,0.460504,85.184363,130.60605)"
         fill="url(#gradient-light)"
         stroke="url(#gradient-stroke)"
         stroke-width="2.68"
         id="rect7"
         x="0"
         y="0"
         style="fill:url(#radialGradient21);stroke:url(#radialGradient22)" /><rect
         width="64"
         height="21.110001"
         rx="0"
         ry="0"
         transform="matrix(0.460504,0,0,0.460504,156.27671,130.606)"
         fill="url(#gradient-light)"
         stroke="url(#gradient-stroke)"
         stroke-width="2.68"
         id="rect8"
         x="0"
         y="0"
         style="fill:url(#radialGradient23);stroke:url(#radialGradient24)" /><rect
         width="64"
         height="21.110001"
         rx="0"
         ry="0"
         transform="matrix(0,-0.460504,0.460504,0,130.60604,114.6566)"
         fill="url(#gradient-light)"
         stroke="url(#gradient-stroke)"
         stroke-width="2.68"
         id="rect9"
         x="0"
         y="0"
         style="fill:url(#radialGradient25);stroke:url(#radialGradient26)" /><rect
         width="64"
         height="21.110001"
         rx="0"
         ry="0"
         transform="matrix(0,-0.460504,0.460504,0,130.60604,185.74894)"
         fill="url(#gradient-light)"
         stroke="url(#gradient-stroke)"
         stroke-width="2.68"
         id="rect10"
         x="0"
         y="0"
         style="fill:url(#radialGradient27);stroke:url(#radialGradient28)" /></g><g
       style="display:inline;shape-rendering:geometricPrecision;text-rendering:geometricPrecision"
       id="g29"
       transform="matrix(1.6317475,0,0,1.6317475,-85.58071,-30.845716)"><path
         d="m 104.05952,141.81084 5.91007,5.28876 27.10052,25.10024 q 1.06144,-1.06848 1.00672,-1.06848 c -0.0206,0 9.0398,7.88584 9.0398,7.88584 0,0 23.54056,-21.69595 23.54056,-21.69595 v 4.90867 h 12.69569 l -47.63944,44.27247 -44.873853,-43.98776 h 13.258653 z"
         transform="rotate(180,136.64,128.37379)"
         fill="url(#ecjmX547NxC2-fill)"
         stroke-width="0.541867"
         id="path1"
         style="fill:url(#ecjmX547NxC2-fill)" /><path
         d="m 98.935483,137.56952 3.619387,3.00844 v 20.38029 H 87.753637 l 47.906773,47.49265 51.02594,-47.32197 h -14.61961 v -5.7606 l 3.79145,-3.59441 v 6.74249 h 18.73237 l -58.86412,55.41568 -55.222748,-55.22275 18.474452,-0.0675 z"
         transform="rotate(180,136.50689,128.2295)"
         fill="#a5a5a5"
         stroke-width="0.541867"
         id="path2" /><path
         d="m 120.35305,98.578164 19.00626,-0.922137 q 1.84427,5.942653 1.79304,5.942653 -0.0512,0 -18.18658,3.02256 z"
         transform="rotate(-30.000012,172.48595,126.91554)"
         fill="url(#ecjmX547NxC4-fill)"
         stroke-width="0.541867"
         id="path3"
         style="fill:url(#linearGradient29)" /><path
         d="m 115.63992,82.901848 19.56977,-0.922136 1.69059,5.788966 -18.64765,3.278706 z"
         transform="rotate(-30.000012,172.67939,125.66148)"
         fill="url(#ecjmX547NxC5-fill)"
         stroke-width="0.541867"
         id="path4"
         style="fill:url(#linearGradient30)" /><path
         d="m 123.49497,109.97712 21.21656,-4.1718 -3.21824,-11.204245 -22.05092,0.715164 -0.35758,-1.072747 21.69333,-4.052601 -2.97985,-11.20425 -23.12367,0.715165 -0.83435,-3.099048 48.27362,-3.695018 15.37605,48.8696 0.83435,9.65472 -68.41743,19.90542 -31.34806,-2.62227 1.907106,-8.70117 1.191942,-3.09905 1.787912,-2.50308 1.787912,-1.54952 2.860659,-1.31113 5.482931,-2.1455 18.832678,2.74147 -13.945719,-4.29099 7.509229,-3.93341 2.74147,-1.90711 z"
         transform="rotate(-30.000012,173.29271,127.7112)"
         fill="url(#ecjmX547NxC6-fill)"
         stroke-width="0.541867"
         id="path5"
         style="fill:url(#ecjmX547NxC6-fill)" /><path
         d="m 115.69079,67.769641 39.64471,-9.211563 3.49806,10.610787 -41.97674,3.264857 z"
         transform="rotate(-30.000012,178.62276,123.14229)"
         fill="url(#ecjmX547NxC7-fill)"
         stroke-width="0.541867"
         id="path6-3"
         style="fill:url(#ecjmX547NxC7-fill)" /><path
         d="m 146.06082,143.70273 32.76206,-8.67231 0.42827,7.01279 -30.62076,5.72801 z"
         transform="matrix(0.852065,-0.523435,0.523435,0.852065,-43.432192,107.23734)"
         fill="url(#ecjmX547NxC8-fill)"
         stroke-width="0.541867"
         id="path7-8"
         style="fill:url(#ecjmX547NxC8-fill)" /></g></g></svg>
