<?xml version="1.0" encoding="UTF-8" standalone="no"?>
<!-- Created with Inkscape (http://www.inkscape.org/) -->

<svg
   width="1024"
   height="1024"
   viewBox="0 0 270.93333 270.93334"
   version="1.1"
   id="svg8"
   inkscape:export-filename="C:\Users\kemon\Desktop\legacy\icons\reload.png"
   inkscape:export-xdpi="96"
   inkscape:export-ydpi="96"
   inkscape:version="1.4 (86a8ad7, 2024-10-11)"
   sodipodi:docname="btn_3.svg"
   xml:space="preserve"
   xmlns:inkscape="http://www.inkscape.org/namespaces/inkscape"
   xmlns:sodipodi="http://sodipodi.sourceforge.net/DTD/sodipodi-0.dtd"
   xmlns="http://www.w3.org/2000/svg"
   xmlns:svg="http://www.w3.org/2000/svg"
   xmlns:rdf="http://www.w3.org/1999/02/22-rdf-syntax-ns#"
   xmlns:cc="http://creativecommons.org/ns#"
   xmlns:dc="http://purl.org/dc/elements/1.1/"><defs
     id="defs2" /><sodipodi:namedview
     id="base"
     pagecolor="#ffffff"
     bordercolor="#666666"
     borderopacity="1.0"
     inkscape:pageopacity="0.0"
     inkscape:pageshadow="2"
     inkscape:zoom="0.49497475"
     inkscape:cx="384.86812"
     inkscape:cy="293.95439"
     inkscape:document-units="mm"
     inkscape:current-layer="layer1"
     showgrid="false"
     units="px"
     showguides="true"
     inkscape:guide-bbox="true"
     inkscape:window-width="1920"
     inkscape:window-height="1017"
     inkscape:window-x="-8"
     inkscape:window-y="-8"
     inkscape:window-maximized="1"
     inkscape:showpageshadow="0"
     inkscape:pagecheckerboard="1"
     inkscape:deskcolor="#505050" /><metadata
     id="metadata5"><rdf:RDF><cc:Work
         rdf:about=""><dc:format>image/svg+xml</dc:format><dc:type
           rdf:resource="http://purl.org/dc/dcmitype/StillImage" /></cc:Work></rdf:RDF></metadata><g
     inkscape:label="Layer 1"
     inkscape:groupmode="layer"
     id="layer1"
     transform="translate(0,-26.06665)"><g
       style="display:inline;shape-rendering:geometricPrecision;text-rendering:geometricPrecision"
       id="g4"
       transform="matrix(1.5290082,0,0,1.5290082,-71.66298,-45.596411)"><rect
         width="48"
         height="48"
         rx="6.2199998"
         ry="6.2199998"
         transform="matrix(2.536516,0,0,2.536516,74.590281,74.590286)"
         fill="#b3b3b3"
         id="rect1-5"
         x="0"
         y="0" /><rect
         width="48"
         height="48"
         rx="6.2199998"
         ry="6.2199998"
         transform="matrix(2.027454,0,0,2.027454,86.807769,86.807774)"
         fill="#c3c3c3"
         stroke="#b8b8b8"
         stroke-width="2"
         id="rect2-2"
         x="0"
         y="0" /><path
         d="m 44.38,45.92 h 4.9 q 3.5,0 5.19,-1.75 c 1.161951,-1.261967 1.770531,-2.936464 1.69,-4.65 0.09398,-1.625517 -0.514144,-3.213206 -1.67,-4.36 -1.273072,-1.096752 -2.9224,-1.656089 -4.6,-1.56 -1.601504,-0.05455 -3.170695,0.459071 -4.43,1.45 -1.157558,0.903329 -1.818023,2.302179 -1.78,3.77 h -9.2 c -0.01737,-2.323849 0.68091,-4.596736 2,-6.51 1.374948,-1.980718 3.271767,-3.541787 5.48,-4.51 2.433965,-1.099685 5.07934,-1.652654 7.75,-1.62 q 7.36,0 11.53,3.52 c 2.814188,2.415271 4.353539,5.996015 4.17,9.7 0.0043,2.111774 -0.676397,4.167986 -1.94,5.86 -1.305894,1.793602 -3.061554,3.211238 -5.09,4.11 2.344752,0.741386 4.391043,2.213033 5.84,4.2 1.311291,1.954523 1.985475,4.267009 1.93,6.62 0.13264,3.824713 -1.537114,7.490027 -4.51,9.9 q -4.51,3.73 -11.92,3.73 -6.94,0 -11.35,-3.66 c -2.897937,-2.363302 -4.528526,-5.942463 -4.41,-9.68 h 9.2 c -0.03339,1.656855 0.705775,3.234981 2,4.27 1.350916,1.121821 3.064795,1.712078 4.82,1.66 1.834557,0.07335 3.628621,-0.552066 5.02,-1.75 1.254666,-1.193143 1.932748,-2.87012 1.86,-4.6 q 0,-6.94 -7.64,-6.94 h -4.84 z m 0,0 h 4.9 q 3.5,0 5.19,-1.75 c 1.161951,-1.261967 1.770531,-2.936464 1.69,-4.65 0.09398,-1.625517 -0.514144,-3.213206 -1.67,-4.36 -1.273072,-1.096752 -2.9224,-1.656089 -4.6,-1.56 -1.601504,-0.05455 -3.170695,0.459071 -4.43,1.45 -1.157558,0.903329 -1.818023,2.302179 -1.78,3.77 h -9.2 c -0.01737,-2.323849 0.68091,-4.596736 2,-6.51 1.374948,-1.980718 3.271767,-3.541787 5.48,-4.51 2.433965,-1.099685 5.07934,-1.652654 7.75,-1.62 q 7.36,0 11.53,3.52 c 2.814188,2.415271 4.353539,5.996015 4.17,9.7 0.0043,2.111774 -0.676397,4.167986 -1.94,5.86 -1.305894,1.793602 -3.061554,3.211238 -5.09,4.11 2.344752,0.741386 4.391043,2.213033 5.84,4.2 1.311291,1.954523 1.985475,4.267009 1.93,6.62 0.13264,3.824713 -1.537114,7.490027 -4.51,9.9 q -4.51,3.73 -11.92,3.73 -6.94,0 -11.35,-3.66 c -2.897937,-2.363302 -4.528526,-5.942463 -4.41,-9.68 h 9.2 c -0.03339,1.656855 0.705775,3.234981 2,4.27 1.350916,1.121821 3.064795,1.712078 4.82,1.66 1.834557,0.07335 3.628621,-0.552066 5.02,-1.75 1.254666,-1.193143 1.932748,-2.87012 1.86,-4.6 q 0,-6.94 -7.64,-6.94 h -4.84 z"
         transform="translate(85.410999,85.467343)"
         fill="#818181"
         id="path2-7" /></g></g></svg>
