<?xml version="1.0" encoding="UTF-8" standalone="no"?>
<!-- Created with Inkscape (http://www.inkscape.org/) -->

<svg
   width="1024"
   height="1024"
   viewBox="0 0 270.93333 270.93334"
   version="1.1"
   id="svg8"
   inkscape:export-filename="C:\Users\kemon\Desktop\legacy\icons\reload.png"
   inkscape:export-xdpi="96"
   inkscape:export-ydpi="96"
   inkscape:version="1.4 (86a8ad7, 2024-10-11)"
   sodipodi:docname="btn_ammo.svg"
   xml:space="preserve"
   xmlns:inkscape="http://www.inkscape.org/namespaces/inkscape"
   xmlns:sodipodi="http://sodipodi.sourceforge.net/DTD/sodipodi-0.dtd"
   xmlns:xlink="http://www.w3.org/1999/xlink"
   xmlns="http://www.w3.org/2000/svg"
   xmlns:svg="http://www.w3.org/2000/svg"
   xmlns:rdf="http://www.w3.org/1999/02/22-rdf-syntax-ns#"
   xmlns:cc="http://creativecommons.org/ns#"
   xmlns:dc="http://purl.org/dc/elements/1.1/"><defs
     id="defs2"><linearGradient
       id="main-gradient"
       x1="0.5"
       y1="0"
       x2="0.5"
       y2="1"
       gradientUnits="objectBoundingBox"><stop
         offset="0%"
         stop-color="#dcdcdc"
         id="stop1" /><stop
         offset="98%"
         stop-color="#c6c6c6"
         id="stop2" /><stop
         offset="100%"
         stop-color="#c6c6c6"
         id="stop3" /></linearGradient><linearGradient
       id="mid-gradient"
       x1="0.5"
       y1="0"
       x2="0.5"
       y2="1"
       gradientUnits="objectBoundingBox"><stop
         offset="0%"
         stop-color="#c6c6c6"
         id="stop4" /><stop
         offset="100%"
         stop-color="#9e9e9e"
         id="stop5" /></linearGradient><linearGradient
       id="dark-gradient"
       x1="0.5"
       y1="0"
       x2="0.5"
       y2="1"
       gradientUnits="objectBoundingBox"><stop
         offset="0%"
         stop-color="#9e9e9e"
         id="stop6" /><stop
         offset="100%"
         stop-color="#818181"
         id="stop7" /></linearGradient><linearGradient
       inkscape:collect="always"
       xlink:href="#main-gradient"
       id="linearGradient11"
       gradientUnits="userSpaceOnUse"
       x1="152.25253"
       y1="83.568258"
       x2="152.25253"
       y2="112.21764"
       gradientTransform="scale(0.89017012,1.1233808)" /><linearGradient
       inkscape:collect="always"
       xlink:href="#mid-gradient"
       id="linearGradient12"
       gradientUnits="userSpaceOnUse"
       x1="172.1061"
       y1="98.836378"
       x2="172.1061"
       y2="132.64715"
       gradientTransform="scale(0.78728663,1.2701854)" /><linearGradient
       inkscape:collect="always"
       xlink:href="#dark-gradient"
       id="linearGradient13"
       gradientUnits="userSpaceOnUse"
       x1="71.733406"
       y1="318.16063"
       x2="71.733406"
       y2="332.23012"
       gradientTransform="scale(1.8885846,0.52949706)" /><linearGradient
       inkscape:collect="always"
       xlink:href="#main-gradient"
       id="linearGradient14"
       gradientUnits="userSpaceOnUse"
       x1="152.25253"
       y1="83.568258"
       x2="152.25253"
       y2="112.21764"
       gradientTransform="scale(0.89017012,1.1233808)" /><linearGradient
       inkscape:collect="always"
       xlink:href="#mid-gradient"
       id="linearGradient15"
       gradientUnits="userSpaceOnUse"
       x1="172.1061"
       y1="98.836378"
       x2="172.1061"
       y2="132.64715"
       gradientTransform="scale(0.78728663,1.2701854)" /><linearGradient
       inkscape:collect="always"
       xlink:href="#dark-gradient"
       id="linearGradient16"
       gradientUnits="userSpaceOnUse"
       x1="71.733406"
       y1="318.16063"
       x2="71.733406"
       y2="332.23012"
       gradientTransform="scale(1.8885846,0.52949706)" /><linearGradient
       inkscape:collect="always"
       xlink:href="#main-gradient"
       id="linearGradient17"
       gradientUnits="userSpaceOnUse"
       x1="152.25253"
       y1="83.568258"
       x2="152.25253"
       y2="112.21764"
       gradientTransform="scale(0.89017012,1.1233808)" /><linearGradient
       inkscape:collect="always"
       xlink:href="#mid-gradient"
       id="linearGradient18"
       gradientUnits="userSpaceOnUse"
       x1="172.1061"
       y1="98.836378"
       x2="172.1061"
       y2="132.64715"
       gradientTransform="scale(0.78728663,1.2701854)" /><linearGradient
       inkscape:collect="always"
       xlink:href="#dark-gradient"
       id="linearGradient19"
       gradientUnits="userSpaceOnUse"
       x1="71.733406"
       y1="318.16063"
       x2="71.733406"
       y2="332.23012"
       gradientTransform="scale(1.8885846,0.52949706)" /></defs><sodipodi:namedview
     id="base"
     pagecolor="#ffffff"
     bordercolor="#666666"
     borderopacity="1.0"
     inkscape:pageopacity="0.0"
     inkscape:pageshadow="2"
     inkscape:zoom="0.49497475"
     inkscape:cx="384.86812"
     inkscape:cy="617.2032"
     inkscape:document-units="mm"
     inkscape:current-layer="layer1"
     showgrid="false"
     units="px"
     showguides="true"
     inkscape:guide-bbox="true"
     inkscape:window-width="1920"
     inkscape:window-height="1017"
     inkscape:window-x="-8"
     inkscape:window-y="-8"
     inkscape:window-maximized="1"
     inkscape:showpageshadow="0"
     inkscape:pagecheckerboard="1"
     inkscape:deskcolor="#505050" /><metadata
     id="metadata5"><rdf:RDF><cc:Work
         rdf:about=""><dc:format>image/svg+xml</dc:format><dc:type
           rdf:resource="http://purl.org/dc/dcmitype/StillImage" /></cc:Work></rdf:RDF></metadata><g
     inkscape:label="Layer 1"
     inkscape:groupmode="layer"
     id="layer1"
     transform="translate(0,-26.06665)"><g
       style="display:none;shape-rendering:geometricPrecision;text-rendering:geometricPrecision"
       id="g10"
       transform="matrix(1.5290081,0,0,1.5290081,-71.662963,-45.596325)"><rect
         width="48"
         height="48"
         rx="6.2199998"
         ry="6.2199998"
         transform="matrix(2.536516,0,0,2.536516,74.590281,74.590286)"
         fill="#b3b3b3"
         id="rect1-6"
         x="0"
         y="0" /><rect
         width="48"
         height="48"
         rx="6.2199998"
         ry="6.2199998"
         transform="matrix(2.027454,0,0,2.027454,86.807769,86.807774)"
         fill="#c3c3c3"
         stroke="#b8b8b8"
         stroke-width="2"
         id="rect2-1"
         x="0"
         y="0" /><path
         d="m 56.3,54.74 c -2.20508,2.273671 -5.242729,3.548689 -8.41,3.53 -3.748784,0.150444 -7.364957,-1.400394 -9.84,-4.22 Q 34.36,49.83 34.36,42.67 c -0.02794,-2.908395 0.658838,-5.779142 2,-8.36 1.256131,-2.459471 3.184066,-4.512236 5.56,-5.92 2.423466,-1.422926 5.189909,-2.156034 8,-2.12 2.882067,-0.04941 5.715452,0.746716 8.15,2.29 2.44819,1.611222 4.373433,3.901358 5.54,6.59 1.362418,3.099316 2.044415,6.454742 2,9.84 v 3.41 q 0,11.59 -5.76,18.21 -5.76,6.62 -16.31,7.08 H 41.28 V 66 h 2 Q 55.32,65.48 56.3,54.74 Z m -6.15,-3.5 c 1.37212,0.0407 2.721255,-0.358779 3.85,-1.14 1.026709,-0.710926 1.864299,-1.661797 2.44,-2.77 v -3.79 q 0,-4.68 -1.78,-7.26 c -1.033483,-1.635699 -2.845456,-2.61371 -4.78,-2.58 -1.85139,0.0026 -3.570867,0.958711 -4.55,2.53 -1.243345,1.878185 -1.865929,4.0992 -1.78,6.35 -0.09211,2.208267 0.516971,4.389042 1.74,6.23 1.100533,1.590017 2.93779,2.506759 4.87,2.43 z m 6.15,3.5 c -2.20508,2.273671 -5.242729,3.548689 -8.41,3.53 -3.748784,0.150444 -7.364957,-1.400394 -9.84,-4.22 Q 34.36,49.83 34.36,42.67 c -0.02794,-2.908395 0.658838,-5.779142 2,-8.36 1.256131,-2.459471 3.184066,-4.512236 5.56,-5.92 2.423466,-1.422926 5.189909,-2.156034 8,-2.12 2.882067,-0.04941 5.715452,0.746716 8.15,2.29 2.44819,1.611222 4.373433,3.901358 5.54,6.59 1.362418,3.099316 2.044415,6.454742 2,9.84 v 3.41 q 0,11.59 -5.76,18.21 -5.76,6.62 -16.31,7.08 H 41.28 V 66 h 2 Q 55.32,65.48 56.3,54.74 Z m -6.15,-3.5 c 1.37212,0.0407 2.721255,-0.358779 3.85,-1.14 1.026709,-0.710926 1.864299,-1.661797 2.44,-2.77 v -3.79 q 0,-4.68 -1.78,-7.26 c -1.033483,-1.635699 -2.845456,-2.61371 -4.78,-2.58 -1.85139,0.0026 -3.570867,0.958711 -4.55,2.53 -1.243345,1.878185 -1.865929,4.0992 -1.78,6.35 -0.09211,2.208267 0.516971,4.389042 1.74,6.23 1.100533,1.590017 2.93779,2.506759 4.87,2.43 z"
         transform="translate(85.481029,85.48771)"
         fill="#818181"
         id="path2-8" /></g><g
       style="shape-rendering:geometricPrecision;text-rendering:geometricPrecision"
       id="g11"
       transform="matrix(2.2829079,0,0,2.2829079,-174.8136,-145.58942)"><g
         transform="translate(0,-0.365547)"
         id="g9"><path
           d="m 135.46666,94.252524 -6.3188,6.428166 -2.84075,3.51406 -2.48556,4.02831 -0.77138,2.65698 v 14.91217 h 24.96096 v -13.60917 l -0.86867,-3.95998 -2.01942,-4.02831 -2.41402,-3.51406 z"
           fill="url(#main-gradient)"
           stroke="#dadada"
           stroke-width="0.541867"
           id="path7"
           style="fill:url(#linearGradient11)" /><path
           d="m 122.45838,125.81146 v 39.03424 h 2.56124 v 3.36984 h 20.97975 v -3.26917 h 2.53591 v -39.13491 z"
           fill="url(#mid-gradient)"
           stroke="#dadada"
           stroke-width="0.541867"
           id="path8"
           style="fill:url(#linearGradient12)" /><path
           d="m 122.50256,168.73605 h 25.98683 v 6.90789 h -26.02795 z"
           fill="url(#dark-gradient)"
           stroke="#dadada"
           stroke-width="0.541867"
           id="path9"
           style="fill:url(#linearGradient13)" /></g><g
         transform="matrix(0.708072,0,0,0.708072,8.624214,39.462546)"
         id="g12"><path
           d="m 135.46666,94.252524 -6.3188,6.428166 -2.84075,3.51406 -2.48556,4.02831 -0.77138,2.65698 v 14.91217 h 24.96096 v -13.60917 l -0.86867,-3.95998 -2.01942,-4.02831 -2.41402,-3.51406 z"
           fill="url(#main-gradient)"
           stroke="#dadada"
           stroke-width="0.541867"
           id="path10"
           style="fill:url(#linearGradient14)" /><path
           d="m 122.45838,125.81146 v 39.03424 h 2.56124 v 3.36984 h 20.97975 v -3.26917 h 2.53591 v -39.13491 z"
           fill="url(#mid-gradient)"
           stroke="#dadada"
           stroke-width="0.541867"
           id="path11"
           style="fill:url(#linearGradient15)" /><path
           d="m 122.50256,168.73605 h 25.98683 v 6.90789 h -26.02795 z"
           fill="url(#dark-gradient)"
           stroke="#dadada"
           stroke-width="0.541867"
           id="path12"
           style="fill:url(#linearGradient16)" /></g><g
         transform="matrix(0.708072,0,0,0.708072,71.321755,39.462551)"
         id="g15"><path
           d="m 135.46666,94.252524 -6.3188,6.428166 -2.84075,3.51406 -2.48556,4.02831 -0.77138,2.65698 v 14.91217 h 24.96096 v -13.60917 l -0.86867,-3.95998 -2.01942,-4.02831 -2.41402,-3.51406 z"
           fill="url(#main-gradient)"
           stroke="#dadada"
           stroke-width="0.541867"
           id="path13"
           style="fill:url(#linearGradient17)" /><path
           d="m 122.45838,125.81146 v 39.03424 h 2.56124 v 3.36984 h 20.97975 v -3.26917 h 2.53591 v -39.13491 z"
           fill="url(#mid-gradient)"
           stroke="#dadada"
           stroke-width="0.541867"
           id="path14"
           style="fill:url(#linearGradient18)" /><path
           d="m 122.50256,168.73605 h 25.98683 v 6.90789 h -26.02795 z"
           fill="url(#dark-gradient)"
           stroke="#dadada"
           stroke-width="0.541867"
           id="path15"
           style="fill:url(#linearGradient19)" /></g></g></g></svg>
