<svg id="e6FambuLWvI1" xmlns="http://www.w3.org/2000/svg" xmlns:xlink="http://www.w3.org/1999/xlink" viewBox="0 0 270.93333 270.93334" shape-rendering="geometricPrecision" text-rendering="geometricPrecision" project-id="c287d30a7f32456ca2d52d34f1de6301" export-id="f64fcfeeed244ae5b3c49ad6352e70dc" cached="false"><rect width="48" height="48" rx="6.22" ry="6.22" transform="matrix(2.536516 0 0 2.536516 74.590281 74.590286)" fill="#b3b3b3"/><rect width="48" height="48" rx="6.22" ry="6.22" transform="matrix(2.027454 0 0 2.027454 86.807769 86.807774)" fill="#c3c3c3" stroke="#b8b8b8" stroke-width="2"/><path d="M56.3,54.74c-2.20508,2.273671-5.242729,3.548689-8.41,3.53-3.748784.150444-7.364957-1.400394-9.84-4.22q-3.69-4.22-3.69-11.38c-.027943-2.908395.658838-5.779142,2-8.36c1.256131-2.459471,3.184066-4.512236,5.56-5.92c2.423466-1.422926,5.189909-2.156034,8-2.12c2.882067-.049414,5.715452.746716,8.15,2.29c2.44819,1.611222,4.373433,3.901358,5.54,6.59c1.362418,3.099316,2.044415,6.454742,2,9.84v3.41q0,11.59-5.76,18.21t-16.31,7.08h-2.26v-7.69h2q12.04-.52,13.02-11.26Zm-6.15-3.5c1.37212.040705,2.721255-.358779,3.85-1.14c1.026709-.710926,1.864299-1.661797,2.44-2.77v-3.79q0-4.68-1.78-7.26c-1.033483-1.635699-2.845456-2.61371-4.78-2.58-1.85139.002606-3.570867.958711-4.55,2.53-1.243345,1.878185-1.865929,4.0992-1.78,6.35-.092106,2.208267.516971,4.389042,1.74,6.23c1.100533,1.590017,2.93779,2.506759,4.87,2.43Zm6.15,3.5c-2.20508,2.273671-5.242729,3.548689-8.41,3.53-3.748784.150444-7.364957-1.400394-9.84-4.22q-3.69-4.22-3.69-11.38c-.027943-2.908395.658838-5.779142,2-8.36c1.256131-2.459471,3.184066-4.512236,5.56-5.92c2.423466-1.422926,5.189909-2.156034,8-2.12c2.882067-.049414,5.715452.746716,8.15,2.29c2.44819,1.611222,4.373433,3.901358,5.54,6.59c1.362418,3.099316,2.044415,6.454742,2,9.84v3.41q0,11.59-5.76,18.21t-16.31,7.08h-2.26v-7.69h2q12.04-.52,13.02-11.26Zm-6.15-3.5c1.37212.040705,2.721255-.358779,3.85-1.14c1.026709-.710926,1.864299-1.661797,2.44-2.77v-3.79q0-4.68-1.78-7.26c-1.033483-1.635699-2.845456-2.61371-4.78-2.58-1.85139.002606-3.570867.958711-4.55,2.53-1.243345,1.878185-1.865929,4.0992-1.78,6.35-.092106,2.208267.516971,4.389042,1.74,6.23c1.100533,1.590017,2.93779,2.506759,4.87,2.43Z" transform="translate(85.481029 85.48771)" fill="#818181"/></svg>
