<svg id="e4icC0xouHl1" xmlns="http://www.w3.org/2000/svg" xmlns:xlink="http://www.w3.org/1999/xlink" viewBox="0 0 270.93333 270.93334" shape-rendering="geometricPrecision" text-rendering="geometricPrecision" project-id="c287d30a7f32456ca2d52d34f1de6301" export-id="4dc0ef11be1a4ef980b6d2af200d7a73" cached="false"><rect width="48" height="48" rx="6.22" ry="6.22" transform="matrix(2.536516 0 0 2.536516 74.590281 74.590286)" fill="#b3b3b3"/><rect width="48" height="48" rx="6.22" ry="6.22" transform="matrix(2.027454 0 0 2.027454 86.807769 86.807774)" fill="#c3c3c3" stroke="#b8b8b8" stroke-width="2"/><path d="M59,26.26v7.58h-.89q-6.24.1-10,3.25c-2.599933,2.218275-4.23815,5.358489-4.57,8.76c2.449007-2.500439,5.831558-3.86361,9.33-3.76c3.708947-.14867,7.271987,1.455069,9.62,4.33Q66,50.75,66,57.82c.026905,2.850902-.660683,5.663138-2,8.18-1.257179,2.39534-3.181414,4.375149-5.54,5.7-2.477355,1.366829-5.271166,2.056659-8.1,2-4.508113.168599-8.85271-1.700716-11.83-5.09Q34,63.55,34,55v-3.26c-.094112-4.603989.881478-9.167009,2.85-13.33c1.781869-3.726433,4.628464-6.840983,8.18-8.95c3.758428-2.164832,8.033264-3.270691,12.37-3.2ZM50,49.51c-1.417287-.007082-2.806396.39576-4,1.16-1.174327.736409-2.103587,1.804884-2.67,3.07v2.8c-.146785,2.528589.484913,5.041423,1.81,7.2c1.132691,1.687631,3.058982,2.667807,5.09,2.59c1.872985.039266,3.649603-.828558,4.77-2.33c1.280482-1.749767,1.926005-3.883874,1.83-6.05.113858-2.189976-.532632-4.352008-1.83-6.12-1.191803-1.538432-3.055718-2.403289-5-2.32Zm9-23.25v7.58h-.89q-6.24.1-10,3.25c-2.599933,2.218275-4.23815,5.358489-4.57,8.76c2.449007-2.500439,5.831558-3.86361,9.33-3.76c3.708947-.14867,7.271987,1.455069,9.62,4.33Q66,50.75,66,57.82c.026905,2.850902-.660683,5.663138-2,8.18-1.257179,2.39534-3.181414,4.375149-5.54,5.7-2.477355,1.366829-5.271166,2.056659-8.1,2-4.508113.168599-8.85271-1.700716-11.83-5.09Q34,63.55,34,55v-3.26c-.094112-4.603989.881478-9.167009,2.85-13.33c1.781869-3.726433,4.628464-6.840983,8.18-8.95c3.758428-2.164832,8.033264-3.270691,12.37-3.2ZM50,49.51c-1.417287-.007082-2.806396.39576-4,1.16-1.174327.736409-2.103587,1.804884-2.67,3.07v2.8c-.146785,2.528589.484913,5.041423,1.81,7.2c1.132691,1.687631,3.058982,2.667807,5.09,2.59c1.872985.039266,3.649603-.828558,4.77-2.33c1.280482-1.749767,1.926005-3.883874,1.83-6.05.113858-2.189976-.532632-4.352008-1.83-6.12-1.191803-1.538432-3.055718-2.403289-5-2.32Z" transform="translate(84.747047 85.482984)" fill="#818181"/></svg>
