<svg id="eYDSX8BNRtu1" xmlns="http://www.w3.org/2000/svg" xmlns:xlink="http://www.w3.org/1999/xlink" viewBox="0 0 270.93333 270.93334" shape-rendering="geometricPrecision" text-rendering="geometricPrecision" project-id="c287d30a7f32456ca2d52d34f1de6301" export-id="284098e358c848e48246eb5b68700d31" cached="false"><rect width="48" height="48" rx="6.22" ry="6.22" transform="matrix(2.536516 0 0 2.536516 74.590281 74.590286)" fill="#b3b3b3"/><rect width="48" height="48" rx="6.22" ry="6.22" transform="matrix(2.027454 0 0 2.027454 86.807769 86.807774)" fill="#c3c3c3" stroke="#b8b8b8" stroke-width="2"/><path d="M65.67,54q0,9.62-4,14.71t-11.67,5.11q-7.58,0-11.59-5t-4.08-14.33v-8.49q0-9.71,4-14.74t11.61-5q7.58,0,11.59,5t4.11,14.31Zm-9.2-9.38q0-5.77-1.58-8.4c-1.011243-1.719641-2.898131-2.730612-4.89-2.62-1.936819-.119832-3.780773.842565-4.79,2.5q-1.54,2.5-1.64,7.83v11.28q0,5.67,1.54,8.43c.978602,1.823491,2.935507,2.903703,5,2.76c1.999776.135371,3.8976-.897325,4.87-2.65q1.5-2.65,1.56-8.1ZM65.67,54q0,9.62-4,14.71t-11.67,5.11q-7.58,0-11.59-5t-4.08-14.33v-8.49q0-9.71,4-14.74t11.61-5q7.58,0,11.59,5t4.11,14.31Zm-9.2-9.38q0-5.77-1.58-8.4c-1.011243-1.719641-2.898131-2.730612-4.89-2.62-1.936819-.119832-3.780773.842565-4.79,2.5q-1.54,2.5-1.64,7.83v11.28q0,5.67,1.54,8.43c.978602,1.823491,2.935507,2.903703,5,2.76c1.999776.135371,3.8976-.897325,4.87-2.65q1.5-2.65,1.56-8.1Z" transform="translate(85.466665 85.426725)" fill="#818181"/></svg>
