<?xml version="1.0" encoding="UTF-8" standalone="no"?>
<!-- Created with Inkscape (http://www.inkscape.org/) -->

<svg
   width="1024"
   height="1024"
   viewBox="0 0 270.93333 270.93334"
   version="1.1"
   id="svg8"
   inkscape:export-filename="C:\Users\kemon\Desktop\legacy\icons\reload.png"
   inkscape:export-xdpi="96"
   inkscape:export-ydpi="96"
   inkscape:version="1.4 (86a8ad7, 2024-10-11)"
   sodipodi:docname="btn_reload.svg"
   xml:space="preserve"
   xmlns:inkscape="http://www.inkscape.org/namespaces/inkscape"
   xmlns:sodipodi="http://sodipodi.sourceforge.net/DTD/sodipodi-0.dtd"
   xmlns:xlink="http://www.w3.org/1999/xlink"
   xmlns="http://www.w3.org/2000/svg"
   xmlns:svg="http://www.w3.org/2000/svg"
   xmlns:rdf="http://www.w3.org/1999/02/22-rdf-syntax-ns#"
   xmlns:cc="http://creativecommons.org/ns#"
   xmlns:dc="http://purl.org/dc/elements/1.1/"><defs
     id="defs2"><inkscape:path-effect
       effect="spiro"
       id="path-effect2"
       is_visible="true"
       lpeversion="1" /><linearGradient
       id="main-gradient"
       x1="0.5"
       y1="0"
       x2="0.5"
       y2="1"
       gradientUnits="objectBoundingBox"><stop
         offset="0%"
         stop-color="#dcdcdc"
         id="stop1" /><stop
         offset="98%"
         stop-color="#c6c6c6"
         id="stop2" /><stop
         offset="100%"
         stop-color="#c6c6c6"
         id="stop3" /></linearGradient><linearGradient
       id="mid-gradient"
       x1="0.5"
       y1="0"
       x2="0.5"
       y2="1"
       gradientUnits="objectBoundingBox"><stop
         offset="0%"
         stop-color="#c6c6c6"
         id="stop4" /><stop
         offset="100%"
         stop-color="#9e9e9e"
         id="stop5" /></linearGradient><linearGradient
       id="dark-gradient"
       x1="0.5"
       y1="0"
       x2="0.5"
       y2="1"
       gradientUnits="objectBoundingBox"><stop
         offset="0%"
         stop-color="#9e9e9e"
         id="stop6" /><stop
         offset="100%"
         stop-color="#818181"
         id="stop7" /></linearGradient><radialGradient
       id="gradient-dark"
       cx="42.862503"
       cy="68.929158"
       r="92.604163"
       gradientUnits="userSpaceOnUse"
       fx="42.862503"
       fy="68.929158"><stop
         offset="46%"
         stop-color="#505050"
         id="stop1-9" /><stop
         offset="100%"
         stop-color="#bababa"
         id="stop2-2" /></radialGradient><radialGradient
       id="gradient-light"
       cx="0"
       cy="0"
       r="0.5"
       gradientUnits="objectBoundingBox"
       gradientTransform="translate(0.5 0.5)"><stop
         offset="0%"
         stop-color="#fff"
         id="stop3-7" /><stop
         offset="100%"
         stop-color="#d1d1d1"
         id="stop4-9" /></radialGradient><radialGradient
       id="gradient-stroke"
       cx="0"
       cy="0"
       r="0.5"
       gradientUnits="objectBoundingBox"
       gradientTransform="translate(0.5 0.5)"><stop
         offset="0%"
         stop-color="#5e5e5e"
         id="stop5-5" /><stop
         offset="100%"
         stop-color="#676565"
         id="stop6-4" /></radialGradient><radialGradient
       inkscape:collect="always"
       xlink:href="#gradient-light"
       id="radialGradient21"
       gradientUnits="userSpaceOnUse"
       gradientTransform="matrix(1.5616927,0,0,0.2615222,54.717242,130.84534)"
       cx="-0.80039477"
       cy="-2.2433931"
       r="19.914299"
       fx="-0.80039477"
       fy="-2.2433931" /><radialGradient
       inkscape:collect="always"
       xlink:href="#gradient-light"
       id="radialGradient23"
       gradientUnits="userSpaceOnUse"
       gradientTransform="matrix(1.5616927,0,0,0.2615222,156.516,130.84529)"
       cx="-0.80039477"
       cy="-2.2433931"
       r="19.914299"
       fx="-0.80039477"
       fy="-2.2433931" /><radialGradient
       inkscape:collect="always"
       xlink:href="#gradient-light"
       id="radialGradient25"
       gradientUnits="userSpaceOnUse"
       gradientTransform="matrix(1.5616927,0,0,0.2615222,-114.41731,130.84533)"
       cx="-0.80039477"
       cy="-2.2433931"
       r="19.914299"
       fx="-0.80039477"
       fy="-2.2433931" /><radialGradient
       inkscape:collect="always"
       xlink:href="#gradient-light"
       id="radialGradient27"
       gradientUnits="userSpaceOnUse"
       gradientTransform="matrix(1.5616927,0,0,0.2615222,-216.21606,130.84533)"
       cx="-0.80039477"
       cy="-2.2433931"
       r="19.914299"
       fx="-0.80039477"
       fy="-2.2433931" /><radialGradient
       inkscape:collect="always"
       xlink:href="#gradient-light-9"
       id="radialGradient27-0"
       gradientUnits="userSpaceOnUse"
       gradientTransform="matrix(1.5757856,0,0,0.12177405,-165.58604,133.3148)"
       cx="-0.80039477"
       cy="-2.2433932"
       r="19.914299"
       fx="-0.80039477"
       fy="-2.2433932" /><radialGradient
       id="gradient-light-9"
       cx="0"
       cy="0"
       r="0.5"
       gradientUnits="objectBoundingBox"
       gradientTransform="translate(0.5,0.5)"><stop
         offset="0%"
         stop-color="#fff"
         id="stop3-7-4" /><stop
         offset="100%"
         stop-color="#d1d1d1"
         id="stop4-9-8" /></radialGradient><radialGradient
       id="gradient-stroke-2"
       cx="0"
       cy="0"
       r="0.5"
       gradientUnits="objectBoundingBox"
       gradientTransform="translate(0.5,0.5)"><stop
         offset="0%"
         stop-color="#5e5e5e"
         id="stop5-5-4" /><stop
         offset="100%"
         stop-color="#676565"
         id="stop6-4-5" /></radialGradient><radialGradient
       inkscape:collect="always"
       xlink:href="#gradient-light-9-7"
       id="radialGradient27-0-1"
       gradientUnits="userSpaceOnUse"
       gradientTransform="matrix(1.5757856,0,0,0.12177405,-165.58609,-137.61848)"
       cx="-0.80039477"
       cy="-2.2433932"
       r="19.914299"
       fx="-0.80039477"
       fy="-2.2433932" /><radialGradient
       id="gradient-light-9-7"
       cx="0"
       cy="0"
       r="0.5"
       gradientUnits="objectBoundingBox"
       gradientTransform="translate(0.5,0.5)"><stop
         offset="0%"
         stop-color="#fff"
         id="stop3-7-4-1" /><stop
         offset="1"
         stop-color="#d1d1d1"
         id="stop4-9-8-1"
         style="stop-color:#d1d1d1;stop-opacity:1;" /></radialGradient><radialGradient
       id="gradient-stroke-2-2"
       cx="0"
       cy="0"
       r="0.5"
       gradientUnits="objectBoundingBox"
       gradientTransform="translate(0.5,0.5)"><stop
         offset="0%"
         stop-color="#5e5e5e"
         id="stop5-5-4-7" /><stop
         offset="100%"
         stop-color="#676565"
         id="stop6-4-5-6" /></radialGradient></defs><sodipodi:namedview
     id="base"
     pagecolor="#ffffff"
     bordercolor="#666666"
     borderopacity="1.0"
     inkscape:pageopacity="0.0"
     inkscape:pageshadow="2"
     inkscape:zoom="1.34"
     inkscape:cx="576.49254"
     inkscape:cy="368.28358"
     inkscape:document-units="mm"
     inkscape:current-layer="layer1"
     showgrid="false"
     units="px"
     showguides="true"
     inkscape:guide-bbox="true"
     inkscape:window-width="1920"
     inkscape:window-height="1017"
     inkscape:window-x="-8"
     inkscape:window-y="-8"
     inkscape:window-maximized="1"
     inkscape:showpageshadow="0"
     inkscape:pagecheckerboard="1"
     inkscape:deskcolor="#505050" /><metadata
     id="metadata5"><rdf:RDF><cc:Work
         rdf:about=""><dc:format>image/svg+xml</dc:format><dc:type
           rdf:resource="http://purl.org/dc/dcmitype/StillImage" /></cc:Work></rdf:RDF></metadata><g
     inkscape:label="Layer 1"
     inkscape:groupmode="layer"
     id="layer1"
     transform="translate(0,-26.06665)"><g
       style="display:none;shape-rendering:geometricPrecision;text-rendering:geometricPrecision"
       id="g10"
       transform="matrix(1.5290081,0,0,1.5290081,-71.662963,-45.596325)"><rect
         width="48"
         height="48"
         rx="6.2199998"
         ry="6.2199998"
         transform="matrix(2.536516,0,0,2.536516,74.590281,74.590286)"
         fill="#b3b3b3"
         id="rect1-6"
         x="0"
         y="0" /><rect
         width="48"
         height="48"
         rx="6.2199998"
         ry="6.2199998"
         transform="matrix(2.027454,0,0,2.027454,86.807769,86.807774)"
         fill="#c3c3c3"
         stroke="#b8b8b8"
         stroke-width="2"
         id="rect2-1"
         x="0"
         y="0" /><path
         d="m 56.3,54.74 c -2.20508,2.273671 -5.242729,3.548689 -8.41,3.53 -3.748784,0.150444 -7.364957,-1.400394 -9.84,-4.22 Q 34.36,49.83 34.36,42.67 c -0.02794,-2.908395 0.658838,-5.779142 2,-8.36 1.256131,-2.459471 3.184066,-4.512236 5.56,-5.92 2.423466,-1.422926 5.189909,-2.156034 8,-2.12 2.882067,-0.04941 5.715452,0.746716 8.15,2.29 2.44819,1.611222 4.373433,3.901358 5.54,6.59 1.362418,3.099316 2.044415,6.454742 2,9.84 v 3.41 q 0,11.59 -5.76,18.21 -5.76,6.62 -16.31,7.08 H 41.28 V 66 h 2 Q 55.32,65.48 56.3,54.74 Z m -6.15,-3.5 c 1.37212,0.0407 2.721255,-0.358779 3.85,-1.14 1.026709,-0.710926 1.864299,-1.661797 2.44,-2.77 v -3.79 q 0,-4.68 -1.78,-7.26 c -1.033483,-1.635699 -2.845456,-2.61371 -4.78,-2.58 -1.85139,0.0026 -3.570867,0.958711 -4.55,2.53 -1.243345,1.878185 -1.865929,4.0992 -1.78,6.35 -0.09211,2.208267 0.516971,4.389042 1.74,6.23 1.100533,1.590017 2.93779,2.506759 4.87,2.43 z m 6.15,3.5 c -2.20508,2.273671 -5.242729,3.548689 -8.41,3.53 -3.748784,0.150444 -7.364957,-1.400394 -9.84,-4.22 Q 34.36,49.83 34.36,42.67 c -0.02794,-2.908395 0.658838,-5.779142 2,-8.36 1.256131,-2.459471 3.184066,-4.512236 5.56,-5.92 2.423466,-1.422926 5.189909,-2.156034 8,-2.12 2.882067,-0.04941 5.715452,0.746716 8.15,2.29 2.44819,1.611222 4.373433,3.901358 5.54,6.59 1.362418,3.099316 2.044415,6.454742 2,9.84 v 3.41 q 0,11.59 -5.76,18.21 -5.76,6.62 -16.31,7.08 H 41.28 V 66 h 2 Q 55.32,65.48 56.3,54.74 Z m -6.15,-3.5 c 1.37212,0.0407 2.721255,-0.358779 3.85,-1.14 1.026709,-0.710926 1.864299,-1.661797 2.44,-2.77 v -3.79 q 0,-4.68 -1.78,-7.26 c -1.033483,-1.635699 -2.845456,-2.61371 -4.78,-2.58 -1.85139,0.0026 -3.570867,0.958711 -4.55,2.53 -1.243345,1.878185 -1.865929,4.0992 -1.78,6.35 -0.09211,2.208267 0.516971,4.389042 1.74,6.23 1.100533,1.590017 2.93779,2.506759 4.87,2.43 z"
         transform="translate(85.481029,85.48771)"
         fill="#818181"
         id="path2-8" /></g><g
       style="display:inline;shape-rendering:geometricPrecision;text-rendering:geometricPrecision"
       id="g19"
       transform="matrix(1.0051436,0,0,1.0051436,-0.69678469,25.369912)"><rect
         width="60.238834"
         height="4.3037152"
         rx="0"
         ry="0"
         transform="rotate(-90)"
         fill="url(#gradient-light)"
         stroke="url(#gradient-stroke)"
         stroke-width="1.17398"
         id="rect10-5"
         x="-165.58603"
         y="133.3148"
         style="display:inline;shape-rendering:geometricPrecision;text-rendering:geometricPrecision;fill:url(#radialGradient27-0);stroke:none" /><rect
         width="60.238834"
         height="4.3037152"
         rx="0"
         ry="0"
         transform="scale(-0.99999999)"
         fill="url(#gradient-light)"
         stroke="url(#gradient-stroke)"
         stroke-width="1.17398"
         id="rect10-5-1"
         x="-165.58607"
         y="-137.61847"
         style="display:inline;shape-rendering:geometricPrecision;text-rendering:geometricPrecision;fill:url(#radialGradient27-0-1);stroke:none" /><rect
         width="59.700092"
         height="9.2426682"
         rx="0"
         ry="0"
         fill="url(#gradient-light)"
         stroke="url(#gradient-stroke)"
         stroke-width="1.71272"
         id="rect7"
         x="54.717243"
         y="130.84534"
         style="fill:url(#radialGradient21);stroke:none" /><rect
         width="59.700092"
         height="9.2426682"
         rx="0"
         ry="0"
         fill="url(#gradient-light)"
         stroke="url(#gradient-stroke)"
         stroke-width="1.71272"
         id="rect8"
         x="156.51599"
         y="130.84529"
         style="fill:url(#radialGradient23);stroke:none" /><rect
         width="59.700092"
         height="9.2426682"
         rx="0"
         ry="0"
         transform="rotate(-90)"
         fill="url(#gradient-light)"
         stroke="url(#gradient-stroke)"
         stroke-width="1.71272"
         id="rect9"
         x="-114.41731"
         y="130.84532"
         style="fill:url(#radialGradient25);stroke:none" /><rect
         width="59.700092"
         height="9.2426682"
         rx="0"
         ry="0"
         transform="rotate(-90)"
         fill="url(#gradient-light)"
         stroke="url(#gradient-stroke)"
         stroke-width="1.71272"
         id="rect10"
         x="-216.21606"
         y="130.84532"
         style="display:inline;shape-rendering:geometricPrecision;text-rendering:geometricPrecision;fill:url(#radialGradient27);stroke:none" /><g
         transform="translate(-1.9903872e-6,-26.066701)"
         id="g6"
         style="display:inline;shape-rendering:geometricPrecision;text-rendering:geometricPrecision"><path
           d="m 135.46666,68.929157 c -51.143857,0 -92.604157,41.460273 -92.604157,92.604163 0,51.14389 41.4603,92.60416 92.604157,92.60416 51.14386,0 92.60417,-41.4603 92.60417,-92.60416 0,-51.14386 -41.46031,-92.604163 -92.60417,-92.604163 z m 0,19.84375 c 40.18445,0 72.76042,32.575943 72.76042,72.760413 0,40.18447 -32.57597,72.76041 -72.76042,72.76041 -40.18445,0 -72.760407,-32.57594 -72.760407,-72.76041 0,-40.18447 32.57595,-72.760413 72.760407,-72.760413 z"
           fill="url(#gradient-dark)"
           stroke-width="2.6766"
           id="path6"
           style="fill:url(#gradient-dark)" /></g></g><path
       style="fill:none;stroke:#d3d3d3;stroke-width:5.865;stroke-dasharray:none;stroke-opacity:1;stroke-linecap:round;stroke-linejoin:miter"
       d="m 187.33547,160.85715 c -0.14077,13.41087 -5.72491,26.68609 -15.21267,36.1652 -9.48775,9.47912 -22.76805,15.05117 -36.17904,15.17973 -13.52333,0.12964 -27.02955,-5.28951 -36.666169,-14.77808 -9.636617,-9.48857 -15.268732,-22.93757 -15.202645,-36.46136 0.06524,-13.3512 5.679624,-26.58206 15.204807,-35.93778 9.525187,-9.35573 22.835757,-14.72892 36.186897,-14.6527 15.93325,0.091 31.63164,8.06941 41.09688,20.88681"
       id="path2"
       inkscape:path-effect="#path-effect2"
       inkscape:original-d="m 187.33547,160.85715 c 17.2896,16.82833 -33.7633,34.2912 -51.39171,51.34493 -17.62842,17.05373 -34.81509,-34.18572 -51.868814,-51.23944 -17.053724,-17.05372 34.337984,-33.53675 51.391704,-50.59048 17.05373,-17.05374 41.09688,20.88681 41.09688,20.88681" /><path
       style="fill:#cccccc;fill-opacity:1;stroke:none;stroke-width:7.15347;stroke-linecap:round;stroke-linejoin:miter;stroke-dasharray:none;stroke-opacity:1"
       d="m 184.61164,142.61466 v -19.168 l -16.9634,14.44972 z"
       id="path3" /></g></svg>
