<svg id="eIQg7vbcYV61" xmlns="http://www.w3.org/2000/svg" xmlns:xlink="http://www.w3.org/1999/xlink" viewBox="0 0 270.93333 270.93334" shape-rendering="geometricPrecision" text-rendering="geometricPrecision" project-id="1734d3fa92b54d37baa12e80d907cc77" export-id="93127e9e8b4648488bd8ba35238f3c89" cached="false"><g transform="matrix(.201411 0 0 0.201411 103.249029 68.547206)"><path d="M135.46666,68.929157c-51.143857,0-92.604157,41.460273-92.604157,92.604163s41.4603,92.60416,92.604157,92.60416s92.60417-41.4603,92.60417-92.60416-41.46031-92.604163-92.60417-92.604163Zm0,19.84375c40.18445,0,72.76042,32.575943,72.76042,72.760413s-32.57597,72.76041-72.76042,72.76041-72.760407-32.57594-72.760407-72.76041s32.57595-72.760413,72.760407-72.760413Z" fill="#656565" stroke="#fdfdfd" stroke-width="2.6766"/></g><g transform="matrix(.430669 0 0 0.430669 84.486927 92.313174)"><g opacity="0.2"><path d="M168,112v-12c0-11.045695-8.954305-20-20-20s-20,8.954305-20,20v-64c0-11.045695-8.954305-20-20-20s-20,8.954305-20,20v121.26608L66.07247,119.28651c-3.56947-6.194458-10.173996-10.012493-17.323292-10.014484s-13.755947,3.812363-17.328868,10.004831-3.568666,13.821174.01116,20.009653C64,208,83.81722,232,128,232s80-35.81722,80-80v-40c0-11.045695-8.954305-20-20-20s-20,8.954305-20,20Z"/></g><path d="M188,84c-5.170844-.005457-10.240946,1.429876-14.6416,4.145-3.152276-6.753944-8.86918-11.970901-15.882614-14.493667s-14.743585-2.142782-21.475786,1.055667L136,36c0-15.463973-12.536027-28-28-28s-28,12.536027-28,28v91.41016l-6.999-12.12354c-7.697816-13.333483-24.716399-17.95075-38.097583-10.336156s-18.104394,24.604079-10.573317,38.032446C56.77832,211.39941,78.39355,240,128,240c48.578311-.054872,87.945128-39.421689,88-88v-40c-.017338-15.456786-12.543214-27.982662-28-28Zm12,68c-.044771,39.745942-32.254058,71.955229-72,72-20.17871,0-34.22656-5.45459-46.97461-18.23828-12.499-12.53369-24.77246-32.78565-42.36426-69.90137q-.13916-.293-.30175-.57422c-3.313573-5.739661-1.346841-13.078757,4.39282-16.39233s13.078757-1.346841,16.39233,4.39282l21.92774,37.97949c1.810331,3.135742,5.501151,4.664559,8.998566,3.7274s5.9293-4.106602,5.929164-7.7274L96,36c0-6.627417,5.372583-12,12-12s12,5.372583,12,12v68c0,4.418278,3.581722,8,8,8s8-3.581722,8-8v-4c0-6.627417,5.372583-12,12-12s12,5.372583,12,12v12c0,4.418278,3.581722,8,8,8s8-3.581722,8-8c0-6.627417,5.372583-12,12-12s12,5.372583,12,12v40Z" fill="#656565" stroke="#fff"/></g></svg>
