<?xml version="1.0" encoding="UTF-8" standalone="no"?>
<!-- Created with Inkscape (http://www.inkscape.org/) -->

<svg
   width="1024"
   height="1024"
   viewBox="0 0 270.93333 270.93334"
   version="1.1"
   id="svg8"
   inkscape:export-filename="C:\Users\kemon\Desktop\legacy\icons\reload.png"
   inkscape:export-xdpi="96"
   inkscape:export-ydpi="96"
   inkscape:version="1.4 (86a8ad7, 2024-10-11)"
   sodipodi:docname="btn_5.svg"
   xml:space="preserve"
   xmlns:inkscape="http://www.inkscape.org/namespaces/inkscape"
   xmlns:sodipodi="http://sodipodi.sourceforge.net/DTD/sodipodi-0.dtd"
   xmlns="http://www.w3.org/2000/svg"
   xmlns:svg="http://www.w3.org/2000/svg"
   xmlns:rdf="http://www.w3.org/1999/02/22-rdf-syntax-ns#"
   xmlns:cc="http://creativecommons.org/ns#"
   xmlns:dc="http://purl.org/dc/elements/1.1/"><defs
     id="defs2" /><sodipodi:namedview
     id="base"
     pagecolor="#ffffff"
     bordercolor="#666666"
     borderopacity="1.0"
     inkscape:pageopacity="0.0"
     inkscape:pageshadow="2"
     inkscape:zoom="0.49497475"
     inkscape:cx="384.86812"
     inkscape:cy="617.2032"
     inkscape:document-units="mm"
     inkscape:current-layer="layer1"
     showgrid="false"
     units="px"
     showguides="true"
     inkscape:guide-bbox="true"
     inkscape:window-width="1920"
     inkscape:window-height="1017"
     inkscape:window-x="-8"
     inkscape:window-y="-8"
     inkscape:window-maximized="1"
     inkscape:showpageshadow="0"
     inkscape:pagecheckerboard="1"
     inkscape:deskcolor="#505050" /><metadata
     id="metadata5"><rdf:RDF><cc:Work
         rdf:about=""><dc:format>image/svg+xml</dc:format><dc:type
           rdf:resource="http://purl.org/dc/dcmitype/StillImage" /></cc:Work></rdf:RDF></metadata><g
     inkscape:label="Layer 1"
     inkscape:groupmode="layer"
     id="layer1"
     transform="translate(0,-26.06665)"><g
       style="shape-rendering:geometricPrecision;text-rendering:geometricPrecision"
       id="g6"
       transform="matrix(1.5290081,0,0,1.5290081,-71.662964,-45.596322)"><rect
         width="48"
         height="48"
         rx="6.2199998"
         ry="6.2199998"
         transform="matrix(2.536516,0,0,2.536516,74.590281,74.590286)"
         fill="#b3b3b3"
         id="rect1-4"
         x="0"
         y="0" /><rect
         width="48"
         height="48"
         rx="6.2199998"
         ry="6.2199998"
         transform="matrix(2.027454,0,0,2.027454,86.807769,86.807774)"
         fill="#c3c3c3"
         stroke="#b8b8b8"
         stroke-width="2"
         id="rect2-2"
         x="0"
         y="0" /><path
         d="M 35.5,50.06 38.17,26.5 h 26 v 7.67 H 45.72 l -1.15,10 c 2.15017,-1.159803 4.557002,-1.761511 7,-1.75 q 6.62,0 10.38,4.11 3.76,4.11 3.73,11.47 c 0.04135,2.78194 -0.608044,5.530691 -1.89,8 -1.227493,2.331617 -3.116584,4.24854 -5.43,5.51 -2.563383,1.368486 -5.434758,2.057066 -8.34,2 -2.69447,0.0243 -5.360018,-0.556651 -7.8,-1.7 C 39.918754,70.757809 37.950555,69.094006 36.53,67 35.138744,64.926183 34.371729,62.496725 34.32,60 h 9.11 c 0.07858,1.700695 0.792258,3.310043 2,4.51 1.260195,1.099461 2.900185,1.662871 4.57,1.57 1.875682,0.09766 3.677643,-0.741504 4.81,-2.24 1.23479,-1.8784 1.827731,-4.106315 1.69,-6.35 0.149274,-2.190365 -0.544804,-4.354887 -1.94,-6.05 -1.457562,-1.479557 -3.487811,-2.250029 -5.56,-2.11 -1.922485,-0.08518 -3.811255,0.525474 -5.32,1.72 l -0.89,0.83 z m 0,0 2.67,-23.56 h 26 v 7.67 H 45.72 l -1.15,10 c 2.15017,-1.159803 4.557002,-1.761511 7,-1.75 q 6.62,0 10.38,4.11 3.76,4.11 3.73,11.47 c 0.04135,2.78194 -0.608044,5.530691 -1.89,8 -1.227493,2.331617 -3.116584,4.24854 -5.43,5.51 -2.563383,1.368486 -5.434758,2.057066 -8.34,2 -2.69447,0.0243 -5.360018,-0.556651 -7.8,-1.7 C 39.918754,70.757809 37.950555,69.094006 36.53,67 35.138744,64.926183 34.371729,62.496725 34.32,60 h 9.11 c 0.07858,1.700695 0.792258,3.310043 2,4.51 1.260195,1.099461 2.900185,1.662871 4.57,1.57 1.875682,0.09766 3.677643,-0.741504 4.81,-2.24 1.23479,-1.8784 1.827731,-4.106315 1.69,-6.35 0.149274,-2.190365 -0.544804,-4.354887 -1.94,-6.05 -1.457562,-1.479557 -3.487811,-2.250029 -5.56,-2.11 -1.922485,-0.08518 -3.811255,0.525474 -5.32,1.72 l -0.89,0.83 z"
         transform="translate(85.465761,85.460078)"
         fill="#818181"
         id="path2-3" /></g></g></svg>
