<svg id="ekovIUYuA241" xmlns="http://www.w3.org/2000/svg" xmlns:xlink="http://www.w3.org/1999/xlink" viewBox="0 0 270.93333 270.93334" shape-rendering="geometricPrecision" text-rendering="geometricPrecision" project-id="c287d30a7f32456ca2d52d34f1de6301" export-id="4a694456ce7247aea6fa0e3025fb7b4f" cached="false"><rect width="48" height="48" rx="6.22" ry="6.22" transform="matrix(2.536516 0 0 2.536516 74.590281 74.590286)" fill="#b3b3b3"/><rect width="48" height="48" rx="6.22" ry="6.22" transform="matrix(2.027454 0 0 2.027454 86.807769 86.807774)" fill="#c3c3c3" stroke="#b8b8b8" stroke-width="2"/><path d="M64.68,39.14c.039819,2.122786-.548098,4.210065-1.69,6-1.160136,1.77146-2.763102,3.208958-4.65,4.17c2.145209.993887,3.990534,2.535682,5.35,4.47c1.347124,1.97104,2.046227,4.313035,2,6.7.172132,3.725512-1.376265,7.323693-4.2,9.76Q57.26,73.82,50,73.82t-11.46-3.6c-2.832928-2.423327-4.393007-6.015564-4.23-9.74-.045746-2.393122.65313-4.741347,2-6.72c1.34363-1.934709,3.180492-3.474634,5.32-4.46-1.883587-.958072-3.480766-2.396568-4.63-4.17-1.130515-1.794063-1.711059-3.879849-1.67-6-.15824-3.578492,1.290408-7.040579,3.95-9.44Q43.22,26.18,50,26.18t10.71,3.49c2.675301,2.402454,4.132302,5.87797,3.97,9.47ZM56.43,59.81c.079545-1.77226-.550212-3.503194-1.75-4.81-1.231152-1.246264-2.929475-1.917609-4.68-1.85-1.761021-.077429-3.47242.594776-4.71,1.85-1.212409,1.319202-1.843096,3.070709-1.75,4.86-.080724,1.758002.537646,3.476495,1.72,4.78c1.262254,1.227037,2.982817,1.865896,4.74,1.76c1.742274.098385,3.44634-.536108,4.7-1.75c1.202045-1.316263,1.825325-3.060007,1.73-4.84Zm-1-20.22c.078985-1.577124-.430636-3.127368-1.43-4.35-1.022593-1.11504-2.488975-1.716257-4-1.64-1.502182-.083436-2.965035.498048-4,1.59-1.012369,1.231107-1.523036,2.798818-1.43,4.39-.070189,1.597334.437477,3.166484,1.43,4.42c1.006362,1.143131,2.478866,1.765264,4,1.69c1.521134.075264,2.993638-.546869,4-1.69c1.004178-1.246072,1.529176-2.810422,1.48-4.41Zm9.2-.45c.039819,2.122786-.548098,4.210065-1.69,6-1.160136,1.77146-2.763102,3.208958-4.65,4.17c2.145209.993887,3.990534,2.535682,5.35,4.47c1.347124,1.97104,2.046227,4.313035,2,6.7.172132,3.725512-1.376265,7.323693-4.2,9.76Q57.26,73.82,50,73.82t-11.46-3.6c-2.832928-2.423327-4.393007-6.015564-4.23-9.74-.045746-2.393122.65313-4.741347,2-6.72c1.34363-1.934709,3.180492-3.474634,5.32-4.46-1.883587-.958072-3.480766-2.396568-4.63-4.17-1.130515-1.794063-1.711059-3.879849-1.67-6-.15824-3.578492,1.290408-7.040579,3.95-9.44Q43.22,26.18,50,26.18t10.71,3.49c2.675301,2.402454,4.132302,5.87797,3.97,9.47Zm-8.2,20.67c.079545-1.77226-.550212-3.503194-1.75-4.81-1.231152-1.246264-2.929475-1.917609-4.68-1.85-1.761021-.077429-3.47242.594776-4.71,1.85-1.212409,1.319202-1.843096,3.070709-1.75,4.86-.080724,1.758002.537646,3.476495,1.72,4.78c1.262254,1.227037,2.982817,1.865896,4.74,1.76c1.742274.098385,3.44634-.536108,4.7-1.75c1.202045-1.316263,1.825325-3.060007,1.73-4.84Zm-1-20.22c.078985-1.577124-.430636-3.127368-1.43-4.35-1.022593-1.11504-2.488975-1.716257-4-1.64-1.502182-.083436-2.965035.498048-4,1.59-1.012369,1.231107-1.523036,2.798818-1.43,4.39-.070189,1.597334.437477,3.166484,1.43,4.42c1.006362,1.143131,2.478866,1.765264,4,1.69c1.521134.075264,2.993638-.546869,4-1.69c1.004178-1.246072,1.529176-2.810422,1.48-4.41Z" transform="translate(85.466024 85.46667)" fill="#818181"/></svg>
