<svg id="eg9GfdZm8XS1" xmlns="http://www.w3.org/2000/svg" xmlns:xlink="http://www.w3.org/1999/xlink" viewBox="0 0 270.93333 270.93334" shape-rendering="geometricPrecision" text-rendering="geometricPrecision" project-id="1734d3fa92b54d37baa12e80d907cc77" export-id="aec50fbe2c0e49a587a74ebb6c26e510" cached="false"><defs><linearGradient id="eg9GfdZm8XS3-fill" x1="0.5" y1="0" x2="0.5" y2="1" spreadMethod="pad" gradientUnits="objectBoundingBox" gradientTransform="translate(0 0)"><stop id="eg9GfdZm8XS3-fill-0" offset="0%" stop-color="#dcdcdc"/><stop id="eg9GfdZm8XS3-fill-1" offset="98%" stop-color="#c6c6c6"/><stop id="eg9GfdZm8XS3-fill-2" offset="100%" stop-color="#c6c6c6"/></linearGradient><linearGradient id="eg9GfdZm8XS4-fill" x1="0.5" y1="0" x2="0.5" y2="1" spreadMethod="pad" gradientUnits="objectBoundingBox" gradientTransform="translate(0 0)"><stop id="eg9GfdZm8XS4-fill-0" offset="0%" stop-color="#c6c6c6"/><stop id="eg9GfdZm8XS4-fill-1" offset="100%" stop-color="#9e9e9e"/></linearGradient><linearGradient id="eg9GfdZm8XS5-fill" x1="0.5" y1="0" x2="0.5" y2="1" spreadMethod="pad" gradientUnits="objectBoundingBox" gradientTransform="translate(0 0)"><stop id="eg9GfdZm8XS5-fill-0" offset="0%" stop-color="#9e9e9e"/><stop id="eg9GfdZm8XS5-fill-1" offset="100%" stop-color="#818181"/></linearGradient><linearGradient id="eg9GfdZm8XS7-fill" x1="0.5" y1="0" x2="0.5" y2="1" spreadMethod="pad" gradientUnits="objectBoundingBox" gradientTransform="translate(0 0)"><stop id="eg9GfdZm8XS7-fill-0" offset="0%" stop-color="#dcdcdc"/><stop id="eg9GfdZm8XS7-fill-1" offset="98%" stop-color="#c6c6c6"/><stop id="eg9GfdZm8XS7-fill-2" offset="100%" stop-color="#c6c6c6"/></linearGradient><linearGradient id="eg9GfdZm8XS8-fill" x1="0.5" y1="0" x2="0.5" y2="1" spreadMethod="pad" gradientUnits="objectBoundingBox" gradientTransform="translate(0 0)"><stop id="eg9GfdZm8XS8-fill-0" offset="0%" stop-color="#c6c6c6"/><stop id="eg9GfdZm8XS8-fill-1" offset="100%" stop-color="#9e9e9e"/></linearGradient><linearGradient id="eg9GfdZm8XS9-fill" x1="0.5" y1="0" x2="0.5" y2="1" spreadMethod="pad" gradientUnits="objectBoundingBox" gradientTransform="translate(0 0)"><stop id="eg9GfdZm8XS9-fill-0" offset="0%" stop-color="#9e9e9e"/><stop id="eg9GfdZm8XS9-fill-1" offset="100%" stop-color="#818181"/></linearGradient><linearGradient id="eg9GfdZm8XS11-fill" x1="0.5" y1="0" x2="0.5" y2="1" spreadMethod="pad" gradientUnits="objectBoundingBox" gradientTransform="translate(0 0)"><stop id="eg9GfdZm8XS11-fill-0" offset="0%" stop-color="#dcdcdc"/><stop id="eg9GfdZm8XS11-fill-1" offset="98%" stop-color="#c6c6c6"/><stop id="eg9GfdZm8XS11-fill-2" offset="100%" stop-color="#c6c6c6"/></linearGradient><linearGradient id="eg9GfdZm8XS12-fill" x1="0.5" y1="0" x2="0.5" y2="1" spreadMethod="pad" gradientUnits="objectBoundingBox" gradientTransform="translate(0 0)"><stop id="eg9GfdZm8XS12-fill-0" offset="0%" stop-color="#c6c6c6"/><stop id="eg9GfdZm8XS12-fill-1" offset="100%" stop-color="#9e9e9e"/></linearGradient><linearGradient id="eg9GfdZm8XS13-fill" x1="0.5" y1="0" x2="0.5" y2="1" spreadMethod="pad" gradientUnits="objectBoundingBox" gradientTransform="translate(0 0)"><stop id="eg9GfdZm8XS13-fill-0" offset="0%" stop-color="#9e9e9e"/><stop id="eg9GfdZm8XS13-fill-1" offset="100%" stop-color="#818181"/></linearGradient></defs><g transform="translate(0-.365547)"><path d="M135.466665,94.252524l-6.318801,6.428163-2.840754,3.514061-2.485557,4.028315-.771379,2.656973v14.912179h24.960958v-13.609173l-.86867-3.959979-2.019417-4.028315-2.414027-3.514061-7.242353-6.428163Z" transform="translate(.000003 0.000001)" fill="url(#eg9GfdZm8XS3-fill)" stroke="#dadada" stroke-width="0.541867"/><path d="M122.458383,125.811458v39.034241h2.561242v3.369843h20.97975v-3.269175h2.535907v-39.134909h-26.076899Z" fill="url(#eg9GfdZm8XS4-fill)" stroke="#dadada" stroke-width="0.541867"/><path d="M122.502556,168.736046h25.986838v6.907894h-26.027956l.041118-6.907894Z" fill="url(#eg9GfdZm8XS5-fill)" stroke="#dadada" stroke-width="0.541867"/></g><g transform="matrix(.708072 0 0 0.708072 8.624214 39.462546)" paint-order="markers fill stroke"><path d="M135.466665,94.252524l-6.318801,6.428163-2.840754,3.514061-2.485557,4.028315-.771379,2.656973v14.912179h24.960958v-13.609173l-.86867-3.959979-2.019417-4.028315-2.414027-3.514061-7.242353-6.428163Z" transform="translate(.000003 0.000001)" fill="url(#eg9GfdZm8XS7-fill)" stroke="#dadada" stroke-width="0.541867"/><path d="M122.458383,125.811458v39.034241h2.561242v3.369843h20.97975v-3.269175h2.535907v-39.134909h-26.076899Z" fill="url(#eg9GfdZm8XS8-fill)" stroke="#dadada" stroke-width="0.541867"/><path d="M122.502556,168.736046h25.986838v6.907894h-26.027956l.041118-6.907894Z" fill="url(#eg9GfdZm8XS9-fill)" stroke="#dadada" stroke-width="0.541867"/></g><g transform="matrix(.708072 0 0 0.708072 71.321755 39.462551)" paint-order="markers fill stroke"><path d="M135.466665,94.252524l-6.318801,6.428163-2.840754,3.514061-2.485557,4.028315-.771379,2.656973v14.912179h24.960958v-13.609173l-.86867-3.959979-2.019417-4.028315-2.414027-3.514061-7.242353-6.428163Z" transform="translate(.000003 0.000001)" fill="url(#eg9GfdZm8XS11-fill)" stroke="#dadada" stroke-width="0.541867"/><path d="M122.458383,125.811458v39.034241h2.561242v3.369843h20.97975v-3.269175h2.535907v-39.134909h-26.076899Z" fill="url(#eg9GfdZm8XS12-fill)" stroke="#dadada" stroke-width="0.541867"/><path d="M122.502556,168.736046h25.986838v6.907894h-26.027956l.041118-6.907894Z" fill="url(#eg9GfdZm8XS13-fill)" stroke="#dadada" stroke-width="0.541867"/></g></svg>
