<?xml version="1.0" encoding="UTF-8" standalone="no"?>
<!-- Created with Inkscape (http://www.inkscape.org/) -->

<svg
   width="1024"
   height="1024"
   viewBox="0 0 270.93333 270.93334"
   version="1.1"
   id="svg8"
   inkscape:export-filename="C:\Users\kemon\Desktop\legacy\icons\reload.png"
   inkscape:export-xdpi="96"
   inkscape:export-ydpi="96"
   inkscape:version="1.4 (86a8ad7, 2024-10-11)"
   sodipodi:docname="btn_score.svg"
   xml:space="preserve"
   xmlns:inkscape="http://www.inkscape.org/namespaces/inkscape"
   xmlns:sodipodi="http://sodipodi.sourceforge.net/DTD/sodipodi-0.dtd"
   xmlns:xlink="http://www.w3.org/1999/xlink"
   xmlns="http://www.w3.org/2000/svg"
   xmlns:svg="http://www.w3.org/2000/svg"
   xmlns:rdf="http://www.w3.org/1999/02/22-rdf-syntax-ns#"
   xmlns:cc="http://creativecommons.org/ns#"
   xmlns:dc="http://purl.org/dc/elements/1.1/"><defs
     id="defs2"><linearGradient
       id="linearGradient31"
       inkscape:collect="always"><stop
         style="stop-color:#4a4a4a;stop-opacity:0.4084084;"
         offset="0"
         id="stop31" /><stop
         style="stop-color:#646464;stop-opacity:0.85585588;"
         offset="1"
         id="stop32" /></linearGradient><linearGradient
       id="main-gradient"
       x1="0.5"
       y1="0"
       x2="0.5"
       y2="1"
       gradientUnits="objectBoundingBox"><stop
         offset="0%"
         stop-color="#dcdcdc"
         id="stop1" /><stop
         offset="98%"
         stop-color="#c6c6c6"
         id="stop2" /><stop
         offset="100%"
         stop-color="#c6c6c6"
         id="stop3" /></linearGradient><linearGradient
       id="mid-gradient"
       x1="0.5"
       y1="0"
       x2="0.5"
       y2="1"
       gradientUnits="objectBoundingBox"><stop
         offset="0%"
         stop-color="#c6c6c6"
         id="stop4" /><stop
         offset="100%"
         stop-color="#9e9e9e"
         id="stop5" /></linearGradient><linearGradient
       id="dark-gradient"
       x1="0.5"
       y1="0"
       x2="0.5"
       y2="1"
       gradientUnits="objectBoundingBox"><stop
         offset="0%"
         stop-color="#9e9e9e"
         id="stop6" /><stop
         offset="100%"
         stop-color="#818181"
         id="stop7" /></linearGradient><radialGradient
       id="gradient-dark"
       cx="42.862503"
       cy="68.929158"
       r="92.604163"
       gradientUnits="userSpaceOnUse"
       fx="42.862503"
       fy="68.929158"><stop
         offset="46%"
         stop-color="#505050"
         id="stop1-9" /><stop
         offset="100%"
         stop-color="#bababa"
         id="stop2-2" /></radialGradient><radialGradient
       id="gradient-light"
       cx="0"
       cy="0"
       r="0.5"
       gradientUnits="objectBoundingBox"
       gradientTransform="translate(0.5 0.5)"><stop
         offset="0%"
         stop-color="#fff"
         id="stop3-7" /><stop
         offset="100%"
         stop-color="#d1d1d1"
         id="stop4-9" /></radialGradient><radialGradient
       id="gradient-stroke"
       cx="0"
       cy="0"
       r="0.5"
       gradientUnits="objectBoundingBox"
       gradientTransform="translate(0.5 0.5)"><stop
         offset="0%"
         stop-color="#5e5e5e"
         id="stop5-5" /><stop
         offset="100%"
         stop-color="#676565"
         id="stop6-4" /></radialGradient><radialGradient
       inkscape:collect="always"
       xlink:href="#gradient-light"
       id="radialGradient19"
       gradientUnits="userSpaceOnUse"
       gradientTransform="scale(0.9978094,1.0021954)"
       cx="41.615365"
       cy="67.442793"
       r="93.736672"
       fx="41.615365"
       fy="67.442793" /><radialGradient
       inkscape:collect="always"
       xlink:href="#gradient-stroke"
       id="radialGradient20"
       gradientUnits="userSpaceOnUse"
       gradientTransform="scale(0.9978094,1.0021954)"
       cx="41.615365"
       cy="67.442793"
       r="93.736672"
       fx="41.615365"
       fy="67.442793" /><radialGradient
       inkscape:collect="always"
       xlink:href="#gradient-light"
       id="radialGradient21"
       gradientUnits="userSpaceOnUse"
       gradientTransform="scale(1.6741739,0.59730951)"
       cx="-0.80039477"
       cy="-2.2433931"
       r="19.914299"
       fx="-0.80039477"
       fy="-2.2433931" /><radialGradient
       inkscape:collect="always"
       xlink:href="#gradient-stroke"
       id="radialGradient22"
       gradientUnits="userSpaceOnUse"
       gradientTransform="scale(1.6741739,0.59730951)"
       cx="-0.80039477"
       cy="-2.2433931"
       r="19.914299"
       fx="-0.80039477"
       fy="-2.2433931" /><radialGradient
       inkscape:collect="always"
       xlink:href="#gradient-light"
       id="radialGradient23"
       gradientUnits="userSpaceOnUse"
       gradientTransform="scale(1.6741739,0.59730951)"
       cx="-0.80039477"
       cy="-2.2433931"
       r="19.914299"
       fx="-0.80039477"
       fy="-2.2433931" /><radialGradient
       inkscape:collect="always"
       xlink:href="#gradient-stroke"
       id="radialGradient24"
       gradientUnits="userSpaceOnUse"
       gradientTransform="scale(1.6741739,0.59730951)"
       cx="-0.80039477"
       cy="-2.2433931"
       r="19.914299"
       fx="-0.80039477"
       fy="-2.2433931" /><radialGradient
       inkscape:collect="always"
       xlink:href="#gradient-light"
       id="radialGradient25"
       gradientUnits="userSpaceOnUse"
       gradientTransform="scale(1.6741739,0.59730951)"
       cx="-0.80039477"
       cy="-2.2433931"
       r="19.914299"
       fx="-0.80039477"
       fy="-2.2433931" /><radialGradient
       inkscape:collect="always"
       xlink:href="#gradient-stroke"
       id="radialGradient26"
       gradientUnits="userSpaceOnUse"
       gradientTransform="scale(1.6741739,0.59730951)"
       cx="-0.80039477"
       cy="-2.2433931"
       r="19.914299"
       fx="-0.80039477"
       fy="-2.2433931" /><radialGradient
       inkscape:collect="always"
       xlink:href="#gradient-light"
       id="radialGradient27"
       gradientUnits="userSpaceOnUse"
       gradientTransform="scale(1.6741739,0.59730951)"
       cx="-0.80039477"
       cy="-2.2433931"
       r="19.914299"
       fx="-0.80039477"
       fy="-2.2433931" /><radialGradient
       inkscape:collect="always"
       xlink:href="#gradient-stroke"
       id="radialGradient28"
       gradientUnits="userSpaceOnUse"
       gradientTransform="scale(1.6741739,0.59730951)"
       cx="-0.80039477"
       cy="-2.2433931"
       r="19.914299"
       fx="-0.80039477"
       fy="-2.2433931" /><linearGradient
       id="gradient1"
       x1="56.92767"
       y1="130.53285"
       x2="96.136955"
       y2="102.43126"
       gradientUnits="userSpaceOnUse"
       gradientTransform="scale(1.763305,0.56711686)"><stop
         offset="0%"
         stop-color="#808080"
         id="stop1-3" /><stop
         offset="64%"
         stop-color="#bcbcbc"
         id="stop2-1" /><stop
         offset="100%"
         stop-color="#fff"
         id="stop3-2" /></linearGradient><linearGradient
       id="gradient2"
       x1="57.001157"
       y1="167.01936"
       x2="166.30369"
       y2="119.70451"
       gradientUnits="userSpaceOnUse"
       gradientTransform="scale(1.1278459,0.88664592)"><stop
         offset="27%"
         stop-color="#cdcdcd"
         id="stop4-3" /><stop
         offset="57%"
         stop-color="#b3b3b3"
         id="stop5-3" /><stop
         offset="91%"
         stop-color="#bcbcbc"
         id="stop6-41" /><stop
         offset="100%"
         stop-color="#fff"
         id="stop7-1" /></linearGradient><linearGradient
       id="gradient3"
       x1="0"
       y1="0.5"
       x2="1.970455"
       y2="0.160675"
       gradientUnits="objectBoundingBox"><stop
         offset="0%"
         stop-color="#b1b1b1"
         id="stop8" /><stop
         offset="100%"
         stop-color="#c6c6c6"
         id="stop9" /></linearGradient><linearGradient
       id="gradient4"
       x1="87.129181"
       y1="240.68557"
       x2="114.44118"
       y2="218.64488"
       gradientUnits="userSpaceOnUse"
       gradientTransform="scale(1.6140145,0.61957311)"><stop
         offset="22.5873%"
         stop-color="#9f9f9f"
         id="stop10" /><stop
         offset="100%"
         stop-color="#afafaf"
         id="stop11" /></linearGradient><linearGradient
       id="gradient5"
       x1="110.23613"
       y1="182.43075"
       x2="110.23613"
       y2="256.8187"
       gradientUnits="userSpaceOnUse"
       gradientTransform="scale(1.2436597,0.80407849)"><stop
         offset="0%"
         stop-color="#535353"
         id="stop12" /><stop
         offset="100%"
         stop-color="#fff"
         id="stop13" /></linearGradient><linearGradient
       id="elUVJ5Fizeu2-fill"
       x1="-0.5"
       y1="46.5"
       x2="46.5"
       y2="-0.5"
       spreadMethod="pad"
       gradientUnits="userSpaceOnUse"><stop
         id="elUVJ5Fizeu2-fill-0"
         offset="0%"
         stop-color="#8c8c8c" /><stop
         id="elUVJ5Fizeu2-fill-1"
         offset="100%"
         stop-color="#ccc7c7" /></linearGradient><linearGradient
       id="ecjmX547NxC2-fill"
       x1="114.64292"
       y1="169.58511"
       x2="114.64292"
       y2="246.94678"
       spreadMethod="pad"
       gradientUnits="userSpaceOnUse"
       gradientTransform="scale(1.1958544,0.83622223)"><stop
         id="ecjmX547NxC2-fill-0"
         offset="0%"
         stop-color="#535353" /><stop
         id="ecjmX547NxC2-fill-1"
         offset="100%"
         stop-color="#fff" /></linearGradient><linearGradient
       id="ecjmX547NxC4-fill"
       x1="0"
       y1="0.5"
       x2="1.970455"
       y2="0.160675"
       spreadMethod="pad"
       gradientUnits="objectBoundingBox"
       gradientTransform="translate(0 0)"><stop
         id="ecjmX547NxC4-fill-0"
         offset="0%"
         stop-color="#b1b1b1" /><stop
         id="ecjmX547NxC4-fill-1"
         offset="100%"
         stop-color="#c6c6c6" /></linearGradient><linearGradient
       id="ecjmX547NxC6-fill"
       x1="57.001157"
       y1="167.01936"
       x2="166.30369"
       y2="119.70451"
       spreadMethod="pad"
       gradientUnits="userSpaceOnUse"
       gradientTransform="scale(1.1278459,0.88664592)"><stop
         id="ecjmX547NxC6-fill-0"
         offset="27%"
         stop-color="#cdcdcd" /><stop
         id="ecjmX547NxC6-fill-1"
         offset="57%"
         stop-color="#b3b3b3" /><stop
         id="ecjmX547NxC6-fill-2"
         offset="91%"
         stop-color="#bcbcbc" /><stop
         id="ecjmX547NxC6-fill-3"
         offset="100%"
         stop-color="#fff" /></linearGradient><linearGradient
       id="ecjmX547NxC7-fill"
       x1="56.92767"
       y1="130.53285"
       x2="96.136955"
       y2="102.43126"
       spreadMethod="pad"
       gradientUnits="userSpaceOnUse"
       gradientTransform="scale(1.763305,0.56711686)"><stop
         id="ecjmX547NxC7-fill-0"
         offset="0%"
         stop-color="#808080" /><stop
         id="ecjmX547NxC7-fill-1"
         offset="64%"
         stop-color="#bcbcbc" /><stop
         id="ecjmX547NxC7-fill-2"
         offset="100%"
         stop-color="#fff" /></linearGradient><linearGradient
       id="ecjmX547NxC8-fill"
       x1="87.129181"
       y1="240.68557"
       x2="114.44118"
       y2="218.64488"
       spreadMethod="pad"
       gradientUnits="userSpaceOnUse"
       gradientTransform="scale(1.6140145,0.61957311)"><stop
         id="ecjmX547NxC8-fill-0"
         offset="22.5873%"
         stop-color="#9f9f9f" /><stop
         id="ecjmX547NxC8-fill-1"
         offset="100%"
         stop-color="#afafaf" /></linearGradient><linearGradient
       id="eI7otXfKm0L2-fill"
       x1="23.000488"
       y1="46.509984"
       x2="23.000488"
       y2="-0.49998939"
       spreadMethod="pad"
       gradientUnits="userSpaceOnUse"
       gradientTransform="scale(0.99997878,1.0000212)"><stop
         id="eI7otXfKm0L2-fill-0"
         offset="0%"
         stop-color="#ccc7c7" /><stop
         id="eI7otXfKm0L2-fill-1"
         offset="48%"
         stop-color="#9f9f9f" /><stop
         id="eI7otXfKm0L2-fill-2"
         offset="100%"
         stop-color="#ccc7c7" /></linearGradient><linearGradient
       id="eCRZaqdiJwh2-fill"
       x1="111.779"
       y1="348.51733"
       x2="111.779"
       y2="154.47484"
       spreadMethod="pad"
       gradientUnits="userSpaceOnUse"
       gradientTransform="scale(1.2128086,0.8245324)"><stop
         offset="0%"
         stop-color="#000"
         id="stop1-31" /><stop
         offset="100%"
         stop-color="#fff"
         id="stop2-9" /></linearGradient><linearGradient
       id="evuNJg8ejEy3-fill"
       x1="111.54829"
       y1="348.41624"
       x2="111.54829"
       y2="155.36151"
       spreadMethod="pad"
       gradientUnits="userSpaceOnUse"
       gradientTransform="scale(1.2153102,0.82283521)"><stop
         id="evuNJg8ejEy3-fill-0"
         offset="0%"
         stop-color="#000" /><stop
         id="evuNJg8ejEy3-fill-1"
         offset="100%"
         stop-color="#fff" /></linearGradient><radialGradient
       inkscape:collect="always"
       xlink:href="#linearGradient31"
       id="radialGradient32"
       cx="135.46667"
       cy="135.46667"
       fx="135.46667"
       fy="135.46667"
       r="74.824193"
       gradientTransform="translate(0)"
       gradientUnits="userSpaceOnUse" /></defs><sodipodi:namedview
     id="base"
     pagecolor="#ffffff"
     bordercolor="#666666"
     borderopacity="1.0"
     inkscape:pageopacity="0.0"
     inkscape:pageshadow="2"
     inkscape:zoom="0.49497475"
     inkscape:cx="384.86812"
     inkscape:cy="617.2032"
     inkscape:document-units="mm"
     inkscape:current-layer="layer1"
     showgrid="false"
     units="px"
     showguides="true"
     inkscape:guide-bbox="true"
     inkscape:window-width="1920"
     inkscape:window-height="1017"
     inkscape:window-x="-8"
     inkscape:window-y="-8"
     inkscape:window-maximized="1"
     inkscape:showpageshadow="0"
     inkscape:pagecheckerboard="1"
     inkscape:deskcolor="#505050" /><metadata
     id="metadata5"><rdf:RDF><cc:Work
         rdf:about=""><dc:format>image/svg+xml</dc:format><dc:type
           rdf:resource="http://purl.org/dc/dcmitype/StillImage" /></cc:Work></rdf:RDF></metadata><g
     inkscape:label="Layer 1"
     inkscape:groupmode="layer"
     id="layer1"
     transform="translate(0,-26.06665)"><g
       style="display:none;shape-rendering:geometricPrecision;text-rendering:geometricPrecision"
       id="g19"
       transform="matrix(1.0051436,0,0,1.0051436,-0.69678469,25.369912)"
       sodipodi:insensitive="true"><g
         transform="translate(-2e-6,-26.0667)"
         id="g6"><path
           d="m 135.46666,68.929157 c -51.143857,0 -92.604157,41.460273 -92.604157,92.604163 0,51.14389 41.4603,92.60416 92.604157,92.60416 51.14386,0 92.60417,-41.4603 92.60417,-92.60416 0,-51.14386 -41.46031,-92.604163 -92.60417,-92.604163 z m 0,19.84375 c 40.18445,0 72.76042,32.575943 72.76042,72.760413 0,40.18447 -32.57597,72.76041 -72.76042,72.76041 -40.18445,0 -72.760407,-32.57594 -72.760407,-72.76041 0,-40.18447 32.57595,-72.760413 72.760407,-72.760413 z"
           fill="url(#gradient-dark)"
           stroke-width="2.6766"
           id="path6"
           style="fill:url(#gradient-dark)" /></g><g
         transform="matrix(0.383851,0,0,0.383851,83.467649,73.461926)"
         id="g7"><path
           d="m 135.46666,68.929157 c -4.79788,-10e-7 -9.51054,0.364874 -14.11175,1.06839 -39.119505,5.9813 -70.18251,36.440973 -77.066117,75.256153 -0.937292,5.28519 -1.42629,10.7253 -1.42629,16.27962 0,4.96567 0.390842,9.84005 1.143441,14.59407 6.165469,38.94599 36.609452,69.81359 75.341176,76.61204 5.23494,0.91887 10.62128,1.39805 16.11954,1.39805 5.63895,0 11.16018,-0.50402 16.52111,-1.46945 37.92718,-6.83022 67.83053,-36.75556 74.62807,-74.69409 0.95601,-5.33569 0.82308,-28.92103 -0.38094,-34.88006 -7.6284,-37.75487 -38.2225,-67.185061 -76.57561,-73.08393 -4.62686,-0.71163 -9.36663,-1.080794 -14.19263,-1.080793 z m 0,19.84375 c 4.78037,10e-7 9.49413,0.441098 14.08775,1.286827 28.25067,5.201213 51.95771,25.706506 58.67267,53.034146 1.37156,5.58181 -0.57181,28.95378 -1.65735,33.95256 -6.0106,27.67787 -27.77127,49.48127 -55.42585,55.5541 -5.04926,1.1088 -10.29499,1.69319 -15.67722,1.69319 -5.32395,0 -10.51435,-0.57181 -15.51313,-1.65735 -28.101758,-6.10265 -50.14775,-28.4415 -55.822015,-56.70061 -0.9348,-4.65551 -1.425263,-9.4717 -1.425262,-14.40245 -10e-7,-5.77653 0.673154,-11.39584 1.945299,-16.78376 6.50408,-27.54675 28.665495,-49.04509 56.572528,-54.583304 4.60588,-0.914045 9.36825,-1.393348 14.24258,-1.393349 z"
           fill="url(#gradient-light)"
           stroke="url(#gradient-stroke)"
           stroke-width="2.6766"
           id="path7"
           style="fill:url(#radialGradient19);stroke:url(#radialGradient20)" /></g><rect
         width="64"
         height="21.110001"
         rx="0"
         ry="0"
         transform="matrix(0.460504,0,0,0.460504,85.184363,130.60605)"
         fill="url(#gradient-light)"
         stroke="url(#gradient-stroke)"
         stroke-width="2.68"
         id="rect7"
         x="0"
         y="0"
         style="fill:url(#radialGradient21);stroke:url(#radialGradient22)" /><rect
         width="64"
         height="21.110001"
         rx="0"
         ry="0"
         transform="matrix(0.460504,0,0,0.460504,156.27671,130.606)"
         fill="url(#gradient-light)"
         stroke="url(#gradient-stroke)"
         stroke-width="2.68"
         id="rect8"
         x="0"
         y="0"
         style="fill:url(#radialGradient23);stroke:url(#radialGradient24)" /><rect
         width="64"
         height="21.110001"
         rx="0"
         ry="0"
         transform="matrix(0,-0.460504,0.460504,0,130.60604,114.6566)"
         fill="url(#gradient-light)"
         stroke="url(#gradient-stroke)"
         stroke-width="2.68"
         id="rect9"
         x="0"
         y="0"
         style="fill:url(#radialGradient25);stroke:url(#radialGradient26)" /><rect
         width="64"
         height="21.110001"
         rx="0"
         ry="0"
         transform="matrix(0,-0.460504,0.460504,0,130.60604,185.74894)"
         fill="url(#gradient-light)"
         stroke="url(#gradient-stroke)"
         stroke-width="2.68"
         id="rect10"
         x="0"
         y="0"
         style="fill:url(#radialGradient27);stroke:url(#radialGradient28)" /></g><g
       style="shape-rendering:geometricPrecision;text-rendering:geometricPrecision;fill:url(#radialGradient32);fill-opacity:1"
       id="g30"
       transform="matrix(1.2439891,0,0,1.2439891,-33.052391,-6.9857483)"><path
         d="m 196.02837,91.533178 c -0.89058,-1.242198 -1.82208,-2.456922 -2.80854,-3.648848 -13.72351,-16.628216 -34.50769,-27.241852 -57.75317,-27.241852 -23.24109,0 -44.029648,10.613636 -57.753165,27.241559 -0.986451,1.191926 -1.918246,2.40665 -2.804153,3.648849 -8.982995,12.344534 -14.266869,27.520394 -14.266869,43.933784 0,16.45928 5.306672,31.70792 14.330879,44.05245 0.913381,1.265 1.872358,2.50281 2.877224,3.69912 13.728193,16.52767 34.443684,27.07262 57.616084,27.07262 23.29137,0 44.07993,-10.64082 57.79877,-27.31024 1.00925,-1.19193 1.96823,-2.42974 2.85881,-3.69474 8.92834,-12.32115 14.16662,-27.45142 14.16662,-43.81921 0,-16.41339 -5.28388,-31.58925 -14.26249,-43.933492 z m 2.48002,41.586172 h -25.11814 c -0.18267,-9.51758 -1.47047,-18.54178 -3.65352,-26.66167 6.18352,-2.10998 11.8649,-4.78144 16.88835,-7.910026 7.10157,9.782386 11.40367,21.702226 11.88331,34.571696 z M 137.80024,72.890847 c 10.92404,1.51636 20.58776,13.476831 26.09991,30.479463 -8.02869,2.28798 -16.83369,3.62605 -26.09991,3.82714 z m -4.67651,0 v 34.306603 c -9.26621,-0.20109 -18.07121,-1.53916 -26.0999,-3.82714 5.51244,-17.002339 15.17586,-28.963103 26.0999,-30.479463 z m 0,38.978733 v 21.24977 h -30.9132 c 0.18267,-8.99234 1.42955,-17.56439 3.5027,-25.28707 8.44432,2.42507 17.68307,3.84088 27.4105,4.0373 z m 0,25.92629 v 21.24977 c -9.7137,0.23295 -18.94806,1.67595 -27.3877,4.11943 -2.08718,-7.7408 -3.33844,-16.345 -3.5258,-25.3692 z m 0,25.92161 v 34.3066 c -10.90124,-1.51168 -20.55122,-13.42685 -26.06804,-30.37921 8.13391,-2.35638 16.93423,-3.69444 26.06804,-3.92739 z m 4.67651,34.3066 v -34.31566 c 9.26622,0.16455 18.08028,1.48888 26.11803,3.76313 -5.50747,17.04384 -15.18025,29.03646 -26.11803,30.55253 z m 0,-38.99217 v -21.23604 h 30.9135 c -0.18267,8.95113 -1.4202,17.4957 -3.47552,25.1912 -8.45309,-2.40227 -17.70586,-3.79061 -27.43798,-3.95516 z m 0,-25.91256 v -21.24977 c 9.72744,-0.19642 18.96648,-1.60756 27.41518,-4.03262 2.06877,7.718 3.31565,16.29472 3.49832,25.28239 z m 45.97509,-38.220545 c -4.57597,2.790417 -9.74585,5.174265 -15.36322,7.092515 -3.86368,-11.96544 -9.72306,-21.628868 -16.77874,-27.538518 12.74174,3.374981 23.92152,10.627082 32.14196,20.446003 z M 119.29061,74.452802 C 112.23463,80.366836 106.37525,90.02588 102.51187,101.98664 96.903562,100.0684 91.729294,97.689222 87.158004,94.898805 95.378435,85.08456 106.54916,77.832459 119.29061,74.452802 Z M 84.308254,98.547946 c 5.023743,3.128294 10.700152,5.795364 16.879286,7.910024 -2.183055,8.11989 -3.470849,17.1441 -3.653525,26.66168 H 72.425237 C 72.90458,120.24988 77.211355,108.33004 84.308254,98.547946 Z M 72.425237,137.79587 h 25.108778 c 0.182676,9.55411 1.479824,18.61485 3.680995,26.76221 -6.165392,2.11905 -11.828356,4.78144 -16.838069,7.90068 -7.147464,-9.81454 -11.476745,-21.76157 -11.951704,-34.66289 z M 87.27667,176.1532 c 4.639977,-2.83601 9.786771,-5.20174 15.2808,-7.10157 3.86367,11.91955 9.71837,21.54206 16.76061,27.42891 -12.68679,-3.36125 -23.830039,-10.56775 -32.04141,-20.32734 z m 64.32951,20.32734 c 7.08784,-5.91871 12.96534,-15.61897 16.82902,-27.63439 5.63549,1.91357 10.82817,4.3021 15.4132,7.0969 -8.24762,9.86452 -19.46394,17.14877 -32.24222,20.53749 z m 35.11476,-24.20914 c -5.04654,-3.13735 -10.75042,-5.80442 -16.95703,-7.91002 2.16464,-8.09709 3.44338,-17.08476 3.62605,-26.56581 h 25.11813 c -0.47028,12.82855 -4.73117,24.68906 -11.78715,34.47583 z"
         id="path1"
         style="stroke-width:0.292282;fill:url(#radialGradient32);fill-opacity:1"
         inkscape:label="path1" /></g></g></svg>
