<svg id="e0Kz462DYFe1" xmlns="http://www.w3.org/2000/svg" xmlns:xlink="http://www.w3.org/1999/xlink" viewBox="0 0 270.93333 270.93334" shape-rendering="geometricPrecision" text-rendering="geometricPrecision" project-id="1734d3fa92b54d37baa12e80d907cc77" export-id="80143b9b407d4098b2290806c424a877" cached="false"><g transform="matrix(.292282 0 0 0.292282 60.642473 60.642478)"><path d="M463.203,105.688c-3.047-4.25-6.234-8.406-9.609-12.484C406.641,36.313,335.531,0,256,0C176.484,0,105.359,36.313,58.406,93.203c-3.375,4.078-6.563,8.234-9.594,12.484C18.078,147.922,0,199.844,0,256c0,56.313,18.156,108.484,49.031,150.719c3.125,4.328,6.406,8.563,9.844,12.656C105.844,475.922,176.719,512,256,512c79.688,0,150.813-36.406,197.75-93.438c3.453-4.078,6.734-8.313,9.781-12.641C494.078,363.766,512,312,512,256c0-56.156-18.078-108.078-48.797-150.312Zm8.485,142.281h-85.938c-.625-32.563-5.031-63.438-12.5-91.219c21.156-7.219,40.594-16.359,57.781-27.063c24.297,33.469,39.016,74.251,40.657,118.282ZM263.984,41.906c37.375,5.188,70.438,46.109,89.297,104.281-27.469,7.828-57.594,12.406-89.297,13.094v-117.375Zm-16,0v117.375c-31.703-.688-61.828-5.266-89.297-13.094c18.86-58.171,51.922-99.093,89.297-104.281Zm0,133.36v72.703h-105.765c.625-30.766,4.891-60.094,11.984-86.516c28.891,8.297,60.5,13.141,93.781,13.813Zm0,88.703v72.703c-33.234.797-64.828,5.734-93.703,14.094-7.141-26.484-11.422-55.922-12.063-86.797h105.766Zm0,88.687v117.375c-37.297-5.172-70.313-45.938-89.188-103.938c27.829-8.062,57.938-12.64,89.188-13.437Zm16,117.375v-117.406c31.703.563,61.859,5.094,89.359,12.875-18.843,58.313-51.937,99.344-89.359,104.531Zm0-133.406v-72.656h105.766c-.625,30.625-4.859,59.859-11.891,86.188-28.921-8.219-60.578-12.969-93.875-13.532Zm0-88.656v-72.703c33.281-.672,64.891-5.5,93.797-13.797c7.078,26.406,11.344,55.75,11.969,86.5h-105.766ZM421.281,117.203c-15.656,9.547-33.344,17.703-52.563,24.266-13.219-40.938-33.266-74-57.406-94.219c43.594,11.547,81.844,36.359,109.969,69.953ZM200.656,47.25c-24.141,20.234-44.188,53.281-57.406,94.203-19.188-6.563-36.891-14.703-52.531-24.25c28.125-33.578,66.344-58.39,109.937-69.953ZM80.969,129.688c17.188,10.703,36.609,19.828,57.75,27.063-7.469,27.781-11.875,58.656-12.5,91.219h-85.906c1.64-44.032,16.375-84.814,40.656-118.282ZM40.313,263.969h85.906c.625,32.688,5.063,63.688,12.594,91.563-21.094,7.25-40.469,16.359-57.609,27.031-24.454-33.579-39.266-74.454-40.891-118.594ZM91.125,395.203c15.875-9.703,33.484-17.797,52.281-24.297c13.219,40.781,33.25,73.703,57.344,93.844-43.406-11.5-81.531-36.156-109.625-69.547ZM311.219,464.75c24.25-20.25,44.359-53.438,57.578-94.547c19.281,6.547,37.047,14.719,52.734,24.281-28.218,33.75-66.593,58.672-110.312,70.266Zm120.14-82.828c-17.266-10.734-36.781-19.859-58.016-27.063c7.406-27.703,11.781-58.453,12.406-90.891h85.938c-1.609,43.891-16.187,84.47-40.328,117.954Z"/></g></svg>
