<svg id="e2Ia1P0eEx71" xmlns="http://www.w3.org/2000/svg" xmlns:xlink="http://www.w3.org/1999/xlink" viewBox="0 0 270.93333 270.93334" shape-rendering="geometricPrecision" text-rendering="geometricPrecision" project-id="c287d30a7f32456ca2d52d34f1de6301" export-id="27660695f2564496a5271c2f1ab31165" cached="false"><defs><radialGradient id="e2Ia1P0eEx73-fill" cx="0" cy="0" r="0.5" spreadMethod="pad" gradientUnits="objectBoundingBox" gradientTransform="translate(0.5 0.5)"><stop id="e2Ia1P0eEx73-fill-0" offset="46%" stop-color="#505050"/><stop id="e2Ia1P0eEx73-fill-1" offset="100%" stop-color="#bababa"/></radialGradient><radialGradient id="e2Ia1P0eEx74-fill" cx="0" cy="0" r="0.5" spreadMethod="pad" gradientUnits="objectBoundingBox" gradientTransform="translate(0.5 0.5)"><stop id="e2Ia1P0eEx74-fill-0" offset="0%" stop-color="rgba(255,255,255,0)"/><stop id="e2Ia1P0eEx74-fill-1" offset="100%" stop-color="rgba(221,221,221,0.1)"/></radialGradient><radialGradient id="e2Ia1P0eEx74-stroke" cx="0" cy="0" r="0.5" spreadMethod="reflect" gradientUnits="objectBoundingBox" gradientTransform="translate(0.5 0.5)"><stop id="e2Ia1P0eEx74-stroke-0" offset="0%" stop-color="#000"/><stop id="e2Ia1P0eEx74-stroke-1" offset="100%" stop-color="#676565"/></radialGradient><radialGradient id="e2Ia1P0eEx75-fill" cx="0" cy="0" r="0.5" spreadMethod="pad" gradientUnits="objectBoundingBox" gradientTransform="translate(0.5 0.5)"><stop id="e2Ia1P0eEx75-fill-0" offset="0%" stop-color="rgba(255,255,255,0)"/><stop id="e2Ia1P0eEx75-fill-1" offset="100%" stop-color="rgba(221,221,221,0.1)"/></radialGradient><radialGradient id="e2Ia1P0eEx75-stroke" cx="0" cy="0" r="0.5" spreadMethod="reflect" gradientUnits="objectBoundingBox" gradientTransform="translate(0.5 0.5)"><stop id="e2Ia1P0eEx75-stroke-0" offset="0%" stop-color="#000"/><stop id="e2Ia1P0eEx75-stroke-1" offset="100%" stop-color="#676565"/></radialGradient><radialGradient id="e2Ia1P0eEx76-fill" cx="0" cy="0" r="0.5" spreadMethod="pad" gradientUnits="objectBoundingBox" gradientTransform="translate(0.5 0.5)"><stop id="e2Ia1P0eEx76-fill-0" offset="0%" stop-color="rgba(255,255,255,0)"/><stop id="e2Ia1P0eEx76-fill-1" offset="100%" stop-color="rgba(221,221,221,0.1)"/></radialGradient><radialGradient id="e2Ia1P0eEx76-stroke" cx="0" cy="0" r="0.5" spreadMethod="reflect" gradientUnits="objectBoundingBox" gradientTransform="translate(0.5 0.5)"><stop id="e2Ia1P0eEx76-stroke-0" offset="0%" stop-color="#000"/><stop id="e2Ia1P0eEx76-stroke-1" offset="100%" stop-color="#676565"/></radialGradient><radialGradient id="e2Ia1P0eEx77-fill" cx="0" cy="0" r="0.5" spreadMethod="pad" gradientUnits="objectBoundingBox" gradientTransform="translate(0.5 0.5)"><stop id="e2Ia1P0eEx77-fill-0" offset="0%" stop-color="rgba(255,255,255,0)"/><stop id="e2Ia1P0eEx77-fill-1" offset="100%" stop-color="rgba(221,221,221,0.1)"/></radialGradient><radialGradient id="e2Ia1P0eEx77-stroke" cx="0" cy="0" r="0.5" spreadMethod="reflect" gradientUnits="objectBoundingBox" gradientTransform="translate(0.5 0.5)"><stop id="e2Ia1P0eEx77-stroke-0" offset="0%" stop-color="#000"/><stop id="e2Ia1P0eEx77-stroke-1" offset="100%" stop-color="#676565"/></radialGradient><radialGradient id="e2Ia1P0eEx78-fill" cx="0" cy="0" r="0.5" spreadMethod="pad" gradientUnits="objectBoundingBox" gradientTransform="translate(0.5 0.5)"><stop id="e2Ia1P0eEx78-fill-0" offset="0%" stop-color="rgba(255,255,255,0)"/><stop id="e2Ia1P0eEx78-fill-1" offset="100%" stop-color="rgba(221,221,221,0.1)"/></radialGradient><radialGradient id="e2Ia1P0eEx78-stroke" cx="0" cy="0" r="0.5" spreadMethod="reflect" gradientUnits="objectBoundingBox" gradientTransform="translate(0.5 0.5)"><stop id="e2Ia1P0eEx78-stroke-0" offset="0%" stop-color="#000"/><stop id="e2Ia1P0eEx78-stroke-1" offset="100%" stop-color="#676565"/></radialGradient><radialGradient id="e2Ia1P0eEx79-fill" cx="0" cy="0" r="0.5" spreadMethod="pad" gradientUnits="objectBoundingBox" gradientTransform="translate(0.5 0.5)"><stop id="e2Ia1P0eEx79-fill-0" offset="0%" stop-color="rgba(255,255,255,0)"/><stop id="e2Ia1P0eEx79-fill-1" offset="100%" stop-color="rgba(221,221,221,0.1)"/></radialGradient><radialGradient id="e2Ia1P0eEx79-stroke" cx="0" cy="0" r="0.5" spreadMethod="reflect" gradientUnits="objectBoundingBox" gradientTransform="translate(0.5 0.5)"><stop id="e2Ia1P0eEx79-stroke-0" offset="0%" stop-color="#000"/><stop id="e2Ia1P0eEx79-stroke-1" offset="100%" stop-color="#676565"/></radialGradient><radialGradient id="e2Ia1P0eEx710-fill" cx="0" cy="0" r="0.5" spreadMethod="pad" gradientUnits="objectBoundingBox" gradientTransform="translate(0.5 0.5)"><stop id="e2Ia1P0eEx710-fill-0" offset="0%" stop-color="rgba(255,255,255,0)"/><stop id="e2Ia1P0eEx710-fill-1" offset="100%" stop-color="rgba(221,221,221,0.1)"/></radialGradient><radialGradient id="e2Ia1P0eEx710-stroke" cx="0" cy="0" r="0.5" spreadMethod="reflect" gradientUnits="objectBoundingBox" gradientTransform="translate(0.5 0.5)"><stop id="e2Ia1P0eEx710-stroke-0" offset="0%" stop-color="#000"/><stop id="e2Ia1P0eEx710-stroke-1" offset="100%" stop-color="#676565"/></radialGradient><radialGradient id="e2Ia1P0eEx711-fill" cx="0" cy="0" r="0.5" spreadMethod="pad" gradientUnits="objectBoundingBox" gradientTransform="translate(0.5 0.5)"><stop id="e2Ia1P0eEx711-fill-0" offset="0%" stop-color="rgba(255,255,255,0)"/><stop id="e2Ia1P0eEx711-fill-1" offset="100%" stop-color="rgba(221,221,221,0.1)"/></radialGradient><radialGradient id="e2Ia1P0eEx711-stroke" cx="0" cy="0" r="0.5" spreadMethod="reflect" gradientUnits="objectBoundingBox" gradientTransform="translate(0.5 0.5)"><stop id="e2Ia1P0eEx711-stroke-0" offset="0%" stop-color="#000"/><stop id="e2Ia1P0eEx711-stroke-1" offset="100%" stop-color="#676565"/></radialGradient><radialGradient id="e2Ia1P0eEx712-fill" cx="0" cy="0" r="0.5" spreadMethod="reflect" gradientUnits="objectBoundingBox" gradientTransform="translate(0.5 0.5)"><stop id="e2Ia1P0eEx712-fill-0" offset="0%" stop-color="rgba(255,255,255,0)"/><stop id="e2Ia1P0eEx712-fill-1" offset="100%" stop-color="rgba(255,255,255,0.12)"/><stop id="e2Ia1P0eEx712-fill-2" offset="100%" stop-color="rgba(255,255,255,0.48)"/></radialGradient></defs><g transform="translate(-.000002-26.0667)"><path d="M135.46666,68.929157c-51.143857,0-92.604157,41.460273-92.604157,92.604163s41.4603,92.60416,92.604157,92.60416s92.60417-41.4603,92.60417-92.60416-41.46031-92.604163-92.60417-92.604163Zm0,19.84375c40.18445,0,72.76042,32.575943,72.76042,72.760413s-32.57597,72.76041-72.76042,72.76041-72.760407-32.57594-72.760407-72.76041s32.57595-72.760413,72.760407-72.760413Z" fill="url(#e2Ia1P0eEx73-fill)" stroke-width="2.6766"/></g><rect width="64" height="21.11" rx="0" ry="0" transform="matrix(.274759 0 0 0.460504 113.021469 130.60605)" fill="url(#e2Ia1P0eEx74-fill)" stroke="url(#e2Ia1P0eEx74-stroke)" stroke-width="2.68"/><rect width="64" height="21.11" rx="0" ry="0" transform="matrix(.191518 0 0 0.460504 98.100605 130.60605)" fill="url(#e2Ia1P0eEx75-fill)" stroke="url(#e2Ia1P0eEx75-stroke)" stroke-width="2.68"/><rect width="64" height="21.11" rx="0" ry="0" transform="matrix(.274759 0 0 0.460504 140.327285 130.60605)" fill="url(#e2Ia1P0eEx76-fill)" stroke="url(#e2Ia1P0eEx76-stroke)" stroke-width="2.68"/><rect width="64" height="21.11" rx="0" ry="0" transform="matrix(.191518 0 0 0.460504 160.575573 130.605999)" fill="url(#e2Ia1P0eEx77-fill)" stroke="url(#e2Ia1P0eEx77-stroke)" stroke-width="2.68"/><rect width="64" height="21.11" rx="0" ry="0" transform="matrix(0-.274759 0.460504 0 130.606045 130.60605)" fill="url(#e2Ia1P0eEx78-fill)" stroke="url(#e2Ia1P0eEx78-stroke)" stroke-width="2.68"/><rect width="64" height="21.11" rx="0" ry="0" transform="matrix(0-.191518 0.460504 0 130.606045 110.357762)" fill="url(#e2Ia1P0eEx79-fill)" stroke="url(#e2Ia1P0eEx79-stroke)" stroke-width="2.68"/><rect width="64" height="21.11" rx="0" ry="0" transform="matrix(0-.274759 0.460504 0 130.606045 157.911815)" fill="url(#e2Ia1P0eEx710-fill)" stroke="url(#e2Ia1P0eEx710-stroke)" stroke-width="2.68"/><rect width="64" height="21.11" rx="0" ry="0" transform="matrix(0-.191518 0.460504 0 130.606045 172.832679)" fill="url(#e2Ia1P0eEx711-fill)" stroke="url(#e2Ia1P0eEx711-stroke)" stroke-width="2.68"/><circle r="27.5" transform="matrix(2.653578 0 0 2.653578 135.466665 135.466619)" fill="url(#e2Ia1P0eEx712-fill)"/><path d="M77.176156,135.46667l11.677287-5.202336c-2.244379-6.141999-3.859921-18.01757,0-26.33601L77.424609,98.10061c-8.727042,8.822735-6.921953,27.270343-.248453,37.36606Z" transform="matrix(.707107 0.707107-.941206 0.941206 156.451824-70.19681)" opacity="0.24" fill="#a4a4a4" stroke-width="0.541867"/><path d="M77.176156,135.46667l11.677287-5.202336c-2.244379-6.141999-3.859921-18.01757,0-26.33601L77.424609,98.10061c-7.637669,8.459274-6.980201,26.854471-.248453,37.36606Z" transform="matrix(-.707107 0.707107-.941206-.941206 334.316386 149.63807)" opacity="0.24" fill="#a4a4a4" stroke-width="0.541867"/><path d="M77.176156,135.46667l11.677287-5.202336c-2.244379-6.141999-3.859921-18.01757,0-26.33601L77.424609,98.10061c-8.329627,9.260227-7.195961,27.748978-.248453,37.36606Z" transform="matrix(.707107-.707107-.941206-.941206 156.451818 334.316342)" opacity="0.24" fill="#a4a4a4" stroke-width="0.541867"/><path d="M77.176156,135.46667l11.677287-5.202336c-2.244379-6.141999-3.859921-18.01757,0-26.33601L77.424609,98.10061c-6.617583,9.002983-5.21138,27.450784-.248453,37.36606Z" transform="matrix(-.707107-.707107-.941206 0.941206 334.316388 114.481466)" opacity="0.24" fill="#a4a4a4" stroke-width="0.541867"/></svg>
