<svg id="ecjmX547NxC1" xmlns="http://www.w3.org/2000/svg" xmlns:xlink="http://www.w3.org/1999/xlink" viewBox="0 0 270.93333 270.93334" shape-rendering="geometricPrecision" text-rendering="geometricPrecision" project-id="1734d3fa92b54d37baa12e80d907cc77" export-id="61c843538839457494b17c9688e234e1" cached="false"><defs><linearGradient id="ecjmX547NxC2-fill" x1="0.5" y1="0" x2="0.5" y2="1" spreadMethod="pad" gradientUnits="objectBoundingBox" gradientTransform="translate(0 0)"><stop id="ecjmX547NxC2-fill-0" offset="0%" stop-color="#535353"/><stop id="ecjmX547NxC2-fill-1" offset="100%" stop-color="#fff"/></linearGradient><linearGradient id="ecjmX547NxC4-fill" x1="0" y1="0.5" x2="1.970455" y2="0.160675" spreadMethod="pad" gradientUnits="objectBoundingBox" gradientTransform="translate(0 0)"><stop id="ecjmX547NxC4-fill-0" offset="0%" stop-color="#b1b1b1"/><stop id="ecjmX547NxC4-fill-1" offset="100%" stop-color="#c6c6c6"/></linearGradient><linearGradient id="ecjmX547NxC5-fill" x1="0" y1="0.5" x2="1.970455" y2="0.160675" spreadMethod="pad" gradientUnits="objectBoundingBox" gradientTransform="translate(0 0)"><stop id="ecjmX547NxC5-fill-0" offset="0%" stop-color="#b1b1b1"/><stop id="ecjmX547NxC5-fill-1" offset="100%" stop-color="#c6c6c6"/></linearGradient><linearGradient id="ecjmX547NxC6-fill" x1="-0.143038" y1="0.958556" x2="1.092624" y2="0.423663" spreadMethod="pad" gradientUnits="objectBoundingBox" gradientTransform="translate(0 0)"><stop id="ecjmX547NxC6-fill-0" offset="27%" stop-color="#cdcdcd"/><stop id="ecjmX547NxC6-fill-1" offset="57%" stop-color="#b3b3b3"/><stop id="ecjmX547NxC6-fill-2" offset="91%" stop-color="#bcbcbc"/><stop id="ecjmX547NxC6-fill-3" offset="100%" stop-color="#fff"/></linearGradient><linearGradient id="ecjmX547NxC7-fill" x1="-0.354867" y1="1.114853" x2="1.247671" y2="-0.033698" spreadMethod="pad" gradientUnits="objectBoundingBox" gradientTransform="translate(0 0)"><stop id="ecjmX547NxC7-fill-0" offset="0%" stop-color="#808080"/><stop id="ecjmX547NxC7-fill-1" offset="64%" stop-color="#bcbcbc"/><stop id="ecjmX547NxC7-fill-2" offset="100%" stop-color="#fff"/></linearGradient><linearGradient id="ecjmX547NxC8-fill" x1="-0.163694" y1="1.106044" x2="1.164463" y2="0.034226" spreadMethod="pad" gradientUnits="objectBoundingBox" gradientTransform="translate(0 0)"><stop id="ecjmX547NxC8-fill-0" offset="22.5873%" stop-color="#9f9f9f"/><stop id="ecjmX547NxC8-fill-1" offset="100%" stop-color="#afafaf"/></linearGradient></defs><path d="M104.05952,141.810836l5.910066,5.288769l27.100524,25.100236q1.061438-1.068477,1.006715-1.068477c-.020603,0,9.039809,7.885833,9.039809,7.885833s23.540553-21.695946,23.540553-21.695946v4.908671h12.695693l-47.639439,44.272465-44.873854-43.98776h13.258649l-.038716-20.703791Z" transform="matrix(-1 0 0-1 273.280004 256.747589)" fill="url(#ecjmX547NxC2-fill)" stroke-width="0.541867"/><path d="M98.935483,137.569518l3.619386,3.00844v20.38029h-14.801232l47.906776,47.49265l51.025932-47.321969h-14.61961v-5.760594l3.791459-3.594411v6.742488h18.732362l-58.864114,55.415675-55.22275-55.22275l18.474452-.067472-.042661-21.072347Z" transform="matrix(-1 0 0-1 273.013789 256.459009)" fill="#a5a5a5" stroke-width="0.541867"/><path d="M120.353055,98.578164l19.006252-.922137q1.844273,5.942655,1.793043,5.942655t-18.186576,3.022556l-2.612719-8.043074Z" transform="matrix(.866025-.5 0.5 0.866025-40.348964 103.246486)" fill="url(#ecjmX547NxC4-fill)" stroke-width="0.541867"/><path d="M115.639915,82.901848l19.569779-.922136l1.690584,5.788966-18.647645,3.278706-2.612718-8.145536Z" transform="matrix(.866025-.5 0.5 0.866025-39.69602 103.175194)" fill="url(#ecjmX547NxC5-fill)" stroke-width="0.541867"/><path d="M123.494972,109.97712l21.216557-4.171795-3.218243-11.20425-22.050916.715164-.357583-1.072747l21.693333-4.052601-2.979853-11.20425-23.123663.715165-.834359-3.099048l48.273626-3.695018l15.376044,48.869597.834359,9.654725-68.417435,19.905421-31.348059-2.622271l1.907106-8.701172l1.191942-3.099048l1.787912-2.503077l1.787912-1.549524l2.860659-1.311135l5.482931-2.145495l18.832673,2.741466-13.945714-4.290989l7.509231-3.933407l2.741465-1.907106l14.780075-12.038605Z" transform="matrix(.866025-.5 0.5 0.866025-40.63871 103.756463)" fill="url(#ecjmX547NxC6-fill)" stroke-width="0.541867"/><path d="M115.690795,67.769641L155.3355,58.558078l3.498061,10.610787-41.976746,3.264857-1.16602-4.664081Z" transform="matrix(.866025-.5 0.5 0.866025-37.640161 105.80937)" fill="url(#ecjmX547NxC7-fill)" stroke-width="0.541867"/><path d="M146.060823,143.702732l32.762062-8.672311.428263,7.012794-30.620753,5.728007-2.569572-4.06849Z" transform="matrix(.852065-.523435 0.523435 0.852065-43.432192 107.237342)" fill="url(#ecjmX547NxC8-fill)" stroke-width="0.541867"/></svg>
