<svg id="exsA3U1N0jz1" xmlns="http://www.w3.org/2000/svg" xmlns:xlink="http://www.w3.org/1999/xlink" viewBox="0 0 270.93333 270.93334" shape-rendering="geometricPrecision" text-rendering="geometricPrecision" project-id="c287d30a7f32456ca2d52d34f1de6301" export-id="01b5a39c620b4fee9478f1a69578f2fe" cached="false"><rect width="48" height="48" rx="6.22" ry="6.22" transform="matrix(2.536516 0 0 2.536516 74.590281 74.590286)" fill="#b3b3b3"/><rect width="48" height="48" rx="6.22" ry="6.22" transform="matrix(2.027454 0 0 2.027454 86.807769 86.807774)" fill="#c3c3c3" stroke="#b8b8b8" stroke-width="2"/><path d="M61.69,55.73h5.25v7.42h-5.25v10h-9.2v-10h-19l-.41-5.8L52.39,26.82h9.3Zm-19.46,0h10.25v-16.37l-.61,1.05Zm19.46,0h5.25v7.42h-5.25v10h-9.2v-10h-19l-.41-5.8L52.39,26.82h9.3Zm-19.46,0h10.25v-16.37l-.61,1.05Z" transform="translate(84.734285 85.48167)" fill="#818181"/></svg>
