<?xml version="1.0" encoding="UTF-8" standalone="no"?>
<!-- Created with Inkscape (http://www.inkscape.org/) -->

<svg
   width="1024"
   height="1024"
   viewBox="0 0 270.93333 270.93334"
   version="1.1"
   id="svg8"
   inkscape:export-filename="C:\Users\kemon\Desktop\legacy\icons\reload.png"
   inkscape:export-xdpi="96"
   inkscape:export-ydpi="96"
   inkscape:version="1.4 (86a8ad7, 2024-10-11)"
   sodipodi:docname="btn_9.svg"
   xml:space="preserve"
   xmlns:inkscape="http://www.inkscape.org/namespaces/inkscape"
   xmlns:sodipodi="http://sodipodi.sourceforge.net/DTD/sodipodi-0.dtd"
   xmlns="http://www.w3.org/2000/svg"
   xmlns:svg="http://www.w3.org/2000/svg"
   xmlns:rdf="http://www.w3.org/1999/02/22-rdf-syntax-ns#"
   xmlns:cc="http://creativecommons.org/ns#"
   xmlns:dc="http://purl.org/dc/elements/1.1/"><defs
     id="defs2" /><sodipodi:namedview
     id="base"
     pagecolor="#ffffff"
     bordercolor="#666666"
     borderopacity="1.0"
     inkscape:pageopacity="0.0"
     inkscape:pageshadow="2"
     inkscape:zoom="0.49497475"
     inkscape:cx="384.86812"
     inkscape:cy="617.2032"
     inkscape:document-units="mm"
     inkscape:current-layer="layer1"
     showgrid="false"
     units="px"
     showguides="true"
     inkscape:guide-bbox="true"
     inkscape:window-width="1920"
     inkscape:window-height="1017"
     inkscape:window-x="-8"
     inkscape:window-y="-8"
     inkscape:window-maximized="1"
     inkscape:showpageshadow="0"
     inkscape:pagecheckerboard="1"
     inkscape:deskcolor="#505050" /><metadata
     id="metadata5"><rdf:RDF><cc:Work
         rdf:about=""><dc:format>image/svg+xml</dc:format><dc:type
           rdf:resource="http://purl.org/dc/dcmitype/StillImage" /></cc:Work></rdf:RDF></metadata><g
     inkscape:label="Layer 1"
     inkscape:groupmode="layer"
     id="layer1"
     transform="translate(0,-26.06665)"><g
       style="shape-rendering:geometricPrecision;text-rendering:geometricPrecision"
       id="g10"
       transform="matrix(1.5290081,0,0,1.5290081,-71.662963,-45.596325)"><rect
         width="48"
         height="48"
         rx="6.2199998"
         ry="6.2199998"
         transform="matrix(2.536516,0,0,2.536516,74.590281,74.590286)"
         fill="#b3b3b3"
         id="rect1-6"
         x="0"
         y="0" /><rect
         width="48"
         height="48"
         rx="6.2199998"
         ry="6.2199998"
         transform="matrix(2.027454,0,0,2.027454,86.807769,86.807774)"
         fill="#c3c3c3"
         stroke="#b8b8b8"
         stroke-width="2"
         id="rect2-1"
         x="0"
         y="0" /><path
         d="m 56.3,54.74 c -2.20508,2.273671 -5.242729,3.548689 -8.41,3.53 -3.748784,0.150444 -7.364957,-1.400394 -9.84,-4.22 Q 34.36,49.83 34.36,42.67 c -0.02794,-2.908395 0.658838,-5.779142 2,-8.36 1.256131,-2.459471 3.184066,-4.512236 5.56,-5.92 2.423466,-1.422926 5.189909,-2.156034 8,-2.12 2.882067,-0.04941 5.715452,0.746716 8.15,2.29 2.44819,1.611222 4.373433,3.901358 5.54,6.59 1.362418,3.099316 2.044415,6.454742 2,9.84 v 3.41 q 0,11.59 -5.76,18.21 -5.76,6.62 -16.31,7.08 H 41.28 V 66 h 2 Q 55.32,65.48 56.3,54.74 Z m -6.15,-3.5 c 1.37212,0.0407 2.721255,-0.358779 3.85,-1.14 1.026709,-0.710926 1.864299,-1.661797 2.44,-2.77 v -3.79 q 0,-4.68 -1.78,-7.26 c -1.033483,-1.635699 -2.845456,-2.61371 -4.78,-2.58 -1.85139,0.0026 -3.570867,0.958711 -4.55,2.53 -1.243345,1.878185 -1.865929,4.0992 -1.78,6.35 -0.09211,2.208267 0.516971,4.389042 1.74,6.23 1.100533,1.590017 2.93779,2.506759 4.87,2.43 z m 6.15,3.5 c -2.20508,2.273671 -5.242729,3.548689 -8.41,3.53 -3.748784,0.150444 -7.364957,-1.400394 -9.84,-4.22 Q 34.36,49.83 34.36,42.67 c -0.02794,-2.908395 0.658838,-5.779142 2,-8.36 1.256131,-2.459471 3.184066,-4.512236 5.56,-5.92 2.423466,-1.422926 5.189909,-2.156034 8,-2.12 2.882067,-0.04941 5.715452,0.746716 8.15,2.29 2.44819,1.611222 4.373433,3.901358 5.54,6.59 1.362418,3.099316 2.044415,6.454742 2,9.84 v 3.41 q 0,11.59 -5.76,18.21 -5.76,6.62 -16.31,7.08 H 41.28 V 66 h 2 Q 55.32,65.48 56.3,54.74 Z m -6.15,-3.5 c 1.37212,0.0407 2.721255,-0.358779 3.85,-1.14 1.026709,-0.710926 1.864299,-1.661797 2.44,-2.77 v -3.79 q 0,-4.68 -1.78,-7.26 c -1.033483,-1.635699 -2.845456,-2.61371 -4.78,-2.58 -1.85139,0.0026 -3.570867,0.958711 -4.55,2.53 -1.243345,1.878185 -1.865929,4.0992 -1.78,6.35 -0.09211,2.208267 0.516971,4.389042 1.74,6.23 1.100533,1.590017 2.93779,2.506759 4.87,2.43 z"
         transform="translate(85.481029,85.48771)"
         fill="#818181"
         id="path2-8" /></g></g></svg>
