<svg id="ebedwt8Csyk1" xmlns="http://www.w3.org/2000/svg" xmlns:xlink="http://www.w3.org/1999/xlink" viewBox="0 0 270.93333 270.93334" shape-rendering="geometricPrecision" text-rendering="geometricPrecision" project-id="c287d30a7f32456ca2d52d34f1de6301" export-id="e240104ff3444290b9238576e3eac366" cached="false"><defs><radialGradient id="ebedwt8Csyk3-fill" cx="0" cy="0" r="0.5" spreadMethod="pad" gradientUnits="objectBoundingBox" gradientTransform="translate(0.5 0.5)"><stop id="ebedwt8Csyk3-fill-0" offset="46%" stop-color="#505050"/><stop id="ebedwt8Csyk3-fill-1" offset="100%" stop-color="#bababa"/></radialGradient><radialGradient id="ebedwt8Csyk5-fill" cx="0" cy="0" r="0.5" spreadMethod="pad" gradientUnits="objectBoundingBox" gradientTransform="translate(0.5 0.5)"><stop id="ebedwt8Csyk5-fill-0" offset="0%" stop-color="#fff"/><stop id="ebedwt8Csyk5-fill-1" offset="100%" stop-color="#d1d1d1"/></radialGradient><radialGradient id="ebedwt8Csyk5-stroke" cx="0" cy="0" r="0.5" spreadMethod="reflect" gradientUnits="objectBoundingBox" gradientTransform="translate(0.5 0.5)"><stop id="ebedwt8Csyk5-stroke-0" offset="0%" stop-color="#5e5e5e"/><stop id="ebedwt8Csyk5-stroke-1" offset="100%" stop-color="#676565"/></radialGradient><radialGradient id="ebedwt8Csyk6-fill" cx="0" cy="0" r="0.5" spreadMethod="pad" gradientUnits="objectBoundingBox" gradientTransform="translate(0.5 0.5)"><stop id="ebedwt8Csyk6-fill-0" offset="0%" stop-color="#fff"/><stop id="ebedwt8Csyk6-fill-1" offset="100%" stop-color="#d1d1d1"/></radialGradient><radialGradient id="ebedwt8Csyk6-stroke" cx="0" cy="0" r="0.5" spreadMethod="reflect" gradientUnits="objectBoundingBox" gradientTransform="translate(0.5 0.5)"><stop id="ebedwt8Csyk6-stroke-0" offset="0%" stop-color="#000"/><stop id="ebedwt8Csyk6-stroke-1" offset="100%" stop-color="#676565"/></radialGradient><radialGradient id="ebedwt8Csyk7-fill" cx="0" cy="0" r="0.5" spreadMethod="pad" gradientUnits="objectBoundingBox" gradientTransform="translate(0.5 0.5)"><stop id="ebedwt8Csyk7-fill-0" offset="0%" stop-color="#fff"/><stop id="ebedwt8Csyk7-fill-1" offset="100%" stop-color="#d1d1d1"/></radialGradient><radialGradient id="ebedwt8Csyk7-stroke" cx="0" cy="0" r="0.5" spreadMethod="reflect" gradientUnits="objectBoundingBox" gradientTransform="translate(0.5 0.5)"><stop id="ebedwt8Csyk7-stroke-0" offset="0%" stop-color="#000"/><stop id="ebedwt8Csyk7-stroke-1" offset="100%" stop-color="#676565"/></radialGradient><radialGradient id="ebedwt8Csyk8-fill" cx="0" cy="0" r="0.5" spreadMethod="pad" gradientUnits="objectBoundingBox" gradientTransform="translate(0.5 0.5)"><stop id="ebedwt8Csyk8-fill-0" offset="0%" stop-color="#fff"/><stop id="ebedwt8Csyk8-fill-1" offset="100%" stop-color="#d1d1d1"/></radialGradient><radialGradient id="ebedwt8Csyk8-stroke" cx="0" cy="0" r="0.5" spreadMethod="reflect" gradientUnits="objectBoundingBox" gradientTransform="translate(0.5 0.5)"><stop id="ebedwt8Csyk8-stroke-0" offset="0%" stop-color="#000"/><stop id="ebedwt8Csyk8-stroke-1" offset="100%" stop-color="#676565"/></radialGradient><radialGradient id="ebedwt8Csyk9-fill" cx="0" cy="0" r="0.5" spreadMethod="pad" gradientUnits="objectBoundingBox" gradientTransform="translate(0.5 0.5)"><stop id="ebedwt8Csyk9-fill-0" offset="0%" stop-color="#fff"/><stop id="ebedwt8Csyk9-fill-1" offset="100%" stop-color="#d1d1d1"/></radialGradient><radialGradient id="ebedwt8Csyk9-stroke" cx="0" cy="0" r="0.5" spreadMethod="reflect" gradientUnits="objectBoundingBox" gradientTransform="translate(0.5 0.5)"><stop id="ebedwt8Csyk9-stroke-0" offset="0%" stop-color="#000"/><stop id="ebedwt8Csyk9-stroke-1" offset="100%" stop-color="#676565"/></radialGradient></defs><g transform="translate(-.000002-26.0667)"><path d="M135.46666,68.929157c-51.143857,0-92.604157,41.460273-92.604157,92.604163s41.4603,92.60416,92.604157,92.60416s92.60417-41.4603,92.60417-92.60416-41.46031-92.604163-92.60417-92.604163Zm0,19.84375c40.18445,0,72.76042,32.575943,72.76042,72.760413s-32.57597,72.76041-72.76042,72.76041-72.760407-32.57594-72.760407-72.76041s32.57595-72.760413,72.760407-72.760413Z" fill="url(#ebedwt8Csyk3-fill)" stroke-width="2.6766"/></g><g transform="matrix(.383851 0 0 0.383851 83.467649 73.461926)"><path d="M135.46666,68.929157c-4.797883-.000001-9.510543.364874-14.111748,1.06839-39.119507,5.9813-70.182512,36.440969-77.066119,75.256151-.937292,5.285194-1.42629,10.725302-1.42629,16.279622c0,4.96567.390842,9.840054,1.143441,14.594067c6.165469,38.945994,36.609452,69.813597,75.341172,76.612043c5.234942.918872,10.621284,1.398049,16.119544,1.39805c5.638951-.000001,11.160184-.504015,16.521107-1.46945c37.927186-6.830215,67.830531-36.755556,74.628072-74.694087.95601-5.335694.823085-28.921033-.38094-34.880061-7.628394-37.754868-38.222501-67.185063-76.575613-73.083932-4.626853-.71163-9.366629-1.080794-14.192626-1.080793Zm0,19.84375c4.78037.000001,9.494126.441098,14.087752,1.286827c28.250673,5.201213,51.957713,25.70651,58.672668,53.034148c1.371564,5.581811-.571806,28.953781-1.657354,33.952561-6.010596,27.677863-27.771261,49.481266-55.42585,55.554099-5.049253,1.108795-10.294989,1.693188-15.677216,1.693188-5.32395,0-10.514346-.571806-15.513127-1.657354-28.101761-6.10265-50.147753-28.441499-55.822018-56.700601-.9348-4.655514-1.425263-9.471708-1.425262-14.402455-.000001-5.776533.673154-11.395842,1.945299-16.783762c6.50408-27.546752,28.665495-49.045088,56.572531-54.583302c4.605872-.914045,9.368251-1.393348,14.242577-1.393349Z" fill="url(#ebedwt8Csyk5-fill)" stroke="url(#ebedwt8Csyk5-stroke)" stroke-width="2.6766"/></g><rect width="64" height="21.11" rx="0" ry="0" transform="matrix(.460504 0 0 0.460504 85.184363 130.60605)" fill="url(#ebedwt8Csyk6-fill)" stroke="url(#ebedwt8Csyk6-stroke)" stroke-width="2.68"/><rect width="64" height="21.11" rx="0" ry="0" transform="matrix(.460504 0 0 0.460504 156.276711 130.605999)" fill="url(#ebedwt8Csyk7-fill)" stroke="url(#ebedwt8Csyk7-stroke)" stroke-width="2.68"/><rect width="64" height="21.11" rx="0" ry="0" transform="matrix(0-.460504 0.460504 0 130.606045 114.656599)" fill="url(#ebedwt8Csyk8-fill)" stroke="url(#ebedwt8Csyk8-stroke)" stroke-width="2.68"/><rect width="64" height="21.11" rx="0" ry="0" transform="matrix(0-.460504 0.460504 0 130.606045 185.748944)" fill="url(#ebedwt8Csyk9-fill)" stroke="url(#ebedwt8Csyk9-stroke)" stroke-width="2.68"/></svg>
