<svg id="eI7otXfKm0L1" xmlns="http://www.w3.org/2000/svg" xmlns:xlink="http://www.w3.org/1999/xlink" viewBox="0 0 270.93333 270.93334" shape-rendering="geometricPrecision" text-rendering="geometricPrecision" project-id="1734d3fa92b54d37baa12e80d907cc77" export-id="20a326ba7035435d8943246ab75d45bc" cached="false"><defs><linearGradient id="eI7otXfKm0L2-fill" x1="0.5" y1="1.000191" x2="0.5" y2="0" spreadMethod="pad" gradientUnits="objectBoundingBox" gradientTransform="translate(0 0)"><stop id="eI7otXfKm0L2-fill-0" offset="0%" stop-color="#ccc7c7"/><stop id="eI7otXfKm0L2-fill-1" offset="48%" stop-color="#9f9f9f"/><stop id="eI7otXfKm0L2-fill-2" offset="100%" stop-color="#ccc7c7"/></linearGradient></defs><rect width="46" height="46.001994" rx="0" ry="0" transform="matrix(4.347784 0 0 2.5075 35.467633 77.79417)" fill="url(#eI7otXfKm0L2-fill)" stroke="#fff"/><rect width="46" height="46" rx="0" ry="0" transform="matrix(3.822047 0 0 1.776127 47.559584 94.615749)" fill="none" stroke="#abaaaa"/><g transform="translate(0 1.648022)"><rect width="46" height="46" rx="0" ry="0" transform="matrix(.460677 0 0 0.300363 50.702097 95.00694)" fill="#abaaaa" stroke="#fff"/><rect width="46" height="46" rx="0" ry="0" transform="matrix(.460677 0 0 0.300363 93.084381 95.00694)" fill="#c7c3c3" stroke="#fff"/><rect width="46" height="46" rx="0" ry="0" transform="matrix(.460677 0 0 0.300363 114.275523 95.00694)" fill="#c7c3c3" stroke="#fff"/><rect width="46" height="46" rx="0" ry="0" transform="matrix(.460677 0 0 0.300363 135.466665 95.00694)" fill="#c7c3c3" stroke="#fff"/><rect width="46" height="46" rx="0" ry="0" transform="matrix(.460677 0 0 0.300363 177.848949 95.00694)" fill="#c7c3c3" stroke="#fff"/></g><g transform="translate(.000005 19.734684)"><rect width="46" height="46" rx="0" ry="0" transform="matrix(.460677 0 0 0.300363 50.702097 95.00694)" fill="#abaaaa" stroke="#fff"/><rect width="46" height="46" rx="0" ry="0" transform="matrix(.460677 0 0 0.300363 71.893239 95.00694)" fill="#abaaaa" stroke="#fff"/><rect width="46" height="46" rx="0" ry="0" transform="matrix(.460677 0 0 0.300363 93.084381 95.00694)" fill="#abaaaa" stroke="#fff"/><rect width="46" height="46" rx="0" ry="0" transform="matrix(.460677 0 0 0.300363 114.275523 95.00694)" fill="#abaaaa" stroke="#fff"/><rect width="46" height="46" rx="0" ry="0" transform="matrix(.460677 0 0 0.300363 135.466665 95.00694)" fill="#abaaaa" stroke="#fff"/><rect width="46" height="46" rx="0" ry="0" transform="matrix(.460677 0 0 0.300363 156.657807 95.00694)" fill="#abaaaa" stroke="#fff"/><rect width="46" height="46" rx="0" ry="0" transform="matrix(.460677 0 0 0.300363 177.848949 95.00694)" fill="#abaaaa" stroke="#fff"/><rect width="46" height="46" rx="0" ry="0" transform="matrix(.460677 0 0 0.300363 199.040091 95.00694)" fill="#abaaaa" stroke="#fff"/></g><g transform="translate(.00001 33.551379)"><rect width="46" height="46" rx="0" ry="0" transform="matrix(.460677 0 0 0.300363 50.702097 95.00694)" fill="#c7c3c3" stroke="#fff"/><rect width="46" height="46" rx="0" ry="0" transform="matrix(.460677 0 0 0.300363 71.893239 95.00694)" fill="#c7c3c3" stroke="#fff"/><rect width="46" height="46" rx="0" ry="0" transform="matrix(.460677 0 0 0.300363 93.084381 95.00694)" fill="#c7c3c3" stroke="#fff"/><rect width="46" height="46" rx="0" ry="0" transform="matrix(.460677 0 0 0.300363 114.275523 95.00694)" fill="#c7c3c3" stroke="#fff"/><rect width="46" height="46" rx="0" ry="0" transform="matrix(.460677 0 0 0.300363 135.466665 95.00694)" fill="#c7c3c3" stroke="#fff"/><rect width="46" height="46" rx="0" ry="0" transform="matrix(.460677 0 0 0.300363 156.657807 95.00694)" fill="#c7c3c3" stroke="#fff"/><rect width="46" height="46" rx="0" ry="0" transform="matrix(.460677 0 0 0.300363 177.848949 95.00694)" fill="#abaaaa" stroke="#fff"/><rect width="46" height="46" rx="0" ry="0" transform="matrix(.460677 0 0 0.300363 199.040091 95.00694)" fill="#c7c3c3" stroke="#fff"/></g><g transform="translate(.00001 47.368074)"><rect width="46" height="46" rx="0" ry="0" transform="matrix(.460677 0 0 0.300363 50.702097 95.00694)" fill="#abaaaa" stroke="#fff"/><rect width="46" height="46" rx="0" ry="0" transform="matrix(.460677 0 0 0.300363 71.893239 95.00694)" fill="#c7c3c3" stroke="#fff"/><rect width="46" height="46" rx="0" ry="0" transform="matrix(.460677 0 0 0.300363 93.084381 95.00694)" fill="#c7c3c3" stroke="#fff"/><rect width="46" height="46" rx="0" ry="0" transform="matrix(.460677 0 0 0.300363 114.275523 95.00694)" fill="#c7c3c3" stroke="#fff"/><rect width="46" height="46" rx="0" ry="0" transform="matrix(.460677 0 0 0.300363 135.466665 95.00694)" fill="#c7c3c3" stroke="#fff"/><rect width="46" height="46" rx="0" ry="0" transform="matrix(.460677 0 0 0.300363 156.657807 95.00694)" fill="#abaaaa" stroke="#fff"/><rect width="46" height="46" rx="0" ry="0" transform="matrix(.460677 0 0 0.300363 177.848949 95.00694)" fill="#abaaaa" stroke="#fff"/><rect width="46" height="46" rx="0" ry="0" transform="matrix(.460677 0 0 0.300363 199.040091 95.00694)" fill="#abaaaa" stroke="#fff"/></g><g transform="translate(.000016 65.017533)"><rect width="46" height="46" rx="0" ry="0" transform="matrix(.460677 0 0 0.300363 50.702097 95.00694)" fill="#abaaaa" stroke="#fff"/><rect width="46" height="46" rx="0" ry="0" transform="matrix(.460677 0 0 0.300363 199.040091 95.00694)" fill="#abaaaa" stroke="#fff"/></g><path d="M93.084397,160.024473h84.764552v13.816698h-84.764563l.000011-13.816698Z" transform="translate(.000002 0)" fill="#abaaaa" stroke="#fff" stroke-width="0.541867"/><rect width="45.350103" height="46" rx="0" ry="0" transform="matrix(.066152 0 0 0.059952 177.848959 86.022759)" fill="#fff" stroke="#ccc"/><rect width="45.350103" height="46" rx="0" ry="0" transform="matrix(.066152 0 0 0.059952 188.44452 86.022759)" fill="#abaaaa" stroke="#fff"/><rect width="45.350103" height="46" rx="0" ry="0" transform="matrix(.066152 0 0 0.059952 199.040107 86.022759)" fill="#abaaaa" stroke="#fff"/></svg>
