<svg id="elUVJ5Fizeu1" xmlns="http://www.w3.org/2000/svg" xmlns:xlink="http://www.w3.org/1999/xlink" viewBox="0 0 270.93333 270.93334" shape-rendering="geometricPrecision" text-rendering="geometricPrecision" project-id="1734d3fa92b54d37baa12e80d907cc77" export-id="9f5403d82ae6465591fbfba43d41cb98" cached="false"><defs><linearGradient id="elUVJ5Fizeu2-fill" x1="0" y1="1" x2="1" y2="0" spreadMethod="pad" gradientUnits="objectBoundingBox" gradientTransform="translate(0 0)"><stop id="elUVJ5Fizeu2-fill-0" offset="0%" stop-color="#8c8c8c"/><stop id="elUVJ5Fizeu2-fill-1" offset="100%" stop-color="#ccc7c7"/></linearGradient></defs><rect width="46" height="46" rx="0" ry="0" transform="matrix(4.347784 0 0 2.5075 35.467633 77.79417)" fill="url(#elUVJ5Fizeu2-fill)" stroke="#c8c8c8"/><circle r="27.5" transform="matrix(.560489 0 0 0.560489 58.36584 150.880117)" fill="#fff"/><circle r="27.5" transform="matrix(.560489 0 0 0.560489 213.179915 128.967859)" fill="#fff"/><circle r="27.5" transform="matrix(.328495 0 0 0.328495 204.146303 153.414921)" fill="#fff"/><polygon points="81.499995,22.72 18.500015,22.72 18.500015,74.385523 21.617698,77.28 77.752661,77.28 81.5,74.385526 81.499995,22.72" transform="matrix(1.762139 0 0 1.762139 47.359702 47.35972)" fill="#c6c1c1" stroke="#fff"/><path d="M87.780697,91.642153h95.371938v52.739154l-95.371938-26.74391v-25.995244Z" fill="#fff" stroke-width="0.541867"/><path d="M87.780697,91.642153h95.371938v52.739154l-95.371938-26.74391v-25.995244Z" transform="matrix(-.421631 0 0-.421631 192.583611 221.304426)" fill="#fff" stroke-width="0.541867"/><path d="M87.780697,91.642153h95.371938v52.739155L87.780697,133.186559v-41.544406Z" transform="matrix(-.077668 0 0-.231383 134.973609 199.700945)" fill="#929292" stroke-width="0.541867"/></svg>
