<?xml version="1.0" encoding="UTF-8" standalone="no"?>
<!-- Created with Inkscape (http://www.inkscape.org/) -->

<svg
   width="1024"
   height="1024"
   viewBox="0 0 270.93333 270.93334"
   version="1.1"
   id="svg8"
   inkscape:export-filename="C:\Users\kemon\Desktop\legacy\icons\reload.png"
   inkscape:export-xdpi="96"
   inkscape:export-ydpi="96"
   inkscape:version="1.4 (86a8ad7, 2024-10-11)"
   sodipodi:docname="btn_2.svg"
   xml:space="preserve"
   xmlns:inkscape="http://www.inkscape.org/namespaces/inkscape"
   xmlns:sodipodi="http://sodipodi.sourceforge.net/DTD/sodipodi-0.dtd"
   xmlns="http://www.w3.org/2000/svg"
   xmlns:svg="http://www.w3.org/2000/svg"
   xmlns:rdf="http://www.w3.org/1999/02/22-rdf-syntax-ns#"
   xmlns:cc="http://creativecommons.org/ns#"
   xmlns:dc="http://purl.org/dc/elements/1.1/"><defs
     id="defs2" /><sodipodi:namedview
     id="base"
     pagecolor="#ffffff"
     bordercolor="#666666"
     borderopacity="1.0"
     inkscape:pageopacity="0.0"
     inkscape:pageshadow="2"
     inkscape:zoom="0.49497475"
     inkscape:cx="384.86812"
     inkscape:cy="293.95439"
     inkscape:document-units="mm"
     inkscape:current-layer="layer1"
     showgrid="false"
     units="px"
     showguides="true"
     inkscape:guide-bbox="true"
     inkscape:window-width="1920"
     inkscape:window-height="1017"
     inkscape:window-x="-8"
     inkscape:window-y="-8"
     inkscape:window-maximized="1"
     inkscape:showpageshadow="0"
     inkscape:pagecheckerboard="1"
     inkscape:deskcolor="#505050" /><metadata
     id="metadata5"><rdf:RDF><cc:Work
         rdf:about=""><dc:format>image/svg+xml</dc:format><dc:type
           rdf:resource="http://purl.org/dc/dcmitype/StillImage" /></cc:Work></rdf:RDF></metadata><g
     inkscape:label="Layer 1"
     inkscape:groupmode="layer"
     id="layer1"
     transform="translate(0,-26.06665)"><g
       style="display:inline;shape-rendering:geometricPrecision;text-rendering:geometricPrecision"
       id="g3"
       transform="matrix(1.5290083,0,0,1.5290083,-71.662993,-45.596354)"><rect
         width="48"
         height="48"
         rx="6.2199998"
         ry="6.2199998"
         transform="matrix(2.536516,0,0,2.536516,74.590281,74.590286)"
         fill="#b3b3b3"
         id="rect1"
         x="0"
         y="0" /><rect
         width="48"
         height="48"
         rx="6.2199998"
         ry="6.2199998"
         transform="matrix(2.027454,0,0,2.027454,86.807769,86.807774)"
         fill="#c3c3c3"
         stroke="#b8b8b8"
         stroke-width="2"
         id="rect2"
         x="0"
         y="0" /><path
         d="M 66.35,73.5 H 34.57 v -6.3 l 15,-16 c 1.717745,-1.804469 3.248849,-3.777817 4.57,-5.89 0.913427,-1.431612 1.424645,-3.082709 1.48,-4.78 0.102359,-1.757614 -0.453816,-3.490313 -1.56,-4.86 -1.148235,-1.225714 -2.783743,-1.874783 -4.46,-1.77 -1.88504,-0.08706 -3.703355,0.707526 -4.92,2.15 -1.257973,1.606624 -1.896781,3.611773 -1.8,5.65 h -9.23 c -0.03637,-2.712296 0.65421,-5.384852 2,-7.74 1.348946,-2.334244 3.33239,-4.237935 5.72,-5.49 2.58121,-1.359409 5.463083,-2.047206 8.38,-2 q 7.16,0 11.13,3.44 3.97,3.44 4,9.71 c -0.03719,2.440501 -0.646884,4.838177 -1.78,7 C 61.44938,49.672807 59.397859,52.491127 57,55 L 46.42,66.08 h 19.93 z m 0,0 H 34.57 v -6.3 l 15,-16 c 1.717745,-1.804469 3.248849,-3.777817 4.57,-5.89 0.913427,-1.431612 1.424645,-3.082709 1.48,-4.78 0.102359,-1.757614 -0.453816,-3.490313 -1.56,-4.86 -1.148235,-1.225714 -2.783743,-1.874783 -4.46,-1.77 -1.88504,-0.08706 -3.703355,0.707526 -4.92,2.15 -1.257973,1.606624 -1.896781,3.611773 -1.8,5.65 h -9.23 c -0.03637,-2.712296 0.65421,-5.384852 2,-7.74 1.348946,-2.334244 3.33239,-4.237935 5.72,-5.49 2.58121,-1.359409 5.463083,-2.047206 8.38,-2 q 7.16,0 11.13,3.44 3.97,3.44 4,9.71 c -0.03719,2.440501 -0.646884,4.838177 -1.78,7 C 61.44938,49.672807 59.397859,52.491127 57,55 L 46.42,66.08 h 19.93 z"
         transform="translate(85.467321,85.482763)"
         fill="#818181"
         id="path2" /></g></g></svg>
