<?xml version="1.0" encoding="UTF-8" standalone="no"?>
<!-- Created with Inkscape (http://www.inkscape.org/) -->

<svg
   width="1024"
   height="1024"
   viewBox="0 0 270.93333 270.93334"
   version="1.1"
   id="svg8"
   inkscape:export-filename="C:\Users\kemon\Desktop\legacy\icons\reload.png"
   inkscape:export-xdpi="96"
   inkscape:export-ydpi="96"
   inkscape:version="1.4 (86a8ad7, 2024-10-11)"
   sodipodi:docname="btn_6.svg"
   xml:space="preserve"
   xmlns:inkscape="http://www.inkscape.org/namespaces/inkscape"
   xmlns:sodipodi="http://sodipodi.sourceforge.net/DTD/sodipodi-0.dtd"
   xmlns="http://www.w3.org/2000/svg"
   xmlns:svg="http://www.w3.org/2000/svg"
   xmlns:rdf="http://www.w3.org/1999/02/22-rdf-syntax-ns#"
   xmlns:cc="http://creativecommons.org/ns#"
   xmlns:dc="http://purl.org/dc/elements/1.1/"><defs
     id="defs2" /><sodipodi:namedview
     id="base"
     pagecolor="#ffffff"
     bordercolor="#666666"
     borderopacity="1.0"
     inkscape:pageopacity="0.0"
     inkscape:pageshadow="2"
     inkscape:zoom="0.49497475"
     inkscape:cx="384.86812"
     inkscape:cy="617.2032"
     inkscape:document-units="mm"
     inkscape:current-layer="layer1"
     showgrid="false"
     units="px"
     showguides="true"
     inkscape:guide-bbox="true"
     inkscape:window-width="1920"
     inkscape:window-height="1017"
     inkscape:window-x="-8"
     inkscape:window-y="-8"
     inkscape:window-maximized="1"
     inkscape:showpageshadow="0"
     inkscape:pagecheckerboard="1"
     inkscape:deskcolor="#505050" /><metadata
     id="metadata5"><rdf:RDF><cc:Work
         rdf:about=""><dc:format>image/svg+xml</dc:format><dc:type
           rdf:resource="http://purl.org/dc/dcmitype/StillImage" /></cc:Work></rdf:RDF></metadata><g
     inkscape:label="Layer 1"
     inkscape:groupmode="layer"
     id="layer1"
     transform="translate(0,-26.06665)"><g
       style="shape-rendering:geometricPrecision;text-rendering:geometricPrecision"
       id="g7"
       transform="matrix(1.5290081,0,0,1.5290081,-71.662963,-45.596252)"><rect
         width="48"
         height="48"
         rx="6.2199998"
         ry="6.2199998"
         transform="matrix(2.536516,0,0,2.536516,74.590281,74.590286)"
         fill="#b3b3b3"
         id="rect1"
         x="0"
         y="0" /><rect
         width="48"
         height="48"
         rx="6.2199998"
         ry="6.2199998"
         transform="matrix(2.027454,0,0,2.027454,86.807769,86.807774)"
         fill="#c3c3c3"
         stroke="#b8b8b8"
         stroke-width="2"
         id="rect2"
         x="0"
         y="0" /><path
         d="m 59,26.26 v 7.58 h -0.89 q -6.24,0.1 -10,3.25 c -2.599933,2.218275 -4.23815,5.358489 -4.57,8.76 2.449007,-2.500439 5.831558,-3.86361 9.33,-3.76 3.708947,-0.14867 7.271987,1.455069 9.62,4.33 Q 66,50.75 66,57.82 c 0.0269,2.850902 -0.660683,5.663138 -2,8.18 -1.257179,2.39534 -3.181414,4.375149 -5.54,5.7 -2.477355,1.366829 -5.271166,2.056659 -8.1,2 -4.508113,0.168599 -8.85271,-1.700716 -11.83,-5.09 Q 34,63.55 34,55 v -3.26 c -0.09411,-4.603989 0.881478,-9.167009 2.85,-13.33 1.781869,-3.726433 4.628464,-6.840983 8.18,-8.95 3.758428,-2.164832 8.033264,-3.270691 12.37,-3.2 z m -9,23.25 c -1.417287,-0.0071 -2.806396,0.39576 -4,1.16 -1.174327,0.736409 -2.103587,1.804884 -2.67,3.07 v 2.8 c -0.146785,2.528589 0.484913,5.041423 1.81,7.2 1.132691,1.687631 3.058982,2.667807 5.09,2.59 1.872985,0.03927 3.649603,-0.828558 4.77,-2.33 1.280482,-1.749767 1.926005,-3.883874 1.83,-6.05 0.113858,-2.189976 -0.532632,-4.352008 -1.83,-6.12 -1.191803,-1.538432 -3.055718,-2.403289 -5,-2.32 z m 9,-23.25 v 7.58 h -0.89 q -6.24,0.1 -10,3.25 c -2.599933,2.218275 -4.23815,5.358489 -4.57,8.76 2.449007,-2.500439 5.831558,-3.86361 9.33,-3.76 3.708947,-0.14867 7.271987,1.455069 9.62,4.33 Q 66,50.75 66,57.82 c 0.0269,2.850902 -0.660683,5.663138 -2,8.18 -1.257179,2.39534 -3.181414,4.375149 -5.54,5.7 -2.477355,1.366829 -5.271166,2.056659 -8.1,2 -4.508113,0.168599 -8.85271,-1.700716 -11.83,-5.09 Q 34,63.55 34,55 v -3.26 c -0.09411,-4.603989 0.881478,-9.167009 2.85,-13.33 1.781869,-3.726433 4.628464,-6.840983 8.18,-8.95 3.758428,-2.164832 8.033264,-3.270691 12.37,-3.2 z m -9,23.25 c -1.417287,-0.0071 -2.806396,0.39576 -4,1.16 -1.174327,0.736409 -2.103587,1.804884 -2.67,3.07 v 2.8 c -0.146785,2.528589 0.484913,5.041423 1.81,7.2 1.132691,1.687631 3.058982,2.667807 5.09,2.59 1.872985,0.03927 3.649603,-0.828558 4.77,-2.33 1.280482,-1.749767 1.926005,-3.883874 1.83,-6.05 0.113858,-2.189976 -0.532632,-4.352008 -1.83,-6.12 -1.191803,-1.538432 -3.055718,-2.403289 -5,-2.32 z"
         transform="translate(84.747047,85.482984)"
         fill="#818181"
         id="path2" /></g></g></svg>
