<?xml version="1.0" encoding="UTF-8" standalone="no"?>
<!-- Created with Inkscape (http://www.inkscape.org/) -->

<svg
   width="1024"
   height="1024"
   viewBox="0 0 270.93333 270.93334"
   version="1.1"
   id="svg8"
   inkscape:export-filename="C:\Users\kemon\Desktop\legacy\icons\reload.png"
   inkscape:export-xdpi="96"
   inkscape:export-ydpi="96"
   inkscape:version="1.4 (86a8ad7, 2024-10-11)"
   sodipodi:docname="btn_activate.svg"
   xml:space="preserve"
   xmlns:inkscape="http://www.inkscape.org/namespaces/inkscape"
   xmlns:sodipodi="http://sodipodi.sourceforge.net/DTD/sodipodi-0.dtd"
   xmlns="http://www.w3.org/2000/svg"
   xmlns:svg="http://www.w3.org/2000/svg"
   xmlns:rdf="http://www.w3.org/1999/02/22-rdf-syntax-ns#"
   xmlns:cc="http://creativecommons.org/ns#"
   xmlns:dc="http://purl.org/dc/elements/1.1/"><defs
     id="defs2" /><sodipodi:namedview
     id="base"
     pagecolor="#ffffff"
     bordercolor="#666666"
     borderopacity="1.0"
     inkscape:pageopacity="0.0"
     inkscape:pageshadow="2"
     inkscape:zoom="0.49497475"
     inkscape:cx="384.86812"
     inkscape:cy="617.2032"
     inkscape:document-units="mm"
     inkscape:current-layer="layer1"
     showgrid="false"
     units="px"
     showguides="true"
     inkscape:guide-bbox="true"
     inkscape:window-width="1920"
     inkscape:window-height="1017"
     inkscape:window-x="-8"
     inkscape:window-y="-8"
     inkscape:window-maximized="1"
     inkscape:showpageshadow="0"
     inkscape:pagecheckerboard="1"
     inkscape:deskcolor="#505050" /><metadata
     id="metadata5"><rdf:RDF><cc:Work
         rdf:about=""><dc:format>image/svg+xml</dc:format><dc:type
           rdf:resource="http://purl.org/dc/dcmitype/StillImage" /></cc:Work></rdf:RDF></metadata><g
     inkscape:label="Layer 1"
     inkscape:groupmode="layer"
     id="layer1"
     transform="translate(0,-26.06665)"><g
       style="display:none;shape-rendering:geometricPrecision;text-rendering:geometricPrecision"
       id="g10"
       transform="matrix(1.5290081,0,0,1.5290081,-71.662963,-45.596325)"><rect
         width="48"
         height="48"
         rx="6.2199998"
         ry="6.2199998"
         transform="matrix(2.536516,0,0,2.536516,74.590281,74.590286)"
         fill="#b3b3b3"
         id="rect1-6"
         x="0"
         y="0" /><rect
         width="48"
         height="48"
         rx="6.2199998"
         ry="6.2199998"
         transform="matrix(2.027454,0,0,2.027454,86.807769,86.807774)"
         fill="#c3c3c3"
         stroke="#b8b8b8"
         stroke-width="2"
         id="rect2-1"
         x="0"
         y="0" /><path
         d="m 56.3,54.74 c -2.20508,2.273671 -5.242729,3.548689 -8.41,3.53 -3.748784,0.150444 -7.364957,-1.400394 -9.84,-4.22 Q 34.36,49.83 34.36,42.67 c -0.02794,-2.908395 0.658838,-5.779142 2,-8.36 1.256131,-2.459471 3.184066,-4.512236 5.56,-5.92 2.423466,-1.422926 5.189909,-2.156034 8,-2.12 2.882067,-0.04941 5.715452,0.746716 8.15,2.29 2.44819,1.611222 4.373433,3.901358 5.54,6.59 1.362418,3.099316 2.044415,6.454742 2,9.84 v 3.41 q 0,11.59 -5.76,18.21 -5.76,6.62 -16.31,7.08 H 41.28 V 66 h 2 Q 55.32,65.48 56.3,54.74 Z m -6.15,-3.5 c 1.37212,0.0407 2.721255,-0.358779 3.85,-1.14 1.026709,-0.710926 1.864299,-1.661797 2.44,-2.77 v -3.79 q 0,-4.68 -1.78,-7.26 c -1.033483,-1.635699 -2.845456,-2.61371 -4.78,-2.58 -1.85139,0.0026 -3.570867,0.958711 -4.55,2.53 -1.243345,1.878185 -1.865929,4.0992 -1.78,6.35 -0.09211,2.208267 0.516971,4.389042 1.74,6.23 1.100533,1.590017 2.93779,2.506759 4.87,2.43 z m 6.15,3.5 c -2.20508,2.273671 -5.242729,3.548689 -8.41,3.53 -3.748784,0.150444 -7.364957,-1.400394 -9.84,-4.22 Q 34.36,49.83 34.36,42.67 c -0.02794,-2.908395 0.658838,-5.779142 2,-8.36 1.256131,-2.459471 3.184066,-4.512236 5.56,-5.92 2.423466,-1.422926 5.189909,-2.156034 8,-2.12 2.882067,-0.04941 5.715452,0.746716 8.15,2.29 2.44819,1.611222 4.373433,3.901358 5.54,6.59 1.362418,3.099316 2.044415,6.454742 2,9.84 v 3.41 q 0,11.59 -5.76,18.21 -5.76,6.62 -16.31,7.08 H 41.28 V 66 h 2 Q 55.32,65.48 56.3,54.74 Z m -6.15,-3.5 c 1.37212,0.0407 2.721255,-0.358779 3.85,-1.14 1.026709,-0.710926 1.864299,-1.661797 2.44,-2.77 v -3.79 q 0,-4.68 -1.78,-7.26 c -1.033483,-1.635699 -2.845456,-2.61371 -4.78,-2.58 -1.85139,0.0026 -3.570867,0.958711 -4.55,2.53 -1.243345,1.878185 -1.865929,4.0992 -1.78,6.35 -0.09211,2.208267 0.516971,4.389042 1.74,6.23 1.100533,1.590017 2.93779,2.506759 4.87,2.43 z"
         transform="translate(85.481029,85.48771)"
         fill="#818181"
         id="path2-8" /></g><g
       style="shape-rendering:geometricPrecision;text-rendering:geometricPrecision"
       id="g11"
       transform="matrix(2.2025869,0,0,2.2025869,-162.9115,-144.6812)"><g
         transform="matrix(0.201411,0,0,0.201411,103.24903,68.547206)"
         id="g1"><path
           d="m 135.46666,68.929157 c -51.143857,0 -92.604157,41.460273 -92.604157,92.604163 0,51.14389 41.4603,92.60416 92.604157,92.60416 51.14386,0 92.60417,-41.4603 92.60417,-92.60416 0,-51.14386 -41.46031,-92.604163 -92.60417,-92.604163 z m 0,19.84375 c 40.18445,0 72.76042,32.575943 72.76042,72.760413 0,40.18447 -32.57597,72.76041 -72.76042,72.76041 -40.18445,0 -72.760407,-32.57594 -72.760407,-72.76041 0,-40.18447 32.57595,-72.760413 72.760407,-72.760413 z"
           fill="#656565"
           stroke="#fdfdfd"
           stroke-width="2.6766"
           id="path1" /></g><g
         transform="matrix(0.430669,0,0,0.430669,84.486927,92.313174)"
         id="g3"><g
           opacity="0.2"
           id="g2"><path
             d="m 168,112 v -12 c 0,-11.045695 -8.95431,-20 -20,-20 -11.0457,0 -20,8.954305 -20,20 V 36 C 128,24.954305 119.04569,16 108,16 96.954305,16 88,24.954305 88,36 V 157.26608 L 66.07247,119.28651 C 62.503,113.09205 55.898474,109.27402 48.749178,109.27203 c -7.149296,-0.002 -13.755947,3.81236 -17.328868,10.00483 -3.572921,6.19246 -3.568666,13.82117 0.01116,20.00965 C 64,208 83.81722,232 128,232 c 44.18278,0 80,-35.81722 80,-80 v -40 c 0,-11.04569 -8.95431,-20 -20,-20 -11.0457,0 -20,8.95431 -20,20 z"
             id="path2" /></g><path
           d="m 188,84 c -5.17084,-0.0055 -10.24095,1.429876 -14.6416,4.145 C 170.20612,81.391056 164.48922,76.174099 157.47579,73.651333 150.46235,71.128567 142.7322,71.508551 136,74.707 V 36 C 136,20.536027 123.46397,8 108,8 92.536027,8 80,20.536027 80,36 v 91.41016 L 73.001,115.28662 C 65.303184,101.95314 48.284601,97.33587 34.903417,104.95046 21.522233,112.56506 16.799023,129.55454 24.3301,142.98291 56.77832,211.39941 78.39355,240 128,240 c 48.57831,-0.0549 87.94513,-39.42169 88,-88 V 112 C 215.98266,96.543214 203.45679,84.017338 188,84 Z m 12,68 c -0.0448,39.74594 -32.25406,71.95523 -72,72 -20.17871,0 -34.22656,-5.45459 -46.97461,-18.23828 -12.499,-12.53369 -24.77246,-32.78565 -42.36426,-69.90137 q -0.13916,-0.293 -0.30175,-0.57422 c -3.313573,-5.73966 -1.346841,-13.07876 4.39282,-16.39233 5.739661,-3.31357 13.078757,-1.34684 16.39233,4.39282 l 21.92774,37.97949 c 1.810331,3.13574 5.501151,4.66456 8.998566,3.7274 3.497415,-0.93716 5.9293,-4.1066 5.929164,-7.7274 V 36 c 0,-6.627417 5.37258,-12 12,-12 6.62742,0 12,5.372583 12,12 v 68 c 0,4.41828 3.58172,8 8,8 4.41828,0 8,-3.58172 8,-8 v -4 c 0,-6.627417 5.37258,-12 12,-12 6.62742,0 12,5.372583 12,12 v 12 c 0,4.41828 3.58172,8 8,8 4.41828,0 8,-3.58172 8,-8 0,-6.62742 5.37258,-12 12,-12 6.62742,0 12,5.37258 12,12 z"
           fill="#656565"
           stroke="#ffffff"
           id="path3" /></g></g></g></svg>
