<svg xmlns="http://www.w3.org/2000/svg" viewBox="0 0 270.93333 270.93334" shape-rendering="geometricPrecision" text-rendering="geometricPrecision">
  <defs>
    <linearGradient id="main-gradient" x1="0.5" y1="0" x2="0.5" y2="1" gradientUnits="objectBoundingBox">
      <stop offset="0%" stop-color="#dcdcdc"/>
      <stop offset="98%" stop-color="#c6c6c6"/>
      <stop offset="100%" stop-color="#c6c6c6"/>
    </linearGradient>
    <linearGradient id="mid-gradient" x1="0.5" y1="0" x2="0.5" y2="1" gradientUnits="objectBoundingBox">
      <stop offset="0%" stop-color="#c6c6c6"/>
      <stop offset="100%" stop-color="#9e9e9e"/>
    </linearGradient>
    <linearGradient id="dark-gradient" x1="0.5" y1="0" x2="0.5" y2="1" gradientUnits="objectBoundingBox">
      <stop offset="0%" stop-color="#9e9e9e"/>
      <stop offset="100%" stop-color="#818181"/>
    </linearGradient>
  </defs>
  
  <g transform="translate(0 -.365547)">
    <path d="M135.466665,94.252524l-6.318801,6.428163-2.840754,3.514061-2.485557,4.028315-.771379,2.656973v14.912179h24.960958v-13.609173l-.86867-3.959979-2.019417-4.028315-2.414027-3.514061-7.242353-6.428163Z" fill="url(#main-gradient)" stroke="#dadada" stroke-width="0.541867"/>
    <path d="M122.458383,125.811458v39.034241h2.561242v3.369843h20.97975v-3.269175h2.535907v-39.134909h-26.076899Z" fill="url(#mid-gradient)" stroke="#dadada" stroke-width="0.541867"/>
    <path d="M122.502556,168.736046h25.986838v6.907894h-26.027956l.041118-6.907894Z" fill="url(#dark-gradient)" stroke="#dadada" stroke-width="0.541867"/>
  </g>
  
  <g transform="matrix(.708072 0 0 0.708072 8.624214 39.462546)">
    <path d="M135.466665,94.252524l-6.318801,6.428163-2.840754,3.514061-2.485557,4.028315-.771379,2.656973v14.912179h24.960958v-13.609173l-.86867-3.959979-2.019417-4.028315-2.414027-3.514061-7.242353-6.428163Z" fill="url(#main-gradient)" stroke="#dadada" stroke-width="0.541867"/>
    <path d="M122.458383,125.811458v39.034241h2.561242v3.369843h20.97975v-3.269175h2.535907v-39.134909h-26.076899Z" fill="url(#mid-gradient)" stroke="#dadada" stroke-width="0.541867"/>
    <path d="M122.502556,168.736046h25.986838v6.907894h-26.027956l.041118-6.907894Z" fill="url(#dark-gradient)" stroke="#dadada" stroke-width="0.541867"/>
  </g>
  
  <g transform="matrix(.708072 0 0 0.708072 71.321755 39.462551)">
    <path d="M135.466665,94.252524l-6.318801,6.428163-2.840754,3.514061-2.485557,4.028315-.771379,2.656973v14.912179h24.960958v-13.609173l-.86867-3.959979-2.019417-4.028315-2.414027-3.514061-7.242353-6.428163Z" fill="url(#main-gradient)" stroke="#dadada" stroke-width="0.541867"/>
    <path d="M122.458383,125.811458v39.034241h2.561242v3.369843h20.97975v-3.269175h2.535907v-39.134909h-26.076899Z" fill="url(#mid-gradient)" stroke="#dadada" stroke-width="0.541867"/>
    <path d="M122.502556,168.736046h25.986838v6.907894h-26.027956l.041118-6.907894Z" fill="url(#dark-gradient)" stroke="#dadada" stroke-width="0.541867"/>
  </g>
</svg>