<svg xmlns="http://www.w3.org/2000/svg" viewBox="0 0 270.93333 270.93334" shape-rendering="geometricPrecision" text-rendering="geometricPrecision">
  <defs>
    <!-- Consolidated Gradients -->
    <linearGradient id="gradient1" x1="-0.354867" y1="1.114853" x2="1.247671" y2="-0.033698" gradientUnits="objectBoundingBox">
      <stop offset="0%" stop-color="#808080"/>
      <stop offset="64%" stop-color="#bcbcbc"/>
      <stop offset="100%" stop-color="#fff"/>
    </linearGradient>
    <linearGradient id="gradient2" x1="-0.143038" y1="0.958556" x2="1.092624" y2="0.423663" gradientUnits="objectBoundingBox">
      <stop offset="27%" stop-color="#cdcdcd"/>
      <stop offset="57%" stop-color="#b3b3b3"/>
      <stop offset="91%" stop-color="#bcbcbc"/>
      <stop offset="100%" stop-color="#fff"/>
    </linearGradient>
    <linearGradient id="gradient3" x1="0" y1="0.5" x2="1.970455" y2="0.160675" gradientUnits="objectBoundingBox">
      <stop offset="0%" stop-color="#b1b1b1"/>
      <stop offset="100%" stop-color="#c6c6c6"/>
    </linearGradient>
    <linearGradient id="gradient4" x1="-0.163694" y1="1.106044" x2="1.164463" y2="0.034226" gradientUnits="objectBoundingBox">
      <stop offset="22.5873%" stop-color="#9f9f9f"/>
      <stop offset="100%" stop-color="#afafaf"/>
    </linearGradient>
    <linearGradient id="gradient5" x1="0.5" y1="0" x2="0.5" y2="1" gradientUnits="objectBoundingBox">
      <stop offset="0%" stop-color="#535353"/>
      <stop offset="100%" stop-color="#fff"/>
    </linearGradient>
  </defs>

  <!-- Paths -->
  <path d="M115.690795,67.769641L155.3355,58.558078l3.498061,10.610787-41.976746,3.264857-1.16602-4.664081Z" transform="translate(-1.108003,-0.778413)" fill="url(#gradient1)" stroke-width="0.541867"/>
  <path d="M123.494972,109.97712l21.216557-4.171795-3.218243-11.20425-22.050916.715164-.357583-1.072747l21.693333-4.052601-2.979853-11.20425-23.123663.715165-.834359-3.099048l48.273626-3.695018l15.376044,48.869597.834359,9.654725-68.417435,19.905421-31.348059-2.622271l1.907106-8.701172l1.191942-3.099048l1.787912-2.503077l1.787912-1.549524l2.860659-1.311135l5.482931-2.145495l18.832673,2.741466-13.945714-4.290989l7.509231-3.933407l2.741465-1.907106l14.780075-12.038605Z" transform="translate(-1.108002,-0.778413)" fill="url(#gradient2)" stroke-width="0.541867"/>
  <path d="M115.639915,82.901848l19.569779-.922136l1.690584,5.788966-18.647645,3.278706-2.612718-8.145536Z" transform="translate(-1.108001,-0.778415)" fill="url(#gradient3)" stroke-width="0.541867"/>
  <path d="M120.353055,98.578164l19.006252-.922137q1.844273,5.942655,1.793043,5.942655t-18.186576,3.022556l-2.612719-8.043074Z" transform="translate(-1.108001,-0.778413)" fill="url(#gradient3)" stroke-width="0.541867"/>
  <path d="M146.060823,143.702732l32.762062-8.672311.428263,7.012794-30.620753,5.728007-2.569572-4.06849Z" transform="translate(-1.108003,-0.778411)" fill="url(#gradient4)" stroke-width="0.541867"/>
  <path d="M104.05952,155.717906h5.910064l33.162027-9.029264q3.556983,5.63645,3.50226,5.63645t24.023316-4.26838v14.17321h12.695693l-47.639439,44.272465-44.873854-43.98776h13.258649l-.038716-6.796721Z" transform="translate(-1.108004,-0.778415)" fill="url(#gradient5)" stroke-width="0.541867"/>
  <path d="M98.935483,155.455603h3.619386v5.502645h-14.801232l47.906776,47.49265l51.025932-47.321969h-14.61961v-13.398631h3.791459v10.786114h18.732362l-58.864114,55.415675-55.22275-55.22275l18.474452-.067472-.042661-3.186262Z" transform="translate(-1.108004,-0.778412)" fill="#a5a5a5" stroke-width="0.541867"/>
</svg>
