<svg id="eO9wL1KlnDt1" xmlns="http://www.w3.org/2000/svg" xmlns:xlink="http://www.w3.org/1999/xlink" viewBox="0 0 270.93333 270.93334" shape-rendering="geometricPrecision" text-rendering="geometricPrecision" project-id="c287d30a7f32456ca2d52d34f1de6301" export-id="c89a75c771914d0ea0731d59f212a69d" cached="false"><rect width="48" height="48" rx="6.22" ry="6.22" transform="matrix(2.536516 0 0 2.536516 74.590281 74.590286)" fill="#b3b3b3"/><rect width="48" height="48" rx="6.22" ry="6.22" transform="matrix(2.027454 0 0 2.027454 86.807769 86.807774)" fill="#c3c3c3" stroke="#b8b8b8" stroke-width="2"/><path d="M44.38,45.92h4.9q3.5,0,5.19-1.75c1.161951-1.261967,1.770531-2.936464,1.69-4.65.093984-1.625517-.514144-3.213206-1.67-4.36-1.273072-1.096752-2.9224-1.656089-4.6-1.56-1.601504-.054546-3.170695.459071-4.43,1.45-1.157558.903329-1.818023,2.302179-1.78,3.77h-9.2c-.017366-2.323849.68091-4.596736,2-6.51c1.374948-1.980718,3.271767-3.541787,5.48-4.51c2.433965-1.099685,5.07934-1.652654,7.75-1.62q7.36,0,11.53,3.52c2.814188,2.415271,4.353539,5.996015,4.17,9.7.004329,2.111774-.676397,4.167986-1.94,5.86-1.305894,1.793602-3.061554,3.211238-5.09,4.11c2.344752.741386,4.391043,2.213033,5.84,4.2c1.311291,1.954523,1.985475,4.267009,1.93,6.62.13264,3.824713-1.537114,7.490027-4.51,9.9q-4.51,3.73-11.92,3.73-6.94,0-11.35-3.66c-2.897937-2.363302-4.528526-5.942463-4.41-9.68h9.2c-.033394,1.656855.705775,3.234981,2,4.27c1.350916,1.121821,3.064795,1.712078,4.82,1.66c1.834557.073354,3.628621-.552066,5.02-1.75c1.254666-1.193143,1.932748-2.87012,1.86-4.6q0-6.94-7.64-6.94h-4.84Zm0,0h4.9q3.5,0,5.19-1.75c1.161951-1.261967,1.770531-2.936464,1.69-4.65.093984-1.625517-.514144-3.213206-1.67-4.36-1.273072-1.096752-2.9224-1.656089-4.6-1.56-1.601504-.054546-3.170695.459071-4.43,1.45-1.157558.903329-1.818023,2.302179-1.78,3.77h-9.2c-.017366-2.323849.68091-4.596736,2-6.51c1.374948-1.980718,3.271767-3.541787,5.48-4.51c2.433965-1.099685,5.07934-1.652654,7.75-1.62q7.36,0,11.53,3.52c2.814188,2.415271,4.353539,5.996015,4.17,9.7.004329,2.111774-.676397,4.167986-1.94,5.86-1.305894,1.793602-3.061554,3.211238-5.09,4.11c2.344752.741386,4.391043,2.213033,5.84,4.2c1.311291,1.954523,1.985475,4.267009,1.93,6.62.13264,3.824713-1.537114,7.490027-4.51,9.9q-4.51,3.73-11.92,3.73-6.94,0-11.35-3.66c-2.897937-2.363302-4.528526-5.942463-4.41-9.68h9.2c-.033394,1.656855.705775,3.234981,2,4.27c1.350916,1.121821,3.064795,1.712078,4.82,1.66c1.834557.073354,3.628621-.552066,5.02-1.75c1.254666-1.193143,1.932748-2.87012,1.86-4.6q0-6.94-7.64-6.94h-4.84Z" transform="translate(85.410999 85.467343)" fill="#818181"/></svg>
