<svg width="256" height="256" fill="none" xmlns="http://www.w3.org/2000/svg"><path d="M128.5 201.5c40.283 0 73-32.202 73-72s-32.717-72-73-72-73 32.202-73 72 32.717 72 73 72Z" stroke="#000" stroke-opacity=".5" stroke-width="5"/><path d="M128.5 199.5c40.3 0 73-32.443 73-72.5s-32.7-72.5-73-72.5-73 32.443-73 72.5 32.7 72.5 73 72.5Z" fill="#474747" fill-opacity=".6" stroke="#fff" stroke-width="5"/><path d="M145.344 115.266c3.925 5.737 8.875 7.032 8.875 7.032a5.632 5.632 0 0 0 4.106-.802s8.754-6.6 12.075-9.622c5.071-4.627 14.731-14.558 18.897-20.048 3.381-4.44 10.445-17.271 10.445-17.271.603-1.11.12-1.789-1.148-1.48 0 0-13.886 3.824-18.957 6.045-6.279 2.714-18.052 9.869-23.727 13.693-3.683 2.53-12.135 9.561-12.135 9.561a5.72 5.72 0 0 0-1.811 3.825s.06 4.256 3.38 9.067Z" fill="#000" fill-opacity=".5"/><path d="m142.326 146.046 12.92-21.157a1.626 1.626 0 0 0 .228-1.602 1.608 1.608 0 0 0-.496-.668 1.557 1.557 0 0 0-.759-.321s-4.95-1.295-8.875-7.032c-3.32-4.811-3.38-9.067-3.38-9.067a1.633 1.633 0 0 0-.141-.799 1.596 1.596 0 0 0-.505-.627 1.538 1.538 0 0 0-1.528-.178l-23.304 7.464" fill="#000" fill-opacity=".5"/><path d="m116.486 112.059-62.065 49.162a4.317 4.317 0 0 0-1.15 1.706 4.4 4.4 0 0 0-.239 2.056s.966 5.367 1.932 7.773c.966 2.405 4.347 8.019 6.159 10.424 1.81 2.406 5.916 6.847 8.331 8.636 2.415 1.789 6.883 3.886 6.883 3.886a4.092 4.092 0 0 0 3.864-.432l62.125-49.224" fill="#000" fill-opacity=".5"/><path d="M122.402 127.418a2.259 2.259 0 0 1-.483 2.776l-52.827 44.289a1.844 1.844 0 0 1-2.596-.247 8.363 8.363 0 0 1-.966-1.48 10.95 10.95 0 0 1-.664-1.543 3.02 3.02 0 0 1 .015-1.601c.15-.523.436-.993.83-1.359l53.854-44.413c.785-.617 1.509-.308 1.63.679.115.468.277.923.483 1.357l.724 1.542Z" fill="#000"/><path d="M147.344 113.266c3.925 5.737 8.875 7.032 8.875 7.032a5.632 5.632 0 0 0 4.106-.802s8.754-6.6 12.075-9.622c5.071-4.627 14.731-14.558 18.897-20.048 3.381-4.44 10.445-17.271 10.445-17.271.603-1.11.12-1.789-1.148-1.48 0 0-13.886 3.824-18.957 6.045-6.279 2.714-18.052 9.869-23.727 13.693-3.683 2.53-12.135 9.561-12.135 9.561a5.72 5.72 0 0 0-1.811 3.825s.06 4.256 3.38 9.067Z" fill="#fff"/><path d="m144.326 144.046 12.92-21.157a1.626 1.626 0 0 0 .228-1.602 1.608 1.608 0 0 0-.496-.668 1.557 1.557 0 0 0-.759-.321s-4.95-1.295-8.875-7.032c-3.32-4.811-3.38-9.067-3.38-9.067a1.633 1.633 0 0 0-.141-.799 1.596 1.596 0 0 0-.505-.627 1.538 1.538 0 0 0-1.528-.178l-23.304 7.464" fill="#fff"/><path d="m118.486 110.059-62.065 49.162a4.317 4.317 0 0 0-1.15 1.706 4.4 4.4 0 0 0-.239 2.056s.966 5.367 1.932 7.773c.966 2.405 4.347 8.019 6.159 10.424 1.81 2.406 5.916 6.847 8.331 8.636 2.415 1.789 6.883 3.886 6.883 3.886a4.092 4.092 0 0 0 3.864-.432l62.125-49.224" fill="#fff"/><path d="M124.402 125.418a2.259 2.259 0 0 1-.483 2.776l-52.827 44.289a1.844 1.844 0 0 1-2.596-.247 8.363 8.363 0 0 1-.966-1.48 10.95 10.95 0 0 1-.664-1.543 3.02 3.02 0 0 1 .015-1.601c.15-.523.436-.993.83-1.359l53.854-44.413c.785-.617 1.509-.308 1.63.679.115.468.277.923.483 1.357l.724 1.542Z" fill="#B7B7B7"/></svg>