<svg width="512" height="256" fill="none" xmlns="http://www.w3.org/2000/svg"><path d="M59.087 123.323a5.09 5.09 0 0 1-3.597-1.488 5.073 5.073 0 0 1-1.49-3.591V103.01c0-1.347.536-2.639 1.49-3.591a5.092 5.092 0 0 1 3.597-1.487h259.115a11.503 11.503 0 0 0 6.892-1.966c.821-1.147 3.938-1.966 6.728-1.966h8.205c2.79 0 5.908.82 6.728 1.966a11.338 11.338 0 0 0 6.728 1.966h43.815c2.314.09 4.618-.36 6.728-1.311a16.437 16.437 0 0 1 6.893-1.31h7.712a15.447 15.447 0 0 1 6.728 1.31c2.111.952 4.414 1.4 6.729 1.31h21.825c1.349 0 2.643.536 3.597 1.488a5.074 5.074 0 0 1 1.49 3.591v15.234a5.073 5.073 0 0 1-1.49 3.591 5.09 5.09 0 0 1-3.597 1.488h-20.841a14.965 14.965 0 0 0-6.728 1.31 13.481 13.481 0 0 1-6.892 1.475h-7.877c-2.954 0-5.251-.656-5.251-1.475 0-.819-2.298-1.31-5.087-1.31h-47.425a14.966 14.966 0 0 0-6.729 1.31 13.481 13.481 0 0 1-6.892 1.475h-7.712c-2.79 0-5.908-.656-6.729-1.475a16.435 16.435 0 0 0-6.892-1.31h-4.102a12.648 12.648 0 0 0-7.713 2.457 12.44 12.44 0 0 0-2.462 7.535v8.846a13.583 13.583 0 0 0 3.775 8.846l1.148 1.147c1.97 1.966 3.611 4.751 3.611 6.225 0 1.474-2.298 2.621-5.087 2.621h-30.359a14.287 14.287 0 0 1-8.697-3.604l-30.851-30.797a14.294 14.294 0 0 0-8.862-3.604H210.06c-1.35 0-2.644.535-3.598 1.487a5.077 5.077 0 0 0-1.49 3.591v9.01a13.422 13.422 0 0 0 2.954 8.191 10.149 10.149 0 0 1 2.954 5.897c0 1.638-2.297 3.113-5.087 3.113h-.821a16.104 16.104 0 0 1-9.025-3.44l-5.908-5.243a12.928 12.928 0 0 1-3.938-8.518v-8.518a5.248 5.248 0 0 0-5.087-5.242H59.087Z" fill="#656565" fill-opacity=".6" stroke="#fff" stroke-width="2"/><path d="M212 218h89l-44.5 36-44.5-36Z" fill="#fff"/></svg>