<svg width="512" height="256" fill="none" xmlns="http://www.w3.org/2000/svg"><path d="M327.657 114.567c-.674-.172-1.18-1.892-1.18-3.784v-4.645c0-.688-2.192-1.376-5.059-1.376h-1.686c-2.698 0-5.058.688-5.058 1.548 0 .86-.169 3.957-.338 6.709l-1.011 15.826a5.721 5.721 0 0 1-1.736 3.627 5.508 5.508 0 0 1-3.66 1.534H85.352a66.994 66.994 0 0 1-10.118-.86l-12.477-2.409-6.408-1.032c-.674-.172-1.349.172-1.349.688v28.384c0 .86.506 1.376 1.012 1.204l6.07-.86 13.152-2.064c2.867-.344 7.25-.688 10.118-.688h222.577a4.656 4.656 0 0 1 3.385 1.102 4.844 4.844 0 0 1 1.673 3.198c.042.627.208 1.238.488 1.798a4.615 4.615 0 0 0 1.14 1.456 4.533 4.533 0 0 0 1.61.882c.59.18 1.21.236 1.821.165h134.895a5.01 5.01 0 0 0 3.577-1.511 5.215 5.215 0 0 0 1.482-3.65v-38.877c0-1.376-.674-2.408-1.686-2.408s-1.686-1.204-1.686-2.753V93.236c0-1.204-2.192-2.236-5.059-2.236-2.698 0-5.059 1.032-5.059 2.236v9.806a5.07 5.07 0 0 1-.337 2.003 4.974 4.974 0 0 1-1.092 1.699 4.86 4.86 0 0 1-1.666 1.114 4.798 4.798 0 0 1-1.963.344h-13.49a5.178 5.178 0 0 0-3.53 1.56 5.38 5.38 0 0 0-1.528 3.601v7.053c0 .411-.16.804-.445 1.095-.284.29-.67.453-1.073.453h-24.112c-.675 0-1.349-.516-1.349-1.032v-3.44c0-1.377-.675-2.409-1.349-2.409h-58.68a23.321 23.321 0 0 1-6.239-.516Z" fill="#656565" fill-opacity=".6" stroke="#fff" stroke-width="2"/><path d="M212 218h89l-44.5 36-44.5-36Z" fill="#fff"/></svg>