<svg width="512" height="256" fill="none" xmlns="http://www.w3.org/2000/svg"><path d="M387.535 96.487a11.385 11.385 0 0 0 3.912 4.814 11.36 11.36 0 0 0 5.854 2.044h36.728a6.114 6.114 0 0 1 4.833 2.081 6.12 6.12 0 0 1 1.434 5.068l-.291 2.043-2.186 14.444-.729 5.252a96.51 96.51 0 0 0-1.166 14.445v10.359c0 4.085-2.769 5.398-5.976 3.21l-42.413-29.327a134.684 134.684 0 0 0-12.68-7.149l-5.101-2.334a49.493 49.493 0 0 0-13.846-3.502l-109.603-8.171c-4.081-.291-10.639-.583-14.575-.583h-18.801c-4.081 0-8.016-1.605-8.745-3.648-.729-2.042-4.81-3.647-8.745-3.647h-56.842c-3.935 0-7.287-1.022-7.287-2.189s-3.353-2.188-7.288-2.188H91.958c-3.936 0-7.58-1.022-8.017-2.189a4.084 4.084 0 0 0-3.643-2.188c-1.603 0-2.915-2.335-2.915-5.107a5.11 5.11 0 0 1 1.494-3.61 5.098 5.098 0 0 1 3.607-1.497c2.77 0 5.101-1.75 5.101-3.939 0-2.188 2.332-4.669 5.101-5.544a3.785 3.785 0 0 1 4.814 2.054c.254.594.353 1.243.287 1.885 0 3.064 3.353 5.544 7.288 5.544h17.49c3.935 0 7.287-1.313 7.287-2.918 0-1.604 3.352-2.918 7.288-2.918h53.635c3.705-.04 7.394.501 10.931 1.605 2.041.876 4.518.876 5.247 0 .729-.875 4.81-1.605 8.891-1.605h41.684c3.99-.008 7.962.532 11.805 1.605 2.478.876 5.539.292 6.705-1.459 1.166-1.75 5.684-3.064 9.619-3.064h4.81c3.935 0 7.579 1.314 7.87 2.918.292 1.605 3.79 4.378 7.288 5.982a41.356 41.356 0 0 0 13.992 2.919h6.85a24.903 24.903 0 0 0 13.117-4.523l2.186-1.751a69.874 69.874 0 0 0 8.017-7.733c1.166-1.751 3.206-2.48 4.518-1.605a10.658 10.658 0 0 1 3.061 5.544 8.455 8.455 0 0 0 5.392 5.544l11.514 4.086 3.79 1.459a17.202 17.202 0 0 1 9.328 9.337l.145.146Zm-225.399 77.62a32.294 32.294 0 0 1-6.413 3.94 39.858 39.858 0 0 1-10.639 1.896 60.01 60.01 0 0 1-10.931-.583 58.707 58.707 0 0 1-10.494-3.794 77.37 77.37 0 0 1-9.62-5.252 80.434 80.434 0 0 1-8.162-7.295 60.242 60.242 0 0 1-6.704-8.025l-4.518-7.733a9.636 9.636 0 0 1 .291-8.754 4.667 4.667 0 0 0 .173-5.371 4.657 4.657 0 0 0-1.339-1.34c-2.186-1.605-5.975-.146-8.162 3.355-2.186 3.502-4.08 8.463-3.935 11.381a48.78 48.78 0 0 0 1.75 10.942 36.913 36.913 0 0 0 4.226 9.338 62.92 62.92 0 0 0 9.328 8.754c3.789 2.918 7.141 5.836 7.287 6.712a2.477 2.477 0 0 1-.729 2.626c-.728.584-4.664-.875-8.745-3.21l-1.165-.729a49.582 49.582 0 0 1-11.806-9.192 51.228 51.228 0 0 1-6.85-12.11 64.403 64.403 0 0 1-2.915-14.736 37.977 37.977 0 0 1 1.457-12.84 20.424 20.424 0 0 1 6.122-7.732 56.474 56.474 0 0 0 6.996-5.69l5.83-6.128c1.457-1.751 3.935-1.459 5.538.729a33.056 33.056 0 0 0 5.976 5.982c1.749 1.167 4.372.438 5.975-1.751a8.907 8.907 0 0 1 3.593-2.644c2.82-1.129 5.694-.544 7.193-.353l7.287 1.459c3.644 1.459 5.152 2.259 8.308 3.727a87.859 87.859 0 0 1 9.619 5.398 65.78 65.78 0 0 1 8.162 7.295 48.11 48.11 0 0 1 7.142 8.609 58.076 58.076 0 0 1 4.226 10.067 40.104 40.104 0 0 1 1.895 10.505 24.828 24.828 0 0 1-1.457 7.149 13.999 13.999 0 0 1-3.79 5.398Z" fill="#656565" fill-opacity=".6"/><path d="M128.031 115.959c1.166 1.751-3.06 6.207-3.789 6.937-6.996 7.732-15.158 8.754-20.259 11.964-.291.291-1.166.875-1.457.583-.292-.292.145-1.605 1.02-2.48a4.371 4.371 0 0 1 1.603-.876c.729-.291 9.474-3.209 11.806-8.316 1.166-2.626-1.312-4.894 3.789-9.271l7.287 1.459Z" fill="#656565" fill-opacity=".6"/><path d="M120.744 114.5c-1.499-.191-4.373-.776-7.193.353a8.907 8.907 0 0 0-3.593 2.644c-1.603 2.189-4.226 2.918-5.975 1.751a33.056 33.056 0 0 1-5.976-5.982c-1.603-2.188-4.081-2.48-5.538-.729l-5.83 6.128a56.474 56.474 0 0 1-6.996 5.69 20.424 20.424 0 0 0-6.122 7.732 37.977 37.977 0 0 0-1.457 12.84 64.403 64.403 0 0 0 2.915 14.736 51.228 51.228 0 0 0 6.85 12.11 49.582 49.582 0 0 0 11.806 9.192l1.165.729c4.081 2.335 8.017 3.794 8.745 3.21a2.477 2.477 0 0 0 .729-2.626c-.146-.876-3.498-3.794-7.287-6.712a62.92 62.92 0 0 1-9.328-8.754 36.913 36.913 0 0 1-4.227-9.338 48.78 48.78 0 0 1-1.749-10.942c-.146-2.918 1.75-7.879 3.935-11.381 2.187-3.501 5.976-4.96 8.162-3.355a4.657 4.657 0 0 1 2.035 3.103 4.67 4.67 0 0 1-.869 3.608 9.636 9.636 0 0 0-.291 8.754l4.518 7.733a60.242 60.242 0 0 0 6.704 8.025 80.434 80.434 0 0 0 8.162 7.295 77.37 77.37 0 0 0 9.62 5.252 58.707 58.707 0 0 0 10.494 3.794 60.01 60.01 0 0 0 10.931.583 39.858 39.858 0 0 0 10.639-1.896 32.294 32.294 0 0 0 6.413-3.94 13.999 13.999 0 0 0 3.79-5.398 24.828 24.828 0 0 0 1.457-7.149 40.104 40.104 0 0 0-1.895-10.505 58.076 58.076 0 0 0-4.226-10.067 48.11 48.11 0 0 0-7.142-8.609 65.78 65.78 0 0 0-8.162-7.295 87.859 87.859 0 0 0-9.619-5.398c-3.156-1.468-4.664-2.268-8.308-3.727m-7.287-1.459 7.287 1.459m-7.287-1.459c-5.101 4.377-2.623 6.645-3.789 9.271-2.332 5.107-11.077 8.025-11.806 8.316a4.371 4.371 0 0 0-1.603.876c-.875.875-1.312 2.188-1.02 2.48.291.292 1.166-.292 1.457-.583 5.101-3.21 13.263-4.232 20.259-11.964.729-.73 4.955-5.186 3.789-6.937m259.504-19.472a11.385 11.385 0 0 0 3.912 4.814 11.36 11.36 0 0 0 5.854 2.044h36.728a6.114 6.114 0 0 1 4.833 2.081 6.12 6.12 0 0 1 1.434 5.068l-.291 2.043-2.186 14.444-.729 5.252a96.51 96.51 0 0 0-1.166 14.445v10.359c0 4.085-2.769 5.398-5.976 3.21l-42.413-29.327a134.684 134.684 0 0 0-12.68-7.149l-5.101-2.334a49.493 49.493 0 0 0-13.846-3.502l-109.603-8.171c-4.081-.291-10.639-.583-14.575-.583h-18.801c-4.081 0-8.016-1.605-8.745-3.648-.729-2.042-4.81-3.647-8.745-3.647h-56.842c-3.935 0-7.287-1.022-7.287-2.189s-3.353-2.188-7.288-2.188H91.958c-3.936 0-7.58-1.022-8.017-2.189a4.084 4.084 0 0 0-3.643-2.188c-1.603 0-2.915-2.335-2.915-5.107a5.11 5.11 0 0 1 1.494-3.61 5.098 5.098 0 0 1 3.607-1.497c2.77 0 5.101-1.75 5.101-3.939 0-2.188 2.332-4.669 5.101-5.544a3.785 3.785 0 0 1 4.814 2.054c.254.594.353 1.243.287 1.885 0 3.064 3.353 5.544 7.288 5.544h17.49c3.935 0 7.287-1.313 7.287-2.918 0-1.604 3.352-2.918 7.288-2.918h53.635c3.705-.04 7.394.501 10.931 1.605 2.041.876 4.518.876 5.247 0 .729-.875 4.81-1.605 8.891-1.605h41.684c3.99-.008 7.962.532 11.805 1.605 2.478.876 5.539.292 6.705-1.459 1.166-1.75 5.684-3.064 9.619-3.064h4.81c3.935 0 7.579 1.314 7.87 2.918.292 1.605 3.79 4.378 7.288 5.982a41.35 41.35 0 0 0 13.992 2.919h6.85a24.903 24.903 0 0 0 13.117-4.523l2.186-1.751a69.874 69.874 0 0 0 8.017-7.733c1.166-1.751 3.206-2.48 4.518-1.605a10.658 10.658 0 0 1 3.061 5.544 8.455 8.455 0 0 0 5.392 5.544l11.514 4.086 3.79 1.459a17.202 17.202 0 0 1 9.328 9.337l.145.146Z" stroke="#fff" stroke-width="2"/><path d="M212 218h89l-44.5 36-44.5-36Z" fill="#fff"/></svg>