<svg width="512" height="256" fill="none" xmlns="http://www.w3.org/2000/svg"><path d="M315.11 129.354a2.459 2.459 0 0 1 .466-2.167 2.49 2.49 0 0 1 2.023-.928h20.845c1.711 0 3.111 1.083 3.111 2.321 0 1.239 1.4 2.167 3.111 2.167 1.711 0 14.777.155 20.689.774 8.711.774 25.666 3.56 34.222 5.107 8.555 1.548 35.466 8.203 35.466 8.203a2.503 2.503 0 0 0 2.07-.538 2.474 2.474 0 0 0 .886-1.938V82.614a2.469 2.469 0 0 0-.933-2.013 2.494 2.494 0 0 0-2.178-.464s-26.911 4.953-37.022 6.191c-10.112 1.238-25.511 2.322-34.067 3.096l-19.133 1.238c-1.711.154-3.111.774-3.111 1.702 0 .929-1.4 1.393-3.111 1.393h-17.112a8.109 8.109 0 0 1-5.288-2.167l-4.978-4.488a8.189 8.189 0 0 1-2.178-4.334c0-1.083 1.4-2.011 3.111-1.857l10.889.774a2.812 2.812 0 0 0 2.184-.698 2.775 2.775 0 0 0 .927-2.088V66.672a2.622 2.622 0 0 0-.931-2.046 2.65 2.65 0 0 0-2.18-.585s-9.022 1.239-13.067 1.548c-6.844.464-20.844.31-27.844 0-4.2-.31-13.533-1.548-13.533-1.548a2.66 2.66 0 0 0-2.18.585 2.636 2.636 0 0 0-.931 2.046V81.53c-.013.385.065.767.227 1.116a2.488 2.488 0 0 0 2.884 1.36l11.2-2.011a4.377 4.377 0 0 1 2.6.373 4.351 4.351 0 0 1 1.911 1.793 13.87 13.87 0 0 1 1.555 4.953 8.448 8.448 0 0 1-.155 1.857 5.27 5.27 0 0 1-1.812 1.96 5.31 5.31 0 0 1-2.544.826h-11.511a15.621 15.621 0 0 1-5.911-1.238l-1.555-.62a20.162 20.162 0 0 0-6.067-1.237h-59.267c-1.711 0-3.111 1.083-3.111 2.321 0 1.239-1.4 2.322-3.111 2.322h-51.488a5.93 5.93 0 0 1-4.512-2.322 10.49 10.49 0 0 1-1.555-5.417v-4.643a3.09 3.09 0 0 0-.911-2.189 3.12 3.12 0 0 0-2.2-.906h-1.556a3.12 3.12 0 0 0-2.2.906 3.09 3.09 0 0 0-.911 2.19v8.047a2.15 2.15 0 0 1-.881 1.89 2.181 2.181 0 0 1-2.074.277h-.311A26.107 26.107 0 0 0 116 92.21H77.111a3.12 3.12 0 0 0-2.2.906A3.088 3.088 0 0 0 74 95.305v13.929c0 .821.328 1.608.911 2.189.584.58 1.375.907 2.2.907h17.111a3.12 3.12 0 0 1 2.2.906c.584.581.911 1.368.911 2.189v3.095c0 .821.328 1.609.912 2.189a3.117 3.117 0 0 0 2.199.907H123a7.174 7.174 0 0 1 4.978 2.321 7.95 7.95 0 0 0 5.133 2.322h57.555a3.12 3.12 0 0 1 2.2.906c.584.581.911 1.368.911 2.189v3.096c0 .821.328 1.608.912 2.188a3.115 3.115 0 0 0 2.199.907h50.711a9.828 9.828 0 0 0 5.445-2.012l8.4-7.738c1.244-1.084 2.333-.62 2.333 1.083v4.024a7.875 7.875 0 0 0 2.333 5.107l10.112 8.358a10.764 10.764 0 0 0 5.6 2.012c3.175.07 6.344.328 9.488.774a42.827 42.827 0 0 1 6.067 2.012c.85.395 1.6.975 2.192 1.699a6.174 6.174 0 0 1 1.23 2.48s3.111 19.036 2.489 26.31a53.168 53.168 0 0 1-2.022 7.894 2.319 2.319 0 0 0 .197 2.216 2.334 2.334 0 0 0 1.981 1.034s10.266.619 14.622-.31a47.543 47.543 0 0 0 7.778-3.095 4.474 4.474 0 0 0 2.022-4.488l-12.756-53.551Z" fill="#656565" fill-opacity=".6" stroke="#fff" stroke-width="2"/><path d="M212 218h89l-44.5 36-44.5-36Z" fill="#fff"/></svg>