<svg width="256" height="256" fill="none" xmlns="http://www.w3.org/2000/svg"><path d="M106.931 154.491h-.806l-83.074-11.61a12.936 12.936 0 0 1-7.258-4.004l-2.823-2.802a9.196 9.196 0 0 1-2.28-3.901 9.143 9.143 0 0 1-.14-4.507l1.21-7.206c.24-1.422.8-2.772 1.638-3.95a9.658 9.658 0 0 1 3.201-2.856l6.05-3.202a17.447 17.447 0 0 1 6.855-1.602h1.21l81.056 11.61a6.87 6.87 0 0 1 4.033 2.402 4.791 4.791 0 0 1 .807 4.004l-3.63 22.819a6.402 6.402 0 0 1-2.217 3.404 6.487 6.487 0 0 1-3.832 1.401Z" fill="#656565" fill-opacity=".6"/><path d="M100.479 188.92h-.807l-82.67-11.61a15.76 15.76 0 0 1-7.662-4.003l-2.823-3.203a9.993 9.993 0 0 1-2.092-3.741 9.938 9.938 0 0 1-.327-4.266l1.21-7.606a12.007 12.007 0 0 1 4.839-6.806l6.049-3.203a17.429 17.429 0 0 1 6.855-1.601h1.613l81.057 11.61a7.252 7.252 0 0 1 3.63 2.402 5.576 5.576 0 0 1 .806 4.403l-3.629 22.42a6.397 6.397 0 0 1-2.114 3.646 6.478 6.478 0 0 1-3.935 1.558Z" fill="#656565" fill-opacity=".6"/><path d="m23.051 142.881 83.074 11.61h.806a6.487 6.487 0 0 0 3.832-1.401 6.402 6.402 0 0 0 2.217-3.404l3.63-22.819a4.79 4.79 0 0 0-.807-4.004 6.87 6.87 0 0 0-4.033-2.402l-81.057-11.61h-1.21a17.447 17.447 0 0 0-6.855 1.602l-6.049 3.202a9.658 9.658 0 0 0-3.201 2.856 9.568 9.568 0 0 0-1.638 3.95l-1.21 7.206a9.143 9.143 0 0 0 .14 4.507 9.196 9.196 0 0 0 2.28 3.901l2.822 2.802a12.936 12.936 0 0 0 7.26 4.004Zm0 0a17.429 17.429 0 0 0-6.855 1.601l-6.05 3.203a12.007 12.007 0 0 0-4.838 6.806l-1.21 7.606a9.938 9.938 0 0 0 .327 4.266 9.993 9.993 0 0 0 2.092 3.741l2.823 3.203a15.76 15.76 0 0 0 7.662 4.003l82.67 11.61h.807a6.478 6.478 0 0 0 3.935-1.558 6.397 6.397 0 0 0 2.114-3.646l3.629-22.42a5.576 5.576 0 0 0-.806-4.403 7.252 7.252 0 0 0-3.63-2.402l-81.057-11.61h-1.613Z" stroke="#fff" stroke-width="2"/><path d="M69.123 185.652h-.826l-10.32-1.589a4.678 4.678 0 0 1-2.115-.549 4.48 4.48 0 0 1-1.601-1.437 8.875 8.875 0 0 1-1.239-4.37l11.147-59.186a5.51 5.51 0 0 1 1.959-3.429 5.92 5.92 0 0 1 3.82-1.338h1.239l9.495 1.589a6.211 6.211 0 0 1 3.715 2.383 5.49 5.49 0 0 1 1.103 2.058c.213.753.26 1.541.136 2.312l-10.734 58.789a5.507 5.507 0 0 1-1.959 3.428 5.915 5.915 0 0 1-3.82 1.339Z" fill="#616161" stroke="#fff" stroke-width="2"/><path d="M244.13 167.652a4.417 4.417 0 0 1-2.616-.528 4.499 4.499 0 0 1-1.853-1.943l-4.875-10.706a8.151 8.151 0 0 0-2.843-2.471l-84.089-29.648h-1.218l-2.438.823-2.437 1.235a2.499 2.499 0 0 0-.406 1.648l4.062 8.647a4.169 4.169 0 0 1 .406 3.706 3.73 3.73 0 0 1-.827 1.782 3.655 3.655 0 0 1-1.61 1.101l-2.031.823-2.032.824a4.826 4.826 0 0 1-2.654-.773 4.927 4.927 0 0 1-1.814-2.11l-11.374-24.295c-.407-1.235-2.031-2.059-2.844-2.471l-49.56-14H66.61l-3.25 1.235-4.874.824h-2.031l-12.187-2.06a8.077 8.077 0 0 1-3.076-1.484 8.209 8.209 0 0 1-2.205-2.633l-1.625-4.942a13.768 13.768 0 0 1-.406-7l1.218-3.294a9.467 9.467 0 0 1 4.063-5.765l5.687-4.118A8.863 8.863 0 0 1 53.61 68h.813l15.436 2.059a7.247 7.247 0 0 1 3.291 1.147 7.37 7.37 0 0 1 2.396 2.559l1.219 2.059 3.25 2.47 51.996 15.648h4.875l5.687-1.235h6.5l41.435 13.177h4.468l5.687-1.647h6.906l23.561 9.471a7.72 7.72 0 0 1 3.09 2.066 7.859 7.859 0 0 1 1.785 3.287l4.062 13.177a28.673 28.673 0 0 0 2.031 5.354l9.75 21.001a5.002 5.002 0 0 1 .307 3.713 4.926 4.926 0 0 1-2.338 2.875l-3.656 1.647-2.031.824Z" fill="#656565" fill-opacity=".6" stroke="#fff" stroke-width="2"/><path d="M199.308 126.826c46.194 13.496 29.986 95.286-95.63 17.585" stroke="#fff" stroke-width="2" stroke-miterlimit="10" stroke-linecap="round"/><path d="M84 218h89l-44.5 36L84 218Z" fill="#fff"/></svg>