<svg width="512" height="256" fill="none" xmlns="http://www.w3.org/2000/svg"><path d="M389.065 123.816a11.105 11.105 0 0 1-3.912-4.668l-.146-.142a16.664 16.664 0 0 0-3.734-5.431 17.245 17.245 0 0 0-5.594-3.625l-3.789-1.415-11.515-3.962a8.493 8.493 0 0 1-3.366-2.055 8.151 8.151 0 0 1-2.026-3.322 10.254 10.254 0 0 0-3.061-5.377c-1.312-.849-3.352-.141-4.518 1.557a68.903 68.903 0 0 1-8.016 7.499l-2.187 1.698a25.417 25.417 0 0 1-13.117 4.387h-6.85a42.474 42.474 0 0 1-13.992-2.83c-3.498-1.557-10.68-7.504-10.68-7.504l-1.413-2.612V90.94a4.508 4.508 0 0 1 3.051-1.326h8.744l21.782.137c.812-.816 2.981-1.911 3.017-3.063v-8.3a4.543 4.543 0 0 0-1.321-3.063A4.508 4.508 0 0 0 323.371 74h-69.977a4.508 4.508 0 0 0-3.051 1.326 4.547 4.547 0 0 0-1.321 3.063v6.837a4.548 4.548 0 0 0 1.321 3.063 4.509 4.509 0 0 0 3.051 1.326h23.318a4.508 4.508 0 0 1 3.051 1.326v5.073l-2.715 2.753s-7.62 3.967-10.097 3.118a44.83 44.83 0 0 0-11.806-1.557h-41.684c-4.081 0-8.162.708-8.891 1.557-.728.849-3.206.849-5.247 0a36.41 36.41 0 0 0-10.931-1.557h-53.635c-3.935 0-7.288 1.274-7.288 2.83 0 1.557-3.352 2.83-7.287 2.83h-17.49c-3.935 0-7.287-2.405-7.287-5.377a3.583 3.583 0 0 0-.288-1.828 3.696 3.696 0 0 0-1.167-1.46 3.85 3.85 0 0 0-1.752-.726 3.897 3.897 0 0 0-1.894.194c-2.77.849-5.102 3.254-5.102 5.377 0 2.122-2.332 3.82-5.1 3.82a5.18 5.18 0 0 0-3.608 1.451A4.88 4.88 0 0 0 75 110.941c0 2.688 1.312 4.952 2.915 4.952.75-.005 1.486.19 2.129.565a4.008 4.008 0 0 1 1.515 1.558c.437 1.132 4.08 2.122 8.016 2.122h32.064c3.936 0 7.288.991 7.288 2.123 0 1.131 3.352 2.122 7.287 2.122h56.842c3.935 0 8.016 1.556 8.745 3.537.729 1.981 4.664 3.538 8.745 3.538h18.802c3.935 0 10.493.283 14.574.566l109.603 7.924a50.766 50.766 0 0 1 13.846 3.396l5.102 2.264a136.069 136.069 0 0 1 12.68 6.933l42.412 28.441c3.207 2.123 5.976.849 5.976-3.113v-10.046a90.825 90.825 0 0 1 1.166-14.008l.729-5.094 2.186-14.009.292-1.981a5.78 5.78 0 0 0-.146-2.614 5.894 5.894 0 0 0-1.288-2.3 6.123 6.123 0 0 0-2.182-1.539 6.265 6.265 0 0 0-2.652-.48h-36.728a11.595 11.595 0 0 1-5.853-1.982Z" fill="#656565" fill-opacity=".6" stroke="#fff" stroke-width="2"/><path d="M212 218h89l-44.5 36-44.5-36Z" fill="#fff"/></svg>