<svg width="512" height="256" fill="none" xmlns="http://www.w3.org/2000/svg"><path d="M375.929 123.494a42.16 42.16 0 0 0-8.354.988l-8.921 2.256a11.794 11.794 0 0 1-7.93-1.269l-12.744-7.617c-1.982-1.128-3.681-3.385-3.681-4.937 0-1.551-1.983-2.68-4.249-2.539l-33.984.988a3.83 3.83 0 0 1-3.879-2.15 3.788 3.788 0 0 1-.369-1.518 4.084 4.084 0 0 1 2.666-3.692 4.102 4.102 0 0 1 1.582-.257h11.328a4.396 4.396 0 0 0 2.965-1.278 4.363 4.363 0 0 0 1.283-2.953V88.23a4.362 4.362 0 0 0-1.283-2.953A4.397 4.397 0 0 0 307.394 84h-77.881a4.397 4.397 0 0 0-2.964 1.278 4.368 4.368 0 0 0-1.284 2.953v9.874a4.368 4.368 0 0 0 1.284 2.953 4.401 4.401 0 0 0 2.964 1.279h22.657a4.395 4.395 0 0 1 2.964 1.278 4.368 4.368 0 0 1 1.284 2.953v1.27a4.37 4.37 0 0 1-1.235 3.043 4.4 4.4 0 0 1-3.013 1.329l-41.631 1.411c-2.266 0-4.956-.565-5.664-1.411a10.646 10.646 0 0 0-5.664-1.41h-54.375c-2.266 0-4.956.564-5.664 1.41-.708.846-3.399 1.411-5.806 1.411H99.24a3.978 3.978 0 0 1-2.843-.904 3.947 3.947 0 0 1-1.405-2.623c0-1.833-1.416-1.974-2.974-.423l-.85.847a11.921 11.921 0 0 1-7.362 3.103h-1.558a4.396 4.396 0 0 0-2.965 1.278A4.364 4.364 0 0 0 78 117.852v8.463a4.364 4.364 0 0 0 1.284 2.953 4.402 4.402 0 0 0 2.964 1.279h50.835c2.407 0 4.956 1.269 5.664 2.821a7.096 7.096 0 0 0 5.806 2.962l176.86 5.501c2.795.168 5.512.989 7.929 2.398l21.524 13.964a12.645 12.645 0 0 0 7.788 1.551l8.779-1.41a23.726 23.726 0 0 1 8.355.282l49.277 12.271a3.258 3.258 0 0 0 1.508.046 3.257 3.257 0 0 0 2.3-1.817c.214-.461.316-.965.298-1.473v-7.194c0-2.256.142-6.206.425-8.463l.567-5.783c.313-2.808.834-5.59 1.557-8.322l2.124-8.886a3.229 3.229 0 0 0-.516-2.965 3.26 3.26 0 0 0-2.741-1.266l-54.658-1.27Zm-94.023-15.515a4.362 4.362 0 0 1-1.283 2.953 4.4 4.4 0 0 1-2.965 1.278h-8.496a4.396 4.396 0 0 1-2.965-1.278 4.362 4.362 0 0 1-1.283-2.953v-1.411a4.362 4.362 0 0 1 1.283-2.953 4.396 4.396 0 0 1 2.965-1.278h8.496a4.4 4.4 0 0 1 2.965 1.278 4.362 4.362 0 0 1 1.283 2.953v1.411Z" fill="#656565" fill-opacity=".6" stroke="#fff" stroke-width="2"/><path d="M212 218h89l-44.5 36-44.5-36Z" fill="#fff"/></svg>