<svg width="512" height="256" fill="none" xmlns="http://www.w3.org/2000/svg"><path d="M330.277 70.761c2.683 0 4.769 1.67 4.769 3.493a6.78 6.78 0 0 0 .625 2.853 6.66 6.66 0 0 0 1.76 2.31l6.557 3.947 2.236 1.215c2.384 1.367 5.961 3.644 8.047 5.163l.745.455a10.329 10.329 0 0 0 3.872 1.597c1.383.261 2.803.234 4.176-.078l8.793-2.43h.298a38.79 38.79 0 0 1 9.389-1.063h2.235l9.538.608 37.406 1.974 6.707.303c.256.05.498.156.71.31a1.82 1.82 0 0 1 .739 1.34c.02.265-.017.531-.108.78-.447 1.215-1.192 4.252-1.789 6.833l-1.043 4.859a70.348 70.348 0 0 0-1.341 9.566l-.894 10.781c-.149 2.581-.298 6.985-.298 9.566v9.87c0 1.366-1.192 1.974-2.534 1.518l-7.004-2.581-34.873-12.603-8.346-3.037a16.107 16.107 0 0 0-8.494 0l-8.942 2.581a9.217 9.217 0 0 1-4.109-.176 9.354 9.354 0 0 1-3.641-1.949l-6.259-6.074-6.855-6.529-1.937-1.974c-1.938-1.823-4.322-3.341-5.366-3.189l-6.706.304h-3.428c-2.682.151-4.769-1.367-4.918-3.493a5.225 5.225 0 0 0-.759-2.569 5.105 5.105 0 0 0-1.923-1.834 53.006 53.006 0 0 0-7.154-.911l-173.619-5.922a5.298 5.298 0 0 1-3.014-1.044 5.464 5.464 0 0 1-1.904-2.6 4.998 4.998 0 0 0-1.851-2.461 4.853 4.853 0 0 0-2.918-.88h-8.941L84.23 88.223h-6.557c-.895 0-1.789-2.277-1.789-4.859v-5.922c0-2.733.894-4.859 1.938-4.859h3.427c.895 0 1.64-.455 1.64-.91 0-.456 1.043-1.52 2.384-2.582 1.341-1.063 2.385-.456 2.385.911s2.086 2.581 4.769 2.581h36.512c1.043 0 2.235-1.214 2.682-2.58.447-1.368 1.491-2.582 2.534-2.582h6.408l42.921-1.063 9.388-.304h.299a9.546 9.546 0 0 1 6.259 1.519 10.431 10.431 0 0 0 6.259 1.67h10.134l114.454 1.518Zm-255.883 67a2.41 2.41 0 0 1-1.238-1.345 2.473 2.473 0 0 1 .046-1.844l2.683-6.985.745-1.973a40.906 40.906 0 0 1 4.769-8.656l1.788-2.429 4.47-5.77a2.97 2.97 0 0 1 1.594-.948 2.932 2.932 0 0 1 1.834.189l6.409 3.188 15.35 7.593 7.153 3.644a5.269 5.269 0 0 1 2.058 2.107 5.4 5.4 0 0 1 .625 2.904 5.55 5.55 0 0 0 .492 2.728 5.452 5.452 0 0 0 1.743 2.131l6.706 3.644 61.848 32.95 5.961 3.037c.894.455.745 3.037-.149 5.618l-.596 1.822a57.488 57.488 0 0 1-4.471 8.503c-1.491 2.126-3.726 3.341-4.918 2.734l-6.408-3.341-60.506-31.28-7.005-3.796a7.465 7.465 0 0 0-5.961.152 7.76 7.76 0 0 1-6.11-.152l-7.302-3.492-15.35-7.744-6.26-3.189Z" fill="#656565" fill-opacity=".6"/><path d="M330.277 70.761c2.683 0 4.769 1.67 4.769 3.493a6.78 6.78 0 0 0 .625 2.853 6.66 6.66 0 0 0 1.76 2.31l6.557 3.947 2.236 1.215c2.384 1.367 5.961 3.644 8.047 5.163l.745.455a10.329 10.329 0 0 0 3.872 1.597c1.383.261 2.803.234 4.176-.078l8.793-2.43h.298a38.79 38.79 0 0 1 9.389-1.063h2.235l9.538.608 37.406 1.974 6.707.303c.256.05.498.156.71.31a1.82 1.82 0 0 1 .739 1.34c.02.265-.017.531-.108.78-.447 1.215-1.192 4.252-1.789 6.833l-1.043 4.859a70.348 70.348 0 0 0-1.341 9.566l-.894 10.781c-.149 2.581-.298 6.985-.298 9.566v9.87c0 1.366-1.192 1.974-2.534 1.518l-7.004-2.581-34.873-12.603-8.346-3.037a16.107 16.107 0 0 0-8.494 0l-8.942 2.581a9.217 9.217 0 0 1-4.109-.176 9.354 9.354 0 0 1-3.641-1.949l-6.259-6.074-6.855-6.529-1.937-1.974c-1.938-1.823-4.322-3.341-5.366-3.189l-6.706.304h-3.428c-2.682.151-4.769-1.367-4.918-3.493a5.225 5.225 0 0 0-.759-2.569 5.105 5.105 0 0 0-1.923-1.834 53.006 53.006 0 0 0-7.154-.911l-173.619-5.922a5.298 5.298 0 0 1-3.014-1.044 5.464 5.464 0 0 1-1.904-2.6 4.998 4.998 0 0 0-1.851-2.461 4.853 4.853 0 0 0-2.918-.88h-8.941L84.23 88.223h-6.557c-.895 0-1.789-2.277-1.789-4.859v-5.922c0-2.733.894-4.859 1.938-4.859h3.427c.895 0 1.64-.455 1.64-.91 0-.456 1.043-1.52 2.384-2.582 1.341-1.063 2.385-.456 2.385.911s2.086 2.581 4.769 2.581h36.512c1.043 0 2.235-1.214 2.682-2.58.447-1.368 1.491-2.582 2.534-2.582h6.408l42.921-1.063 9.388-.304h.299a9.546 9.546 0 0 1 6.259 1.519 10.431 10.431 0 0 0 6.259 1.67h10.134l114.454 1.518Zm-255.883 67a2.41 2.41 0 0 1-1.238-1.345 2.473 2.473 0 0 1 .046-1.844l2.683-6.985.745-1.973a40.906 40.906 0 0 1 4.769-8.656l1.788-2.429 4.47-5.77a2.97 2.97 0 0 1 1.594-.948 2.932 2.932 0 0 1 1.834.189l6.409 3.188 15.35 7.593 7.153 3.644a5.269 5.269 0 0 1 2.058 2.107 5.4 5.4 0 0 1 .625 2.904 5.55 5.55 0 0 0 .492 2.728 5.452 5.452 0 0 0 1.743 2.131l6.706 3.644 61.848 32.95 5.961 3.037c.894.455.745 3.037-.149 5.618l-.596 1.822a57.488 57.488 0 0 1-4.471 8.503c-1.491 2.126-3.726 3.341-4.918 2.734l-6.408-3.341-60.506-31.28-7.005-3.796a7.465 7.465 0 0 0-5.961.152 7.76 7.76 0 0 1-6.11-.152l-7.302-3.492-15.35-7.744-6.26-3.189Z" stroke="#fff" stroke-width="2"/><path d="M212 218h89l-44.5 36-44.5-36Z" fill="#fff"/></svg>