<svg width="256" height="256" fill="none" xmlns="http://www.w3.org/2000/svg"><circle cx="128" cy="128" r="72.5" stroke="#000" stroke-opacity=".5" stroke-width="5"/><circle cx="128" cy="128" r="72.5" fill="#474747" fill-opacity=".6" stroke="#fff" stroke-width="5"/><path d="M112.889 183a2.537 2.537 0 0 1-1.803-.754 2.585 2.585 0 0 1-.747-1.82v-33.973l-.127-.129H76.55a2.54 2.54 0 0 1-1.803-.753 2.588 2.588 0 0 1-.747-1.82v-30.502c0-.682.269-1.337.747-1.82a2.54 2.54 0 0 1 1.803-.753h33.662l.127-.129V76.574c0-.683.269-1.337.747-1.82a2.538 2.538 0 0 1 1.803-.754h30.222c.676 0 1.325.271 1.803.754s.747 1.137.747 1.82v33.973l.127.129h33.662a2.54 2.54 0 0 1 1.803.753c.478.483.747 1.138.747 1.82v30.502c0 .682-.269 1.337-.747 1.82a2.54 2.54 0 0 1-1.803.753h-33.662l-.127.129v33.973c0 .683-.269 1.338-.747 1.82a2.537 2.537 0 0 1-1.803.754h-30.222Z" fill="#000" fill-opacity=".5"/><path d="M112.889 183a2.537 2.537 0 0 1-1.803-.754 2.585 2.585 0 0 1-.747-1.82v-33.973l-.127-.129H76.55a2.54 2.54 0 0 1-1.803-.753 2.588 2.588 0 0 1-.747-1.82v-30.502c0-.682.269-1.337.747-1.82a2.54 2.54 0 0 1 1.803-.753h33.662l.127-.129V76.574c0-.683.269-1.337.747-1.82a2.538 2.538 0 0 1 1.803-.754h30.222c.676 0 1.325.271 1.803.754s.747 1.137.747 1.82v33.973l.127.129h33.662a2.54 2.54 0 0 1 1.803.753c.478.483.747 1.138.747 1.82v30.502c0 .682-.269 1.337-.747 1.82a2.54 2.54 0 0 1-1.803.753h-33.662l-.127.129v33.973c0 .683-.269 1.338-.747 1.82a2.537 2.537 0 0 1-1.803.754h-30.222Z" fill="#fff"/></svg>