<svg width="512" height="256" fill="none" xmlns="http://www.w3.org/2000/svg"><path d="M141.2 119.15c1.182-2.042 2.808-1.897 3.547.291l25.128 69.719a6.736 6.736 0 0 0 2.362 2.88 6.866 6.866 0 0 0 3.551 1.204h2.365a2.837 2.837 0 0 0 1.505-.226 2.797 2.797 0 0 0 1.165-.968 2.743 2.743 0 0 0 .138-2.89l-28.527-73.803a18.424 18.424 0 0 1-.887-8.459v-.438a3.887 3.887 0 0 1 .5-1.599 3.948 3.948 0 0 1 1.129-1.25 4.024 4.024 0 0 1 3.248-.651l84.548 18.086a5.32 5.32 0 0 1 2.929 1.934 5.2 5.2 0 0 1 1.062 3.316l-.887 12.836a5.343 5.343 0 0 0 1.047 3.381 5.465 5.465 0 0 0 2.944 2.015l13.598 3.063a4.045 4.045 0 0 0 3.249-.651 3.948 3.948 0 0 0 1.129-1.25 3.906 3.906 0 0 0 .5-1.599l1.774-14.44a3.756 3.756 0 0 1 .496-1.59 3.814 3.814 0 0 1 1.138-1.227c.467-.321 1-.535 1.56-.628a3.91 3.91 0 0 1 1.684.09l28.379 6.272a5.472 5.472 0 0 1 2.944 2.016 5.343 5.343 0 0 1 1.047 3.381l-.887 12.835c-.079 2.846.219 5.69.887 8.46l.591 1.604a9.033 9.033 0 0 0 2.039 3.353 9.178 9.178 0 0 0 3.282 2.189l6.504 2.188a9.754 9.754 0 0 1 3.266 2.293 9.6 9.6 0 0 1 2.055 3.396l2.07 6.417a43.091 43.091 0 0 1 1.182 8.606v7.584c-.02.587.08 1.172.294 1.719a4.382 4.382 0 0 0 2.409 2.456 4.488 4.488 0 0 0 1.731.347l13.303.583a5.069 5.069 0 0 0 3.366-1.082 4.95 4.95 0 0 0 1.808-3.002l1.626-9.772c.268-2.87.169-5.761-.296-8.606l-5.469-23.045a2.597 2.597 0 0 1 .625-2.738 2.674 2.674 0 0 1 1.297-.705 2.695 2.695 0 0 1 1.478.089l7.538 1.458a7.482 7.482 0 0 0 3.833-.387 7.389 7.389 0 0 0 3.114-2.238l.887-1.167a7.219 7.219 0 0 1 2.993-2.382 7.326 7.326 0 0 1 3.806-.535l13.599 2.042a10.79 10.79 0 0 1 6.651 4.376l8.721 14.147a30.304 30.304 0 0 0 5.765 6.564l13.894 11.085a14.453 14.453 0 0 0 7.834 2.771h4.434a4.616 4.616 0 0 0 3.189-1.272 4.495 4.495 0 0 0 1.393-3.104l1.183-37.922c.148-2.479.443-6.272.887-8.751l1.478-9.626a4.34 4.34 0 0 0-.702-3.278 4.452 4.452 0 0 0-2.846-1.827h-1.626a18.694 18.694 0 0 0-8.573.875l-9.46 3.5a19.168 19.168 0 0 1-8.573.73l-37.839-7.439a32.491 32.491 0 0 1-8.13-3.209l-27.344-16.481a39.154 39.154 0 0 0-8.13-3.21l-34.44-8.021a29.05 29.05 0 0 0-8.721-.438l-5.912.584a5.945 5.945 0 0 0-3.313 1.593 5.812 5.812 0 0 0-1.713 3.22l-.295 1.458c-.296 2.334-1.626 3.938-2.809 3.5a6.756 6.756 0 0 1-1.904-1.824 6.653 6.653 0 0 1-1.052-2.405 14.985 14.985 0 0 1 .887-7.439l2.661-6.855a4.327 4.327 0 0 0 .12-3.253 4.395 4.395 0 0 0-2.19-2.435 3.889 3.889 0 0 0-2.922-.252c-.97.3-1.779.968-2.251 1.856a8.802 8.802 0 0 1-2.516 2.663 8.935 8.935 0 0 1-3.397 1.421l-20.841 3.5a6.993 6.993 0 0 0-3.112 1.395 6.863 6.863 0 0 0-2.061 2.69c-.444 1.896-2.661 2.917-5.026 2.48l-83.217-18.233a10.526 10.526 0 0 1-5.912-3.354 14.113 14.113 0 0 1-.887-6.855l.443-4.668c.296-2.333-.887-4.667-2.513-5.105-1.625-.437-3.399 1.021-3.99 3.355l-2.218 8.168a6.409 6.409 0 0 1-2.11 3.104 6.554 6.554 0 0 1-3.506 1.417l-14.781 1.021c-2.513.292-5.174-.729-5.913-2.187a9.5 9.5 0 0 0-5.912-3.063l-3.104-.438a10.918 10.918 0 0 0-6.504 1.021 9.72 9.72 0 0 1-6.651 1.021l-1.626-.292a4.044 4.044 0 0 0-3.203.766 3.95 3.95 0 0 0-1.079 1.277 3.897 3.897 0 0 0-.448 1.604l-.74 9.626a3.89 3.89 0 0 0 .167 1.642 3.9 3.9 0 0 0 .834 1.43 3.99 3.99 0 0 0 1.353.968c.516.225 1.074.34 1.638.336h.739c2.365 0 4.73.729 5.173 1.604.443.875 2.66 2.188 5.026 2.771l4.73 1.167a11.83 11.83 0 0 0 7.242-.583 3.286 3.286 0 0 1 3.683.543c.321.3.577.66.752 1.061a9.226 9.226 0 0 0 2.431 2.766c.99.752 2.124 1.3 3.333 1.61l22.467 4.667a5.63 5.63 0 0 1 3.002 1.85 5.503 5.503 0 0 1 1.285 3.255 19.779 19.779 0 0 1-2.217 8.022l-42.865 76.865a2.311 2.311 0 0 0-.23 2.659 2.35 2.35 0 0 0 1.043.946c.437.202.927.268 1.404.188h4.434a8.355 8.355 0 0 0 3.739-1.186 8.224 8.224 0 0 0 2.765-2.752L141.2 119.15Z" fill="#656565" fill-opacity=".6" stroke="#fff" stroke-width="2"/><path d="M212 218h89l-44.5 36-44.5-36Z" fill="#fff"/></svg>