<svg width="256" height="256" fill="none" xmlns="http://www.w3.org/2000/svg"><path d="M68.192 79.864A10.351 10.351 0 0 1 72.1 77.83a9.679 9.679 0 0 1 4.305-.165l5.085 1.1c2.64.66 5.476 2.86 6.259 4.95.782 2.09 3.618 4.18 6.356 4.62l105.613 16.062c2.738.44 5.085-.22 5.378-1.43a4.523 4.523 0 0 1 1.157-1.793 3.838 3.838 0 0 1 1.777-.957 24.262 24.262 0 0 1 7.236.33l8.019 1.54c2.64.44 5.476 2.42 6.259 4.18a27.856 27.856 0 0 1 1.466 8.801v14.961a12.542 12.542 0 0 0 1.221 4.746 11.158 11.158 0 0 0 2.887 3.724l1.564 1.1c2.249 1.651 2.054 3.741-.489 4.731l-2.542.88c-2.543.99-5.085 3.52-5.574 5.61-.271 1.045-.86 1.949-1.665 2.553-.806.604-1.774.869-2.736.747a7.02 7.02 0 0 1-2.973-1.814 8.227 8.227 0 0 1-1.916-3.136c-.783-2.42-3.618-4.84-6.259-5.39l-25.621-5.611a14.398 14.398 0 0 0-7.236 0c-1.369.66-4.596.66-7.237.11l-1.173-.22c-2.64-.55-6.943-1.65-9.486-2.53l-7.236-2.42a3.506 3.506 0 0 0-1.791-.202 3.654 3.654 0 0 0-1.682.722c-.503.384-.92.895-1.217 1.493a4.84 4.84 0 0 0-.493 1.947 5.891 5.891 0 0 1-.554 2.055 5.29 5.29 0 0 1-1.223 1.648 4.61 4.61 0 0 1-1.698.98 4.281 4.281 0 0 1-1.903.158l-27.381-4.071c-2.738-.44-5.085 0-5.379.88-.293.88 1.663 1.98 4.401 2.42l53.784 8.361c2.738.44 5.77.33 6.845-.33a15.3 15.3 0 0 1 6.846-.55h.977c2.739.22 4.89 1.21 4.89 2.09 0 .88 2.151 2.09 4.792 2.53l30.51 5.941c2.64.44 5.476-.55 6.258-2.42 1.015-1.955 2.556-3.496 4.401-4.401 1.565-.55 3.129 1.1 3.423 3.851a10.869 10.869 0 0 0 1.729 4.294c.866 1.261 1.982 2.276 3.258 2.966l1.76.88c2.543 1.32 2.543 3.3 0 4.62l-1.76.88c-2.543 1.321-4.987 3.851-5.476 5.611a7.763 7.763 0 0 1-1.537 2.672 6.729 6.729 0 0 1-2.375 1.728c-1.565.66-3.814-1.1-4.889-3.85a11.354 11.354 0 0 0-2.797-3.8 9.851 9.851 0 0 0-3.951-2.141l-29.532-5.72c-2.641-.55-4.792 0-4.792 1.21s-2.151 1.76-4.792 1.21l-1.173-.22a19.71 19.71 0 0 1-6.748-2.64c-1.075-.88-4.107-1.98-6.747-2.53l-64.737-11.331c-2.64-.44-5.183.11-5.77 1.32-.586 1.21-3.129 1.76-5.769 1.21l-10.952-2.42a9.328 9.328 0 0 1-3.913-2.224 10.867 10.867 0 0 1-2.64-3.936l-1.368-3.961c-1.173-3.099-3.388-5.55-6.161-6.82a59.045 59.045 0 0 0-7.823-2.2c-1.858-.33-3.227.66-2.934 2.2.591 1.91 1.818 3.487 3.423 4.4 1.662.88 3.422 3.851 3.911 6.601.53 3.036.005 6.186-1.466 8.8-1.37 2.09-4.597 3.631-7.335 3.411h-.978c-2.738-.33-5.965-1.761-7.334-3.301-1.49-1.861-2.504-4.142-2.934-6.6a21.707 21.707 0 0 1 .49-7.151c.586-1.76 1.368-4.95 1.857-6.82.49-1.87-.88-4.29-2.933-4.95-2.054-.66-4.4-3.741-5.183-6.711l-.196-.44c-.458-1.552-1.282-2.935-2.384-4-1.102-1.066-2.442-1.775-3.874-2.05l-14.669-1.98c-2.738-.33-5.28-1.871-5.867-3.411a29.738 29.738 0 0 1-.978-8.25v-.66c.003-3.381.166-6.76.489-10.121.31-2.859.8-5.69 1.467-8.47.452-1.847 1.29-3.544 2.445-4.95.782-.55 3.618-.77 6.356-.33l39.116 6.16c2.957.394 5.935-.512 8.312-2.53Z" fill="#656565" fill-opacity=".6" stroke="#fff" stroke-width="2"/><path d="M84 218h89l-44.5 36L84 218Z" fill="#fff"/></svg>