<svg width="512" height="256" fill="none" xmlns="http://www.w3.org/2000/svg"><path opacity=".99" d="M75 96.626a4.402 4.402 0 0 1 1.32-2.997 4.554 4.554 0 0 1 3.05-1.297h2.913c2.331 0 4.37-1.002 4.37-2.148 0-1.145 1.312-2.147 2.914-2.147 1.603 0 2.914-2.004 2.914-4.294V82.31a3.963 3.963 0 0 1 .933-2.874 4.1 4.1 0 0 1 2.708-1.42 3.395 3.395 0 0 1 2.367.654 3.284 3.284 0 0 1 1.275 2.066c.034.812.232 1.61.582 2.348.35.737.846 1.398 1.457 1.946a12.262 12.262 0 0 0 6.41 1.575h49.965a11.82 11.82 0 0 0 6.264-1.432 9 9 0 0 1 5.098-1.431 8.113 8.113 0 0 1 4.953 1.431 11.229 11.229 0 0 0 6.118 1.432h3.351a12.057 12.057 0 0 0 7.283-2.863 10.117 10.117 0 0 1 5.827-2.863 9.082 9.082 0 0 1 5.681 2.863 10.733 10.733 0 0 0 6.993 2.863h8.594a11.2 11.2 0 0 0 6.555-2.147 8.079 8.079 0 0 1 4.808-2.148c.634-.04 1.259.16 1.747.56.488.399.801.967.875 1.588a1.985 1.985 0 0 0 .492 1.46 2.042 2.042 0 0 0 1.401.687c1.166 0 2.914-1.432 4.225-3.15a8.984 8.984 0 0 1 2.882-2.489 9.147 9.147 0 0 1 3.673-1.09l13.256-.858c2.477-.143 4.225 1.145 3.788 3.006-.437 1.86 1.456 3.15 3.787 3.15h23.599a33.611 33.611 0 0 0 8.449-1.432l4.078-1.432c2.185-.715 3.788.43 3.351 2.863l-1.457 7.158a5.643 5.643 0 0 0 .598 3.523 5.783 5.783 0 0 0 2.607 2.489l21.268 9.447c2.536.933 5.33.933 7.866 0l2.185-.859a18.949 18.949 0 0 1 8.449-1.145l82.159 10.307a10.391 10.391 0 0 1 6.263 3.435 13.68 13.68 0 0 1 1.748 7.158l-1.165 41.512a23.697 23.697 0 0 1-1.602 7.157c-.874 1.575-3.205 2.148-5.536 1.146l-80.702-33.783a17.025 17.025 0 0 0-8.448-1.002l-8.741 1.431a6.202 6.202 0 0 1-3.638-.601 6.068 6.068 0 0 1-2.626-2.548l-2.039-3.722a13.157 13.157 0 0 0-5.972-5.582l-15.296-6.585a3.996 3.996 0 0 0-3.217-.042 3.924 3.924 0 0 0-1.34.938 3.854 3.854 0 0 0-.833 1.394l-1.602 4.867a12.93 12.93 0 0 1-4.953 6.156 12.435 12.435 0 0 1-7.866 1.145l-3.205-.859a9.67 9.67 0 0 1-3.449-1.903 9.48 9.48 0 0 1-2.378-3.107l-1.311-3.436a30.873 30.873 0 0 0-3.642-6.871 9.978 9.978 0 0 0-6.555-3.006l-83.324-2.576a11.59 11.59 0 0 1-7.283-3.436l-2.768-3.435a10.415 10.415 0 0 0-7.138-3.293h-54.481a3.56 3.56 0 0 0-1.623.263 3.494 3.494 0 0 0-1.322.964 3.389 3.389 0 0 0-.697 3.068c.437 2.433 0 4.294-.874 4.294s-2.913-1.432-4.515-3.292l-2.914-3.436c-1.602-1.861-3.933-3.292-5.098-3.292a2.217 2.217 0 0 1-1.545-.629 2.148 2.148 0 0 1-.474-.697 2.11 2.11 0 0 1-.166-.821c0-1.146-2.04-2.148-4.37-2.148H79.37a4.548 4.548 0 0 1-3.05-1.297A4.401 4.401 0 0 1 75 96.626Z" fill="#656565" fill-opacity=".6" stroke="#fff" stroke-width="2"/><path d="M212 218h89l-44.5 36-44.5-36Z" fill="#fff"/></svg>