<svg width="512" height="256" fill="none" xmlns="http://www.w3.org/2000/svg"><path d="M75 73.059c0-1.167.465-2.286 1.293-3.112a4.424 4.424 0 0 1 3.123-1.288h2.65a6.492 6.492 0 0 0 3.513-1.266 6.456 6.456 0 0 0 2.228-2.988l.589-1.76a6.308 6.308 0 0 1 2.21-3.013 6.344 6.344 0 0 1 3.531-1.24 4.867 4.867 0 0 1 3.195 1.307 4.834 4.834 0 0 1 1.516 3.093v1.466a4.532 4.532 0 0 0 1.542 3.133 4.565 4.565 0 0 0 3.316 1.12l39.01-1.172a82.722 82.722 0 0 0 8.685-1.027l22.376-4.107a56.141 56.141 0 0 1 8.685-.88h78.021c2.355 0 4.711-1.32 5.152-2.934.442-1.613 2.356-1.906 4.416-.44l1.473.88a16.379 16.379 0 0 0 8.096 2.494h38.421a11.355 11.355 0 0 1 7.361 3.227l7.213 8.213a17.575 17.575 0 0 1 3.68 7.628v.88a7.329 7.329 0 0 0 1.801 3.3 7.362 7.362 0 0 0 3.204 1.98l65.508 13.494a7.975 7.975 0 0 0 3.847-.365 7.952 7.952 0 0 0 3.219-2.128l20.757-26.255c1.472-1.907 2.502-1.467 2.355.88v2.2a79.035 79.035 0 0 1-1.619 8.507l-4.269 14.228c-.736 2.346-1.62 6.16-2.208 8.507l-.589 3.227a44.395 44.395 0 0 0-.736 8.8v3.374c.147 2.493.294 6.453.294 8.8l.736 13.788c.147 2.493.295 6.453.442 8.8v3.374c.147 2.493-.736 2.64-1.767.586l-16.929-32.562a9.848 9.848 0 0 0-6.33-4.693l-61.239-11.441a18.034 18.034 0 0 0-8.39.44l-.589.294a10.872 10.872 0 0 0-5.741 5.427l-2.65 6.453a13.01 13.01 0 0 0 0 8.214l12.954 31.389a3.949 3.949 0 0 1-1.175 4.522 3.993 3.993 0 0 1-1.475.758l-13.543 3.52a5.313 5.313 0 0 1-3.597-.278 5.286 5.286 0 0 1-2.585-2.509l-18.254-37.549a8.68 8.68 0 0 0-6.33-4.4l-7.361-.587a6.923 6.923 0 0 1-3.47-1.55 6.891 6.891 0 0 1-2.124-3.143l-2.061-7.627a6.156 6.156 0 0 0-2.13-2.997 6.195 6.195 0 0 0-3.464-1.257h-27.969a14.746 14.746 0 0 1-7.802-2.787l-2.061-1.76a13.126 13.126 0 0 0-5.594-2.787 10.61 10.61 0 0 0-5.3 3.081l-5.594 5.573a10.896 10.896 0 0 1-6.035 3.08c-1.619 0-2.944 2.054-2.944 4.401V193.6a4.54 4.54 0 0 1-1.335 3.071 4.572 4.572 0 0 1-3.081 1.329h-13.249a4.424 4.424 0 0 1-3.123-1.289 4.392 4.392 0 0 1-1.294-3.111v-78.005c0-2.347-1.03-4.401-2.208-4.401-1.177 0-2.208-2.053-2.208-4.4V96.527a5.997 5.997 0 0 0-1.276-3.384 6.04 6.04 0 0 0-2.993-2.043l-26.792-6.747a56.28 56.28 0 0 0-8.685-1.173l-61.828-2.054a4.718 4.718 0 0 1-3.093-1.42A4.685 4.685 0 0 1 75 76.579v-3.52Z" fill="#656565" fill-opacity=".6" stroke="#fff" stroke-width="2"/><path d="M212 218h89l-44.5 36-44.5-36Z" fill="#fff"/></svg>