<svg width="512" height="256" fill="none" xmlns="http://www.w3.org/2000/svg"><path d="M436.047 133.545c.783 0 1.534.293 2.088.813s.865 1.225.865 1.96v27.727c0 .736-.311 1.441-.865 1.961a3.054 3.054 0 0 1-2.088.812H187.869a19.979 19.979 0 0 0-5.758.971l-40.009 13.309a4.396 4.396 0 0 0-2 1.476 3.99 3.99 0 0 0-.805 2.267v1.386c0 .736-.311 1.441-.865 1.961a3.054 3.054 0 0 1-2.088.812h-8.858a3.052 3.052 0 0 1-2.088-.812 2.689 2.689 0 0 1-.865-1.961v-1.386a2.69 2.69 0 0 0-.865-1.961 3.054 3.054 0 0 0-2.088-.812h-11.811a3.054 3.054 0 0 1-2.088-.812 2.693 2.693 0 0 1-.865-1.961v-3.881a2.82 2.82 0 0 0-.855-2.012 3.194 3.194 0 0 0-2.097-.9l-7.973-.277a11.025 11.025 0 0 1-5.167-1.941l-12.697-9.982a12.302 12.302 0 0 1-3.1-4.436s-2.067-6.516-1.92-9.705c.296-2.833.94-5.624 1.92-8.318.625-1.693 1.752-3.184 3.248-4.298l12.401-9.427a11.87 11.87 0 0 1 5.315-1.663h7.973c.783 0 1.534-.293 2.088-.813.553-.52.864-1.225.864-1.96v-1.387c0-.735.312-1.44.865-1.96a3.054 3.054 0 0 1 2.088-.812h11.811c.783 0 1.534-.292 2.088-.812a2.69 2.69 0 0 0 .865-1.961v-2.773c0-.735.311-1.44.865-1.96a3.052 3.052 0 0 1 2.088-.812h8.858c.783 0 1.534.292 2.088.812s.865 1.225.865 1.96v3.466a3.99 3.99 0 0 0 .805 2.267 4.396 4.396 0 0 0 2 1.476l40.009 15.25a16.977 16.977 0 0 0 5.758 1.109h21.703a10.327 10.327 0 0 0 5.315-1.663l4.577-3.05c1.43-1.126 2.375-2.704 2.657-4.437l5.315-54.622c.148-1.525 1.033-2.773 1.772-2.773.738 0 1.624 1.248 1.624 2.773l4.576 61a3.134 3.134 0 0 0 1.083 1.945 3.512 3.512 0 0 0 2.165.827h197.391Z" fill="#656565" fill-opacity=".6" stroke="#fff" stroke-width="2"/><path d="M212 218h89l-44.5 36-44.5-36Z" fill="#fff"/></svg>