<svg width="512" height="256" fill="none" xmlns="http://www.w3.org/2000/svg"><path d="m317.151 114.688 36.285 14.993c2.663.975 5.584.975 8.247 0l5.248-2.399a20.996 20.996 0 0 1 8.546-1.499l55.627 3.898a5.104 5.104 0 0 1 4.648 4.798l1.049 32.987a2.69 2.69 0 0 1-1.09 2.751 2.702 2.702 0 0 1-2.958.098l-109.904-40.334a2.852 2.852 0 0 0-4.037 1.415 2.85 2.85 0 0 0-.161 1.584v6.597a4.356 4.356 0 0 1-1.326 3.129 4.357 4.357 0 0 1-3.172 1.22l-16.493-.3a5.398 5.398 0 0 1-4.948-4.648l-1.05-16.494" fill="#646464"/><path d="m317.151 114.688 36.285 14.993c2.663.975 5.584.975 8.247 0l5.248-2.399a20.996 20.996 0 0 1 8.546-1.499l55.627 3.898a5.104 5.104 0 0 1 4.648 4.798l1.049 32.987a2.69 2.69 0 0 1-1.09 2.751 2.702 2.702 0 0 1-2.958.098l-109.904-40.334a2.852 2.852 0 0 0-4.037 1.415 2.85 2.85 0 0 0-.161 1.584v6.597a4.356 4.356 0 0 1-1.326 3.129 4.357 4.357 0 0 1-3.172 1.22l-16.493-.3a5.398 5.398 0 0 1-4.948-4.648l-1.05-16.494" stroke="#fff" stroke-width="6" stroke-miterlimit="10"/><path d="m317.151 114.688 36.285 14.993c2.663.975 5.584.975 8.247 0l5.248-2.399a20.996 20.996 0 0 1 8.546-1.499l55.627 3.898a5.104 5.104 0 0 1 4.648 4.798l1.049 32.987a2.69 2.69 0 0 1-1.09 2.751 2.702 2.702 0 0 1-2.958.098l-109.904-40.334a2.852 2.852 0 0 0-4.037 1.415 2.85 2.85 0 0 0-.161 1.584v6.597a4.356 4.356 0 0 1-1.326 3.129 4.357 4.357 0 0 1-3.172 1.22l-16.493-.3a5.398 5.398 0 0 1-4.948-4.648l-1.05-16.494" fill="#646464"/><path d="m317.151 114.688 36.285 14.993c2.663.975 5.584.975 8.247 0l5.248-2.399a20.996 20.996 0 0 1 8.546-1.499l55.627 3.898a5.104 5.104 0 0 1 4.648 4.798l1.049 32.987a2.69 2.69 0 0 1-1.09 2.751 2.702 2.702 0 0 1-2.958.098l-109.904-40.334a2.852 2.852 0 0 0-4.037 1.415 2.85 2.85 0 0 0-.161 1.584v6.597a4.356 4.356 0 0 1-1.326 3.129 4.357 4.357 0 0 1-3.172 1.22l-16.493-.3a5.398 5.398 0 0 1-4.948-4.648l-1.05-16.494" stroke="#474747" stroke-width="2" stroke-miterlimit="10"/><path d="M75.003 90.998a4.348 4.348 0 0 1 4.498-4.499h85.164c3.007.046 6.01.246 8.996.6l12.445 1.8c2.399.3 4.798-.45 5.248-1.65.45-1.2 2.699-2.249 5.248-2.249h34.485c2.549 0 4.948 1.05 5.548 2.25.6 1.199 3.149 2.248 5.698 2.098l65.372-1.35a11.844 11.844 0 0 0 6.148-1.499A6.297 6.297 0 0 1 317.751 85c1.35 0 2.999 1.65 3.449 3.748a35.257 35.257 0 0 1 1.199 8.247v32.986a3.596 3.596 0 0 1-4.498 3.599l-20.691-4.199a8.846 8.846 0 0 0-7.497 2.1 15.898 15.898 0 0 1-7.497 3.598l-2.999.3a34.94 34.94 0 0 1-8.846-.3l-6.147-1.199a24.293 24.293 0 0 1-7.947-3.749l-2.099-1.799a26.847 26.847 0 0 1-5.398-6.897l-1.949-3.899a7.494 7.494 0 0 0-5.848-4.048 7.188 7.188 0 0 0-5.247 2.249c-.75 1.2-3.449 2.249-5.998 2.249h-33.286c-2.549 0-4.948-1.049-5.248-2.249-.3-1.199-2.849-1.949-5.248-1.649l-12.444 1.799c-2.987.354-5.99.554-8.997.6H79.501a4.341 4.341 0 0 1-3.227-1.271 4.348 4.348 0 0 1-1.271-3.227V90.997Z" fill="#646464" stroke="#fff" stroke-width="2"/><path d="M212 218h89l-44.5 36-44.5-36Z" fill="#fff"/></svg>