<svg width="512" height="256" fill="none" xmlns="http://www.w3.org/2000/svg"><path d="M73 74.309c.038-1.05.526-2.049 1.366-2.792.84-.743 1.968-1.175 3.155-1.209h6.028c2.561 0 4.52 1.067 4.52 2.267s2.11 2.267 4.521 2.267h91.922a13.568 13.568 0 0 0 5.877-1.067c.603-.666 3.315-1.2 5.727-1.2h98.402c2.411 0 4.52-.533 4.52-1.067 0-.533 1.959-1.6 4.37-2l12.357-2.4a5.9 5.9 0 0 1 3.436.364c1.066.46 1.926 1.224 2.441 2.17.558.994 1.417 1.833 2.481 2.421a7.441 7.441 0 0 0 3.547.912h1.507c1.187.034 2.315.466 3.155 1.21.839.742 1.328 1.74 1.366 2.791v21.338a9.496 9.496 0 0 1-1.055 5.067c-.754.534-.151 1.867 1.055 2.934 1.928 1.441 4.192 2.488 6.63 3.067l95.991 25.205c1.196.311 2.224.997 2.889 1.93.666.933.925 2.048.728 3.138l-7.535 36.007a2.982 2.982 0 0 1-.581 1.359 3.472 3.472 0 0 1-1.2.993 3.966 3.966 0 0 1-1.572.42 4.056 4.056 0 0 1-1.62-.238l-59.373-19.738a85.638 85.638 0 0 1-8.137-3.467l-19.289-9.335a26.886 26.886 0 0 1-6.781-5.068l-15.37-16.536c-1.952-1.958-4.371-3.506-7.083-4.534l-3.617-1.067c-2.674-1.08-5.042-2.675-6.931-4.668l-3.617-4.267c-1.507-1.734-3.466-3.201-4.219-3.201-.754 0-1.809 1.734-2.261 4.001a19.76 19.76 0 0 0 .302 7.868l.904 2.934c.789 2.529 2.064 4.92 3.767 7.068l9.644 10.935c.745.854 1.083 1.932.942 3.003-.141 1.072-.749 2.052-1.695 2.732l-11.151 8.268a5.603 5.603 0 0 1-3.399.88c-1.215-.073-2.361-.527-3.232-1.28l-17.781-16.803a78.663 78.663 0 0 1-6.028-6.001l-2.562-2.534c-1.98-1.836-4.476-3.171-7.233-3.868l-2.562-.4a20.662 20.662 0 0 0-8.589.667l-.904.4c-1.219.478-2.268 1.238-3.037 2.201a6.085 6.085 0 0 0-1.334 3.267l-1.054 55.344a3.473 3.473 0 0 1-.302 1.553 3.856 3.856 0 0 1-.976 1.317c-.424.376-.931.67-1.489.864a4.882 4.882 0 0 1-1.754.267h-21.851a5.05 5.05 0 0 1-1.776-.266 4.634 4.634 0 0 1-1.518-.858 4.006 4.006 0 0 1-1.019-1.315 3.603 3.603 0 0 1-.358-1.562l-.603-77.348a3.47 3.47 0 0 0-.301-1.553 3.872 3.872 0 0 0-.976-1.318 4.472 4.472 0 0 0-1.489-.864 4.883 4.883 0 0 0-1.755-.266c-1.187.033-2.315.465-3.154 1.209-.84.743-1.329 1.741-1.366 2.792v1.333a3.365 3.365 0 0 1-.301 1.535 3.745 3.745 0 0 1-.983 1.293 4.33 4.33 0 0 1-1.493.825 4.709 4.709 0 0 1-1.744.215s-97.95-2.534-97.95-5.201c0-2.668 1.055-13.336 1.055-13.336.301-2.267-.904-4.001-2.562-4.001-1.657 0-3.014.667-3.014 1.334 0 .666-1.959 1.333-4.52 1.333H77.52c-1.2 0-2.35-.421-3.197-1.172-.848-.75-1.324-1.767-1.324-2.829v-14.67Z" fill="#656565" fill-opacity=".6" stroke="#fff" stroke-width="2"/><path d="M212 218h89l-44.5 36-44.5-36Z" fill="#fff"/></svg>