<svg width="512" height="512" viewBox="0 0 512 512" fill="none" xmlns="http://www.w3.org/2000/svg">
<g filter="url(#filter0_d_301_3)">
<path d="M269.977 12.5455V46H263.867L249.313 24.9439H249.068V46H241.995V12.5455H248.202L262.642 33.5852H262.936V12.5455H269.977Z" fill="white"/>
<path d="M466 245.325H499.454V267.867H493.623V252.398H485.651V266.707H479.82V252.398H471.832V267.933H466V245.325Z" fill="white"/>
<path d="M46 269.393L12.5454 278.965L12.5454 271.239L35.7904 265.701V265.423L12.5454 259.314L12.5454 252.698L35.8394 246.605V246.311L12.5454 240.774L12.5454 233.047L46 242.619V249.513L24.1271 255.884V256.145L46 262.499V269.393Z" fill="white"/>
<path d="M248.515 489.833C248.646 491.151 249.207 492.175 250.198 492.904C251.189 493.634 252.534 493.999 254.232 493.999C255.387 493.999 256.361 493.835 257.156 493.509C257.951 493.193 258.561 492.752 258.986 492.185C259.4 491.619 259.607 490.977 259.607 490.258C259.629 489.659 259.503 489.136 259.231 488.69C258.948 488.243 258.561 487.857 258.071 487.53C257.581 487.214 257.015 486.936 256.372 486.697C255.73 486.468 255.044 486.272 254.314 486.109L251.308 485.39C249.849 485.063 248.51 484.628 247.29 484.083C246.07 483.539 245.014 482.869 244.121 482.074C243.228 481.279 242.536 480.342 242.046 479.264C241.545 478.186 241.29 476.95 241.279 475.556C241.29 473.509 241.812 471.734 242.847 470.231C243.87 468.739 245.352 467.579 247.29 466.751C249.218 465.935 251.543 465.526 254.265 465.526C256.966 465.526 259.318 465.94 261.322 466.768C263.315 467.595 264.872 468.821 265.994 470.443C267.105 472.077 267.687 474.097 267.742 476.504H260.897C260.821 475.382 260.5 474.445 259.933 473.694C259.356 472.953 258.589 472.393 257.63 472.011C256.661 471.641 255.567 471.456 254.347 471.456C253.149 471.456 252.109 471.63 251.227 471.979C250.334 472.327 249.642 472.812 249.152 473.433C248.662 474.053 248.417 474.767 248.417 475.572C248.417 476.324 248.64 476.956 249.087 477.467C249.522 477.979 250.165 478.415 251.014 478.774C251.853 479.134 252.882 479.46 254.102 479.754L257.745 480.669C260.565 481.355 262.792 482.428 264.426 483.887C266.059 485.346 266.87 487.312 266.86 489.784C266.87 491.81 266.331 493.579 265.242 495.093C264.143 496.607 262.634 497.788 260.718 498.638C258.801 499.487 256.623 499.912 254.183 499.912C251.701 499.912 249.533 499.487 247.682 498.638C245.82 497.788 244.371 496.607 243.337 495.093C242.302 493.579 241.769 491.826 241.736 489.833H248.515Z" fill="white"/>
<path fill-rule="evenodd" clip-rule="evenodd" d="M402.739 111.419L415.561 98.7855C414.784 97.9977 414.002 97.2156 413.215 96.4394L400.581 109.261C401.306 109.975 402.025 110.694 402.739 111.419ZM111.419 109.261L98.7854 96.4393C97.9976 97.2156 97.2156 97.9977 96.4393 98.7855L109.261 111.419C109.975 110.694 110.694 109.975 111.419 109.261ZM109.261 400.581L96.4393 413.215C97.2155 414.002 97.9976 414.784 98.7854 415.561L111.419 402.739C110.694 402.025 109.975 401.306 109.261 400.581ZM400.581 402.739L413.214 415.561C414.002 414.784 414.784 414.002 415.561 413.215L402.739 400.581C402.025 401.306 401.305 402.025 400.581 402.739Z" fill="white"/>
</g>
<defs>
<filter id="filter0_d_301_3" x="7.54541" y="7.54547" width="496.909" height="497.366" filterUnits="userSpaceOnUse" color-interpolation-filters="sRGB">
<feFlood flood-opacity="0" result="BackgroundImageFix"/>
<feColorMatrix in="SourceAlpha" type="matrix" values="0 0 0 0 0 0 0 0 0 0 0 0 0 0 0 0 0 0 127 0" result="hardAlpha"/>
<feOffset/>
<feGaussianBlur stdDeviation="2.5"/>
<feComposite in2="hardAlpha" operator="out"/>
<feColorMatrix type="matrix" values="0 0 0 0 0 0 0 0 0 0 0 0 0 0 0 0 0 0 1 0"/>
<feBlend mode="normal" in2="BackgroundImageFix" result="effect1_dropShadow_301_3"/>
<feBlend mode="normal" in="SourceGraphic" in2="effect1_dropShadow_301_3" result="shape"/>
</filter>
</defs>
</svg>
