<svg width="128" height="128" fill="none" xmlns="http://www.w3.org/2000/svg"><path d="M63 11h2v2h-2v-2Z" fill="#fff" fill-opacity=".4"/><path d="M63 13h2v2h-2v-2Z" fill="#fff" fill-opacity=".45"/><path d="M63 15h2v2h-2v-2Z" fill="#fff" fill-opacity=".5"/><path d="M63 17h2v2h-2v-2Z" fill="#fff" fill-opacity=".55"/><path d="M63 19h2v2h-2v-2Z" fill="#fff" fill-opacity=".6"/><path d="M63 21h2v2h-2v-2Z" fill="#fff" fill-opacity=".65"/><path d="M63 23h2v2h-2v-2Z" fill="#fff" fill-opacity=".7"/><path d="M63 25h2v2h-2v-2Z" fill="#fff" fill-opacity=".75"/><path d="M63 27h2v2h-2v-2Z" fill="#fff" fill-opacity=".8"/><path d="M63 29h2v12h-2V29Z" fill="#fff" fill-opacity=".85"/><path d="M117 63v2h-2v-2h2Z" fill="#fff" fill-opacity=".4"/><path d="M115 63v2h-2v-2h2Z" fill="#fff" fill-opacity=".45"/><path d="M113 63v2h-2v-2h2Z" fill="#fff" fill-opacity=".5"/><path d="M111 63v2h-2v-2h2Z" fill="#fff" fill-opacity=".55"/><path d="M109 63v2h-2v-2h2Z" fill="#fff" fill-opacity=".6"/><path d="M107 63v2h-2v-2h2Z" fill="#fff" fill-opacity=".65"/><path d="M105 63v2h-2v-2h2Z" fill="#fff" fill-opacity=".7"/><path d="M103 63v2h-2v-2h2Z" fill="#fff" fill-opacity=".75"/><path d="M101 63v2h-2v-2h2Z" fill="#fff" fill-opacity=".8"/><path d="M99 63v2H87v-2h12Z" fill="#fff" fill-opacity=".85"/><path d="M65 117h-2v-2h2v2Z" fill="#fff" fill-opacity=".4"/><path d="M65 115h-2v-2h2v2Z" fill="#fff" fill-opacity=".45"/><path d="M65 113h-2v-2h2v2Z" fill="#fff" fill-opacity=".5"/><path d="M65 111h-2v-2h2v2Z" fill="#fff" fill-opacity=".55"/><path d="M65 109h-2v-2h2v2Z" fill="#fff" fill-opacity=".6"/><path d="M65 107h-2v-2h2v2Z" fill="#fff" fill-opacity=".65"/><path d="M65 105h-2v-2h2v2Z" fill="#fff" fill-opacity=".7"/><path d="M65 103h-2v-2h2v2Z" fill="#fff" fill-opacity=".75"/><path d="M65 101h-2v-2h2v2Z" fill="#fff" fill-opacity=".8"/><path d="M65 99h-2V87h2v12Z" fill="#fff" fill-opacity=".85"/><path d="M11 65v-2h2v2h-2Z" fill="#fff" fill-opacity=".4"/><path d="M13 65v-2h2v2h-2Z" fill="#fff" fill-opacity=".45"/><path d="M15 65v-2h2v2h-2Z" fill="#fff" fill-opacity=".5"/><path d="M17 65v-2h2v2h-2Z" fill="#fff" fill-opacity=".55"/><path d="M19 65v-2h2v2h-2Z" fill="#fff" fill-opacity=".6"/><path d="M21 65v-2h2v2h-2Z" fill="#fff" fill-opacity=".65"/><path d="M23 65v-2h2v2h-2Z" fill="#fff" fill-opacity=".7"/><path d="M25 65v-2h2v2h-2Z" fill="#fff" fill-opacity=".75"/><path d="M27 65v-2h2v2h-2Z" fill="#fff" fill-opacity=".8"/><path d="M29 65v-2h12v2H29Z" fill="#fff" fill-opacity=".85"/></svg>