<svg width="128" height="128" fill="none" xmlns="http://www.w3.org/2000/svg"><path d="M64 10H65V12H64V10Z" fill="#fff" fill-opacity=".4"/><path d="M64 12H65V14H64V12Z" fill="#fff" fill-opacity=".45"/><path d="M64 14H65V16H64V14Z" fill="#fff" fill-opacity=".5"/><path d="M64 16H65V18H64V16Z" fill="#fff" fill-opacity=".55"/><path d="M64 18H65V20H64V18Z" fill="#fff" fill-opacity=".6"/><path d="M64 20H65V22H64V20Z" fill="#fff" fill-opacity=".65"/><path d="M64 22H65V24H64V22Z" fill="#fff" fill-opacity=".7"/><path d="M64 24H65V26H64V24Z" fill="#fff" fill-opacity=".75"/><path d="M64 26H65V28H64V26Z" fill="#fff" fill-opacity=".8"/><path d="M64 28H65V40H64V28Z" fill="#fff" fill-opacity=".85"/><path d="M118 64V65H116V64H118Z" fill="#fff" fill-opacity=".4"/><path d="M116 64V65H114V64H116Z" fill="#fff" fill-opacity=".45"/><path d="M114 64V65H112V64H114Z" fill="#fff" fill-opacity=".5"/><path d="M112 64V65H110V64H112Z" fill="#fff" fill-opacity=".55"/><path d="M110 64V65H108V64H110Z" fill="#fff" fill-opacity=".6"/><path d="M108 64V65H106V64H108Z" fill="#fff" fill-opacity=".65"/><path d="M106 64V65H104V64H106Z" fill="#fff" fill-opacity=".7"/><path d="M104 64V65H102V64H104Z" fill="#fff" fill-opacity=".75"/><path d="M102 64V65H100V64H102Z" fill="#fff" fill-opacity=".8"/><path d="M100 64V65H88V64H100Z" fill="#fff" fill-opacity=".85"/><path d="M65 118H64V116H65V118Z" fill="#fff" fill-opacity=".4"/><path d="M65 116H64V114H65V116Z" fill="#fff" fill-opacity=".45"/><path d="M65 114H64V112H65V114Z" fill="#fff" fill-opacity=".5"/><path d="M65 112H64V110H65V112Z" fill="#fff" fill-opacity=".55"/><path d="M65 110H64V108H65V110Z" fill="#fff" fill-opacity=".6"/><path d="M65 108H64V106H65V108Z" fill="#fff" fill-opacity=".65"/><path d="M65 106H64V104H65V106Z" fill="#fff" fill-opacity=".7"/><path d="M65 104H64V102H65V104Z" fill="#fff" fill-opacity=".75"/><path d="M65 102H64V100H65V102Z" fill="#fff" fill-opacity=".8"/><path d="M65 100H64L64 88H65L65 100Z" fill="#fff" fill-opacity=".85"/><path d="M11 65L11 64H13V65H11Z" fill="#fff" fill-opacity=".4"/><path d="M13 65V64H15V65H13Z" fill="#fff" fill-opacity=".45"/><path d="M15 65V64H17V65H15Z" fill="#fff" fill-opacity=".5"/><path d="M17 65V64H19V65H17Z" fill="#fff" fill-opacity=".55"/><path d="M19 65V64H21V65H19Z" fill="#fff" fill-opacity=".6"/><path d="M21 65V64H23V65H21Z" fill="#fff" fill-opacity=".65"/><path d="M23 65V64H25V65H23Z" fill="#fff" fill-opacity=".7"/><path d="M25 65V64H27V65H25Z" fill="#fff" fill-opacity=".75"/><path d="M27 65V64H29V65H27Z" fill="#fff" fill-opacity=".8"/><path d="M29 65V64H41V65H29Z" fill="#fff" fill-opacity=".85"/></svg>