<svg width="128" height="128" fill="none" xmlns="http://www.w3.org/2000/svg"><path d="M63 10H66V12H63V10Z" fill="#fff" fill-opacity=".4"/><path d="M63 12H66V14H63V12Z" fill="#fff" fill-opacity=".45"/><path d="M63 14H66V16H63V14Z" fill="#fff" fill-opacity=".5"/><path d="M63 16H66V18H63V16Z" fill="#fff" fill-opacity=".55"/><path d="M63 18H66V20H63V18Z" fill="#fff" fill-opacity=".6"/><path d="M63 20H66V22H63V20Z" fill="#fff" fill-opacity=".65"/><path d="M63 22H66V24H63V22Z" fill="#fff" fill-opacity=".7"/><path d="M63 24H66V26H63V24Z" fill="#fff" fill-opacity=".75"/><path d="M63 26H66V28H63V26Z" fill="#fff" fill-opacity=".8"/><path d="M63 28H66V40H63V28Z" fill="#fff" fill-opacity=".85"/><path d="M118 63V66H116V63H118Z" fill="#fff" fill-opacity=".4"/><path d="M116 63V66H114V63H116Z" fill="#fff" fill-opacity=".45"/><path d="M114 63V66H112V63H114Z" fill="#fff" fill-opacity=".5"/><path d="M112 63V66H110V63H112Z" fill="#fff" fill-opacity=".55"/><path d="M110 63V66H108V63H110Z" fill="#fff" fill-opacity=".6"/><path d="M108 63V66H106V63H108Z" fill="#fff" fill-opacity=".65"/><path d="M106 63V66H104V63H106Z" fill="#fff" fill-opacity=".7"/><path d="M104 63V66H102V63H104Z" fill="#fff" fill-opacity=".75"/><path d="M102 63V66H100V63H102Z" fill="#fff" fill-opacity=".8"/><path d="M100 63V66H88V63H100Z" fill="#fff" fill-opacity=".85"/><path d="M66 118H63V116H66V118Z" fill="#fff" fill-opacity=".4"/><path d="M66 116H63V114H66V116Z" fill="#fff" fill-opacity=".45"/><path d="M66 114H63V112H66V114Z" fill="#fff" fill-opacity=".5"/><path d="M66 112H63V110H66V112Z" fill="#fff" fill-opacity=".55"/><path d="M66 110H63V108H66V110Z" fill="#fff" fill-opacity=".6"/><path d="M66 108H63V106H66V108Z" fill="#fff" fill-opacity=".65"/><path d="M66 106H63V104H66V106Z" fill="#fff" fill-opacity=".7"/><path d="M66 104H63V102H66V104Z" fill="#fff" fill-opacity=".75"/><path d="M66 102H63V100H66V102Z" fill="#fff" fill-opacity=".8"/><path d="M66 100H63L63 88H66L66 100Z" fill="#fff" fill-opacity=".85"/><path d="M11 66L11 63H13L13 66H11Z" fill="#fff" fill-opacity=".4"/><path d="M13 66L13 63H15V66H13Z" fill="#fff" fill-opacity=".45"/><path d="M15 66V63H17V66H15Z" fill="#fff" fill-opacity=".5"/><path d="M17 66V63H19V66H17Z" fill="#fff" fill-opacity=".55"/><path d="M19 66V63H21V66H19Z" fill="#fff" fill-opacity=".6"/><path d="M21 66V63H23V66H21Z" fill="#fff" fill-opacity=".65"/><path d="M23 66V63H25V66H23Z" fill="#fff" fill-opacity=".7"/><path d="M25 66V63H27V66H25Z" fill="#fff" fill-opacity=".75"/><path d="M27 66V63H29V66H27Z" fill="#fff" fill-opacity=".8"/><path d="M29 66V63H41V66H29Z" fill="#fff" fill-opacity=".85"/></svg>