<svg width="64" height="64" fill="none" xmlns="http://www.w3.org/2000/svg"><path d="M31 18v1h-1v-2h4v2h-1v-1h-2Z" fill="#fff"/><path d="M33 19h1v1h-1v-1Z" fill="#fff" fill-opacity=".9"/><path d="M33 20h1v1h-1v-1Z" fill="#fff" fill-opacity=".8"/><path d="M33 21h1v1h-1v-1Z" fill="#fff" fill-opacity=".7"/><path d="M33 22h1v1h-1v-1Z" fill="#fff" fill-opacity=".6"/><path d="M33 23h1v1h-1v-1Z" fill="#fff" fill-opacity=".5"/><path d="M33 24h1v1h-1v-1Z" fill="#fff" fill-opacity=".4"/><path d="M33 25h1v1h-1v-1Z" fill="#fff" fill-opacity=".3"/><path d="M33 26h1v1h-1v-1Z" fill="#fff" fill-opacity=".2"/><path d="M33 27h1v1h-1v-1Z" fill="#fff" fill-opacity=".1"/><path d="M30 19h1v1h-1v-1Z" fill="#fff" fill-opacity=".9"/><path d="M30 20h1v1h-1v-1Z" fill="#fff" fill-opacity=".8"/><path d="M30 21h1v1h-1v-1Z" fill="#fff" fill-opacity=".7"/><path d="M30 22h1v1h-1v-1Z" fill="#fff" fill-opacity=".6"/><path d="M30 23h1v1h-1v-1Z" fill="#fff" fill-opacity=".5"/><path d="M30 24h1v1h-1v-1Z" fill="#fff" fill-opacity=".4"/><path d="M30 25h1v1h-1v-1Z" fill="#fff" fill-opacity=".3"/><path d="M30 26h1v1h-1v-1Z" fill="#fff" fill-opacity=".2"/><path d="M30 27h1v1h-1v-1Z" fill="#fff" fill-opacity=".1"/><path d="M46 31h-1v-1h2v4h-2v-1h1v-2Z" fill="#fff"/><path d="M45 33v1h-1v-1h1Z" fill="#fff" fill-opacity=".9"/><path d="M44 33v1h-1v-1h1Z" fill="#fff" fill-opacity=".8"/><path d="M43 33v1h-1v-1h1Z" fill="#fff" fill-opacity=".7"/><path d="M42 33v1h-1v-1h1Z" fill="#fff" fill-opacity=".6"/><path d="M41 33v1h-1v-1h1Z" fill="#fff" fill-opacity=".5"/><path d="M40 33v1h-1v-1h1Z" fill="#fff" fill-opacity=".4"/><path d="M39 33v1h-1v-1h1Z" fill="#fff" fill-opacity=".3"/><path d="M38 33v1h-1v-1h1Z" fill="#fff" fill-opacity=".2"/><path d="M37 33v1h-1v-1h1Z" fill="#fff" fill-opacity=".1"/><path d="M45 30v1h-1v-1h1Z" fill="#fff" fill-opacity=".9"/><path d="M44 30v1h-1v-1h1Z" fill="#fff" fill-opacity=".8"/><path d="M43 30v1h-1v-1h1Z" fill="#fff" fill-opacity=".7"/><path d="M42 30v1h-1v-1h1Z" fill="#fff" fill-opacity=".6"/><path d="M41 30v1h-1v-1h1Z" fill="#fff" fill-opacity=".5"/><path d="M40 30v1h-1v-1h1Z" fill="#fff" fill-opacity=".4"/><path d="M39 30v1h-1v-1h1Z" fill="#fff" fill-opacity=".3"/><path d="M38 30v1h-1v-1h1Z" fill="#fff" fill-opacity=".2"/><path d="M37 30v1h-1v-1h1Z" fill="#fff" fill-opacity=".1"/><path d="M33 46v-1h1v2h-4v-2h1v1h2Z" fill="#fff"/><path d="M31 45h-1v-1h1v1Z" fill="#fff" fill-opacity=".9"/><path d="M31 44h-1v-1h1v1Z" fill="#fff" fill-opacity=".8"/><path d="M31 43h-1v-1h1v1Z" fill="#fff" fill-opacity=".7"/><path d="M31 42h-1v-1h1v1Z" fill="#fff" fill-opacity=".6"/><path d="M31 41h-1v-1h1v1Z" fill="#fff" fill-opacity=".5"/><path d="M31 40h-1v-1h1v1Z" fill="#fff" fill-opacity=".4"/><path d="M31 39h-1v-1h1v1Z" fill="#fff" fill-opacity=".3"/><path d="M31 38h-1v-1h1v1Z" fill="#fff" fill-opacity=".2"/><path d="M31 37h-1v-1h1v1Z" fill="#fff" fill-opacity=".1"/><path d="M34 45h-1v-1h1v1Z" fill="#fff" fill-opacity=".9"/><path d="M34 44h-1v-1h1v1Z" fill="#fff" fill-opacity=".8"/><path d="M34 43h-1v-1h1v1Z" fill="#fff" fill-opacity=".7"/><path d="M34 42h-1v-1h1v1Z" fill="#fff" fill-opacity=".6"/><path d="M34 41h-1v-1h1v1Z" fill="#fff" fill-opacity=".5"/><path d="M34 40h-1v-1h1v1Z" fill="#fff" fill-opacity=".4"/><path d="M34 39h-1v-1h1v1Z" fill="#fff" fill-opacity=".3"/><path d="M34 38h-1v-1h1v1Z" fill="#fff" fill-opacity=".2"/><path d="M34 37h-1v-1h1v1Z" fill="#fff" fill-opacity=".1"/><path d="M18 33h1v1h-2v-4h2v1h-1v2Z" fill="#fff"/><path d="M19 31v-1h1v1h-1Z" fill="#fff" fill-opacity=".9"/><path d="M20 31v-1h1v1h-1Z" fill="#fff" fill-opacity=".8"/><path d="M21 31v-1h1v1h-1Z" fill="#fff" fill-opacity=".7"/><path d="M22 31v-1h1v1h-1Z" fill="#fff" fill-opacity=".6"/><path d="M23 31v-1h1v1h-1Z" fill="#fff" fill-opacity=".5"/><path d="M24 31v-1h1v1h-1Z" fill="#fff" fill-opacity=".4"/><path d="M25 31v-1h1v1h-1Z" fill="#fff" fill-opacity=".3"/><path d="M26 31v-1h1v1h-1Z" fill="#fff" fill-opacity=".2"/><path d="M27 31v-1h1v1h-1Z" fill="#fff" fill-opacity=".1"/><path d="M19 34v-1h1v1h-1Z" fill="#fff" fill-opacity=".9"/><path d="M20 34v-1h1v1h-1Z" fill="#fff" fill-opacity=".8"/><path d="M21 34v-1h1v1h-1Z" fill="#fff" fill-opacity=".7"/><path d="M22 34v-1h1v1h-1Z" fill="#fff" fill-opacity=".6"/><path d="M23 34v-1h1v1h-1Z" fill="#fff" fill-opacity=".5"/><path d="M24 34v-1h1v1h-1Z" fill="#fff" fill-opacity=".4"/><path d="M25 34v-1h1v1h-1Z" fill="#fff" fill-opacity=".3"/><path d="M26 34v-1h1v1h-1Z" fill="#fff" fill-opacity=".2"/><path d="M27 34v-1h1v1h-1Z" fill="#fff" fill-opacity=".1"/><path d="M30 32a2 2 0 1 1 4 0 2 2 0 0 1-4 0Z" fill="#000"/><path d="M31 31.5a.5.5 0 0 1 .5-.5h1a.5.5 0 0 1 .5.5v1a.5.5 0 0 1-.5.5h-1a.5.5 0 0 1-.5-.5v-1Z" fill="#fff"/></svg>