<svg width="64" height="64" fill="none" xmlns="http://www.w3.org/2000/svg"><path d="M31 25h2v1h-2v-1Z" fill="#fff" fill-opacity=".2"/><path d="M31 26h2v1h-2v-1Z" fill="#fff" fill-opacity=".3"/><path d="M31 27h2v1h-2v-1Z" fill="#fff" fill-opacity=".4"/><path d="M31 28h2v1h-2v-1Z" fill="#fff" fill-opacity=".5"/><path d="M31 24h2v1h-2v-1Z" fill="#fff" fill-opacity=".1"/><path d="M39 31v2h-1v-2h1Z" fill="#fff" fill-opacity=".2"/><path d="M38 31v2h-1v-2h1Z" fill="#fff" fill-opacity=".3"/><path d="M37 31v2h-1v-2h1Z" fill="#fff" fill-opacity=".4"/><path d="M36 31v2h-1v-2h1Z" fill="#fff" fill-opacity=".5"/><path d="M40 31v2h-1v-2h1Z" fill="#fff" fill-opacity=".1"/><path d="M33 39h-2v-1h2v1Z" fill="#fff" fill-opacity=".2"/><path d="M33 38h-2v-1h2v1Z" fill="#fff" fill-opacity=".3"/><path d="M33 37h-2v-1h2v1Z" fill="#fff" fill-opacity=".4"/><path d="M33 36h-2v-1h2v1Z" fill="#fff" fill-opacity=".5"/><path d="M33 40h-2v-1h2v1Z" fill="#fff" fill-opacity=".1"/><path d="M25 33v-2h1v2h-1Z" fill="#fff" fill-opacity=".2"/><path d="M26 33v-2h1v2h-1Z" fill="#fff" fill-opacity=".3"/><path d="M27 33v-2h1v2h-1Z" fill="#fff" fill-opacity=".4"/><path d="M28 33v-2h1v2h-1Z" fill="#fff" fill-opacity=".5"/><path d="M24 33v-2h1v2h-1Z" fill="#fff" fill-opacity=".1"/></svg>