<svg width="128" height="128" fill="none" xmlns="http://www.w3.org/2000/svg"><path d="M63 53H66V54H63V53Z" fill="#fff" fill-opacity=".2"/><path d="M63 54H66V55H63V54Z" fill="#fff" fill-opacity=".25"/><path d="M63 55H66V56H63V55Z" fill="#fff" fill-opacity=".3"/><path d="M63 56H66V57H63V56Z" fill="#fff" fill-opacity=".35"/><path d="M63 57H66V58H63V57Z" fill="#fff" fill-opacity=".4"/><path d="M63 58H66V59H63V58Z" fill="#fff" fill-opacity=".45"/><path d="M63 59H66V60H63V59Z" fill="#fff" fill-opacity=".5"/><path d="M63 52H66V53H63V52Z" fill="#fff" fill-opacity=".15"/><path d="M63 51H66V52H63V51Z" fill="#fff" fill-opacity=".1"/><path d="M63 50H66V51H63V50Z" fill="#fff" fill-opacity=".05"/><path d="M76 63V66H75V63H76Z" fill="#fff" fill-opacity=".2"/><path d="M75 63V66H74V63H75Z" fill="#fff" fill-opacity=".25"/><path d="M74 63V66H73V63H74Z" fill="#fff" fill-opacity=".3"/><path d="M73 63V66H72V63H73Z" fill="#fff" fill-opacity=".35"/><path d="M72 63V66H71V63H72Z" fill="#fff" fill-opacity=".4"/><path d="M71 63V66H70V63H71Z" fill="#fff" fill-opacity=".45"/><path d="M70 63V66H69V63H70Z" fill="#fff" fill-opacity=".5"/><path d="M77 63V66H76V63H77Z" fill="#fff" fill-opacity=".15"/><path d="M78 63V66H77V63H78Z" fill="#fff" fill-opacity=".1"/><path d="M79 63V66H78V63H79Z" fill="#fff" fill-opacity=".05"/><path d="M66 76H63L63 75H66V76Z" fill="#fff" fill-opacity=".2"/><path d="M66 75H63V74H66V75Z" fill="#fff" fill-opacity=".25"/><path d="M66 74H63V73H66V74Z" fill="#fff" fill-opacity=".3"/><path d="M66 73H63V72H66V73Z" fill="#fff" fill-opacity=".35"/><path d="M66 72H63V71H66V72Z" fill="#fff" fill-opacity=".4"/><path d="M66 71H63V70H66V71Z" fill="#fff" fill-opacity=".45"/><path d="M66 70H63V69H66L66 70Z" fill="#fff" fill-opacity=".5"/><path d="M66 77H63V76H66V77Z" fill="#fff" fill-opacity=".15"/><path d="M66 78H63V77H66V78Z" fill="#fff" fill-opacity=".1"/><path d="M66 79H63V78H66V79Z" fill="#fff" fill-opacity=".05"/><path d="M53 66L53 63H54V66H53Z" fill="#fff" fill-opacity=".2"/><path d="M54 66V63H55V66H54Z" fill="#fff" fill-opacity=".25"/><path d="M55 66V63H56V66H55Z" fill="#fff" fill-opacity=".3"/><path d="M56 66V63H57V66H56Z" fill="#fff" fill-opacity=".35"/><path d="M57 66V63H58V66H57Z" fill="#fff" fill-opacity=".4"/><path d="M58 66V63H59V66H58Z" fill="#fff" fill-opacity=".45"/><path d="M59 66V63H60V66H59Z" fill="#fff" fill-opacity=".5"/><path d="M52 66L52 63H53L53 66H52Z" fill="#fff" fill-opacity=".15"/><path d="M51 66L51 63H52L52 66H51Z" fill="#fff" fill-opacity=".1"/><path d="M50 66L50 63H51L51 66H50Z" fill="#fff" fill-opacity=".05"/></svg>