<svg width="128" height="128" fill="none" xmlns="http://www.w3.org/2000/svg"><circle cx="64.5" cy="64.5" r="2.5" fill="#000"/><circle cx="64.5" cy="64.5" r="1.5" fill="#fff"/><path d="M64 38H65V39H64V38Z" fill="#fff" fill-opacity=".3"/><path d="M64 39H65V40H64V39Z" fill="#fff" fill-opacity=".4"/><path d="M64 40H65V41H64V40Z" fill="#fff" fill-opacity=".5"/><path d="M64 41H65V42H64V41Z" fill="#fff" fill-opacity=".6"/><path d="M64 42H65V43H64V42Z" fill="#fff" fill-opacity=".7"/><path d="M64 43H65V44H64V43Z" fill="#fff" fill-opacity=".8"/><path d="M64 44H65V45H64V44Z" fill="#fff" fill-opacity=".9"/><path d="M64 45H65V50H64V45Z" fill="#fff"/><path d="M91 64V65H90V64H91Z" fill="#fff" fill-opacity=".3"/><path d="M90 64V65H89V64H90Z" fill="#fff" fill-opacity=".4"/><path d="M89 64V65H88V64H89Z" fill="#fff" fill-opacity=".5"/><path d="M88 64V65H87V64H88Z" fill="#fff" fill-opacity=".6"/><path d="M87 64V65H86V64H87Z" fill="#fff" fill-opacity=".7"/><path d="M86 64V65H85V64H86Z" fill="#fff" fill-opacity=".8"/><path d="M85 64V65H84V64H85Z" fill="#fff" fill-opacity=".9"/><path d="M84 64V65H79V64H84Z" fill="#fff"/><path d="M65 91H64V90H65V91Z" fill="#fff" fill-opacity=".3"/><path d="M65 90H64V89H65V90Z" fill="#fff" fill-opacity=".4"/><path d="M65 89H64V88H65V89Z" fill="#fff" fill-opacity=".5"/><path d="M65 88H64V87H65V88Z" fill="#fff" fill-opacity=".6"/><path d="M65 87H64V86H65V87Z" fill="#fff" fill-opacity=".7"/><path d="M65 86H64V85H65V86Z" fill="#fff" fill-opacity=".8"/><path d="M65 85H64V84H65V85Z" fill="#fff" fill-opacity=".9"/><path d="M65 84H64L64 79H65L65 84Z" fill="#fff"/><path d="M38 65L38 64H39V65H38Z" fill="#fff" fill-opacity=".3"/><path d="M39 65V64H40V65H39Z" fill="#fff" fill-opacity=".4"/><path d="M40 65V64H41V65H40Z" fill="#fff" fill-opacity=".5"/><path d="M41 65V64H42V65H41Z" fill="#fff" fill-opacity=".6"/><path d="M42 65V64H43V65H42Z" fill="#fff" fill-opacity=".7"/><path d="M43 65V64H44V65H43Z" fill="#fff" fill-opacity=".8"/><path d="M44 65V64H45V65H44Z" fill="#fff" fill-opacity=".9"/><path d="M45 65V64H50V65H45Z" fill="#fff"/></svg>