<svg width="64" height="64" fill="none" xmlns="http://www.w3.org/2000/svg"><path d="M17 33v-2h1v2h-1Z" fill="#fff" fill-opacity=".3"/><path d="M18 33v-2h.981v2H18Z" fill="#fff" fill-opacity=".4"/><path d="M18.981 33v-2h.99v2h-.99Z" fill="#fff" fill-opacity=".5"/><path d="M19.972 33v-2h1.056v2h-1.056Z" fill="#fff" fill-opacity=".6"/><path d="M21.028 33v-2H22v2h-.972Z" fill="#fff" fill-opacity=".7"/><path d="M22 33v-2h1v2h-1Z" fill="#fff" fill-opacity=".8"/><path d="M23 33v-2h.99v2H23Z" fill="#fff" fill-opacity=".9"/><path d="M23.99 33v-2H26v2h-2.01Z" fill="#fff"/><path d="M30 32a2 2 0 1 1 4 0 2 2 0 0 1-4 0Z" fill="#000"/><path d="M31 31.5a.5.5 0 0 1 .5-.5h1a.5.5 0 0 1 .5.5v1a.5.5 0 0 1-.5.5h-1a.5.5 0 0 1-.5-.5v-1Z" fill="#fff"/><path d="M33 47h-2v-1h2v1Z" fill="#fff" fill-opacity=".3"/><path d="M33 46h-2v-.981h2V46Z" fill="#fff" fill-opacity=".4"/><path d="M33 45.019h-2v-.99h2v.99Z" fill="#fff" fill-opacity=".5"/><path d="M33 44.028h-2v-1.056h2v1.056Z" fill="#fff" fill-opacity=".6"/><path d="M33 42.972h-2V42h2v.972Z" fill="#fff" fill-opacity=".7"/><path d="M33 42h-2v-1h2v1Z" fill="#fff" fill-opacity=".8"/><path d="M33 41h-2v-.99h2V41Z" fill="#fff" fill-opacity=".9"/><path d="M33 40.01h-2V38h2v2.01Z" fill="#fff"/><path d="M47 31v2h-1v-2h1Z" fill="#fff" fill-opacity=".3"/><path d="M46 31v2h-.981v-2H46Z" fill="#fff" fill-opacity=".4"/><path d="M45.019 31v2h-.99v-2h.99Z" fill="#fff" fill-opacity=".5"/><path d="M44.028 31v2h-1.056v-2h1.056Z" fill="#fff" fill-opacity=".6"/><path d="M42.972 31v2H42v-2h.972Z" fill="#fff" fill-opacity=".7"/><path d="M42 31v2h-1v-2h1Z" fill="#fff" fill-opacity=".8"/><path d="M41 31v2h-.99v-2H41Z" fill="#fff" fill-opacity=".9"/><path d="M40.01 31v2H38v-2h2.01Z" fill="#fff"/><path d="M31 17h2v1h-2v-1Z" fill="#fff" fill-opacity=".3"/><path d="M31 18h2v.981h-2V18Z" fill="#fff" fill-opacity=".4"/><path d="M31 18.981h2v.99h-2v-.99Z" fill="#fff" fill-opacity=".5"/><path d="M31 19.972h2v1.056h-2v-1.056Z" fill="#fff" fill-opacity=".6"/><path d="M31 21.028h2V22h-2v-.972Z" fill="#fff" fill-opacity=".7"/><path d="M31 22h2v1h-2v-1Z" fill="#fff" fill-opacity=".8"/><path d="M31 23h2v.99h-2V23Z" fill="#fff" fill-opacity=".9"/><path d="M31 23.99h2V26h-2v-2.01Z" fill="#fff"/></svg>