<svg width="64" height="64" fill="none" xmlns="http://www.w3.org/2000/svg"><path d="M4 30h17v4H4v-4Zm39 0h17v4H43v-4Zm-9 13v17h-4V43h4Zm0-39v17h-4V4h4Z" fill="#000" fill-opacity=".4"/><path d="M31 5h2v1h-2V5Z" fill="#fff" fill-opacity=".4"/><path d="M31 6h2v1h-2V6Z" fill="#fff" fill-opacity=".45"/><path d="M31 7h2v1h-2V7Z" fill="#fff" fill-opacity=".5"/><path d="M31 8h2v1h-2V8Z" fill="#fff" fill-opacity=".55"/><path d="M31 9h2v1h-2V9Z" fill="#fff" fill-opacity=".6"/><path d="M31 10h2v1h-2v-1Z" fill="#fff" fill-opacity=".65"/><path d="M31 11h2v1h-2v-1Z" fill="#fff" fill-opacity=".7"/><path d="M31 12h2v1h-2v-1Z" fill="#fff" fill-opacity=".75"/><path d="M31 13h2v1h-2v-1Z" fill="#fff" fill-opacity=".8"/><path d="M31 14h2v6h-2v-6Z" fill="#fff" fill-opacity=".85"/><path d="M59 31v2h-1v-2h1Z" fill="#fff" fill-opacity=".4"/><path d="M58 31v2h-1v-2h1Z" fill="#fff" fill-opacity=".45"/><path d="M57 31v2h-1v-2h1Z" fill="#fff" fill-opacity=".5"/><path d="M56 31v2h-1v-2h1Z" fill="#fff" fill-opacity=".55"/><path d="M55 31v2h-1v-2h1Z" fill="#fff" fill-opacity=".6"/><path d="M54 31v2h-1v-2h1Z" fill="#fff" fill-opacity=".65"/><path d="M53 31v2h-1v-2h1Z" fill="#fff" fill-opacity=".7"/><path d="M52 31v2h-1v-2h1Z" fill="#fff" fill-opacity=".75"/><path d="M51 31v2h-1v-2h1Z" fill="#fff" fill-opacity=".8"/><path d="M50 31v2h-6v-2h6Z" fill="#fff" fill-opacity=".85"/><path d="M33 59h-2v-1h2v1Z" fill="#fff" fill-opacity=".4"/><path d="M33 58h-2v-1h2v1Z" fill="#fff" fill-opacity=".45"/><path d="M33 57h-2v-1h2v1Z" fill="#fff" fill-opacity=".5"/><path d="M33 56h-2v-1h2v1Z" fill="#fff" fill-opacity=".55"/><path d="M33 55h-2v-1h2v1Z" fill="#fff" fill-opacity=".6"/><path d="M33 54h-2v-1h2v1Z" fill="#fff" fill-opacity=".65"/><path d="M33 53h-2v-1h2v1Z" fill="#fff" fill-opacity=".7"/><path d="M33 52h-2v-1h2v1Z" fill="#fff" fill-opacity=".75"/><path d="M33 51h-2v-1h2v1Z" fill="#fff" fill-opacity=".8"/><path d="M33 50h-2v-6h2v6Z" fill="#fff" fill-opacity=".85"/><path d="M5 33v-2h1v2H5Z" fill="#fff" fill-opacity=".4"/><path d="M6 33v-2h1v2H6Z" fill="#fff" fill-opacity=".45"/><path d="M7 33v-2h1v2H7Z" fill="#fff" fill-opacity=".5"/><path d="M8 33v-2h1v2H8Z" fill="#fff" fill-opacity=".55"/><path d="M9 33v-2h1v2H9Z" fill="#fff" fill-opacity=".6"/><path d="M10 33v-2h1v2h-1Z" fill="#fff" fill-opacity=".65"/><path d="M11 33v-2h1v2h-1Z" fill="#fff" fill-opacity=".7"/><path d="M12 33v-2h1v2h-1Z" fill="#fff" fill-opacity=".75"/><path d="M13 33v-2h1v2h-1Z" fill="#fff" fill-opacity=".8"/><path d="M14 33v-2h6v2h-6Z" fill="#fff" fill-opacity=".85"/></svg>